<svg width="20" height="15" viewBox="0 0 20 15" fill="none" xmlns="http://www.w3.org/2000/svg">
<g clip-path="url(#clip0_3122_25071)">
<rect width="20" height="15" rx="2" fill="white"/>
<path fill-rule="evenodd" clip-rule="evenodd" d="M0 0H20.25V15H0V0Z" fill="#2E42A5"/>
<path fill-rule="evenodd" clip-rule="evenodd" d="M6.25 0H19V15L6.25 0Z" fill="#FECA00"/>
<path fill-rule="evenodd" clip-rule="evenodd" d="M4.44254 1.74612L3.70781 2.1324L3.84813 1.31426L3.25372 0.734853L4.07518 0.615489L4.44254 -0.128876L4.80991 0.615489L5.63136 0.734853L5.03695 1.31426L5.17728 2.1324L4.44254 1.74612Z" fill="#F7FCFF"/>
<path fill-rule="evenodd" clip-rule="evenodd" d="M6.62174 4.4212L5.88701 4.80747L6.02733 3.98934L5.43292 3.40993L6.25438 3.29057L6.62174 2.5462L6.98911 3.29057L7.81056 3.40993L7.21615 3.98934L7.35647 4.80747L6.62174 4.4212Z" fill="#F7FCFF"/>
<path fill-rule="evenodd" clip-rule="evenodd" d="M8.66465 7.02405L7.92992 7.41032L8.07024 6.59218L7.47583 6.01278L8.29728 5.89341L8.66465 5.14905L9.03202 5.89341L9.85347 6.01278L9.25906 6.59218L9.39938 7.41032L8.66465 7.02405Z" fill="#F7FCFF"/>
<path fill-rule="evenodd" clip-rule="evenodd" d="M10.6659 9.51828L9.93114 9.90455L10.0715 9.08642L9.47705 8.50701L10.2985 8.38764L10.6659 7.64328L11.0332 8.38764L11.8547 8.50701L11.2603 9.08642L11.4006 9.90455L10.6659 9.51828Z" fill="#F7FCFF"/>
<path fill-rule="evenodd" clip-rule="evenodd" d="M12.8215 12.0855L12.0868 12.4718L12.2271 11.6536L11.6327 11.0742L12.4541 10.9549L12.8215 10.2105L13.1889 10.9549L14.0103 11.0742L13.4159 11.6536L13.5562 12.4718L12.8215 12.0855Z" fill="#F7FCFF"/>
<path fill-rule="evenodd" clip-rule="evenodd" d="M15.2043 14.5694L14.4696 14.9557L14.6099 14.1376L14.0155 13.5582L14.837 13.4388L15.2043 12.6944L15.5717 13.4388L16.3931 13.5582L15.7987 14.1376L15.9391 14.9557L15.2043 14.5694Z" fill="#F7FCFF"/>
</g>
<defs>
<clipPath id="clip0_3122_25071">
<rect width="20" height="15" rx="2" fill="white"/>
</clipPath>
</defs>
</svg>
