<svg width="20" height="15" viewBox="0 0 20 15" fill="none" xmlns="http://www.w3.org/2000/svg">
<g clip-path="url(#clip0_3122_25115)">
<rect width="20" height="15" rx="2" fill="white"/>
<path fill-rule="evenodd" clip-rule="evenodd" d="M0 0V15H20V0H0Z" fill="#FFD221"/>
<mask id="mask0_3122_25115" style="mask-type:luminance" maskUnits="userSpaceOnUse" x="0" y="0" width="20" height="15">
<path fill-rule="evenodd" clip-rule="evenodd" d="M0 0V15H20V0H0Z" fill="white"/>
</mask>
<g mask="url(#mask0_3122_25115)">
<path d="M-1.91687 6.63451L-0.661876 3.77258L21.1048 13.3176L19.8498 16.1795L-1.91687 6.63451Z" fill="#313131"/>
<path d="M-1.8858 3.48093L-0.631335 0.618774L22.2178 10.6334L20.9633 13.4956L-1.8858 3.48093Z" fill="#FAF9F9"/>
<path fill-rule="evenodd" clip-rule="evenodd" d="M4.58179 7.74832C3.69519 6.66033 3.84341 5.92444 3.84341 5.92444C3.84341 5.92444 4.75076 5.9576 4.74064 6.5427C4.74064 6.78992 5.0661 7.02394 5.34648 7.22556C5.55866 7.37812 5.74502 7.51213 5.74502 7.61926C5.74502 7.86796 5.93228 10.3754 5.93228 10.3754C5.93228 10.3754 5.80149 10.6037 5.17502 10.6037C4.54855 10.6037 4.58179 10.2428 4.58179 10.2428C4.9616 9.7771 4.58179 7.74832 4.58179 7.74832ZM15.4186 7.74832C16.3052 6.66033 16.1569 5.92444 16.1569 5.92444C16.1569 5.92444 15.2496 5.9576 15.2597 6.5427C15.2597 6.78992 14.9343 7.02394 14.6539 7.22556C14.4417 7.37812 14.2553 7.51213 14.2553 7.61926C14.2553 7.86796 14.0681 10.3754 14.0681 10.3754C14.0681 10.3754 14.1989 10.6037 14.8253 10.6037C15.4518 10.6037 15.4186 10.2428 15.4186 10.2428C15.0388 9.7771 15.4186 7.74832 15.4186 7.74832Z" fill="#CF1225"/>
<path fill-rule="evenodd" clip-rule="evenodd" d="M10.0374 1.79672L10.7416 2.29944L10.2801 2.42275L10.7416 2.82163L10.167 2.67607V3.07905H10.7416L10.9337 4.02367L10.7114 3.86596L10.489 4.02367L10.2667 3.86596L10.0444 4.02367L9.81532 3.86596L9.58629 4.02367L9.35724 3.86596L9.12822 4.02367L9.41671 3.07905H9.94835V1.79672H10.0374ZM13.1782 4.96962C13.1782 4.96962 12.9635 5.15938 12.5032 4.96962C12.3494 4.90623 12.1808 4.7954 12.0049 4.67977C11.6543 4.44927 11.2747 4.1997 10.9254 4.26892C10.401 4.37285 10.168 4.62314 10.168 4.62314V4.04667H10.1044H10.0059H9.94234V4.62314C9.94234 4.62314 9.70928 4.37285 9.18485 4.26892C8.8356 4.1997 8.456 4.44927 8.10539 4.67977C7.92951 4.7954 7.76093 4.90623 7.60714 4.96962C7.14676 5.15938 6.93213 4.96962 6.93213 4.96962C6.93213 4.96962 6.93213 5.13026 7.27437 5.37766C7.42285 5.48499 7.59263 5.47726 7.73728 5.43411C7.63016 5.51493 7.57823 5.60989 7.74898 5.68598C8.10287 5.84368 8.68459 5.42853 8.74819 5.38188C8.67732 5.43456 7.97414 5.96335 8.29637 5.96335C8.6355 5.96335 9.18485 5.51898 9.18485 5.51898C9.18485 5.51898 8.51826 6.15856 8.87688 6.25819C9.10515 6.32162 9.37771 5.98897 9.5058 5.79191C9.50992 5.83379 9.5484 5.85943 9.59033 5.88735C9.64406 5.92314 9.70344 5.96269 9.70344 6.04502C9.70344 6.15057 9.72963 6.16868 9.75259 6.18456C9.77051 6.19696 9.78647 6.208 9.78647 6.25819V6.40401L9.70344 6.52646C9.70344 6.52646 9.70344 6.71694 9.78647 6.86834C9.84935 6.98301 9.81698 7.07944 9.76149 7.2447C9.74372 7.29762 9.72358 7.35761 9.70344 7.42751C9.62042 7.71568 9.78647 8.20786 9.78647 8.20786H9.70344C9.70344 8.20786 9.78647 8.26848 9.78647 8.5112C9.78647 8.70884 9.73143 8.82106 9.62747 9.03301C9.60375 9.08137 9.57749 9.13492 9.54875 9.19586C9.39406 9.5239 9.70344 9.94096 9.70344 9.94096C9.70344 9.94096 9.18485 9.71335 9.2888 9.94096C9.36863 10.1158 9.80682 10.2858 10.0059 10.3553V10.3881C10.0059 10.3881 10.0241 10.3825 10.0551 10.3721C10.0862 10.3825 10.1044 10.3881 10.1044 10.3881V10.3553C10.3035 10.2858 10.7417 10.1158 10.8215 9.94096C10.9254 9.71335 10.4068 9.94096 10.4068 9.94096C10.4068 9.94096 10.7162 9.5239 10.5615 9.19586C10.5328 9.13492 10.5065 9.08137 10.4828 9.03301C10.3789 8.82106 10.3238 8.70884 10.3238 8.5112C10.3238 8.26848 10.4068 8.20786 10.4068 8.20786H10.3238C10.3238 8.20786 10.4899 7.71568 10.4068 7.42751C10.3867 7.35761 10.3666 7.29762 10.3488 7.2447C10.2933 7.07944 10.2609 6.98301 10.3238 6.86834C10.4068 6.71694 10.4068 6.52646 10.4068 6.52646L10.3238 6.40401V6.25819C10.3238 6.208 10.3398 6.19696 10.3577 6.18456C10.3807 6.16868 10.4068 6.15057 10.4068 6.04502C10.4068 5.96269 10.4662 5.92314 10.52 5.88735C10.5619 5.85943 10.6004 5.83379 10.6045 5.79191C10.7326 5.98897 11.0051 6.32162 11.2334 6.25819C11.592 6.15856 10.9254 5.51898 10.9254 5.51898C10.9254 5.51898 11.4748 5.96335 11.8139 5.96335C12.1362 5.96335 11.433 5.43456 11.3621 5.38188C11.4257 5.42853 12.0074 5.84368 12.3613 5.68598C12.5321 5.60989 12.4801 5.51493 12.373 5.43411C12.5177 5.47726 12.6874 5.48499 12.8359 5.37766C13.1782 5.13026 13.1782 4.96962 13.1782 4.96962ZM12.0383 5.26115C12.0383 5.26115 12.1842 5.37779 12.373 5.43411C12.245 5.33755 12.0383 5.26115 12.0383 5.26115ZM10.5615 5.68598C10.5053 5.61107 10.5313 5.67939 10.6045 5.79191C10.6071 5.76497 10.5956 5.73131 10.5615 5.68598ZM9.54875 5.68598C9.60498 5.61107 9.57895 5.67939 9.5058 5.79191C9.50315 5.76497 9.51473 5.73131 9.54875 5.68598ZM8.07202 5.26115C8.07202 5.26115 7.92605 5.37779 7.73728 5.43411C7.86526 5.33755 8.07202 5.26115 8.07202 5.26115Z" fill="#CF1225"/>
<path fill-rule="evenodd" clip-rule="evenodd" d="M7.0183 5.9863C7.0183 5.9863 6.27228 7.00106 6.3553 8.0853C6.43832 9.16954 7.32295 11.6922 9.94734 11.6922C9.9699 11.6922 9.99233 11.6915 10.0147 11.6915C12.7955 11.6915 13.5849 8.91014 13.5849 7.90993C13.5849 6.90106 12.9557 5.9863 12.9557 5.9863C12.9557 5.9863 13.0292 7.34005 12.9557 7.90993C12.734 9.629 11.651 10.423 9.99601 10.423C8.33082 10.423 7.30041 9.59898 7.0183 7.90993C6.92709 7.36383 7.0183 5.9863 7.0183 5.9863Z" fill="#CF1225"/>
<path fill-rule="evenodd" clip-rule="evenodd" d="M5.66602 12.3445C5.66602 12.3445 5.80143 11.9567 5.96789 11.9567C6.13435 11.9567 5.6494 11.6202 5.96789 11.525C6.28638 11.4298 6.77648 11.9043 6.77648 11.4298C6.77648 10.9552 6.36201 10.6962 6.66655 10.6962C6.97108 10.6962 7.28881 10.6053 7.28881 10.6053C7.28881 10.6053 8.58453 11.9567 9.88174 11.9567C11.1789 11.9567 12.7389 10.6962 12.7389 10.6962C12.7389 10.6962 13.3138 10.55 13.3138 10.778C13.3138 11.0061 13.1877 11.3503 13.1877 11.3503C13.1877 11.3503 13.5906 11.2709 13.7955 11.3503C14.0005 11.4298 13.7955 11.8097 13.7955 11.8097V11.9567C13.7955 11.9567 14.3288 11.8393 14.3288 12.0494C14.3288 12.2596 14.0714 12.1395 13.5497 12.1995C13.028 12.2596 12.8301 12.6674 12.5023 12.6674C12.1746 12.6674 12.104 12.3445 12.104 12.3445C12.104 12.3445 11.0885 12.895 9.88174 12.895C8.67501 12.895 7.94607 12.3445 7.94607 12.3445C7.94607 12.3445 8.0599 12.9096 7.67436 12.7885C7.28881 12.6674 6.89439 11.8993 6.43114 12.0494C5.96789 12.1995 5.66602 12.3445 5.66602 12.3445Z" fill="#CF1225"/>
<path fill-rule="evenodd" clip-rule="evenodd" d="M7.53869 10.103C7.56151 10.0818 7.58442 10.0581 7.61447 10.0255C7.69958 9.93312 7.72263 9.90865 7.74005 9.89745C7.74355 9.91324 7.74594 9.93905 7.74594 9.97452C7.74594 10.2098 7.75429 10.3875 7.7772 10.5111C7.79353 10.5991 7.81621 10.6561 7.85625 10.6832C7.91477 10.7229 7.97375 10.6884 8.02847 10.6061C8.15365 10.4179 8.38925 10.3947 8.38925 10.4665C8.38925 10.4851 8.38192 10.5053 8.33616 10.6173C8.32825 10.6367 8.32202 10.6524 8.31624 10.6676C8.28411 10.7522 8.26979 10.8134 8.27675 10.8666C8.28715 10.946 8.34569 10.9908 8.44048 10.9908C8.54591 10.9908 8.6152 10.9225 8.69178 10.7881C8.69924 10.775 8.71934 10.7384 8.72785 10.723L8.72789 10.7229L8.7279 10.7229L8.73168 10.716C8.7457 10.6908 8.75596 10.6739 8.76541 10.6607C8.79334 10.6218 8.79942 10.6248 8.86129 10.771C8.87758 10.8095 8.91101 10.8907 8.93996 10.9609L8.94 10.961C8.96288 11.0166 8.98296 11.0653 8.98958 11.0809C9.03021 11.1763 9.05869 11.2327 9.08868 11.2721C9.15757 11.3626 9.23979 11.3618 9.33798 11.2778C9.35742 11.2612 9.37915 11.2448 9.40425 11.2275C9.41731 11.2185 9.44842 11.1985 9.47817 11.1794L9.47823 11.1794L9.47826 11.1793L9.47827 11.1793C9.5065 11.1612 9.53347 11.1438 9.5426 11.1374C9.59957 11.0976 9.62785 11.0663 9.62729 11.0201C9.62659 10.9616 9.5778 10.925 9.48053 10.8888C9.46126 10.8816 9.44632 10.8748 9.43549 10.8699L9.43549 10.8699L9.43547 10.8699C9.4275 10.8662 9.42175 10.8636 9.41813 10.8626C9.42056 10.8622 9.42411 10.8604 9.42968 10.8576L9.43454 10.8551C9.49556 10.8248 9.61874 10.8026 9.72869 10.8026L9.72931 10.8026C9.73444 10.8026 9.73753 10.8026 9.73934 10.8042C9.74206 10.8064 9.74193 10.8121 9.74161 10.8263V10.8263L9.74157 10.8278C9.74083 10.861 9.73366 10.8931 9.70652 10.9949L9.69716 11.0305C9.6664 11.1501 9.65785 11.2225 9.67901 11.2848C9.71002 11.3762 9.79814 11.4079 9.93501 11.3808C10.1202 11.3442 10.2104 11.2706 10.2339 11.1579C10.2398 11.1297 10.241 11.1081 10.2411 11.064C10.2412 10.9914 10.2415 10.9908 10.3036 10.9908C10.3918 10.9908 10.4268 11.0221 10.464 11.1089L10.4772 11.1407C10.5203 11.2448 10.5604 11.29 10.6507 11.29C10.711 11.29 10.753 11.2647 10.7456 11.2062C10.7437 11.1913 10.7386 11.1782 10.7296 11.1598L10.7223 11.1456L10.7094 11.1203C10.6534 11.0056 10.6756 10.9181 10.8683 10.7947C10.9234 10.7594 11.0085 10.6998 11.0822 10.6481C11.1353 10.6109 11.1824 10.5779 11.2082 10.5611C11.2103 10.5768 11.2118 10.5982 11.2132 10.6296L11.2163 10.7118L11.2177 10.7522C11.226 10.9614 11.2695 11.153 11.3329 11.2307C11.4405 11.3625 11.5443 11.2407 11.6149 10.9509C11.6825 10.6737 11.7789 10.4123 11.8729 10.2536C11.919 10.1758 11.9622 10.1271 11.995 10.1122C12.0168 10.1024 12.0322 10.1094 12.0547 10.1504C12.1396 10.3046 12.2703 10.4477 12.3808 10.4902C12.5447 10.5534 12.642 10.4204 12.642 10.1246C12.642 9.87657 12.6822 9.67882 12.7489 9.52624C12.7718 9.47377 12.7961 9.43079 12.8202 9.39669C12.834 9.37713 12.8441 9.36531 12.8489 9.36064L12.7781 9.28461C12.7456 9.31646 12.6999 9.38118 12.6554 9.48325C12.5828 9.6495 12.5395 9.86191 12.5395 10.1246C12.5395 10.3585 12.4935 10.4214 12.4168 10.3918C12.3334 10.3597 12.2181 10.2334 12.1439 10.0987C12.0973 10.0141 12.0282 9.98246 11.9538 10.016C11.897 10.0416 11.8414 10.1043 11.7854 10.199C11.6853 10.3679 11.5854 10.6388 11.5156 10.9254C11.4852 11.0501 11.4536 11.1294 11.4115 11.1632C11.3667 11.1084 11.3275 10.9356 11.3201 10.748L11.3187 10.7088L11.3155 10.6248C11.3138 10.5855 11.3118 10.5596 11.3086 10.5385C11.2982 10.4711 11.2641 10.4314 11.2028 10.4475C11.1788 10.4538 11.0632 10.5341 10.9592 10.6064L10.9592 10.6064C10.9013 10.6467 10.847 10.6844 10.8141 10.7055C10.5757 10.8581 10.5384 11.005 10.6178 11.1674L10.6242 11.18C10.6051 11.1712 10.5919 11.1487 10.5715 11.0995L10.5578 11.0667C10.5059 10.9454 10.4392 10.8856 10.3036 10.8856C10.1732 10.8856 10.1388 10.9404 10.1386 11.0639C10.1385 11.1007 10.1377 11.1171 10.1337 11.1359C10.1198 11.2025 10.0638 11.2483 9.91561 11.2776C9.82302 11.2959 9.78685 11.2829 9.77577 11.2502C9.76385 11.2151 9.77082 11.1562 9.79623 11.0574L9.80535 11.0226C9.83539 10.9099 9.84299 10.876 9.84401 10.8303C9.84577 10.751 9.80697 10.6975 9.72869 10.6975C9.60455 10.6975 9.46676 10.7223 9.38987 10.7605C9.26372 10.8232 9.28872 10.9292 9.44561 10.9876C9.47642 10.9991 9.4968 11.0089 9.50917 11.0148C9.51796 11.019 9.52269 11.0213 9.52424 11.0209C9.52309 11.0211 9.52025 11.0234 9.51541 11.0274C9.50899 11.0326 9.49907 11.0407 9.48495 11.0505C9.4775 11.0557 9.4538 11.071 9.42764 11.0878C9.39666 11.1077 9.36223 11.1298 9.34717 11.1402C9.31932 11.1594 9.2948 11.1779 9.27238 11.1971C9.21508 11.2461 9.19903 11.2462 9.16943 11.2073C9.14637 11.177 9.12077 11.1264 9.08348 11.0388C9.07709 11.0238 9.05746 10.9761 9.03491 10.9214C9.00583 10.8508 8.9719 10.7684 8.95527 10.7291C8.8672 10.521 8.77202 10.4742 8.6829 10.5984C8.67059 10.6156 8.65856 10.6354 8.64274 10.6638L8.63805 10.6723C8.62911 10.6886 8.61018 10.723 8.60333 10.735C8.54393 10.8393 8.4969 10.8856 8.44048 10.8856C8.39392 10.8856 8.38136 10.876 8.3783 10.8526C8.37436 10.8225 8.3856 10.7745 8.4117 10.7058C8.41712 10.6915 8.42306 10.6766 8.43066 10.658C8.48769 10.5183 8.49171 10.5073 8.49171 10.4665C8.49171 10.2533 8.11433 10.2906 7.94385 10.5468C7.92936 10.5686 7.91697 10.5829 7.90787 10.5899C7.89913 10.5764 7.88725 10.542 7.87786 10.4914C7.85653 10.3764 7.8484 10.2033 7.8484 9.97452C7.8484 9.82954 7.80484 9.75285 7.71119 9.79466C7.66884 9.81356 7.66724 9.81517 7.54002 9.95328C7.51161 9.98411 7.49031 10.0061 7.46983 10.0252C7.44331 10.0499 7.42035 10.0674 7.40061 10.0778C7.37153 10.0932 7.36035 10.0837 7.34464 10.0159C7.32835 9.9457 7.32302 9.84655 7.32308 9.68144L7.32327 9.61224L7.32347 9.54095C7.32347 9.42375 7.2921 9.3581 7.21561 9.3581C7.18941 9.3581 7.16311 9.36699 7.12983 9.38393C7.11816 9.38987 7.10596 9.39663 7.0896 9.40606L7.04848 9.42987C6.97794 9.47013 6.9311 9.48838 6.88705 9.48838C6.87883 9.48838 6.87403 9.48968 6.87186 9.49027C6.87099 9.49051 6.87055 9.49063 6.87047 9.49051C6.87039 9.49038 6.87072 9.48998 6.87142 9.48914C6.87331 9.48688 6.87785 9.48144 6.88382 9.4697C6.91291 9.41253 6.99116 9.32026 7.11703 9.19657L7.04616 9.12064C6.91264 9.25185 6.82876 9.35076 6.793 9.42103C6.74354 9.51823 6.78185 9.59352 6.88705 9.59352C6.95353 9.59352 7.01344 9.57018 7.09828 9.52175C7.19646 9.46571 7.20133 9.46324 7.21561 9.46324C7.21564 9.46324 7.22101 9.47449 7.22101 9.54095L7.22081 9.61179L7.22062 9.6814C7.22055 9.85494 7.22616 9.95922 7.24497 10.0403C7.27392 10.1651 7.34482 10.2255 7.44746 10.1713C7.47644 10.156 7.5061 10.1334 7.53869 10.103ZM7.75082 9.89108C7.75157 9.89117 7.75211 9.89117 7.75234 9.89107L7.75082 9.89108ZM9.41505 10.8577C9.41321 10.8564 9.4123 10.8557 9.41227 10.8556C9.4133 10.8599 9.41425 10.8625 9.41586 10.8636L9.41505 10.8577ZM11.2283 10.5494L11.2272 10.5496L11.2279 10.5495L11.2283 10.5494Z" fill="#F6E017"/>
<path fill-rule="evenodd" clip-rule="evenodd" d="M8.64538 12.3439C8.59994 12.4665 8.52824 12.5071 8.44722 12.4458C8.42262 12.4272 8.3987 12.4007 8.36536 12.3578L8.35789 12.348L8.35789 12.348C8.34011 12.3247 8.29595 12.2666 8.2797 12.2464C8.20991 12.1595 8.1498 12.1052 8.0845 12.0773L8.07852 12.0748L8.07852 12.0748C7.99891 12.0409 7.9818 12.0336 7.96502 12.0256L7.94672 12.0167C7.85093 11.97 7.79628 11.9216 7.74367 11.831C7.70252 11.7601 7.66267 11.6641 7.59515 11.4785L7.69114 11.4418C7.75652 11.6215 7.79472 11.7135 7.83169 11.7771C7.8734 11.849 7.91248 11.8836 7.99073 11.9218L8.00709 11.9297C8.02308 11.9373 8.03939 11.9443 8.11821 11.9779L8.11822 11.9779L8.11823 11.9779L8.1238 11.9802C8.20803 12.0161 8.27922 12.0805 8.35874 12.1795C8.37651 12.2016 8.42394 12.264 8.44004 12.2852L8.44004 12.2852L8.44543 12.2922C8.47346 12.3283 8.49272 12.3496 8.50804 12.3612C8.51635 12.3675 8.51683 12.3679 8.51575 12.3686C8.52288 12.3643 8.53552 12.3446 8.54962 12.3065C8.58103 12.2218 8.55346 12.1561 8.47707 12.0877C8.47424 12.0852 8.46643 12.0789 8.45619 12.0707L8.45619 12.0707C8.42691 12.0472 8.37781 12.0079 8.36875 11.9944C8.33962 11.9511 8.36457 11.9071 8.40954 11.8952C8.42979 11.8898 8.45972 11.8878 8.5075 11.8878C8.67294 11.8878 8.71844 11.985 8.74912 12.2335L8.74963 12.2376C8.7738 12.4335 8.79826 12.4873 8.88187 12.4873C8.97619 12.4873 9.03364 12.4497 9.13392 12.3426L9.15589 12.3192C9.28368 12.1831 9.37317 12.1374 9.5235 12.179C9.64359 12.2123 9.69491 12.2713 9.70699 12.3629C9.70833 12.3731 9.70899 12.3804 9.71031 12.3978C9.71617 12.475 9.72979 12.4873 9.87921 12.4873C9.99253 12.4873 10.098 12.4933 10.2356 12.5055L10.2522 12.507L10.2522 12.507C10.2844 12.5099 10.353 12.5161 10.3736 12.5178C10.4184 12.5215 10.4502 12.5233 10.4753 12.5233C10.4932 12.5233 10.507 12.5223 10.5164 12.5207C10.5203 12.4906 10.538 12.4694 10.6098 12.3881C10.6181 12.3787 10.6245 12.3714 10.6305 12.3643C10.664 12.3247 10.6788 12.2982 10.6779 12.294C10.6777 12.2932 10.6477 12.2823 10.5666 12.2823C10.4922 12.2823 10.4549 12.2731 10.4482 12.2206C10.4426 12.1766 10.4679 12.1554 10.5242 12.1254C10.5887 12.0912 10.7062 12.0466 10.8471 12.0017C10.9828 11.9585 11.126 11.9196 11.235 11.8968C11.2939 11.8844 11.3419 11.8769 11.3768 11.8749C11.4434 11.8712 11.483 11.8804 11.483 11.9404C11.483 11.9654 11.5534 12.0513 11.6235 12.0903C11.7072 12.1369 11.7667 12.1192 11.8078 12.0099C11.8677 11.8503 11.9925 11.6779 12.1142 11.5792C12.1795 11.5263 12.2396 11.4978 12.2916 11.5025C12.3618 11.5088 12.3984 11.569 12.3984 11.66H12.296C12.296 11.6174 12.2902 11.6079 12.2826 11.6072C12.2633 11.6055 12.2243 11.6239 12.1777 11.6617C12.0703 11.7488 11.9566 11.9058 11.9034 12.0477C11.8388 12.2197 11.71 12.258 11.5747 12.1828C11.4917 12.1366 11.4124 12.049 11.3881 11.9797C11.3535 11.9816 11.31 11.9884 11.2555 11.9998C11.1502 12.0219 11.0101 12.0599 10.8775 12.1021C10.7897 12.1301 10.7114 12.1579 10.6514 12.1824C10.7246 12.1929 10.7669 12.2201 10.7779 12.2712C10.789 12.3223 10.7641 12.3669 10.7078 12.4333C10.7013 12.441 10.6945 12.4488 10.6857 12.4587C10.6361 12.5149 10.6179 12.5389 10.6179 12.5398C10.6179 12.6093 10.5651 12.6284 10.4753 12.6284C10.4468 12.6284 10.4127 12.6265 10.3654 12.6226C10.3442 12.6209 10.2744 12.6146 10.2425 12.6117L10.2268 12.6102C10.0919 12.5983 9.98906 12.5924 9.87921 12.5924C9.67745 12.5924 9.61827 12.5392 9.60816 12.406C9.60699 12.3906 9.60645 12.3845 9.60545 12.377C9.59895 12.3277 9.57737 12.3028 9.49682 12.2805C9.39173 12.2514 9.33422 12.2808 9.22965 12.3921L9.2078 12.4155C9.08976 12.5415 9.01193 12.5924 8.88187 12.5924C8.73477 12.5924 8.68658 12.5137 8.65603 12.3102C8.65316 12.3212 8.64962 12.3325 8.64538 12.3439ZM8.65395 12.2508L8.65333 12.2467C8.64362 12.1822 8.63365 12.1328 8.62085 12.0954C8.67149 12.1595 8.68916 12.23 8.66377 12.3102C8.66034 12.2915 8.65709 12.2717 8.65395 12.2508ZM10.5282 12.1745L10.5314 12.1755L10.5295 12.1747L10.5282 12.1745ZM10.5263 12.5184L10.5237 12.5193L10.5254 12.5189L10.5263 12.5184Z" fill="#F6E017"/>
</g>
</g>
<defs>
<clipPath id="clip0_3122_25115">
<rect width="20" height="15" rx="2" fill="white"/>
</clipPath>
</defs>
</svg>
