<svg width="20" height="15" viewBox="0 0 20 15" fill="none" xmlns="http://www.w3.org/2000/svg">
<g clip-path="url(#clip0_3122_25420)">
<rect width="20" height="15" rx="2" fill="white"/>
<path fill-rule="evenodd" clip-rule="evenodd" d="M0 0V15H20V0H0Z" fill="#C51918"/>
<mask id="mask0_3122_25420" style="mask-type:luminance" maskUnits="userSpaceOnUse" x="0" y="0" width="20" height="15">
<path fill-rule="evenodd" clip-rule="evenodd" d="M0 0V15H20V0H0Z" fill="white"/>
</mask>
<g mask="url(#mask0_3122_25420)">
<path fill-rule="evenodd" clip-rule="evenodd" d="M8.75 0H11.25V6.25H20V8.75H11.25V15H8.75V8.75H0V6.25H8.75V0Z" fill="#F7FCFF"/>
<rect width="8.75" height="6.25" fill="#4257BF"/>
<rect x="11.25" y="8.75" width="8.75" height="6.25" fill="#4257BF"/>
<path d="M8.52307 6.9442L9.14523 7.00375C9.03874 8.11632 9.17713 8.58511 9.40199 8.58511V9.21011C8.62425 9.21011 8.38407 8.39648 8.52307 6.9442Z" fill="#309404"/>
<path d="M11.5167 6.9442L10.8945 7.00375C11.001 8.11632 10.8626 8.58511 10.6377 8.58511V9.21011C11.4155 9.21011 11.6557 8.39648 11.5167 6.9442Z" fill="#309404"/>
<rect x="9.20453" y="6.68269" width="0.590909" height="0.923077" fill="#003994"/>
<path d="M10.1136 7.77884H10.7046V8.24737C10.7046 8.49841 10.501 8.70192 10.25 8.70192H10.1136V7.77884Z" fill="#003994"/>
<rect x="10.0682" y="6.625" width="0.590909" height="0.923077" fill="#DE2110"/>
<path d="M9.20453 7.77884H9.79544V8.70192H9.65907C9.40804 8.70192 9.20453 8.49841 9.20453 8.24737V7.77884Z" fill="#DE2110"/>
<path d="M8.959 6.63085L8.54095 6.16624C8.98242 5.76902 9.44252 5.5625 9.91637 5.5625C10.3902 5.5625 10.8503 5.76902 11.2918 6.16624L10.8737 6.63085C10.5394 6.33001 10.2219 6.1875 9.91637 6.1875C9.61085 6.1875 9.29335 6.33001 8.959 6.63085Z" fill="#00319C"/>
<path d="M9.00447 9.74623L8.58643 9.28162C9.02789 8.8844 9.48799 8.67788 9.96184 8.67788C10.4357 8.67788 10.8958 8.8844 11.3372 9.28162L10.9192 9.74623C10.5849 9.44539 10.2674 9.30288 9.96184 9.30288C9.65632 9.30288 9.33882 9.44539 9.00447 9.74623Z" fill="#DE2110"/>
</g>
</g>
<defs>
<clipPath id="clip0_3122_25420">
<rect width="20" height="15" rx="2" fill="white"/>
</clipPath>
</defs>
</svg>
