<svg width="20" height="15" viewBox="0 0 20 15" fill="none" xmlns="http://www.w3.org/2000/svg">
<g clip-path="url(#clip0_3122_25438)">
<rect width="20" height="15" rx="2" fill="white"/>
<path fill-rule="evenodd" clip-rule="evenodd" d="M0 0V15H20V0H0Z" fill="#F7FCFF"/>
<mask id="mask0_3122_25438" style="mask-type:luminance" maskUnits="userSpaceOnUse" x="0" y="0" width="20" height="15">
<path fill-rule="evenodd" clip-rule="evenodd" d="M0 0V15H20V0H0Z" fill="white"/>
</mask>
<g mask="url(#mask0_3122_25438)">
<path fill-rule="evenodd" clip-rule="evenodd" d="M0 0V5H20V0H0Z" fill="#BF2714"/>
<path fill-rule="evenodd" clip-rule="evenodd" d="M0 10V15H20V10H0Z" fill="#272727"/>
<path d="M7.6627 6.38764L8.28705 6.41627L8.13033 9.83489L7.50598 9.80627L7.6627 6.38764Z" fill="#C09302"/>
<path d="M8.31505 6.59983L8.93905 6.63511L8.78233 9.40719L8.15833 9.37191L8.31505 6.59983Z" fill="#C09302"/>
<path d="M8.96776 6.80743L9.59066 6.85854L9.43394 8.76855L8.81104 8.71744L8.96776 6.80743Z" fill="#C09302"/>
<path d="M12.3373 6.38764L11.713 6.41627L11.8697 9.83489L12.494 9.80627L12.3373 6.38764Z" fill="#C09302"/>
<path d="M11.685 6.59983L11.061 6.63511L11.2177 9.40719L11.8417 9.37191L11.685 6.59983Z" fill="#C09302"/>
<path d="M11.0322 6.80743L10.4093 6.85854L10.5661 8.76855L11.189 8.71744L11.0322 6.80743Z" fill="#C09302"/>
<path d="M9.98336 9.57918L9.37415 9.4396L9.632 8.31416L10.2412 8.45374L9.98336 9.57918Z" fill="#C09302"/>
<path d="M10.4497 9.57918L11.0589 9.4396L10.801 8.31416L10.1918 8.45374L10.4497 9.57918Z" fill="#C09302"/>
<path d="M10.2951 9.56887H9.6701V8.46391H10.2951V9.56887Z" fill="#C09302"/>
<path d="M9.14673 6.82078L9.77155 6.83611L9.73504 8.32417L9.11023 8.30884L9.14673 6.82078Z" fill="#C09302"/>
<path d="M10.2337 6.82078L10.8585 6.83611L10.822 8.32417L10.1972 8.30884L10.2337 6.82078Z" fill="#C09302"/>
<path d="M8.33624 9.95178L8.49856 9.34822C9.16171 9.52657 9.67091 9.61477 10.0181 9.61477C10.3653 9.61477 10.8745 9.52657 11.5377 9.34822L11.7 9.95178C10.9885 10.1431 10.4306 10.2398 10.0181 10.2398C9.60569 10.2398 9.04773 10.1431 8.33624 9.95178Z" fill="#C09302"/>
<path d="M7.67646 6.38919C7.63479 5.97632 7.87644 5.69683 8.28598 5.73248C8.42064 5.7442 8.57189 5.78403 8.77333 5.85238C8.83219 5.87257 8.83219 5.87257 8.88939 5.89282C9.16632 5.99132 9.24152 6.01664 9.25713 6.01997C9.19577 6.00607 9.3765 5.67934 9.41795 5.62427C9.42286 5.65924 9.40205 5.65427 9.35209 5.64427L8.78832 5.53144L9.18964 5.11972C9.32992 4.9758 9.51673 4.90444 9.72991 4.90444C9.75201 4.90444 9.77263 4.90341 9.84035 4.89925C9.89044 4.8962 9.89044 4.8962 9.94675 4.89387C10.3367 4.88123 10.6164 4.99151 10.6164 5.39254C10.6164 5.53602 10.6345 5.76673 10.6644 5.94177C10.6745 6.00065 10.6939 6.05576 10.6366 6.07996C10.639 6.05908 10.7756 6.00517 10.988 5.91634L11.0135 5.90569C11.6306 5.6481 11.7027 5.6242 11.9016 5.7451C12.0342 5.82567 12.1604 5.97059 12.3019 6.18666L11.779 6.52897C11.6877 6.38961 11.6151 6.30504 11.5805 6.28143C11.6591 6.33605 11.3943 6.42399 11.2542 6.48246L11.2291 6.49295C10.7486 6.6939 10.6853 6.71787 10.5479 6.71787C10.174 6.71787 10.0398 6.3349 10.003 5.78643C9.88766 6.16616 9.54349 6.64538 9.25988 6.64538C9.13573 6.64538 9.19542 6.66502 8.67995 6.48168C8.62594 6.46257 8.62594 6.46257 8.57253 6.44424C8.41637 6.39126 8.30371 6.36154 8.23264 6.3552C8.23557 6.35185 8.24604 6.34059 8.25778 6.33053L7.67646 6.38919Z" fill="#C09302"/>
</g>
</g>
<defs>
<clipPath id="clip0_3122_25438">
<rect width="20" height="15" rx="2" fill="white"/>
</clipPath>
</defs>
</svg>
