<svg width="20" height="15" viewBox="0 0 20 15" fill="none" xmlns="http://www.w3.org/2000/svg">
<g clip-path="url(#clip0_3122_25478)">
<mask id="mask0_3122_25478" style="mask-type:alpha" maskUnits="userSpaceOnUse" x="0" y="0" width="21" height="15">
<path d="M20.3175 0H0V15H20.3175V0Z" fill="white"/>
</mask>
<g mask="url(#mask0_3122_25478)">
<path fill-rule="evenodd" clip-rule="evenodd" d="M0 0V15H20.3174V0H0Z" fill="#F7FCFF"/>
<mask id="mask1_3122_25478" style="mask-type:alpha" maskUnits="userSpaceOnUse" x="0" y="0" width="21" height="15">
<path fill-rule="evenodd" clip-rule="evenodd" d="M0 0V15H20.3174V0H0Z" fill="white"/>
</mask>
<g mask="url(#mask1_3122_25478)">
<path fill-rule="evenodd" clip-rule="evenodd" d="M0 0V15H20.3174V0H0Z" fill="#3D58DB"/>
<path fill-rule="evenodd" clip-rule="evenodd" d="M9.55492 2.21034L9.41238 3.02848L10.1587 2.64221L10.9052 3.02848L10.7627 2.21034L11.3665 1.57125H10.532L10.1587 0.76721L9.78558 1.57125H8.95108L9.55492 2.21034ZM9.55492 13.0659L9.41238 13.8841L10.1587 13.4978L10.9052 13.8841L10.7627 13.0659L11.3665 12.4268H10.532L10.1587 11.6228L9.78558 12.4268H8.95108L9.55492 13.0659ZM3.53832 8.51126L3.68087 7.69312L3.07703 7.05403H3.91153L4.28472 6.24999L4.65792 7.05403H5.49241L4.88856 7.69312L5.03111 8.51126L4.28472 8.12499L3.53832 8.51126ZM4.91132 10.2813L4.76877 11.0995L5.51516 10.7132L6.26155 11.0995L6.11901 10.2813L6.72285 9.64226H5.88836L5.51516 8.83817L5.14197 9.64226H4.30747L4.91132 10.2813ZM14.0631 11.0995L14.2057 10.2813L13.6018 9.64226H14.4364L14.8095 8.83817L15.1827 9.64226H16.0172L15.4133 10.2813L15.556 11.0995L14.8095 10.7132L14.0631 11.0995ZM4.91132 5.03759L4.76877 5.85573L5.51516 5.46946L6.26155 5.85573L6.11901 5.03759L6.72285 4.3985H5.88836L5.51516 3.59446L5.14197 4.3985H4.30747L4.91132 5.03759ZM14.0631 5.85573L14.2057 5.03759L13.6018 4.3985H14.4364L14.8095 3.59446L15.1827 4.3985H16.0172L15.4133 5.03759L15.556 5.85573L14.8095 5.46946L14.0631 5.85573ZM6.76585 12.3637L6.62331 13.1819L7.3697 12.7956L8.11609 13.1819L7.97354 12.3637L8.57739 11.7246H7.7429L7.3697 10.9206L6.9965 11.7246H6.16201L6.76585 12.3637ZM12.2692 13.1819L12.4117 12.3637L11.8079 11.7246H12.6423L13.0156 10.9206L13.3887 11.7246H14.2232L13.6194 12.3637L13.7619 13.1819L13.0156 12.7956L12.2692 13.1819ZM6.62331 3.74008L7.3697 3.35381L8.11609 3.74008L7.97354 2.92195L8.57739 2.28286H7.7429L7.3697 1.47881L6.9965 2.28286H6.16201L6.76585 2.92195L6.62331 3.74008ZM12.2692 3.74008L12.4117 2.92195L11.8079 2.28286H12.6423L13.0156 1.47881L13.3887 2.28286H14.2232L13.6194 2.92195L13.7619 3.74008L13.0156 3.35381L12.2692 3.74008ZM15.3804 7.61923L15.2379 8.43736L15.9843 8.05109L16.7307 8.43736L16.5881 7.61923L17.1919 6.98014H16.3575L15.9843 6.17609L15.6111 6.98014H14.7766L15.3804 7.61923Z" fill="#FFD018"/>
</g>
</g>
</g>
<defs>
<clipPath id="clip0_3122_25478">
<rect width="20" height="15" rx="2" fill="white"/>
</clipPath>
</defs>
</svg>
