<svg width="20" height="15" viewBox="0 0 20 15" fill="none" xmlns="http://www.w3.org/2000/svg">
<g clip-path="url(#clip0_3123_141)">
<rect width="20" height="15" rx="2" fill="white"/>
<rect width="20" height="15" fill="#F7FCFF"/>
<path fill-rule="evenodd" clip-rule="evenodd" d="M0 10H20V15H0V10Z" fill="#C51918"/>
<path fill-rule="evenodd" clip-rule="evenodd" d="M9.83769 2.04166H8.91663V2.95833H9.37126L9.33883 5.47916H7.99558V4.33333H8.45611V3.41666H7.53505V3.875H7.07453V3.41666H6.15348V4.33333H6.614V5.47916H5.64282V6.39583L6.10335 6.39583V9.14583H5.64282V10.0625H14.3928V9.14583H13.4718V6.39583L14.3928 6.39583V5.47916H13.49L13.5128 4.33333H13.9824V3.41666H13.0614V3.875H12.6008V3.41666H11.6798V4.33333H12.1312L12.1084 5.47916H10.7204L10.7528 2.95833H11.2193V2.04166H10.2982V2.5H9.83769V2.04166Z" fill="#DB000B"/>
<path d="M7.13159 5.48026C7.13159 5.35309 7.23468 5.25 7.36185 5.25V5.25C7.48903 5.25 7.59212 5.35309 7.59212 5.48026V6.625H7.13159V5.48026Z" fill="#272727"/>
<path fill-rule="evenodd" clip-rule="evenodd" d="M6.75989 8.55645C6.75989 8.17494 7.06916 7.86566 7.45068 7.86566V7.86566C7.83219 7.86566 8.14147 8.17494 8.14147 8.55645V9.69899H6.75989V8.55645Z" fill="#272727"/>
<path fill-rule="evenodd" clip-rule="evenodd" d="M11.8257 8.55645C11.8257 8.17494 12.135 7.86566 12.5165 7.86566V7.86566C12.898 7.86566 13.2073 8.17494 13.2073 8.55645V9.69899H11.8257V8.55645Z" fill="#272727"/>
<path fill-rule="evenodd" clip-rule="evenodd" d="M9.0625 8.32837C9.0625 7.81969 9.47487 7.40732 9.98355 7.40732V7.40732C10.4922 7.40732 10.9046 7.81969 10.9046 8.32837V10.1573H9.0625V8.32837Z" fill="#272727"/>
<path d="M9.89471 5.48026C9.89471 5.35309 9.99781 5.25 10.125 5.25V5.25C10.2521 5.25 10.3552 5.35309 10.3552 5.48026V6.625H9.89471V5.48026Z" fill="#272727"/>
<path d="M12.6579 5.48026C12.6579 5.35309 12.761 5.25 12.8882 5.25V5.25C13.0153 5.25 13.1184 5.35309 13.1184 5.48026V6.625H12.6579V5.48026Z" fill="#272727"/>
<path fill-rule="evenodd" clip-rule="evenodd" d="M10.3264 9.4983L10.2134 9.70577L10.003 9.39175L8.27869 10.5473L10.2011 11.4622L11.8966 10.3535L10.3264 9.4983ZM9.5391 10.455L10.0938 10.0833L10.6798 10.4025L10.1528 10.7471L9.5391 10.455Z" fill="#E8AA00"/>
<path fill-rule="evenodd" clip-rule="evenodd" d="M8.97363 12.8333H9.89469V13.75H8.97363V12.8333Z" fill="#E8AA00"/>
<path fill-rule="evenodd" clip-rule="evenodd" d="M9.5 11.25H10.593V13.75H9.5V11.25Z" fill="#E8AA00"/>
</g>
<defs>
<clipPath id="clip0_3123_141">
<rect width="20" height="15" rx="2" fill="white"/>
</clipPath>
</defs>
</svg>
