<svg width="20" height="15" viewBox="0 0 20 15" fill="none" xmlns="http://www.w3.org/2000/svg">
<g clip-path="url(#clip0_3123_382)">
<rect width="20" height="15" rx="2" fill="white"/>
<path fill-rule="evenodd" clip-rule="evenodd" d="M0 0V15H20V0H0Z" fill="#E31D1C"/>
<mask id="mask0_3123_382" style="mask-type:luminance" maskUnits="userSpaceOnUse" x="0" y="0" width="20" height="15">
<path fill-rule="evenodd" clip-rule="evenodd" d="M0 0V15H20V0H0Z" fill="white"/>
</mask>
<g mask="url(#mask0_3123_382)">
<path fill-rule="evenodd" clip-rule="evenodd" d="M3.80843 2.58813C3.80362 2.53031 3.87282 2.50227 3.91195 2.54511C4.19266 2.85239 4.93456 3.61738 5.36362 3.61738C5.9005 3.61738 8.00899 1.84072 8.63221 2.13014C9.25543 2.41956 10.5172 5.44558 10.5172 5.44558L9.69497 6.477L8.63221 5.89723L8.43135 3.61738C8.43135 3.61738 6.38569 4.66955 5.36362 4.28763L4.78907 4.77042C4.78907 4.77042 4.23576 3.6748 4.01787 3.33969C3.87371 3.11796 3.82493 2.78682 3.80843 2.58813Z" fill="#F7FCFF"/>
<path fill-rule="evenodd" clip-rule="evenodd" d="M5.16366 5.07779L4.81379 5.28977L4.88061 4.84079L4.59755 4.52283L4.98872 4.45732L5.16366 4.04883L5.33859 4.45732L5.72976 4.52283L5.44671 4.84079L5.51353 5.28977L5.16366 5.07779Z" fill="#FECA00"/>
<path fill-rule="evenodd" clip-rule="evenodd" d="M8.13287 2.37001C8.13287 2.24481 8.23437 2.14331 8.35957 2.14331V2.14331C8.48477 2.14331 8.58626 2.24481 8.58626 2.37001V3.44101C8.58626 3.56621 8.48477 3.6677 8.35957 3.6677V3.6677C8.23437 3.6677 8.13287 3.56621 8.13287 3.44101L8.13287 2.37001Z" fill="#FECA00"/>
<path fill-rule="evenodd" clip-rule="evenodd" d="M15.7626 3.18965C15.8142 3.21622 15.8013 3.28975 15.7442 3.30024C15.3349 3.37546 14.293 3.59925 14.0656 3.9631C13.7811 4.4184 14.1705 7.14799 13.5948 7.52314C13.0191 7.8983 9.78421 7.36483 9.78421 7.36483L9.34525 6.12093L10.4001 5.52689L12.44 6.56469C12.44 6.56469 12.6317 4.27231 13.4972 3.60792L13.3922 2.86484C13.3922 2.86484 14.6146 2.9762 15.0142 2.969C15.2787 2.96424 15.5853 3.09835 15.7626 3.18965Z" fill="#F7FCFF"/>
<path fill-rule="evenodd" clip-rule="evenodd" d="M12.9331 3.0197L12.9388 2.61066L13.2841 2.90525L13.7037 2.83371L13.552 3.20015L13.8057 3.56497L13.3666 3.49686L13.1038 3.79388L12.9841 3.38534L12.5679 3.20408L12.9331 3.0197Z" fill="#FECA00"/>
<path fill-rule="evenodd" clip-rule="evenodd" d="M13.6964 7.00304C13.8086 7.07267 13.8455 7.21879 13.7796 7.33331V7.33331C13.7089 7.45615 13.5491 7.49357 13.4313 7.41486L12.4634 6.76844C12.3766 6.71043 12.341 6.60035 12.3774 6.50247V6.50247C12.427 6.3691 12.5864 6.3146 12.7073 6.3896L13.6964 7.00304Z" fill="#FECA00"/>
<path fill-rule="evenodd" clip-rule="evenodd" d="M9.28904 13.1148C9.24023 13.1462 9.18299 13.0983 9.20245 13.0436C9.34198 12.6515 9.66912 11.6373 9.46769 11.2585C9.21564 10.7844 6.65707 9.75681 6.62003 9.07067C6.58298 8.38452 8.66242 5.84978 8.66242 5.84978L9.95914 6.09158L9.94617 7.30213L8.02747 8.5498C8.02747 8.5498 9.91687 9.86205 10.0595 10.9438L10.7555 11.2244C10.7555 11.2244 10.0479 12.2273 9.85429 12.577C9.7262 12.8084 9.45672 13.007 9.28904 13.1148Z" fill="#F7FCFF"/>
<path fill-rule="evenodd" clip-rule="evenodd" d="M10.851 10.7494L11.2024 10.9588L10.7746 11.1105L10.6268 11.5097L10.3853 11.1951L9.94248 11.2324L10.221 10.8862L10.0952 10.5101L10.5089 10.6107L10.8739 10.3409L10.851 10.7494Z" fill="#FECA00"/>
<path fill-rule="evenodd" clip-rule="evenodd" d="M6.93961 9.34825C6.80019 9.40147 6.64515 9.32362 6.60455 9.18002V9.18002C6.56896 9.05413 6.63479 8.9218 6.75666 8.87424L7.79934 8.46736C7.91519 8.42215 8.04681 8.46594 8.11248 8.57155V8.57155C8.1982 8.70941 8.13695 8.89124 7.98528 8.94913L6.93961 9.34825Z" fill="#FECA00"/>
<path d="M8.5391 6.10309C8.46132 6.07591 8.41977 5.98928 8.4463 5.9096C8.47284 5.82991 8.59745 5.69682 8.67524 5.724L9.76011 6.10309C9.81608 6.12265 9.85543 6.1743 9.86036 6.23468L9.95737 7.42458C9.96421 7.50848 9.84201 7.57635 9.76011 7.58336C9.67821 7.59036 9.60627 7.52803 9.59943 7.44413L9.5096 6.42085L8.5391 6.10309Z" fill="#FECA00"/>
<path d="M10.4253 5.4797C10.4901 5.42797 10.6059 5.48792 10.6564 5.55435C10.7069 5.62077 10.6953 5.71656 10.6304 5.76828L9.87893 6.53854C9.81409 6.59026 9.66825 6.48937 9.61776 6.42294C9.56727 6.35652 9.55291 6.17556 9.61776 6.12384L10.4253 5.4797Z" fill="#FECA00"/>
</g>
</g>
<defs>
<clipPath id="clip0_3123_382">
<rect width="20" height="15" rx="2" fill="white"/>
</clipPath>
</defs>
</svg>
