<svg width="20" height="15" viewBox="0 0 20 15" fill="none" xmlns="http://www.w3.org/2000/svg">
<g clip-path="url(#clip0_3123_427)">
<rect width="20" height="15" rx="2" fill="white"/>
<path fill-rule="evenodd" clip-rule="evenodd" d="M0 0H20V15H0V0Z" fill="#F7FCFF"/>
<path d="M-1.68841 0.777984L-2.96875 0.00379562V1.5V14V15.4962L-1.68841 14.722L8.6477 8.47202L9.84175 7.75L8.6477 7.02798L-1.68841 0.777984Z" fill="#F7FCFF" stroke="#E31D1C" stroke-width="1.6875"/>
<path d="M21.8255 0.77037L23.093 0.0342646V1.5V14V15.4657L21.8255 14.7296L11.0638 8.47963L9.80742 7.75L11.0638 7.02037L21.8255 0.77037Z" fill="#F7FCFF" stroke="#E31D1C" stroke-width="1.6875"/>
<path fill-rule="evenodd" clip-rule="evenodd" d="M8.54673 2.93939C8.54673 2.93939 8.01008 5.31334 9.86304 6.22509C9.86304 6.22509 11.6419 5.25551 11.2424 2.93939C11.2424 2.93939 10.4784 2.68384 9.87093 2.68384C9.26346 2.68384 8.54673 2.93939 8.54673 2.93939Z" fill="#E31D1C"/>
<path fill-rule="evenodd" clip-rule="evenodd" d="M8.73906 3.43661C8.73906 3.43661 8.93724 3.34887 9.03534 3.43661C9.13344 3.52435 9.21382 3.42934 9.21382 3.37642C9.21382 3.32349 9.36959 3.1418 9.36959 3.28921C9.36959 3.43661 9.3211 3.51984 9.45802 3.51984C9.59494 3.51984 10.2115 3.31622 10.3593 3.37642C10.5072 3.43661 10.6203 3.42164 10.5827 3.33527C10.5451 3.2489 10.4486 3.19492 10.2626 3.24206C10.0766 3.28921 10.1205 3.33527 9.95971 3.33527C9.79897 3.33527 9.62005 3.28921 9.62005 3.28921C9.62005 3.28921 9.67031 3.21175 9.85383 3.26685C10.0374 3.32194 10.2905 3.19862 10.3593 3.19862C10.4282 3.19862 10.6176 3.19492 10.6364 3.24206C10.6552 3.28921 10.7696 3.33247 10.6824 3.37642C10.5952 3.42036 10.4514 3.44789 10.5503 3.5042C10.6493 3.56051 10.8768 3.54966 10.8878 3.60823C10.8987 3.6668 11.0066 3.75427 10.9633 3.75427C10.92 3.75427 10.8418 3.83675 10.769 3.81164C10.6961 3.78652 10.6876 3.76447 10.7574 3.74412C10.8272 3.72377 10.8266 3.63821 10.769 3.63821C10.7114 3.63821 10.7395 3.66819 10.6083 3.63821C10.4772 3.60823 10.3036 3.5749 10.314 3.63821C10.3245 3.70151 10.4099 3.79869 10.2523 3.81164C10.0948 3.82459 10.021 3.87658 9.99038 3.83471C9.95971 3.79284 9.85011 3.73705 9.9363 3.71915C10.0225 3.70126 10.1048 3.77997 10.1359 3.76712C10.1669 3.75427 10.2373 3.74711 10.1783 3.69266C10.1194 3.63821 10.0223 3.60615 10.1123 3.56539C10.2024 3.52464 10.1313 3.5238 9.95971 3.60823C9.7881 3.69266 9.69265 3.76441 9.54199 3.75427C9.39133 3.74412 9.3349 3.75781 9.28647 3.74412C9.23805 3.73043 9.00221 3.89534 8.93429 3.85349C8.86638 3.81164 8.64713 3.79558 8.6866 3.74412C8.72607 3.69266 8.77906 3.66617 8.83808 3.69266C8.8971 3.71915 8.95574 3.74565 8.99554 3.71915C9.03534 3.69266 9.15028 3.60175 9.12137 3.58357C9.09246 3.56539 9.12042 3.5042 8.95673 3.5042C8.79304 3.5042 8.73549 3.5724 8.69663 3.52943C8.65777 3.48646 8.73906 3.43661 8.73906 3.43661Z" fill="#FFD100"/>
<path fill-rule="evenodd" clip-rule="evenodd" d="M8.90262 4.21668C8.90262 4.21668 9.07685 4.13955 9.1631 4.21668C9.24935 4.29382 9.32001 4.21029 9.32001 4.16376C9.32001 4.11723 9.45696 3.9575 9.45696 4.08709C9.45696 4.21668 9.41433 4.28985 9.53471 4.28985C9.65508 4.28985 10.1971 4.11084 10.3271 4.16376C10.4571 4.21668 10.5565 4.20352 10.5235 4.12759C10.4905 4.05165 10.4055 4.0042 10.242 4.04564C10.0785 4.08709 10.1171 4.12759 9.97578 4.12759C9.83445 4.12759 9.67716 4.08709 9.67716 4.08709C9.67716 4.08709 9.72135 4.01899 9.88269 4.06743C10.044 4.11587 10.2666 4.00744 10.3271 4.00744C10.3876 4.00744 10.5542 4.0042 10.5707 4.04564C10.5872 4.08709 10.6878 4.12512 10.6111 4.16376C10.5345 4.2024 10.4081 4.2266 10.495 4.27611C10.582 4.32561 10.782 4.31607 10.7917 4.36756C10.8013 4.41906 10.8961 4.49595 10.8581 4.49595C10.82 4.49595 10.7513 4.56847 10.6872 4.54639C10.6232 4.52431 10.6157 4.50492 10.6771 4.48703C10.7385 4.46914 10.7379 4.39392 10.6872 4.39392C10.6366 4.39392 10.6613 4.42027 10.546 4.39392C10.4307 4.36756 10.2781 4.33826 10.2873 4.39392C10.2965 4.44957 10.3715 4.53501 10.233 4.54639C10.0945 4.55778 10.0297 4.60349 10.0027 4.56668C9.97578 4.52986 9.87942 4.48081 9.95519 4.46508C10.031 4.44935 10.1034 4.51855 10.1307 4.50725C10.1579 4.49595 10.2198 4.48966 10.168 4.44179C10.1162 4.39392 10.0308 4.36573 10.11 4.3299C10.1891 4.29407 10.1267 4.29333 9.97578 4.36756C9.8249 4.44179 9.74098 4.50487 9.60853 4.49595C9.47607 4.48703 9.42646 4.49906 9.38389 4.48703C9.34132 4.475 9.13397 4.61998 9.07426 4.58318C9.01456 4.54639 8.8218 4.53227 8.8565 4.48703C8.8912 4.44179 8.93779 4.4185 8.98968 4.44179C9.04156 4.46508 9.09312 4.48838 9.12811 4.46508C9.1631 4.44179 9.26415 4.36186 9.23873 4.34588C9.21332 4.3299 9.2379 4.27611 9.09399 4.27611C8.95008 4.27611 8.89948 4.33606 8.86532 4.29828C8.83116 4.26051 8.90262 4.21668 8.90262 4.21668Z" fill="#FFD100"/>
<path fill-rule="evenodd" clip-rule="evenodd" d="M9.13394 5.00844C9.13394 5.00844 9.26606 4.94995 9.33146 5.00844C9.39686 5.06693 9.45045 5.00359 9.45045 4.96831C9.45045 4.93303 9.5543 4.8119 9.5543 4.91017C9.5543 5.00844 9.52197 5.06392 9.61325 5.06392C9.70453 5.06392 10.1156 4.92818 10.2141 4.96831C10.3127 5.00844 10.3881 4.99846 10.3631 4.94088C10.338 4.8833 10.2736 4.84731 10.1496 4.87874C10.0256 4.91017 10.0549 4.94088 9.94771 4.94088C9.84055 4.94088 9.72127 4.91017 9.72127 4.91017C9.72127 4.91017 9.75478 4.85853 9.87712 4.89526C9.99947 4.93199 10.1682 4.84978 10.2141 4.84978C10.26 4.84978 10.3863 4.84731 10.3989 4.87874C10.4114 4.91017 10.4876 4.93901 10.4295 4.96831C10.3714 4.99761 10.2755 5.01596 10.3415 5.0535C10.4074 5.09104 10.5591 5.08381 10.5664 5.12285C10.5737 5.1619 10.6456 5.22021 10.6168 5.22021C10.5879 5.22021 10.5358 5.2752 10.4872 5.25846C10.4387 5.24171 10.4329 5.22701 10.4795 5.21345C10.5261 5.19988 10.5256 5.14284 10.4872 5.14284C10.4488 5.14284 10.4676 5.16282 10.3801 5.14284C10.2927 5.12285 10.177 5.10064 10.1839 5.14284C10.1909 5.18504 10.2478 5.24982 10.1428 5.25846C10.0378 5.26709 9.9886 5.30176 9.96815 5.27384C9.94771 5.24593 9.87465 5.20873 9.9321 5.1968C9.98956 5.18488 10.0445 5.23734 10.0652 5.22878C10.0858 5.22021 10.1328 5.21544 10.0935 5.17914C10.0542 5.14284 9.98941 5.12147 10.0495 5.0943C10.1095 5.06712 10.0621 5.06657 9.94771 5.12285C9.8333 5.17914 9.76967 5.22697 9.66923 5.22021C9.56879 5.21345 9.53117 5.22257 9.49888 5.21345C9.4666 5.20432 9.30937 5.31426 9.2641 5.28636C9.21882 5.25846 9.07266 5.24775 9.09897 5.21345C9.12528 5.17914 9.16061 5.16148 9.19995 5.17914C9.2393 5.1968 9.2784 5.21447 9.30493 5.1968C9.33146 5.17914 9.40809 5.11853 9.38881 5.10641C9.36954 5.0943 9.38818 5.0535 9.27906 5.0535C9.16993 5.0535 9.13156 5.09897 9.10566 5.07032C9.07975 5.04167 9.13394 5.00844 9.13394 5.00844Z" fill="#FFD100"/>
</g>
<defs>
<clipPath id="clip0_3123_427">
<rect width="20" height="15" rx="2" fill="white"/>
</clipPath>
</defs>
</svg>
