<svg width="20" height="15" viewBox="0 0 20 15" fill="none" xmlns="http://www.w3.org/2000/svg">
<g clip-path="url(#clip0_3122_25143)">
<rect width="20" height="15" rx="2" fill="white"/>
<path d="M0 0H20V15H0V0Z" fill="#032EA1"/>
<path d="M0 3.75H20V11.25H0V3.75Z" fill="#E00025"/>
<path d="M7.88751 7.06876H12.155V8.71126H7.88751V7.06876Z" fill="white" stroke="black" stroke-width="0.03" stroke-linejoin="bevel"/>
<path d="M7.88751 7.15125H12.155V7.3125H7.88751V7.15125Z" fill="white" stroke="black" stroke-width="0.03" stroke-linejoin="bevel"/>
<path d="M6.21875 8.79375C6.29716 8.75106 6.35622 8.67993 6.38375 8.595H13.625C13.6525 8.67993 13.7116 8.75106 13.79 8.79375H6.21875Z" fill="white" stroke="black" stroke-width="0.03"/>
<path fill-rule="evenodd" clip-rule="evenodd" d="M9.99874 4.41C9.90874 4.41375 9.91249 4.5675 9.91249 4.5675H10.0812C10.0812 4.5675 10.085 4.41 9.99874 4.41ZM9.44374 6.405V6.61125H10.5537V6.405C10.5558 6.34854 10.586 6.32027 10.6135 6.29454C10.6371 6.27242 10.6587 6.25217 10.6587 6.2175C10.6587 6.2175 10.6737 6.105 10.64 6.0525C10.6025 6.2025 10.5275 6.17625 10.5275 6.1125C10.5275 6.06688 10.5586 6.02125 10.6234 5.92639L10.655 5.88C10.685 5.835 10.6662 5.70375 10.6287 5.655C10.6137 5.77125 10.595 5.82375 10.5462 5.82375C10.5162 5.82375 10.49 5.805 10.49 5.74875C10.49 5.70305 10.5095 5.67127 10.5298 5.63815C10.5428 5.61691 10.5562 5.59512 10.565 5.56875C10.5924 5.50086 10.5777 5.42325 10.5275 5.37C10.5242 5.38973 10.5216 5.40738 10.5193 5.42308L10.5193 5.42309C10.5084 5.4969 10.5039 5.5275 10.4637 5.5275C10.3694 5.49954 10.4509 5.3673 10.4807 5.31911L10.4862 5.31C10.505 5.23875 10.4487 5.1825 10.4487 5.1825C10.4187 5.28 10.4112 5.29125 10.3737 5.28C10.3287 5.26875 10.3362 5.205 10.3887 5.1525C10.4225 5.11875 10.4187 5.06625 10.3812 5.02875C10.3437 5.10375 10.2837 5.0925 10.2912 5.0475L10.325 4.88625L10.28 4.88625L10.295 4.77H10.239L10.25 4.6725H9.74374L9.75105 4.77H9.69874L9.71374 4.88625L9.67249 4.88625L9.70249 5.05125C9.69874 5.09625 9.65374 5.1 9.61624 5.02875C9.57874 5.06625 9.57499 5.115 9.60874 5.1525C9.66124 5.205 9.66874 5.26875 9.62374 5.28C9.58624 5.29125 9.57874 5.28375 9.54874 5.1825C9.54874 5.1825 9.48874 5.26875 9.51124 5.31L9.5177 5.32049C9.54812 5.36934 9.6272 5.49635 9.53374 5.5275C9.49354 5.5275 9.48904 5.4969 9.47818 5.42309C9.47587 5.40739 9.47328 5.38973 9.46999 5.37C9.41847 5.42244 9.40234 5.50015 9.42874 5.56875C9.43826 5.59324 9.45075 5.61378 9.46279 5.6336C9.48394 5.6684 9.50374 5.70096 9.50374 5.74875C9.50374 5.805 9.48124 5.82375 9.45124 5.82375C9.40249 5.82375 9.38374 5.7675 9.36874 5.655C9.33124 5.70375 9.31249 5.835 9.34249 5.87625L9.36164 5.90535C9.43432 6.01563 9.46624 6.06407 9.46624 6.1125C9.46624 6.17625 9.39499 6.2025 9.35374 6.0525C9.32374 6.105 9.33874 6.2175 9.33874 6.2175C9.33874 6.25186 9.36077 6.27205 9.38464 6.29393C9.4129 6.31983 9.44374 6.3481 9.44374 6.405ZM9.75105 4.77L9.75124 4.7725H10.2387L10.239 4.77H9.75105ZM9.83749 4.67125L9.82624 4.57125H10.1637L10.16 4.67125H9.83749ZM10.8875 8.60625C10.8875 8.685 11 8.7675 11.075 8.79375H8.95624C9.03124 8.7675 9.10624 8.685 9.10624 8.60625V7.695L9.01249 7.5675H10.985L10.8875 7.695V8.60625Z" fill="white"/>
<path d="M9.91249 4.5675L9.89749 4.56787L9.89785 4.5825H9.91249V4.5675ZM9.99874 4.41V4.39499L9.99811 4.39502L9.99874 4.41ZM10.0812 4.5675V4.5825H10.0959L10.0962 4.56786L10.0812 4.5675ZM9.44374 6.61125H9.42874V6.62625H9.44374V6.61125ZM10.5537 6.61125V6.62625H10.5687V6.61125H10.5537ZM10.5537 6.405L10.5387 6.40447V6.405H10.5537ZM10.6135 6.29454L10.6237 6.30549L10.6135 6.29454ZM10.6587 6.2175L10.6437 6.2155V6.2175H10.6587ZM10.64 6.0525L10.6526 6.04439L10.6338 6.01521L10.6254 6.04887L10.64 6.0525ZM10.6234 5.92639L10.6358 5.93485L10.6358 5.93483L10.6234 5.92639ZM10.655 5.88L10.6674 5.88844L10.6675 5.88832L10.655 5.88ZM10.6287 5.655L10.6406 5.64586L10.6185 5.6171L10.6139 5.65308L10.6287 5.655ZM10.5298 5.63815L10.5426 5.64599H10.5426L10.5298 5.63815ZM10.565 5.56875L10.551 5.56314L10.5508 5.56401L10.565 5.56875ZM10.5275 5.37L10.5384 5.35971L10.5177 5.33772L10.5127 5.36754L10.5275 5.37ZM10.5193 5.42308L10.5341 5.42545L10.5341 5.42526L10.5193 5.42308ZM10.5193 5.42309L10.5045 5.42072L10.5045 5.4209L10.5193 5.42309ZM10.4637 5.5275L10.4593 5.5425H10.4637V5.5275ZM10.4807 5.31911L10.4934 5.32699L10.4935 5.32695L10.4807 5.31911ZM10.4862 5.31L10.4996 5.31818L10.5007 5.31382L10.4862 5.31ZM10.4487 5.1825L10.4593 5.1719L10.4417 5.15428L10.4344 5.17809L10.4487 5.1825ZM10.3737 5.28L10.3781 5.26562L10.3774 5.26545L10.3737 5.28ZM10.3887 5.1525L10.3993 5.16311L10.3887 5.1525ZM10.3812 5.02875L10.3918 5.01815L10.3771 5.00343L10.3678 5.02205L10.3812 5.02875ZM10.2912 5.0475L10.2765 5.04443L10.2764 5.04504L10.2912 5.0475ZM10.325 4.88625L10.3397 4.88933L10.3435 4.87125L10.325 4.87125V4.88625ZM10.28 4.88625L10.2651 4.88433L10.2629 4.90125L10.28 4.90125V4.88625ZM10.295 4.77L10.3099 4.77192L10.312 4.755H10.295V4.77ZM10.25 4.6725L10.2649 4.67418L10.2668 4.6575H10.25V4.6725ZM9.74374 4.6725V4.6575H9.72757L9.72878 4.67363L9.74374 4.6725ZM9.69874 4.77V4.755H9.68168L9.68386 4.77192L9.69874 4.77ZM9.71374 4.88625V4.90125L9.7308 4.90125L9.72861 4.88433L9.71374 4.88625ZM9.67249 4.88625V4.87125L9.65451 4.87125L9.65773 4.88894L9.67249 4.88625ZM9.70249 5.05125L9.71797 5.05254L9.71725 5.04857L9.70249 5.05125ZM9.61624 5.02875L9.62951 5.02177L9.62003 5.00375L9.60563 5.01815L9.61624 5.02875ZM9.60874 5.1525L9.59757 5.16255L9.59813 5.16311L9.60874 5.1525ZM9.62374 5.28L9.6201 5.26544L9.61943 5.26564L9.62374 5.28ZM9.54874 5.1825L9.56312 5.17824L9.55425 5.14831L9.53642 5.17394L9.54874 5.1825ZM9.51124 5.31L9.49805 5.3172L9.49847 5.31787L9.51124 5.31ZM9.5177 5.32049L9.50493 5.32836L9.50497 5.32842L9.5177 5.32049ZM9.53374 5.5275V5.54332L9.53848 5.54173L9.53374 5.5275ZM9.47818 5.42309L9.46334 5.42527L9.47818 5.42309ZM9.46999 5.37L9.48478 5.36754L9.47994 5.33847L9.45929 5.35949L9.46999 5.37ZM9.42874 5.56875L9.41474 5.57414L9.41476 5.57419L9.42874 5.56875ZM9.46279 5.6336L9.47561 5.62581L9.46279 5.6336ZM9.36874 5.655L9.38361 5.65302L9.37884 5.61727L9.35685 5.64586L9.36874 5.655ZM9.34249 5.87625L9.35503 5.868L9.35462 5.86743L9.34249 5.87625ZM9.36164 5.90535L9.34912 5.9136L9.34912 5.91361L9.36164 5.90535ZM9.35374 6.0525L9.3682 6.04853L9.35863 6.01371L9.34071 6.04506L9.35374 6.0525ZM9.33874 6.2175H9.35387L9.35361 6.21552L9.33874 6.2175ZM9.38464 6.29393L9.37451 6.30499H9.37451L9.38464 6.29393ZM9.75124 4.7725L9.73628 4.77363L9.73732 4.7875H9.75124V4.7725ZM10.2387 4.7725V4.7875H10.2521L10.2536 4.77418L10.2387 4.7725ZM9.82624 4.57125V4.55625H9.80946L9.81133 4.57293L9.82624 4.57125ZM9.83749 4.67125L9.82258 4.67293L9.82408 4.68625H9.83749V4.67125ZM10.1637 4.57125L10.1787 4.57182L10.1793 4.55625H10.1637V4.57125ZM10.16 4.67125V4.68625H10.1744L10.175 4.67182L10.16 4.67125ZM11.075 8.79375V8.80875L11.0799 8.7796L11.075 8.79375ZM8.95624 8.79375L8.95128 8.7796L8.95624 8.80875V8.79375ZM9.10624 7.695H9.12486L9.11832 7.68612L9.10624 7.695ZM9.01249 7.5675V7.5525H8.98284L9.0004 7.57639L9.01249 7.5675ZM10.985 7.5675L10.9969 7.57662L11.0153 7.5525H10.985V7.5675ZM10.8875 7.695L10.8725 7.68353V7.695H10.8875ZM9.91249 4.5675C9.92748 4.56714 9.92748 4.56714 9.92748 4.56714C9.92748 4.56715 9.92748 4.56715 9.92748 4.56715C9.92748 4.56715 9.92748 4.56715 9.92748 4.56714C9.92748 4.56714 9.92748 4.56712 9.92748 4.5671C9.92748 4.56705 9.92748 4.56696 9.92748 4.56684C9.92747 4.5666 9.92747 4.56621 9.92747 4.5657C9.92746 4.56468 9.92747 4.56314 9.9275 4.56115C9.92757 4.55717 9.92776 4.55143 9.92827 4.54451C9.92928 4.5306 9.93152 4.51226 9.93636 4.494C9.94124 4.47559 9.94849 4.45834 9.95887 4.44573C9.9689 4.43355 9.98176 4.42572 9.99936 4.42499L9.99811 4.39502C9.97071 4.39616 9.95029 4.40896 9.93571 4.42666C9.92148 4.44394 9.9128 4.46582 9.90736 4.48632C9.90189 4.50697 9.89944 4.5273 9.89835 4.54233C9.8978 4.54988 9.89758 4.55618 9.8975 4.56063C9.89747 4.56285 9.89746 4.56462 9.89747 4.56585C9.89747 4.56646 9.89748 4.56695 9.89748 4.56729C9.89748 4.56746 9.89749 4.56759 9.89749 4.56769C9.89749 4.56774 9.89749 4.56778 9.89749 4.56781C9.89749 4.56782 9.89749 4.56783 9.89749 4.56785C9.89749 4.56785 9.89749 4.56786 9.89749 4.56786C9.89749 4.56786 9.89749 4.56787 9.91249 4.5675ZM10.0812 4.5525H9.91249V4.5825H10.0812V4.5525ZM9.99874 4.425C10.0149 4.425 10.0268 4.4321 10.0363 4.44397C10.0462 4.45633 10.0531 4.47366 10.0578 4.49239C10.0624 4.51092 10.0645 4.52966 10.0655 4.5439C10.066 4.55099 10.0662 4.55688 10.0662 4.56097C10.0663 4.56301 10.0663 4.56459 10.0663 4.56565C10.0663 4.56618 10.0663 4.56657 10.0662 4.56683C10.0662 4.56695 10.0662 4.56704 10.0662 4.5671C10.0662 4.56712 10.0662 4.56714 10.0662 4.56715C10.0662 4.56715 10.0662 4.56716 10.0662 4.56716C10.0662 4.56716 10.0662 4.56715 10.0662 4.56715C10.0662 4.56715 10.0662 4.56715 10.0812 4.5675C10.0962 4.56786 10.0962 4.56786 10.0962 4.56785C10.0962 4.56785 10.0962 4.56784 10.0962 4.56784C10.0962 4.56783 10.0962 4.56781 10.0962 4.5678C10.0962 4.56777 10.0962 4.56773 10.0962 4.56768C10.0962 4.56758 10.0962 4.56745 10.0962 4.56728C10.0962 4.56693 10.0963 4.56644 10.0963 4.56582C10.0963 4.56457 10.0963 4.56277 10.0962 4.56051C10.0962 4.55598 10.096 4.54957 10.0954 4.54188C10.0944 4.5266 10.0921 4.50596 10.0869 4.48512C10.0817 4.46447 10.0734 4.44242 10.0597 4.42526C10.0457 4.4076 10.0257 4.395 9.99874 4.395V4.425ZM9.45874 6.61125V6.405H9.42874V6.61125H9.45874ZM10.5537 6.59625H9.44374V6.62625H10.5537V6.59625ZM10.5387 6.405V6.61125H10.5687V6.405H10.5387ZM10.6032 6.28359C10.5756 6.30946 10.541 6.34143 10.5387 6.40447L10.5687 6.40554C10.5705 6.35566 10.5964 6.33109 10.6237 6.30549L10.6032 6.28359ZM10.6437 6.2175C10.6437 6.24477 10.6276 6.2608 10.6032 6.28359L10.6237 6.30549C10.6466 6.28403 10.6737 6.25957 10.6737 6.2175H10.6437ZM10.6274 6.06061C10.6417 6.08297 10.6466 6.12034 10.647 6.15489C10.6472 6.17167 10.6465 6.1869 10.6456 6.19795C10.6452 6.20346 10.6447 6.20791 10.6444 6.21095C10.6442 6.21247 10.6441 6.21364 10.644 6.21442C10.644 6.21481 10.6439 6.2151 10.6439 6.21528C10.6439 6.21537 10.6439 6.21544 10.6439 6.21548C10.6439 6.2155 10.6439 6.21551 10.6439 6.21552C10.6439 6.21552 10.6439 6.21553 10.6439 6.21553L10.6439 6.21553C10.6439 6.21552 10.6439 6.21552 10.6587 6.2175C10.6736 6.21949 10.6736 6.21948 10.6736 6.21948C10.6736 6.21948 10.6736 6.21947 10.6736 6.21947C10.6736 6.21946 10.6736 6.21946 10.6736 6.21944C10.6736 6.21942 10.6736 6.2194 10.6736 6.21936C10.6736 6.21929 10.6736 6.2192 10.6737 6.21908C10.6737 6.21883 10.6737 6.21848 10.6738 6.21804C10.6739 6.21714 10.674 6.21584 10.6742 6.21418C10.6746 6.21087 10.6751 6.20612 10.6755 6.20026C10.6764 6.18857 10.6773 6.1724 10.677 6.15449C10.6765 6.11967 10.672 6.07454 10.6526 6.04439L10.6274 6.06061ZM10.5125 6.1125C10.5125 6.1312 10.518 6.14844 10.5283 6.16076C10.5389 6.17338 10.5546 6.18061 10.5723 6.17742C10.5894 6.17435 10.6053 6.16218 10.6189 6.14271C10.6326 6.12309 10.6449 6.09473 10.6545 6.05614L10.6254 6.04887C10.6163 6.08527 10.6052 6.10989 10.5943 6.12554C10.5833 6.14134 10.5734 6.14675 10.567 6.1479C10.5613 6.14893 10.5559 6.14702 10.5513 6.14148C10.5464 6.13563 10.5425 6.12568 10.5425 6.1125H10.5125ZM10.611 5.91793C10.5788 5.9651 10.5543 6.00093 10.538 6.0307C10.5216 6.06063 10.5125 6.08605 10.5125 6.1125H10.5425C10.5425 6.09333 10.549 6.07313 10.5643 6.04512C10.5798 6.01695 10.6032 5.98254 10.6358 5.93485L10.611 5.91793ZM10.6426 5.87156L10.611 5.91795L10.6358 5.93483L10.6674 5.88844L10.6426 5.87156ZM10.6168 5.66415C10.6332 5.68539 10.6468 5.72724 10.6523 5.77079C10.655 5.79222 10.6556 5.81323 10.6539 5.83128C10.6521 5.84968 10.648 5.86344 10.6425 5.87168L10.6675 5.88832C10.677 5.87407 10.6818 5.85454 10.6837 5.83416C10.6858 5.81342 10.685 5.79013 10.6821 5.76703C10.6763 5.72152 10.6618 5.67337 10.6406 5.64586L10.6168 5.66415ZM10.5462 5.83875C10.5614 5.83875 10.5749 5.8346 10.5867 5.82567C10.5981 5.81694 10.6068 5.8044 10.6138 5.78921C10.6275 5.75925 10.6361 5.71498 10.6436 5.65692L10.6139 5.65308C10.6064 5.71128 10.5981 5.75138 10.5865 5.77673C10.5808 5.7892 10.5747 5.79705 10.5685 5.8018C10.5625 5.80635 10.5555 5.80875 10.5462 5.80875V5.83875ZM10.475 5.74875C10.475 5.77898 10.482 5.80183 10.4956 5.81726C10.5094 5.83297 10.5281 5.83875 10.5462 5.83875V5.80875C10.5344 5.80875 10.5249 5.80516 10.5181 5.79744C10.5111 5.78943 10.505 5.77478 10.505 5.74875H10.475ZM10.517 5.6303C10.4968 5.66323 10.475 5.69833 10.475 5.74875H10.505C10.505 5.70777 10.5221 5.67932 10.5426 5.64599L10.517 5.6303ZM10.5508 5.56401C10.5426 5.58851 10.5301 5.60892 10.517 5.6303L10.5426 5.64599C10.5555 5.62491 10.5698 5.60173 10.5792 5.5735L10.5508 5.56401ZM10.5166 5.3803C10.5628 5.42929 10.5763 5.50069 10.5511 5.56315L10.5789 5.57436C10.6085 5.50104 10.5926 5.41722 10.5384 5.35971L10.5166 5.3803ZM10.5341 5.42526C10.5364 5.40956 10.539 5.39204 10.5423 5.37247L10.5127 5.36754C10.5094 5.38742 10.5068 5.40521 10.5045 5.4209L10.5341 5.42526ZM10.5341 5.42546L10.5341 5.42545L10.5045 5.42071L10.5045 5.42072L10.5341 5.42546ZM10.4637 5.5425C10.4757 5.5425 10.4866 5.54023 10.496 5.53418C10.5054 5.52811 10.5117 5.51926 10.5162 5.50907C10.5248 5.48983 10.5289 5.46114 10.5341 5.42527L10.5045 5.4209C10.4989 5.45885 10.4953 5.48236 10.4888 5.49688C10.4858 5.50357 10.4828 5.50699 10.4797 5.50896C10.4766 5.51095 10.4719 5.5125 10.4637 5.5125V5.5425ZM10.4679 5.31124C10.4532 5.33501 10.4242 5.38185 10.4112 5.42672C10.4048 5.44909 10.4016 5.47309 10.408 5.49426C10.4148 5.5167 10.4316 5.53362 10.4595 5.54189L10.468 5.51312C10.4487 5.5074 10.4403 5.49731 10.4367 5.48558C10.4328 5.47258 10.4342 5.45527 10.4401 5.43506C10.4517 5.39478 10.4784 5.3514 10.4934 5.32699L10.4679 5.31124ZM10.4734 5.30217L10.4679 5.31128L10.4935 5.32695L10.499 5.31784L10.4734 5.30217ZM10.4487 5.1825C10.4381 5.19311 10.4381 5.19311 10.4381 5.1931C10.4381 5.1931 10.4381 5.1931 10.4381 5.1931C10.4381 5.19309 10.4381 5.19309 10.4381 5.19309C10.4381 5.19308 10.4381 5.19308 10.4381 5.19308C10.4381 5.19309 10.4381 5.19311 10.4382 5.19314C10.4382 5.1932 10.4383 5.19331 10.4385 5.19348C10.4388 5.19381 10.4393 5.19434 10.4399 5.19506C10.4412 5.19652 10.4431 5.19873 10.4454 5.20163C10.4499 5.20745 10.4558 5.2159 10.4612 5.22635C10.4719 5.24735 10.4799 5.27533 10.4717 5.30619L10.5007 5.31382C10.5114 5.27343 10.5006 5.23766 10.4879 5.21272C10.4815 5.2002 10.4745 5.19014 10.4691 5.18318C10.4663 5.17969 10.464 5.17696 10.4623 5.17506C10.4614 5.1741 10.4607 5.17336 10.4602 5.17283C10.46 5.17256 10.4598 5.17235 10.4596 5.1722C10.4596 5.17212 10.4595 5.17206 10.4595 5.17201C10.4594 5.17198 10.4594 5.17196 10.4594 5.17194C10.4594 5.17193 10.4594 5.17192 10.4594 5.17192C10.4594 5.17191 10.4594 5.17191 10.4594 5.17191C10.4593 5.1719 10.4593 5.1719 10.4487 5.1825ZM10.3694 5.29437C10.3791 5.29727 10.3894 5.29959 10.3993 5.29805C10.4105 5.29633 10.419 5.29027 10.426 5.2811C10.4325 5.2725 10.4381 5.26062 10.4437 5.24575C10.4494 5.23067 10.4556 5.21128 10.4631 5.18691L10.4344 5.17809C10.4269 5.20248 10.4209 5.22105 10.4156 5.23516C10.4102 5.24947 10.4059 5.25797 10.4021 5.26297C10.3987 5.26739 10.3966 5.26813 10.3948 5.2684C10.3919 5.26885 10.3871 5.26836 10.378 5.26564L10.3694 5.29437ZM10.3781 5.1419C10.3503 5.16976 10.3331 5.20177 10.3298 5.22997C10.3281 5.24416 10.3299 5.25828 10.3367 5.27018C10.3437 5.2824 10.3552 5.29084 10.3701 5.29456L10.3774 5.26545C10.3697 5.26354 10.3653 5.25979 10.3627 5.25526C10.3599 5.2504 10.3584 5.24319 10.3596 5.23348C10.3619 5.21386 10.3747 5.18774 10.3993 5.16311L10.3781 5.1419ZM10.3706 5.03936C10.4036 5.07232 10.4048 5.11524 10.3781 5.1419L10.3993 5.16311C10.4402 5.12227 10.4339 5.06019 10.3918 5.01815L10.3706 5.03936ZM10.2764 5.04504C10.274 5.05957 10.2768 5.07341 10.2853 5.08369C10.2939 5.09404 10.3067 5.09878 10.3201 5.09811C10.3465 5.09679 10.3747 5.07543 10.3947 5.03546L10.3678 5.02205C10.3503 5.05708 10.3297 5.06759 10.3186 5.06815C10.3133 5.06841 10.3101 5.0666 10.3084 5.06452C10.3066 5.06238 10.3047 5.05793 10.306 5.04997L10.2764 5.04504ZM10.3103 4.88318L10.2766 5.04443L10.3059 5.05058L10.3397 4.88933L10.3103 4.88318ZM10.28 4.90125L10.325 4.90125V4.87125L10.28 4.87125V4.90125ZM10.2801 4.76808L10.2651 4.88433L10.2949 4.88817L10.3099 4.77192L10.2801 4.76808ZM10.239 4.785H10.295V4.755H10.239V4.785ZM10.2539 4.77168L10.2649 4.67418L10.2351 4.67083L10.2241 4.76833L10.2539 4.77168ZM10.25 4.6575H9.74374V4.6875H10.25V4.6575ZM9.72878 4.67363L9.73609 4.77113L9.76601 4.76888L9.7587 4.67138L9.72878 4.67363ZM9.69874 4.785H9.75105V4.755H9.69874V4.785ZM9.72861 4.88433L9.71361 4.76808L9.68386 4.77192L9.69886 4.88817L9.72861 4.88433ZM9.67249 4.90125L9.71374 4.90125V4.87125L9.67249 4.87125V4.90125ZM9.71725 5.04857L9.68725 4.88357L9.65773 4.88894L9.68773 5.05394L9.71725 5.04857ZM9.60296 5.03574C9.6223 5.07248 9.64606 5.09504 9.6699 5.09845C9.68267 5.10027 9.69471 5.09633 9.70353 5.08712C9.71195 5.07833 9.71631 5.06599 9.71744 5.0525L9.68754 5.05001C9.68679 5.05902 9.68412 5.06402 9.68187 5.06637C9.68003 5.06829 9.67777 5.06927 9.67414 5.06875C9.66517 5.06747 9.64768 5.05628 9.62951 5.02177L9.60296 5.03574ZM9.61989 5.14247C9.60548 5.12646 9.59962 5.10879 9.60074 5.0916C9.60187 5.07428 9.61021 5.056 9.62684 5.03936L9.60563 5.01815C9.58477 5.03901 9.57248 5.06386 9.5708 5.08965C9.56911 5.1156 9.57825 5.14105 9.59759 5.16254L9.61989 5.14247ZM9.62738 5.29456C9.64223 5.29084 9.65376 5.2824 9.66077 5.27018C9.6676 5.25828 9.66937 5.24416 9.6677 5.22997C9.66438 5.20177 9.64721 5.16976 9.61934 5.1419L9.59813 5.16311C9.62277 5.18774 9.6356 5.21386 9.6379 5.23348C9.63905 5.24319 9.63753 5.2504 9.63475 5.25526C9.63215 5.25979 9.62774 5.26354 9.6201 5.26545L9.62738 5.29456ZM9.53436 5.18676C9.54186 5.21209 9.54808 5.23198 9.55379 5.24728C9.5594 5.26233 9.56497 5.27424 9.57163 5.28271C9.57884 5.29189 9.58768 5.29745 9.59879 5.29867C9.60855 5.29973 9.61867 5.29718 9.62805 5.29437L9.61943 5.26564C9.61006 5.26845 9.60517 5.26918 9.60204 5.26884C9.60026 5.26865 9.59832 5.26812 9.59522 5.26417C9.59156 5.25952 9.58729 5.25127 9.58189 5.23679C9.57658 5.22256 9.57062 5.20354 9.56312 5.17824L9.53436 5.18676ZM9.52441 5.30282C9.52114 5.29683 9.52018 5.28771 9.52237 5.2753C9.52453 5.26315 9.52937 5.24979 9.5352 5.23701C9.54098 5.22433 9.54747 5.21279 9.55255 5.20438C9.55508 5.20019 9.55724 5.19681 9.55875 5.19451C9.55951 5.19335 9.5601 5.19247 9.5605 5.19188C9.56069 5.19159 9.56084 5.19138 9.56093 5.19124C9.56098 5.19117 9.56102 5.19112 9.56104 5.19109C9.56104 5.19108 9.56105 5.19107 9.56105 5.19107C9.56106 5.19106 9.56106 5.19106 9.56106 5.19106C9.56106 5.19106 9.56105 5.19107 9.56105 5.19107C9.56105 5.19107 9.56105 5.19107 9.54874 5.1825C9.53642 5.17394 9.53642 5.17394 9.53642 5.17394C9.53642 5.17394 9.53642 5.17395 9.53641 5.17395C9.53641 5.17396 9.53641 5.17396 9.5364 5.17397C9.53639 5.17399 9.53637 5.17401 9.53635 5.17404C9.53632 5.17409 9.53626 5.17417 9.5362 5.17427C9.53607 5.17446 9.53588 5.17473 9.53564 5.17508C9.53517 5.17578 9.5345 5.17679 9.53365 5.17807C9.53197 5.18064 9.52962 5.18433 9.52687 5.18887C9.52141 5.19792 9.51431 5.21052 9.5079 5.22456C9.50154 5.2385 9.4956 5.25444 9.49284 5.27006C9.49011 5.28542 9.49009 5.30255 9.49807 5.31719L9.52441 5.30282ZM9.53047 5.31262L9.52401 5.30213L9.49847 5.31787L9.50493 5.32836L9.53047 5.31262ZM9.53848 5.54173C9.56591 5.53259 9.58244 5.51549 9.58927 5.4933C9.59577 5.47221 9.59288 5.44857 9.5866 5.42652C9.57403 5.38239 9.54543 5.33665 9.53043 5.31256L9.50497 5.32842C9.52038 5.35318 9.54653 5.39536 9.55775 5.43474C9.56336 5.45445 9.56461 5.47145 9.5606 5.48447C9.55693 5.49638 9.5483 5.50684 9.52899 5.51327L9.53848 5.54173ZM9.46334 5.42527C9.46862 5.46114 9.47269 5.48983 9.48125 5.50907C9.48578 5.51926 9.49208 5.52811 9.5015 5.53418C9.5109 5.54023 9.52182 5.5425 9.53374 5.5425V5.5125C9.52556 5.5125 9.52084 5.51095 9.51775 5.50896C9.51468 5.50699 9.51164 5.50357 9.50866 5.49688C9.5022 5.48236 9.4986 5.45885 9.49302 5.4209L9.46334 5.42527ZM9.45519 5.37247C9.45845 5.39204 9.46103 5.40956 9.46334 5.42527L9.49302 5.4209C9.49071 5.40521 9.4881 5.38743 9.48478 5.36754L9.45519 5.37247ZM9.44274 5.56337C9.41845 5.50025 9.43329 5.42876 9.48069 5.38052L9.45929 5.35949C9.40364 5.41612 9.38623 5.50004 9.41474 5.57414L9.44274 5.56337ZM9.47561 5.62581C9.4635 5.60589 9.4517 5.58641 9.44272 5.56332L9.41476 5.57419C9.42483 5.60008 9.43799 5.62168 9.44997 5.64139L9.47561 5.62581ZM9.51874 5.74875C9.51874 5.6963 9.49667 5.66045 9.47561 5.62581L9.44997 5.64139C9.47122 5.67635 9.48874 5.70563 9.48874 5.74875H9.51874ZM9.45124 5.83875C9.46955 5.83875 9.48753 5.83287 9.50045 5.81672C9.51286 5.80121 9.51874 5.77848 9.51874 5.74875H9.48874C9.48874 5.77528 9.48337 5.79005 9.47702 5.79798C9.47119 5.80527 9.46293 5.80875 9.45124 5.80875V5.83875ZM9.35387 5.65699C9.36136 5.71318 9.37 5.75737 9.38365 5.78772C9.39056 5.80307 9.39919 5.81592 9.41056 5.82495C9.42223 5.83422 9.43588 5.83875 9.45124 5.83875V5.80875C9.44222 5.80875 9.43525 5.80625 9.42922 5.80146C9.42289 5.79643 9.41676 5.78819 9.41101 5.77541C9.39935 5.74951 9.39111 5.70933 9.38361 5.65302L9.35387 5.65699ZM9.35462 5.86743C9.34946 5.86033 9.34537 5.84758 9.34359 5.82965C9.34185 5.81217 9.34247 5.79154 9.34518 5.77034C9.35068 5.72726 9.36428 5.6854 9.38063 5.66415L9.35685 5.64586C9.3357 5.67336 9.32117 5.7215 9.31542 5.76654C9.3125 5.7894 9.31172 5.81237 9.31373 5.83262C9.3157 5.85243 9.32052 5.87155 9.33036 5.88508L9.35462 5.86743ZM9.37417 5.8971L9.35502 5.86801L9.32996 5.8845L9.34912 5.9136L9.37417 5.8971ZM9.48124 6.1125C9.48124 6.08472 9.47199 6.05794 9.45442 6.02505C9.43696 5.99234 9.41034 5.95198 9.37417 5.8971L9.34912 5.91361C9.38563 5.969 9.4113 6.008 9.42796 6.03919C9.44452 6.07019 9.45124 6.09185 9.45124 6.1125H9.48124ZM9.33927 6.05648C9.34987 6.09501 9.36266 6.12327 9.37647 6.14279C9.39016 6.16212 9.40592 6.17432 9.42275 6.17741C9.44041 6.18066 9.45588 6.17325 9.46614 6.16053C9.47609 6.14819 9.48124 6.13102 9.48124 6.1125H9.45124C9.45124 6.12586 9.44748 6.13588 9.44278 6.1417C9.43839 6.14715 9.43347 6.14888 9.42817 6.14791C9.42202 6.14678 9.41224 6.1414 9.40096 6.12546C9.38982 6.10971 9.37823 6.085 9.3682 6.04853L9.33927 6.05648ZM9.33874 6.2175C9.35361 6.21552 9.35361 6.21552 9.35361 6.21552C9.35361 6.21552 9.35361 6.21553 9.35361 6.21553C9.35361 6.21553 9.35361 6.21552 9.35361 6.21552C9.35361 6.21551 9.3536 6.2155 9.3536 6.21548C9.3536 6.21544 9.35359 6.21537 9.35357 6.21527C9.35355 6.21509 9.35351 6.21479 9.35347 6.2144C9.35337 6.21362 9.35323 6.21245 9.35306 6.21092C9.35272 6.20786 9.35227 6.2034 9.35181 6.19787C9.3509 6.1868 9.34999 6.17152 9.34999 6.15469C9.34999 6.13782 9.3509 6.11967 9.35356 6.10276C9.35624 6.08568 9.36054 6.07083 9.36676 6.05995L9.34071 6.04506C9.33193 6.06043 9.32686 6.07933 9.32392 6.09811C9.32095 6.11706 9.31999 6.13687 9.31999 6.15469C9.31999 6.17255 9.32095 6.18868 9.32191 6.20034C9.3224 6.20618 9.32288 6.21092 9.32324 6.21422C9.32343 6.21587 9.32358 6.21716 9.32369 6.21805C9.32374 6.2185 9.32379 6.21884 9.32382 6.21908C9.32383 6.21921 9.32384 6.2193 9.32385 6.21937C9.32386 6.2194 9.32386 6.21943 9.32386 6.21945C9.32387 6.21946 9.32387 6.21946 9.32387 6.21947C9.32387 6.21947 9.32387 6.21948 9.32387 6.21948C9.32387 6.21948 9.32387 6.21949 9.33874 6.2175ZM9.39478 6.28288C9.37011 6.26026 9.35374 6.24432 9.35374 6.2175H9.32374C9.32374 6.25939 9.35142 6.28383 9.37451 6.30499L9.39478 6.28288ZM9.45874 6.405C9.45874 6.34106 9.42313 6.30886 9.39478 6.28288L9.37451 6.30499C9.40267 6.3308 9.42874 6.35513 9.42874 6.405H9.45874ZM9.73609 4.77113L9.73628 4.77363L9.7662 4.77138L9.76601 4.76888L9.73609 4.77113ZM9.75124 4.7875H10.2387V4.7575H9.75124V4.7875ZM10.2536 4.77418L10.2539 4.77168L10.2241 4.76833L10.2238 4.77083L10.2536 4.77418ZM9.75105 4.785H10.239V4.755H9.75105V4.785ZM9.81133 4.57293L9.82258 4.67293L9.85239 4.66958L9.84114 4.56958L9.81133 4.57293ZM10.1637 4.55625H9.82624V4.58625H10.1637V4.55625ZM10.175 4.67182L10.1787 4.57182L10.1487 4.57069L10.145 4.67069L10.175 4.67182ZM9.83749 4.68625H10.16V4.65625H9.83749V4.68625ZM11.0799 8.7796C11.0444 8.76717 10.9993 8.74104 10.9631 8.70854C10.9264 8.67549 10.9025 8.63898 10.9025 8.60625H10.8725C10.8725 8.65228 10.9048 8.6964 10.9431 8.73084C10.982 8.76584 11.0305 8.79409 11.07 8.80791L11.0799 8.7796ZM8.95624 8.80875H11.075V8.77875H8.95624V8.80875ZM9.09124 8.60625C9.09124 8.64102 9.07454 8.67805 9.04784 8.71009C9.02121 8.74204 8.98589 8.76748 8.95128 8.7796L8.96119 8.80791C9.00159 8.79377 9.04127 8.76484 9.07089 8.72929C9.10044 8.69383 9.12124 8.65024 9.12124 8.60625H9.09124ZM9.09124 7.695V8.60625H9.12124V7.695H9.09124ZM9.0004 7.57639L9.09415 7.70389L9.11832 7.68612L9.02457 7.55862L9.0004 7.57639ZM10.985 7.5525H9.01249V7.5825H10.985V7.5525ZM10.8994 7.70412L10.9969 7.57662L10.9731 7.55839L10.8756 7.68589L10.8994 7.70412ZM10.9025 8.60625V7.695H10.8725V8.60625H10.9025Z" fill="black"/>
<path fill-rule="evenodd" clip-rule="evenodd" d="M9.49248 7.9725H9.35748V8.9725H9.49248V7.9725ZM10.6325 7.9725H10.4975V8.9725H10.6325V7.9725Z" fill="white"/>
<path d="M9.35748 7.9725V7.9575L9.34248 7.9725H9.35748ZM9.49248 7.9725H9.50748L9.49248 7.9575V7.9725ZM9.35748 8.9725H9.34248L9.35748 8.9875V8.9725ZM9.49248 8.9725V8.9875L9.50748 8.9725H9.49248ZM10.4975 7.9725V7.9575L10.4825 7.9725H10.4975ZM10.6325 7.9725H10.6475L10.6325 7.9575V7.9725ZM10.4975 8.9725H10.4825L10.4975 8.9875V8.9725ZM10.6325 8.9725V8.9875L10.6475 8.9725H10.6325ZM9.35748 7.9875H9.49248V7.9575H9.35748V7.9875ZM9.37248 8.9725V7.9725H9.34248V8.9725H9.37248ZM9.49248 8.9575H9.35748V8.9875H9.49248V8.9575ZM9.47748 7.9725V8.9725H9.50748V7.9725H9.47748ZM10.4975 7.9875H10.6325V7.9575H10.4975V7.9875ZM10.5125 8.9725V7.9725H10.4825V8.9725H10.5125ZM10.6325 8.9575H10.4975V8.9875H10.6325V8.9575ZM10.6175 7.9725V8.9725H10.6475V7.9725H10.6175Z" fill="black"/>
<path d="M8.97494 6.5325V7.5675H10.9999V6.5325C10.9525 6.54984 10.9162 6.58889 10.9024 6.6375V7.08H9.07619V6.6375C9.07619 6.6375 9.05369 6.5625 8.97119 6.5325H8.97494Z" fill="white" stroke="black" stroke-width="0.03"/>
<path d="M10.7225 8.79374C10.655 8.76749 10.5125 8.68499 10.5125 8.60624V7.58624C10.5275 7.52999 10.6025 7.49624 10.6512 7.45874H9.31245C9.3762 7.49624 9.44745 7.52249 9.4737 7.58624V8.60624C9.4737 8.68499 9.3612 8.76749 9.2937 8.79374H10.7225Z" fill="white" stroke="black" stroke-width="0.03"/>
<path fill-rule="evenodd" clip-rule="evenodd" d="M10.9025 6.73501V7.47001H9.07623V6.73876H9.26373V6.66376H10.7187V6.73501H10.9025ZM10.2762 8.60626C10.2762 8.68501 10.37 8.76751 10.4375 8.79376H9.55998C9.62373 8.76751 9.72123 8.68501 9.72123 8.60626V7.73251L9.66498 7.65751H10.3287L10.2762 7.73626V8.60626Z" fill="white"/>
<path d="M10.9025 7.47001V7.48501H10.9175V7.47001H10.9025ZM10.9025 6.73501H10.9175V6.72001H10.9025V6.73501ZM9.07623 7.47001H9.06123V7.48501H9.07623V7.47001ZM9.07623 6.73876V6.72376H9.06123V6.73876H9.07623ZM9.26373 6.73876V6.75376H9.27873V6.73876H9.26373ZM9.26373 6.66376V6.64876H9.24873V6.66376H9.26373ZM10.7187 6.66376H10.7337V6.64876H10.7187V6.66376ZM10.7187 6.73501H10.7037V6.75001H10.7187V6.73501ZM10.4375 8.79376V8.80876L10.4429 8.77978L10.4375 8.79376ZM9.55998 8.79376L9.55427 8.77989L9.55998 8.80876V8.79376ZM9.72123 7.73251H9.73998L9.73323 7.72351L9.72123 7.73251ZM9.66498 7.65751V7.64251H9.63498L9.65298 7.66651L9.66498 7.65751ZM10.3287 7.65751L10.3412 7.66583L10.3568 7.64251H10.3287V7.65751ZM10.2762 7.73626L10.2612 7.72626V7.73626H10.2762ZM10.9175 7.47001V6.73501H10.8875V7.47001H10.9175ZM9.07623 7.48501H10.9025V7.45501H9.07623V7.48501ZM9.06123 6.73876V7.47001H9.09123V6.73876H9.06123ZM9.26373 6.72376H9.07623V6.75376H9.26373V6.72376ZM9.24873 6.66376V6.73876H9.27873V6.66376H9.24873ZM10.7187 6.64876H9.26373V6.67876H10.7187V6.64876ZM10.7337 6.73501V6.66376H10.7037V6.73501H10.7337ZM10.9025 6.72001H10.7187V6.75001H10.9025V6.72001ZM10.4429 8.77978C10.4115 8.76755 10.373 8.74173 10.3425 8.7094C10.3116 8.67677 10.2912 8.64001 10.2912 8.60626H10.2612C10.2612 8.65126 10.2877 8.69512 10.3206 8.72999C10.3539 8.76516 10.396 8.79371 10.432 8.80774L10.4429 8.77978ZM9.55998 8.80876H10.4375V8.77876H9.55998V8.80876ZM9.70623 8.60626C9.70623 8.63983 9.68509 8.67655 9.65368 8.70932C9.62262 8.74173 9.58401 8.76764 9.55427 8.77989L9.56569 8.80763C9.59971 8.79362 9.64172 8.76516 9.67534 8.73007C9.70863 8.69534 9.73623 8.65144 9.73623 8.60626H9.70623ZM9.70623 7.73251V8.60626H9.73623V7.73251H9.70623ZM9.65298 7.66651L9.70923 7.74151L9.73323 7.72351L9.67698 7.64851L9.65298 7.66651ZM10.3287 7.64251H9.66498V7.67251H10.3287V7.64251ZM10.2887 7.74458L10.3412 7.66583L10.3163 7.64919L10.2638 7.72794L10.2887 7.74458ZM10.2912 8.60626V7.73626H10.2612V8.60626H10.2912Z" fill="black"/>
<path fill-rule="evenodd" clip-rule="evenodd" d="M10.85 6.30374C10.85 6.30374 10.6662 6.32709 10.6662 6.54499V6.36211C10.61 6.36211 10.6025 6.43215 10.6025 6.62281L9.39123 6.61892C9.39123 6.43604 9.39123 6.35822 9.32373 6.35822V6.96133C9.46248 7.0158 9.55998 7.19479 9.55998 7.19479H10.43C10.43 7.19479 10.5275 7.0158 10.6662 6.96133V7.30374H10.8012V6.75121C10.8012 6.75121 10.745 6.75121 10.745 6.65394C10.745 6.56055 10.7787 6.4944 10.85 6.49829V6.30374Z" fill="white"/>
<path d="M10.85 6.30374H10.865V6.28672L10.8481 6.28886L10.85 6.30374ZM10.6662 6.36211H10.6812V6.34711H10.6662V6.36211ZM10.6025 6.62281L10.6024 6.63781L10.6175 6.63786V6.62281H10.6025ZM9.39123 6.61892H9.37623V6.63387L9.39118 6.63392L9.39123 6.61892ZM9.32373 6.35822V6.34322H9.30873V6.35822H9.32373ZM9.32373 6.96133H9.30873V6.97155L9.31825 6.97529L9.32373 6.96133ZM9.55998 7.19479L9.54681 7.20197L9.55107 7.20979H9.55998V7.19479ZM10.43 7.19479V7.20979H10.4389L10.4432 7.20197L10.43 7.19479ZM10.6662 6.96133H10.6812V6.93933L10.6607 6.94737L10.6662 6.96133ZM10.6662 7.30374H10.6512V7.31874H10.6662V7.30374ZM10.8012 7.30374V7.31874H10.8162V7.30374H10.8012ZM10.8012 6.75121H10.8162V6.73621H10.8012V6.75121ZM10.85 6.49829L10.8492 6.51327L10.865 6.51414V6.49829H10.85ZM10.6812 6.54499C10.6812 6.44108 10.7247 6.38521 10.7669 6.35483C10.7883 6.33941 10.8098 6.3303 10.8259 6.32506C10.834 6.32245 10.8406 6.32081 10.8452 6.31984C10.8475 6.31936 10.8492 6.31904 10.8504 6.31885C10.851 6.31876 10.8514 6.31869 10.8516 6.31866C10.8517 6.31864 10.8518 6.31863 10.8519 6.31862C10.8519 6.31862 10.8519 6.31862 10.8519 6.31862C10.8519 6.31862 10.8519 6.31862 10.8519 6.31862C10.8519 6.31862 10.8519 6.31862 10.8519 6.31862C10.8519 6.31862 10.8519 6.31862 10.85 6.30374C10.8481 6.28886 10.8481 6.28886 10.8481 6.28886C10.8481 6.28886 10.8481 6.28887 10.848 6.28887C10.848 6.28887 10.848 6.28887 10.848 6.28887C10.8479 6.28888 10.8479 6.28889 10.8478 6.2889C10.8477 6.28892 10.8475 6.28894 10.8473 6.28897C10.8468 6.28904 10.8462 6.28913 10.8455 6.28926C10.8439 6.28952 10.8417 6.28992 10.839 6.2905C10.8335 6.29165 10.8258 6.29355 10.8166 6.29653C10.7983 6.30247 10.7739 6.31282 10.7493 6.33048C10.6997 6.36624 10.6512 6.43099 10.6512 6.54499H10.6812ZM10.6512 6.36211V6.54499H10.6812V6.36211H10.6512ZM10.6175 6.62281C10.6175 6.52703 10.6194 6.46359 10.6279 6.42412C10.6322 6.40443 10.6377 6.39275 10.6437 6.38608C10.649 6.38015 10.6557 6.37711 10.6662 6.37711V6.34711C10.6486 6.34711 10.6333 6.35282 10.6214 6.36598C10.6102 6.3784 10.6033 6.39615 10.5986 6.4178C10.5893 6.46102 10.5875 6.52792 10.5875 6.62281H10.6175ZM9.39118 6.63392L10.6024 6.63781L10.6025 6.60781L9.39128 6.60392L9.39118 6.63392ZM9.32373 6.37322C9.33742 6.37322 9.34574 6.377 9.3518 6.38348C9.35848 6.39062 9.36407 6.40281 9.36808 6.42292C9.37615 6.4634 9.37623 6.52668 9.37623 6.61892H9.40623C9.40623 6.52828 9.40631 6.4612 9.3975 6.41705C9.39307 6.39484 9.38602 6.37615 9.37371 6.36299C9.36078 6.34916 9.34379 6.34322 9.32373 6.34322V6.37322ZM9.33873 6.96133V6.35822H9.30873V6.96133H9.33873ZM9.55998 7.19479C9.57315 7.18762 9.57315 7.18761 9.57315 7.18761C9.57315 7.18761 9.57314 7.1876 9.57314 7.1876C9.57314 7.18759 9.57313 7.18757 9.57312 7.18756C9.57311 7.18753 9.57308 7.18749 9.57305 7.18744C9.573 7.18734 9.57292 7.18719 9.57281 7.187C9.57261 7.18663 9.57231 7.18609 9.57191 7.18539C9.57112 7.184 9.56997 7.18197 9.56845 7.1794C9.56543 7.17425 9.56097 7.16687 9.5552 7.15788C9.54367 7.1399 9.52683 7.11535 9.50555 7.08905C9.46329 7.03683 9.40223 6.97603 9.32921 6.94737L9.31825 6.97529C9.38398 7.0011 9.44104 7.05703 9.48223 7.10792C9.50266 7.13318 9.51887 7.15679 9.52995 7.17407C9.53549 7.18271 9.53974 7.18974 9.54259 7.19459C9.54401 7.19702 9.54508 7.19889 9.54579 7.20015C9.54615 7.20077 9.54641 7.20124 9.54658 7.20155C9.54666 7.2017 9.54673 7.20182 9.54676 7.20189C9.54678 7.20192 9.5468 7.20195 9.5468 7.20196C9.54681 7.20197 9.54681 7.20197 9.54681 7.20197C9.54681 7.20197 9.54681 7.20197 9.54681 7.20197C9.54681 7.20197 9.54681 7.20197 9.55998 7.19479ZM10.43 7.17979H9.55998V7.20979H10.43V7.17979ZM10.6607 6.94737C10.5877 6.97603 10.5267 7.03683 10.4844 7.08905C10.4631 7.11535 10.4463 7.1399 10.4348 7.15788C10.429 7.16687 10.4245 7.17425 10.4215 7.1794C10.42 7.18197 10.4188 7.184 10.418 7.18539C10.4177 7.18609 10.4174 7.18663 10.4171 7.187C10.417 7.18719 10.417 7.18734 10.4169 7.18744C10.4169 7.18749 10.4169 7.18753 10.4168 7.18756C10.4168 7.18757 10.4168 7.18759 10.4168 7.1876C10.4168 7.1876 10.4168 7.18761 10.4168 7.18761C10.4168 7.18761 10.4168 7.18762 10.43 7.19479C10.4432 7.20197 10.4432 7.20197 10.4432 7.20197C10.4432 7.20197 10.4432 7.20197 10.4432 7.20197C10.4432 7.20197 10.4432 7.20197 10.4432 7.20196C10.4432 7.20195 10.4432 7.20192 10.4432 7.20189C10.4432 7.20182 10.4433 7.2017 10.4434 7.20155C10.4436 7.20124 10.4438 7.20077 10.4442 7.20015C10.4449 7.19889 10.446 7.19702 10.4474 7.19459C10.4502 7.18974 10.4545 7.18271 10.46 7.17407C10.4711 7.15679 10.4873 7.13318 10.5077 7.10792C10.5489 7.05703 10.606 7.0011 10.6717 6.97529L10.6607 6.94737ZM10.6812 7.30374V6.96133H10.6512V7.30374H10.6812ZM10.8012 7.28874H10.6662V7.31874H10.8012V7.28874ZM10.7862 6.75121V7.30374H10.8162V6.75121H10.7862ZM10.73 6.65394C10.73 6.7055 10.745 6.73457 10.7633 6.7504C10.7722 6.75813 10.7813 6.76209 10.7883 6.76411C10.7918 6.76511 10.7948 6.76563 10.797 6.76591C10.7981 6.76605 10.799 6.76612 10.7997 6.76616C10.8001 6.76618 10.8004 6.7662 10.8007 6.7662C10.8008 6.76621 10.8009 6.76621 10.801 6.76621C10.801 6.76621 10.8011 6.76621 10.8011 6.76621C10.8011 6.76621 10.8012 6.76621 10.8012 6.76621C10.8012 6.76621 10.8012 6.76621 10.8012 6.76621C10.8012 6.76621 10.8012 6.76621 10.8012 6.75121C10.8012 6.73621 10.8012 6.73621 10.8013 6.73621C10.8013 6.73621 10.8013 6.73621 10.8013 6.73621C10.8013 6.73621 10.8013 6.73621 10.8013 6.73621C10.8013 6.73621 10.8014 6.73621 10.8014 6.73621C10.8014 6.73621 10.8015 6.73621 10.8015 6.73622C10.8015 6.73622 10.8015 6.73622 10.8015 6.73621C10.8014 6.73621 10.8011 6.73619 10.8007 6.73614C10.7998 6.73603 10.7984 6.73579 10.7966 6.73528C10.793 6.73425 10.788 6.73213 10.7829 6.72771C10.7731 6.71921 10.76 6.69965 10.76 6.65394H10.73ZM10.8508 6.48332C10.8093 6.48105 10.7781 6.49965 10.758 6.53168C10.7386 6.56275 10.73 6.60584 10.73 6.65394H10.76C10.76 6.60865 10.7682 6.57197 10.7835 6.54759C10.7981 6.52418 10.8194 6.51164 10.8492 6.51327L10.8508 6.48332ZM10.835 6.30374V6.49829H10.865V6.30374H10.835Z" fill="black"/>
<path d="M9.3237 6.53624C9.3237 6.32624 9.13995 6.30374 9.13995 6.30374V6.49124C9.2112 6.48749 9.24495 6.55124 9.24495 6.64124C9.24495 6.73499 9.1887 6.73499 9.1887 6.73499V7.26749H9.3237V6.53624Z" fill="white" stroke="black" stroke-width="0.03"/>
<path d="M9.67999 5.13124H10.325V5.10124H9.67999V5.13124ZM9.60499 5.33374H10.3925V5.30374H9.60499V5.33374ZM9.52999 5.57749H10.4637V5.54749H9.52999V5.57749ZM9.45124 5.87374H10.5575V5.84374H9.45124V5.87374ZM9.42499 6.21124H10.565V6.18124H9.42499V6.21124Z" fill="black"/>
<path fill-rule="evenodd" clip-rule="evenodd" d="M9.82301 5.13375L9.9292 5.1825L10.0796 5.17875L10.1814 5.13375V5.0025C10.1761 5.00401 10.1705 5.00539 10.1648 5.00678C10.1283 5.01577 10.0885 5.02556 10.0885 5.0775C10.0747 5.01032 10.0582 5.00001 10.0307 4.9828C10.0229 4.97791 10.0142 4.97246 10.0044 4.965C9.99428 4.97359 9.98472 4.97951 9.97587 4.98499C9.94997 5.00101 9.93025 5.01321 9.92035 5.0775C9.91242 5.02374 9.87608 5.01513 9.83677 5.00583C9.83221 5.00475 9.82761 5.00367 9.82301 5.0025V5.13375ZM9.61541 7.17571C9.61708 7.03902 9.6195 6.84152 9.5 6.72H10.5C10.3805 6.84152 10.3829 7.03902 10.3846 7.17571C10.3848 7.19087 10.385 7.20527 10.385 7.21875H9.61504C9.61504 7.20527 9.61522 7.19087 9.61541 7.17571Z" fill="white"/>
<path d="M9.9292 5.1825L9.92224 5.19767L9.92958 5.19749L9.9292 5.1825ZM9.82301 5.13375H9.80801V5.14337L9.81675 5.14738L9.82301 5.13375ZM10.0796 5.17875L10.0801 5.19497L10.0857 5.19247L10.0796 5.17875ZM10.1814 5.13375L10.1875 5.14747L10.1964 5.14351V5.13375H10.1814ZM10.1814 5.0025H10.1964V4.98267L10.1773 4.98806L10.1814 5.0025ZM10.1648 5.00678L10.1612 4.99222L10.1612 4.99222L10.1648 5.00678ZM10.0885 5.0775L10.0738 5.08051L10.1035 5.0775H10.0885ZM10.0307 4.9828L10.0387 4.97008V4.97008L10.0307 4.9828ZM10.0044 4.965L10.0135 4.95307L10.0039 4.94575L9.99473 4.95355L10.0044 4.965ZM9.97587 4.98499L9.96798 4.97223V4.97223L9.97587 4.98499ZM9.92035 5.0775L9.90551 5.07969L9.93518 5.07978L9.92035 5.0775ZM9.83677 5.00583L9.84023 4.99124L9.84023 4.99124L9.83677 5.00583ZM9.82301 5.0025L9.8267 4.98796L9.80801 4.98321V5.0025H9.82301ZM9.5 6.72V6.705H9.46421L9.4893 6.73051L9.5 6.72ZM9.61541 7.17571L9.60041 7.17553L9.61541 7.17571ZM10.5 6.72L10.5107 6.73051L10.5358 6.705H10.5V6.72ZM10.3846 7.17571L10.3996 7.17553L10.3846 7.17571ZM10.385 7.21875V7.23375H10.4V7.21875H10.385ZM9.61504 7.21875H9.60004V7.23375H9.61504V7.21875ZM9.93546 5.16886L9.82927 5.12011L9.81675 5.14738L9.92295 5.19613L9.93546 5.16886ZM10.0793 5.16375L9.92883 5.1675L9.92958 5.19749L10.08 5.19374L10.0793 5.16375ZM10.1753 5.12003L10.0736 5.16503L10.0857 5.19247L10.1875 5.14747L10.1753 5.12003ZM10.1664 5.0025V5.13375H10.1964V5.0025H10.1664ZM10.1684 5.02135C10.174 5.01996 10.1799 5.01853 10.1855 5.01693L10.1773 4.98806C10.1723 4.98949 10.1669 4.99081 10.1612 4.99222L10.1684 5.02135ZM10.1035 5.0775C10.1035 5.05628 10.1112 5.04553 10.1215 5.03836C10.1333 5.03017 10.1494 5.02601 10.1684 5.02135L10.1612 4.99222C10.1436 4.99655 10.1216 5.00177 10.1044 5.01371C10.0857 5.02667 10.0735 5.04678 10.0735 5.0775H10.1035ZM10.0228 4.99551C10.0367 5.00425 10.0452 5.00973 10.0525 5.02007C10.06 5.03067 10.0671 5.04764 10.0738 5.08051L10.1032 5.07448C10.0962 5.04018 10.0881 5.0184 10.077 5.00275C10.0658 4.98684 10.0522 4.97856 10.0387 4.97008L10.0228 4.99551ZM9.99533 4.97692C10.0057 4.98485 10.015 4.99062 10.0228 4.99551L10.0387 4.97008C10.0309 4.96519 10.0227 4.96007 10.0135 4.95307L9.99533 4.97692ZM9.98376 4.99774C9.99259 4.99228 10.003 4.98584 10.0141 4.97644L9.99473 4.95355C9.98554 4.96134 9.97684 4.96674 9.96798 4.97223L9.98376 4.99774ZM9.93518 5.07978C9.93995 5.0488 9.94682 5.03229 9.95429 5.02189C9.96173 5.01155 9.97062 5.00587 9.98376 4.99774L9.96798 4.97223C9.95523 4.98012 9.94131 4.98856 9.92993 5.00439C9.91859 5.02017 9.91066 5.0419 9.90553 5.07521L9.93518 5.07978ZM9.83332 5.02043C9.85362 5.02524 9.86967 5.02922 9.88199 5.03746C9.89309 5.04489 9.9021 5.05653 9.90551 5.07969L9.93519 5.07531C9.93068 5.0447 9.91755 5.02516 9.89867 5.01253C9.881 5.0007 9.85923 4.99573 9.84023 4.99124L9.83332 5.02043ZM9.81931 5.01703C9.82405 5.01824 9.82878 5.01936 9.83332 5.02043L9.84023 4.99124C9.83565 4.99015 9.83117 4.98909 9.8267 4.98796L9.81931 5.01703ZM9.83801 5.13375V5.0025H9.80801V5.13375H9.83801ZM9.4893 6.73051C9.54611 6.78828 9.57452 6.8647 9.58836 6.94472C9.60221 7.02481 9.60125 7.107 9.60041 7.17553L9.6304 7.17589C9.63124 7.10773 9.63232 7.02283 9.61792 6.93961C9.60352 6.85633 9.57339 6.77324 9.5107 6.70948L9.4893 6.73051ZM10.5 6.705H9.5V6.735H10.5V6.705ZM10.3996 7.17553C10.3988 7.107 10.3978 7.02481 10.4116 6.94472C10.4255 6.8647 10.4539 6.78828 10.5107 6.73051L10.4893 6.70948C10.4266 6.77324 10.3965 6.85633 10.3821 6.93961C10.3677 7.02283 10.3688 7.10773 10.3696 7.17589L10.3996 7.17553ZM10.4 7.21875C10.4 7.20516 10.3998 7.19066 10.3996 7.17553L10.3696 7.17589C10.3698 7.19107 10.37 7.20538 10.37 7.21875H10.4ZM9.61504 7.23375H10.385V7.20375H9.61504V7.23375ZM9.60041 7.17553C9.60022 7.19066 9.60004 7.20516 9.60004 7.21875H9.63004C9.63004 7.20538 9.63022 7.19107 9.6304 7.17589L9.60041 7.17553Z" fill="black"/>
<path d="M9.93125 5.39627L9.78125 5.29127V5.17502C9.8375 5.18627 9.89375 5.19377 9.90125 5.25752C9.91625 5.16377 9.95 5.11877 10.0025 5.08127C10.0512 5.11877 10.085 5.16377 10.1037 5.25752C10.1075 5.19377 10.1675 5.18627 10.2163 5.17502V5.29502L10.07 5.39627H9.93125Z" fill="white" stroke="black" stroke-width="0.03"/>
<path fill-rule="evenodd" clip-rule="evenodd" d="M9.88636 5.73001L9.63068 5.58001V5.40376L9.65392 5.40746C9.73823 5.42065 9.82482 5.43419 9.83523 5.52001C9.86364 5.38876 9.92045 5.31751 10.0057 5.26501C10.0966 5.31751 10.1534 5.38876 10.1875 5.52001C10.1979 5.43419 10.2845 5.42065 10.3688 5.40746L10.392 5.40376V5.58001L10.1307 5.73001H9.88636ZM10.3636 5.92876L10.1364 6.14251H9.86932L9.63636 5.92876H10.3636ZM9.67045 6.57001C9.65909 6.41251 9.61364 6.32626 9.5 6.28501H10.5C10.3864 6.32626 10.3409 6.41251 10.3295 6.57001H9.67045Z" fill="white"/>
<path d="M9.63068 5.58001H9.61568V5.58861L9.62309 5.59295L9.63068 5.58001ZM9.88636 5.73001L9.87756 5.74501H9.88636V5.73001ZM9.63068 5.40376L9.63304 5.38895L9.61568 5.38619V5.40376H9.63068ZM9.65392 5.40746L9.65156 5.42228L9.6516 5.42228L9.65392 5.40746ZM9.83523 5.52001L9.82034 5.52182L9.84989 5.52319L9.83523 5.52001ZM10.0057 5.26501L10.0132 5.25203L10.0054 5.24755L9.99781 5.25224L10.0057 5.26501ZM10.1875 5.52001L10.173 5.52379L10.2024 5.52182L10.1875 5.52001ZM10.3688 5.40746L10.3711 5.42228L10.3712 5.42228L10.3688 5.40746ZM10.392 5.40376H10.407V5.38619L10.3897 5.38895L10.392 5.40376ZM10.392 5.58001L10.3995 5.59302L10.407 5.5887V5.58001H10.392ZM10.1307 5.73001V5.74731L10.1381 5.74302L10.1307 5.73001ZM10.1364 6.14251V6.16311L10.1466 6.15344L10.1364 6.14251ZM10.3636 5.92876L10.3739 5.93969L10.4015 5.91376H10.3636V5.92876ZM9.86932 6.14251L9.85555 6.15751H9.86932V6.14251ZM9.63636 5.92876V5.91376H9.59783L9.62622 5.93982L9.63636 5.92876ZM9.5 6.28501V6.27001L9.49488 6.29911L9.5 6.28501ZM9.67045 6.57001L9.65549 6.57109L9.6565 6.58501H9.67045V6.57001ZM10.5 6.28501L10.5051 6.29911L10.5 6.27001V6.28501ZM10.3295 6.57001V6.58501H10.3435L10.3445 6.57109L10.3295 6.57001ZM9.62309 5.59295L9.87877 5.74295L9.89395 5.71708L9.63827 5.56708L9.62309 5.59295ZM9.61568 5.40376V5.58001H9.64568V5.40376H9.61568ZM9.65628 5.39265L9.63304 5.38895L9.62832 5.41858L9.65156 5.42228L9.65628 5.39265ZM9.85012 5.51821C9.84416 5.46905 9.81571 5.44036 9.77868 5.42293C9.74285 5.40607 9.69778 5.39914 9.65624 5.39264L9.6516 5.42228C9.69437 5.42897 9.73475 5.43541 9.7659 5.45007C9.79584 5.46416 9.81589 5.48515 9.82034 5.52182L9.85012 5.51821ZM9.99781 5.25224C9.90897 5.30697 9.8498 5.38176 9.82057 5.51684L9.84989 5.52319C9.87747 5.39577 9.93194 5.32806 10.0135 5.27779L9.99781 5.25224ZM10.202 5.51624C10.1846 5.4493 10.1612 5.39681 10.13 5.35413C10.0987 5.31137 10.0601 5.27912 10.0132 5.25203L9.99818 5.278C10.0422 5.30341 10.0774 5.33304 10.1058 5.37184C10.1342 5.41072 10.1563 5.45948 10.173 5.52379L10.202 5.51624ZM10.3665 5.39264C10.3249 5.39914 10.2799 5.40607 10.2441 5.42293C10.207 5.44036 10.1786 5.46905 10.1726 5.51821L10.2024 5.52182C10.2068 5.48515 10.2269 5.46416 10.2568 5.45007C10.288 5.43541 10.3284 5.42897 10.3711 5.42228L10.3665 5.39264ZM10.3897 5.38895L10.3665 5.39265L10.3712 5.42228L10.3944 5.41858L10.3897 5.38895ZM10.407 5.58001V5.40376H10.377V5.58001H10.407ZM10.1381 5.74302L10.3995 5.59302L10.3846 5.567L10.1232 5.717L10.1381 5.74302ZM9.88636 5.74501H10.1307V5.71501H9.88636V5.74501ZM10.1466 6.15344L10.3739 5.93969L10.3534 5.91784L10.1261 6.13159L10.1466 6.15344ZM9.86932 6.15751H10.1364V6.12751H9.86932V6.15751ZM9.62622 5.93982L9.85918 6.15357L9.87946 6.13146L9.6465 5.91771L9.62622 5.93982ZM10.3636 5.91376H9.63636V5.94376H10.3636V5.91376ZM9.49488 6.29911C9.54883 6.3187 9.58561 6.34847 9.61061 6.39146C9.63594 6.43501 9.64988 6.49331 9.65549 6.57109L9.68542 6.56894C9.67966 6.48922 9.6652 6.42565 9.63655 6.37638C9.60757 6.32656 9.56481 6.29258 9.50512 6.27091L9.49488 6.29911ZM10.5 6.27001H9.5V6.30001H10.5V6.27001ZM10.3445 6.57109C10.3501 6.49331 10.3641 6.43501 10.3894 6.39146C10.4144 6.34847 10.4512 6.3187 10.5051 6.29911L10.4949 6.27091C10.4352 6.29258 10.3924 6.32656 10.3635 6.37638C10.3348 6.42565 10.3203 6.48922 10.3146 6.56894L10.3445 6.57109ZM9.67045 6.58501H10.3295V6.55501H9.67045V6.58501Z" fill="black"/>
<path d="M10.3325 5.92499V5.71499C10.2668 5.72897 10.213 5.77572 10.19 5.83874C10.19 5.76374 10.0962 5.60249 9.99497 5.51999C9.89372 5.60999 9.79622 5.75999 9.79997 5.83499C9.78122 5.77874 9.73247 5.73374 9.65747 5.71499V5.92874L10.3325 5.92499Z" fill="white" stroke="black" stroke-width="0.03" stroke-linejoin="bevel"/>
<path d="M10.3624 6.285V6.075C10.2837 6.0975 10.2312 6.13875 10.2087 6.19875C10.2087 6.12375 10.1074 5.9625 9.99494 5.88C9.88244 5.97375 9.77744 6.12 9.78119 6.19875C9.76244 6.1425 9.70619 6.0975 9.62744 6.075V6.28875L10.3624 6.285Z" fill="white" stroke="black" stroke-width="0.03" stroke-linejoin="bevel"/>
<path d="M10.4524 6.72375V6.47625C10.3744 6.50064 10.3069 6.5509 10.2612 6.61875C10.2612 6.4875 10.1112 6.28125 9.99494 6.2175C9.87494 6.285 9.72869 6.495 9.72869 6.61875C9.68182 6.55043 9.61302 6.50015 9.53369 6.47625V6.72375H10.4524Z" fill="white" stroke="black" stroke-width="0.03" stroke-linejoin="bevel"/>
<path d="M6.38747 8.59498V7.82998C6.36122 7.73248 6.27497 7.64248 6.21497 7.62748V6.95248L6.35372 7.02748L6.51497 7.73623V8.59873L6.38747 8.59498Z" fill="white" stroke="black" stroke-width="0.03"/>
<path d="M6.28619 8.79376C6.34994 8.76751 6.44369 8.68501 6.44369 8.60626V7.64626L6.39869 7.57126H8.03744L7.97369 7.64626V8.60626C7.97929 8.68717 8.02801 8.75881 8.10119 8.79376H6.28619Z" fill="white" stroke="black" stroke-width="0.03"/>
<path d="M7.76749 8.79375C7.70374 8.7675 7.60999 8.685 7.60999 8.60625V7.695L7.74499 7.5675H6.63499L6.76999 7.695V8.60625C6.76999 8.685 6.67624 8.7675 6.61249 8.79375H7.76749Z" fill="white" stroke="black" stroke-width="0.03"/>
<path d="M7.61374 8.79375C7.54999 8.7675 7.45249 8.685 7.45249 8.60625V7.78125L7.54249 7.6575H6.83749L6.92749 7.78125V8.60625C6.92749 8.685 6.83374 8.7675 6.76624 8.79375H7.61374Z" fill="white" stroke="black" stroke-width="0.03"/>
<path fill-rule="evenodd" clip-rule="evenodd" d="M6.44745 6.81H6.6087V6.93H6.61245V7.5675H6.44745V6.93V6.81ZM6.5637 7.9725H6.6987V8.59125H6.5637V7.9725ZM7.7187 7.9725H7.84995V8.59125H7.71495L7.7187 7.9725ZM8.0112 7.06875H7.78245V7.55625H8.0112V7.06875Z" fill="white"/>
<path d="M6.6087 6.81H6.6237L6.6087 6.795V6.81ZM6.44745 6.81V6.795L6.43245 6.81H6.44745ZM6.6087 6.93H6.5937L6.6087 6.945V6.93ZM6.61245 6.93H6.62745L6.61245 6.915V6.93ZM6.61245 7.5675V7.5825L6.62745 7.5675H6.61245ZM6.44745 7.5675H6.43245L6.44745 7.5825V7.5675ZM6.6987 7.9725H6.7137L6.6987 7.9575V7.9725ZM6.5637 7.9725V7.9575L6.5487 7.9725H6.5637ZM6.6987 8.59125V8.60625L6.7137 8.59125H6.6987ZM6.5637 8.59125H6.5487L6.5637 8.60625V8.59125ZM7.84995 7.9725H7.86495L7.84995 7.9575V7.9725ZM7.7187 7.9725V7.9575L7.7037 7.97241L7.7187 7.9725ZM7.84995 8.59125V8.60625L7.86495 8.59125H7.84995ZM7.71495 8.59125L7.69995 8.59116L7.71495 8.60625V8.59125ZM7.78245 7.06875V7.05375L7.76745 7.06875H7.78245ZM8.0112 7.06875H8.0262L8.0112 7.05375V7.06875ZM7.78245 7.55625H7.76745L7.78245 7.57125V7.55625ZM8.0112 7.55625V7.57125L8.0262 7.55625H8.0112ZM6.6087 6.795H6.44745V6.825H6.6087V6.795ZM6.6237 6.93V6.81H6.5937V6.93H6.6237ZM6.61245 6.915H6.6087V6.945H6.61245V6.915ZM6.62745 7.5675V6.93H6.59745V7.5675H6.62745ZM6.44745 7.5825H6.61245V7.5525H6.44745V7.5825ZM6.43245 6.93V7.5675H6.46245V6.93H6.43245ZM6.43245 6.81V6.93H6.46245V6.81H6.43245ZM6.6987 7.9575H6.5637V7.9875H6.6987V7.9575ZM6.7137 8.59125V7.9725H6.6837V8.59125H6.7137ZM6.5637 8.60625H6.6987V8.57625H6.5637V8.60625ZM6.5487 7.9725V8.59125H6.5787V7.9725H6.5487ZM7.84995 7.9575H7.7187V7.9875H7.84995V7.9575ZM7.86495 8.59125V7.9725H7.83495V8.59125H7.86495ZM7.71495 8.60625H7.84995V8.57625H7.71495V8.60625ZM7.7037 7.97241L7.69995 8.59116L7.72995 8.59134L7.7337 7.97259L7.7037 7.97241ZM7.78245 7.08375H8.0112V7.05375H7.78245V7.08375ZM7.79745 7.55625V7.06875H7.76745V7.55625H7.79745ZM8.0112 7.54125H7.78245V7.57125H8.0112V7.54125ZM7.9962 7.06875V7.55625H8.0262V7.06875H7.9962Z" fill="black"/>
<path fill-rule="evenodd" clip-rule="evenodd" d="M6.60873 6.4725V7.56H7.78998V6.47625C7.77217 6.47625 7.76024 6.5009 7.74581 6.5307C7.72378 6.57622 7.69593 6.63375 7.63248 6.63375C7.57623 6.63375 7.58373 6.56625 7.61373 6.51375C7.63998 6.465 7.67373 6.40125 7.62873 6.2775C7.59498 6.37125 7.51248 6.40125 7.52748 6.345C7.53576 6.31303 7.54928 6.28929 7.56202 6.26693C7.58962 6.21845 7.61353 6.17646 7.57248 6.07125C7.55373 6.19875 7.47123 6.195 7.48998 6.12C7.49544 6.09904 7.50246 6.08097 7.50909 6.06389C7.52974 6.01066 7.54665 5.9671 7.50123 5.87625C7.46748 6.015 7.42623 6.0075 7.42623 5.92125C7.42623 5.9185 7.42623 5.91575 7.42623 5.913C7.42631 5.79139 7.4264 5.65767 7.26873 5.61C7.26873 5.61 7.25748 5.4975 7.20123 5.4975C7.14123 5.4975 7.12998 5.61 7.12998 5.61C6.97248 5.65875 6.97248 5.79375 6.97248 5.92125C6.97248 6.0075 6.93123 6.015 6.89748 5.87625C6.85205 5.9671 6.86896 6.01066 6.88962 6.06389C6.89624 6.08097 6.90326 6.09904 6.90873 6.12C6.92748 6.195 6.84498 6.19875 6.82623 6.07125C6.78517 6.17646 6.80908 6.21845 6.83668 6.26693C6.84942 6.28929 6.86294 6.31303 6.87123 6.345C6.88623 6.40125 6.80373 6.37125 6.76998 6.2775C6.72498 6.40125 6.75873 6.465 6.78498 6.51375C6.81873 6.56625 6.82248 6.63375 6.76623 6.63375C6.70277 6.63375 6.67492 6.57485 6.65289 6.52825C6.63846 6.49774 6.62653 6.4725 6.60873 6.4725ZM6.34998 7.5675V6.73875C6.38198 6.72 6.41398 6.72 6.44998 6.73875V7.5675H6.34998Z" fill="white"/>
<path d="M6.60873 7.56H6.59373V7.575H6.60873V7.56ZM6.60873 6.4725V6.4575H6.59373V6.4725H6.60873ZM7.78998 7.56V7.575H7.80498V7.56H7.78998ZM7.78998 6.47625H7.80498V6.46125H7.78998V6.47625ZM7.74581 6.5307L7.75931 6.53724L7.74581 6.5307ZM7.61373 6.51375L7.62675 6.52119L7.62693 6.52086L7.61373 6.51375ZM7.62873 6.2775L7.64282 6.27237L7.62865 6.23341L7.61461 6.27242L7.62873 6.2775ZM7.52748 6.345L7.54197 6.34886L7.542 6.34876L7.52748 6.345ZM7.56202 6.26693L7.54898 6.2595L7.56202 6.26693ZM7.57248 6.07125L7.58645 6.06579L7.56587 6.01306L7.55764 6.06907L7.57248 6.07125ZM7.48998 6.12L7.47546 6.11621L7.47542 6.11636L7.48998 6.12ZM7.50909 6.06389L7.4951 6.05846V6.05846L7.50909 6.06389ZM7.50123 5.87625L7.51464 5.86954L7.49633 5.83291L7.48665 5.8727L7.50123 5.87625ZM7.42623 5.913L7.41123 5.91299V5.91299L7.42623 5.913ZM7.26873 5.61L7.2538 5.61149L7.2548 5.62146L7.26438 5.62436L7.26873 5.61ZM7.12998 5.61L7.13441 5.62433L7.14391 5.62139L7.1449 5.61149L7.12998 5.61ZM6.89748 5.87625L6.91205 5.8727L6.90237 5.83291L6.88406 5.86954L6.89748 5.87625ZM6.88962 6.06389L6.9036 6.05846L6.88962 6.06389ZM6.90873 6.12L6.92328 6.11636L6.92324 6.11621L6.90873 6.12ZM6.82623 6.07125L6.84107 6.06907L6.83283 6.01306L6.81225 6.06579L6.82623 6.07125ZM6.83668 6.26693L6.84972 6.2595L6.83668 6.26693ZM6.87123 6.345L6.85671 6.34876L6.85673 6.34886L6.87123 6.345ZM6.76998 6.2775L6.78409 6.27242L6.77005 6.23341L6.75588 6.27237L6.76998 6.2775ZM6.78498 6.51375L6.77173 6.52088L6.77236 6.52186L6.78498 6.51375ZM6.65289 6.52825L6.66645 6.52184L6.65289 6.52825ZM6.34998 6.73875L6.34239 6.72581L6.33498 6.73015V6.73875H6.34998ZM6.34998 7.5675H6.33498V7.5825H6.34998V7.5675ZM6.44998 6.73875H6.46498V6.72965L6.4569 6.72544L6.44998 6.73875ZM6.44998 7.5675V7.5825H6.46498V7.5675H6.44998ZM6.62373 7.56V6.4725H6.59373V7.56H6.62373ZM7.78998 7.545H6.60873V7.575H7.78998V7.545ZM7.77498 6.47625V7.56H7.80498V6.47625H7.77498ZM7.75931 6.53724C7.76672 6.52194 7.77273 6.50962 7.77886 6.50098C7.78526 6.49195 7.78878 6.49125 7.78998 6.49125V6.46125C7.77337 6.46125 7.76202 6.47287 7.75439 6.48362C7.7465 6.49475 7.73933 6.50966 7.73231 6.52417L7.75931 6.53724ZM7.63248 6.64875C7.66955 6.64875 7.69621 6.63164 7.71594 6.6092C7.73517 6.58733 7.74847 6.55964 7.75931 6.53724L7.73231 6.52417C7.72112 6.54729 7.70948 6.57112 7.69341 6.58939C7.67785 6.60709 7.65886 6.61875 7.63248 6.61875V6.64875ZM7.6007 6.50631C7.5849 6.53395 7.57414 6.56691 7.57578 6.59433C7.57662 6.60823 7.58075 6.62214 7.59068 6.63267C7.60088 6.64348 7.61528 6.64875 7.63248 6.64875V6.61875C7.62154 6.61875 7.61579 6.61557 7.61251 6.61209C7.60896 6.60833 7.6063 6.60208 7.60573 6.59254C7.60456 6.57309 7.61255 6.54604 7.62675 6.52119L7.6007 6.50631ZM7.61463 6.28262C7.6364 6.34249 7.63876 6.38676 7.63314 6.42134C7.62749 6.45612 7.61363 6.48229 7.60052 6.50664L7.62693 6.52086C7.64007 6.49646 7.65621 6.46638 7.66275 6.42615C7.66932 6.38574 7.66605 6.33626 7.64282 6.27237L7.61463 6.28262ZM7.51298 6.34113C7.50886 6.35658 7.5091 6.37513 7.52459 6.38428C7.53151 6.38837 7.53928 6.38889 7.54611 6.38793C7.553 6.38697 7.56005 6.38436 7.56685 6.38075C7.59372 6.36649 7.62495 6.33226 7.64284 6.28258L7.61461 6.27242C7.59875 6.31649 7.57186 6.34413 7.55279 6.35425C7.54811 6.35673 7.54443 6.35787 7.54194 6.35822C7.53937 6.35858 7.53908 6.358 7.53985 6.35845C7.54304 6.36033 7.53859 6.36154 7.54197 6.34886L7.51298 6.34113ZM7.54898 6.2595C7.53626 6.28184 7.5218 6.30713 7.51296 6.34123L7.542 6.34876C7.54973 6.31893 7.5623 6.29674 7.57505 6.27435L7.54898 6.2595ZM7.5585 6.0767C7.57844 6.1278 7.58196 6.16189 7.57815 6.18822C7.57431 6.21474 7.56291 6.23504 7.54898 6.2595L7.57505 6.27435C7.58872 6.25034 7.60308 6.22541 7.60784 6.19251C7.61263 6.15942 7.60757 6.11991 7.58645 6.06579L7.5585 6.0767ZM7.47542 6.11636C7.47022 6.13717 7.47123 6.15607 7.47949 6.16972C7.48372 6.17671 7.48984 6.18219 7.49749 6.18514C7.50512 6.18809 7.5133 6.18816 7.52111 6.18603C7.53642 6.18185 7.5506 6.16931 7.56182 6.15105C7.57321 6.13251 7.58241 6.10679 7.58732 6.07343L7.55764 6.06907C7.55317 6.09945 7.54503 6.12107 7.53626 6.13535C7.52732 6.1499 7.51853 6.15564 7.51322 6.15709C7.51072 6.15777 7.50917 6.15749 7.5083 6.15716C7.50746 6.15683 7.50631 6.1561 7.50515 6.15418C7.50263 6.15002 7.50036 6.14032 7.50453 6.12364L7.47542 6.11636ZM7.4951 6.05846C7.48849 6.07549 7.48117 6.09431 7.47546 6.11621L7.50449 6.12378C7.50971 6.10378 7.51642 6.08645 7.52307 6.06932L7.4951 6.05846ZM7.48781 5.88296C7.50974 5.92683 7.51595 5.9579 7.51495 5.98359C7.51393 6.00962 7.50554 6.03156 7.4951 6.05846L7.52307 6.06932C7.53329 6.04299 7.54368 6.01654 7.54492 5.98476C7.54618 5.95265 7.53813 5.91652 7.51464 5.86954L7.48781 5.88296ZM7.41123 5.92125C7.41123 5.94361 7.41384 5.96252 7.41933 5.97583C7.42205 5.98244 7.42606 5.98909 7.43218 5.99358C7.43901 5.99861 7.44739 6.00007 7.45567 5.9974C7.46307 5.99501 7.46917 5.98975 7.47413 5.98387C7.47923 5.97783 7.48408 5.96998 7.48872 5.96058C7.498 5.94176 7.50722 5.91506 7.5158 5.87979L7.48665 5.8727C7.47835 5.90681 7.46976 5.9312 7.46182 5.94731C7.45784 5.95537 7.45423 5.96094 7.4512 5.96453C7.44802 5.96829 7.44633 5.96889 7.44646 5.96885C7.44748 5.96852 7.44912 5.96881 7.44994 5.96941C7.45003 5.96948 7.44874 5.96846 7.44707 5.9644C7.44376 5.95638 7.44123 5.94201 7.44123 5.92125H7.41123ZM7.41123 5.91299C7.41123 5.91574 7.41123 5.9185 7.41123 5.92125H7.44123C7.44123 5.91851 7.44123 5.91576 7.44123 5.913L7.41123 5.91299ZM7.26438 5.62436C7.33863 5.6468 7.37444 5.68867 7.39252 5.73886C7.41114 5.79051 7.41127 5.85155 7.41123 5.91299L7.44123 5.91301C7.44127 5.85283 7.44148 5.7862 7.42075 5.72868C7.39948 5.66969 7.3565 5.62086 7.27307 5.59564L7.26438 5.62436ZM7.20123 5.5125C7.20961 5.5125 7.21701 5.51648 7.22407 5.52479C7.23134 5.53333 7.23727 5.54544 7.24191 5.5587C7.24649 5.57179 7.24949 5.58504 7.25133 5.59512C7.25225 5.60014 7.25288 5.6043 7.25327 5.60718C7.25346 5.60862 7.2536 5.60974 7.25369 5.61047C7.25373 5.61084 7.25376 5.61111 7.25378 5.61129C7.25379 5.61137 7.25379 5.61143 7.2538 5.61147C7.2538 5.61148 7.2538 5.61149 7.2538 5.6115C7.2538 5.6115 7.2538 5.6115 7.2538 5.6115C7.2538 5.6115 7.2538 5.6115 7.2538 5.6115C7.2538 5.61149 7.2538 5.61149 7.26873 5.61C7.28365 5.6085 7.28365 5.6085 7.28365 5.6085C7.28365 5.60849 7.28365 5.60849 7.28365 5.60849C7.28365 5.60848 7.28365 5.60847 7.28365 5.60846C7.28364 5.60843 7.28364 5.6084 7.28364 5.60836C7.28363 5.60829 7.28362 5.60819 7.2836 5.60806C7.28358 5.60781 7.28354 5.60745 7.28348 5.607C7.28338 5.60609 7.28322 5.60478 7.283 5.60315C7.28255 5.59988 7.28186 5.59525 7.28084 5.58971C7.27882 5.5787 7.27549 5.56383 7.27023 5.54879C7.26502 5.53393 7.2576 5.51791 7.24693 5.50536C7.23607 5.49258 7.22097 5.4825 7.20123 5.4825V5.5125ZM7.12998 5.61C7.1449 5.61149 7.1449 5.61149 7.1449 5.6115C7.1449 5.6115 7.1449 5.6115 7.1449 5.6115C7.1449 5.6115 7.1449 5.6115 7.1449 5.6115C7.1449 5.6115 7.1449 5.61149 7.1449 5.61147C7.14491 5.61144 7.14491 5.61138 7.14492 5.61129C7.14494 5.61113 7.14497 5.61085 7.14501 5.61049C7.1451 5.60976 7.14524 5.60865 7.14544 5.60722C7.14583 5.60435 7.14647 5.6002 7.14741 5.5952C7.14931 5.58515 7.1524 5.57195 7.15718 5.55891C7.16202 5.54572 7.16824 5.53365 7.17593 5.52511C7.18337 5.51684 7.19154 5.5125 7.20123 5.5125V5.4825C7.18091 5.4825 7.16517 5.49222 7.15363 5.50504C7.14233 5.51759 7.13449 5.53365 7.12902 5.54858C7.12348 5.56367 7.12002 5.57859 7.11793 5.58964C7.11688 5.59519 7.11617 5.59983 7.11572 5.60311C7.11549 5.60476 7.11533 5.60606 7.11522 5.60698C7.11517 5.60744 7.11513 5.6078 7.1151 5.60806C7.11508 5.60818 7.11507 5.60829 7.11506 5.60836C7.11506 5.6084 7.11506 5.60843 7.11506 5.60845C7.11505 5.60847 7.11505 5.60848 7.11505 5.60848C7.11505 5.60849 7.11505 5.60849 7.11505 5.6085C7.11505 5.6085 7.11505 5.6085 7.12998 5.61ZM6.98748 5.92125C6.98748 5.85685 6.98764 5.79398 7.00631 5.74108C7.02445 5.68967 7.06029 5.64727 7.13441 5.62433L7.12554 5.59567C7.04216 5.62148 6.99925 5.67095 6.97802 5.7311C6.95731 5.78976 6.95748 5.85814 6.95748 5.92125H6.98748ZM6.8829 5.87979C6.89148 5.91506 6.9007 5.94176 6.90998 5.96058C6.91462 5.96998 6.91947 5.97783 6.92457 5.98387C6.92953 5.98975 6.93563 5.99501 6.94303 5.9974C6.95131 6.00007 6.95969 5.99861 6.96653 5.99358C6.97264 5.98909 6.97665 5.98244 6.97937 5.97583C6.98486 5.96252 6.98748 5.94361 6.98748 5.92125H6.95748C6.95748 5.94201 6.95494 5.95638 6.95163 5.9644C6.94996 5.96846 6.94867 5.96948 6.94876 5.96941C6.94958 5.96881 6.95122 5.96852 6.95224 5.96885C6.95237 5.96889 6.95068 5.96829 6.9475 5.96453C6.94447 5.96094 6.94086 5.95537 6.93688 5.94731C6.92894 5.9312 6.92035 5.90681 6.91205 5.8727L6.8829 5.87979ZM6.9036 6.05846C6.89316 6.03156 6.88477 6.00962 6.88375 5.98359C6.88275 5.9579 6.88896 5.92683 6.91089 5.88296L6.88406 5.86954C6.86057 5.91652 6.85252 5.95265 6.85378 5.98476C6.85502 6.01654 6.86541 6.04299 6.87563 6.06932L6.9036 6.05846ZM6.92324 6.11621C6.91753 6.09431 6.91021 6.07549 6.9036 6.05846L6.87563 6.06932C6.88228 6.08645 6.88899 6.10378 6.89421 6.12378L6.92324 6.11621ZM6.81139 6.07343C6.81629 6.10679 6.82549 6.13251 6.83688 6.15105C6.8481 6.16931 6.86228 6.18185 6.87759 6.18603C6.88541 6.18816 6.89359 6.18809 6.90121 6.18514C6.90887 6.18219 6.91498 6.17671 6.91921 6.16972C6.92748 6.15607 6.92848 6.13717 6.92328 6.11636L6.89417 6.12364C6.89834 6.14032 6.89607 6.15002 6.89355 6.15418C6.89239 6.1561 6.89124 6.15683 6.8904 6.15716C6.88953 6.15749 6.88798 6.15777 6.88548 6.15709C6.88017 6.15564 6.87138 6.1499 6.86244 6.13535C6.85368 6.12107 6.84553 6.09945 6.84107 6.06907L6.81139 6.07343ZM6.84972 6.2595C6.83579 6.23504 6.82439 6.21474 6.82055 6.18822C6.81675 6.16189 6.82026 6.1278 6.8402 6.0767L6.81225 6.06579C6.79113 6.11991 6.78608 6.15942 6.79086 6.19251C6.79562 6.22541 6.80998 6.25034 6.82365 6.27435L6.84972 6.2595ZM6.88575 6.34123C6.8769 6.30713 6.86244 6.28184 6.84972 6.2595L6.82365 6.27435C6.8364 6.29674 6.84897 6.31893 6.85671 6.34876L6.88575 6.34123ZM6.75586 6.28258C6.77375 6.33226 6.80498 6.36649 6.83185 6.38075C6.83865 6.38436 6.8457 6.38697 6.85259 6.38793C6.85942 6.38889 6.86719 6.38837 6.87411 6.38428C6.8896 6.37513 6.88984 6.35658 6.88572 6.34113L6.85673 6.34886C6.86011 6.36154 6.85566 6.36033 6.85885 6.35845C6.85962 6.358 6.85933 6.35858 6.85677 6.35822C6.85427 6.35787 6.8506 6.35673 6.84591 6.35425C6.82684 6.34413 6.79995 6.31649 6.78409 6.27242L6.75586 6.28258ZM6.79818 6.50664C6.78507 6.48229 6.77121 6.45612 6.76556 6.42134C6.75994 6.38676 6.7623 6.34249 6.78407 6.28262L6.75588 6.27237C6.73265 6.33626 6.72938 6.38574 6.73595 6.42615C6.74249 6.46638 6.75863 6.49646 6.77177 6.52086L6.79818 6.50664ZM6.76623 6.64875C6.78342 6.64875 6.79791 6.64349 6.80833 6.6329C6.81854 6.62252 6.82318 6.6087 6.8243 6.59463C6.82652 6.5669 6.8156 6.53364 6.79759 6.50564L6.77236 6.52186C6.78811 6.54636 6.79593 6.5731 6.7944 6.59224C6.79365 6.60161 6.79079 6.60794 6.78694 6.61186C6.7833 6.61556 6.77716 6.61875 6.76623 6.61875V6.64875ZM6.63933 6.53466C6.65017 6.55759 6.66345 6.58589 6.68264 6.60825C6.70233 6.63117 6.72901 6.64875 6.76623 6.64875V6.61875C6.73998 6.61875 6.72102 6.60688 6.7054 6.5887C6.6893 6.56996 6.67764 6.54551 6.66645 6.52184L6.63933 6.53466ZM6.60873 6.4875C6.60976 6.4875 6.61327 6.48813 6.61974 6.49747C6.6259 6.50636 6.63193 6.51901 6.63933 6.53466L6.66645 6.52184C6.65942 6.50698 6.65228 6.49175 6.64441 6.48039C6.63685 6.46948 6.6255 6.4575 6.60873 6.4575V6.4875ZM6.33498 6.73875V7.5675H6.36498V6.73875H6.33498ZM6.4569 6.72544C6.43729 6.71523 6.41791 6.70969 6.39848 6.70969C6.37895 6.70969 6.36036 6.71528 6.34239 6.72581L6.35756 6.75169C6.37159 6.74347 6.385 6.73969 6.39848 6.73969C6.41204 6.73969 6.42666 6.74352 6.44305 6.75205L6.4569 6.72544ZM6.46498 7.5675V6.73875H6.43498V7.5675H6.46498ZM6.34998 7.5825H6.44998V7.5525H6.34998V7.5825Z" fill="black"/>
<path fill-rule="evenodd" clip-rule="evenodd" d="M7.34745 5.95499L7.27995 6.01124H7.1112L7.0437 5.95124V5.87624C7.06995 5.88374 7.0812 5.88749 7.09995 5.91374C7.11642 5.8658 7.15159 5.82657 7.19745 5.80499C7.24266 5.82823 7.27649 5.86883 7.2912 5.91749C7.30995 5.89124 7.32495 5.87999 7.34745 5.87999V5.95499ZM7.78995 7.56374C7.81995 7.39874 7.9362 7.33124 8.05245 7.27499V7.56374H7.78995Z" fill="white"/>
<path d="M7.27995 6.01124V6.03077L7.28955 6.02277L7.27995 6.01124ZM7.34745 5.95499L7.36245 5.97299V5.95499H7.34745ZM7.1112 6.01124L7.09787 6.02624H7.1112V6.01124ZM7.0437 5.95124H7.02112L7.03374 5.96245L7.0437 5.95124ZM7.0437 5.87624L7.04782 5.86182L7.0287 5.85636V5.87624H7.0437ZM7.09995 5.91374L7.08775 5.92246L7.10468 5.94616L7.11414 5.91862L7.09995 5.91374ZM7.19745 5.80499L7.20869 5.78312L7.19106 5.79142L7.19745 5.80499ZM7.2912 5.91749L7.27684 5.92183L7.28567 5.95104L7.30341 5.92621L7.2912 5.91749ZM7.34745 5.87999H7.36245V5.86499H7.34745V5.87999ZM8.05245 7.27499H8.06745V7.25107L8.04592 7.26149L8.05245 7.27499ZM7.78995 7.56374L7.77519 7.56106L7.77198 7.57874H7.78995V7.56374ZM8.05245 7.56374V7.57874H8.06745V7.56374H8.05245ZM7.28955 6.02277L7.35705 5.96652L7.33785 5.94347L7.27035 5.99972L7.28955 6.02277ZM7.1112 6.02624H7.27995V5.99624H7.1112V6.02624ZM7.03374 5.96245L7.10124 6.02245L7.12117 6.00003L7.05367 5.94003L7.03374 5.96245ZM7.0287 5.87624V5.95124H7.0587V5.87624H7.0287ZM7.11216 5.90502C7.10217 5.89105 7.09329 5.88178 7.08246 5.87516C7.072 5.86877 7.06062 5.86548 7.04782 5.86182L7.03958 5.89067C7.05304 5.89451 7.06041 5.89684 7.06682 5.90076C7.07286 5.90446 7.07898 5.91019 7.08775 5.92246L7.11216 5.90502ZM7.19106 5.79142C7.14153 5.81473 7.10355 5.8571 7.08576 5.90887L7.11414 5.91862C7.12929 5.87451 7.16164 5.83842 7.20384 5.81857L7.19106 5.79142ZM7.30556 5.91315C7.28967 5.8606 7.25313 5.81675 7.20431 5.79165L7.19059 5.81833C7.23218 5.83972 7.26331 5.87707 7.27684 5.92183L7.30556 5.91315ZM7.34745 5.86499C7.33334 5.86499 7.32098 5.86863 7.30945 5.87652C7.29839 5.88409 7.28874 5.89513 7.279 5.90877L7.30341 5.92621C7.31241 5.9136 7.31964 5.9059 7.32639 5.90128C7.33267 5.89698 7.33907 5.89499 7.34745 5.89499V5.86499ZM7.36245 5.95499V5.87999H7.33245V5.95499H7.36245ZM8.04592 7.26149C7.92924 7.31795 7.8066 7.3883 7.77519 7.56106L7.80471 7.56643C7.8333 7.40919 7.94316 7.34454 8.05898 7.2885L8.04592 7.26149ZM8.06745 7.56374V7.27499H8.03745V7.56374H8.06745ZM7.78995 7.57874H8.05245V7.54874H7.78995V7.57874Z" fill="black"/>
<path d="M7.31745 6.19499L7.34745 6.12374V6.02999C7.32495 6.02999 7.30995 6.04124 7.2912 6.06749C7.27649 6.01883 7.24266 5.97823 7.19745 5.95499C7.15159 5.97657 7.11642 6.0158 7.09995 6.06374C7.0812 6.03749 7.06995 6.03374 7.0437 6.02999V6.12374L7.0737 6.19499H7.31745Z" fill="white" stroke="black" stroke-width="0.03"/>
<path d="M7.32494 6.44249L7.42244 6.31874V6.19874C7.38494 6.19874 7.36619 6.21749 7.33994 6.25874C7.31369 6.17249 7.26494 6.15749 7.19744 6.11624C7.12619 6.15374 7.07744 6.17249 7.05494 6.25499C7.02494 6.21374 7.00619 6.20249 6.96869 6.19874V6.31874L7.06994 6.44249H7.32494Z" fill="white" stroke="black" stroke-width="0.03"/>
<path d="M7.3512 6.68625C7.3512 6.68625 7.4712 6.585 7.47495 6.52875V6.3975C7.42995 6.40125 7.3887 6.4125 7.35495 6.46875C7.32495 6.36 7.27995 6.33 7.19745 6.28125C7.1112 6.33 7.0662 6.36 7.03995 6.46875C7.00245 6.4125 6.96495 6.40125 6.9162 6.39375V6.52875C6.94769 6.58823 6.98961 6.64158 7.03995 6.68625H7.3512Z" fill="white" stroke="black" stroke-width="0.03"/>
<path d="M7.39998 7.13624C7.39998 7.13624 7.56498 6.95999 7.56873 6.88874V6.68624C7.50873 6.69374 7.44873 6.73499 7.40373 6.82124C7.36623 6.65249 7.30623 6.53624 7.19748 6.45374C7.08498 6.53624 7.02498 6.65249 6.98748 6.82124C6.94248 6.73499 6.88623 6.69374 6.82623 6.68624V6.88874C6.83748 6.95999 6.99123 7.13624 6.99123 7.13624H7.39998Z" fill="white" stroke="black" stroke-width="0.03"/>
<path d="M7.39998 7.40251C7.39998 7.40251 7.53873 7.26376 7.56873 7.20376V7.00126C7.50873 7.00876 7.44873 7.05001 7.40373 7.13251C7.38347 6.9947 7.30928 6.87059 7.19748 6.78751C7.08498 6.87001 7.02498 6.96376 6.98748 7.13251C6.94248 7.05001 6.88623 7.00876 6.82623 7.00126V7.20376C6.86373 7.26376 6.99123 7.40251 6.99123 7.40251H7.39998Z" fill="white" stroke="black" stroke-width="0.03"/>
<path d="M7.45623 7.56C7.41873 7.38375 7.38123 7.2525 7.18998 7.12125C6.99498 7.2525 6.96123 7.38375 6.91998 7.56H7.45623Z" fill="white" stroke="black" stroke-width="0.03"/>
<path d="M13.6137 8.59498V7.82998C13.6399 7.73248 13.7262 7.64248 13.7862 7.62748V6.95248L13.6474 7.02748L13.4862 7.73623V8.59873L13.6137 8.59498Z" fill="white" stroke="black" stroke-width="0.03"/>
<path d="M13.715 8.79376C13.6512 8.76751 13.5575 8.68501 13.5575 8.60626V7.64626L13.6025 7.57126H11.9637L12.0275 7.64626V8.60626C12.0219 8.68717 11.9732 8.75881 11.9 8.79376H13.715Z" fill="white" stroke="black" stroke-width="0.03"/>
<path d="M12.2337 8.79375C12.2974 8.7675 12.3912 8.685 12.3912 8.60625V7.695L12.2562 7.5675H13.3662L13.2312 7.695V8.60625C13.2312 8.685 13.3249 8.7675 13.3887 8.79375H12.2337Z" fill="white" stroke="black" stroke-width="0.03"/>
<path d="M12.3874 8.79375C12.4512 8.7675 12.5487 8.685 12.5487 8.60625V7.78125L12.4587 7.6575H13.1637L13.0737 7.78125V8.60625C13.0737 8.685 13.1674 8.7675 13.2349 8.79375H12.3874Z" fill="white" stroke="black" stroke-width="0.03"/>
<path fill-rule="evenodd" clip-rule="evenodd" d="M13.5537 6.81H13.3925V6.93H13.3887V7.5675H13.5537V6.93V6.81ZM13.4375 7.9725H13.3025V8.59125H13.4375V7.9725ZM12.2825 7.9725H12.1512V8.59125H12.2862L12.2825 7.9725ZM11.99 7.06875H12.2187V7.55625H11.99V7.06875Z" fill="white"/>
<path d="M13.3925 6.81H13.3775L13.3925 6.795V6.81ZM13.5537 6.81V6.795L13.5687 6.81H13.5537ZM13.3925 6.93H13.4075L13.3925 6.945V6.93ZM13.3887 6.93H13.3737L13.3887 6.915V6.93ZM13.3887 7.5675V7.5825L13.3737 7.5675H13.3887ZM13.5537 7.5675H13.5687L13.5537 7.5825V7.5675ZM13.3025 7.9725H13.2875L13.3025 7.9575V7.9725ZM13.4375 7.9725V7.9575L13.4525 7.9725H13.4375ZM13.3025 8.59125V8.60625L13.2875 8.59125H13.3025ZM13.4375 8.59125H13.4525L13.4375 8.60625V8.59125ZM12.1512 7.9725H12.1362L12.1512 7.9575V7.9725ZM12.2825 7.9725V7.9575L12.2975 7.97241L12.2825 7.9725ZM12.1512 8.59125V8.60625L12.1362 8.59125H12.1512ZM12.2862 8.59125L12.3012 8.59116L12.2862 8.60625V8.59125ZM12.2187 7.06875V7.05375L12.2337 7.06875H12.2187ZM11.99 7.06875H11.975L11.99 7.05375V7.06875ZM12.2187 7.55625H12.2337L12.2187 7.57125V7.55625ZM11.99 7.55625V7.57125L11.975 7.55625H11.99ZM13.3925 6.795H13.5537V6.825H13.3925V6.795ZM13.3775 6.93V6.81H13.4075V6.93H13.3775ZM13.3887 6.915H13.3925V6.945H13.3887V6.915ZM13.3737 7.5675V6.93H13.4037V7.5675H13.3737ZM13.5537 7.5825H13.3887V7.5525H13.5537V7.5825ZM13.5687 6.93V7.5675H13.5387V6.93H13.5687ZM13.5687 6.81V6.93H13.5387V6.81H13.5687ZM13.3025 7.9575H13.4375V7.9875H13.3025V7.9575ZM13.2875 8.59125V7.9725H13.3175V8.59125H13.2875ZM13.4375 8.60625H13.3025V8.57625H13.4375V8.60625ZM13.4525 7.9725V8.59125H13.4225V7.9725H13.4525ZM12.1512 7.9575H12.2825V7.9875H12.1512V7.9575ZM12.1362 8.59125V7.9725H12.1662V8.59125H12.1362ZM12.2862 8.60625H12.1512V8.57625H12.2862V8.60625ZM12.2975 7.97241L12.3012 8.59116L12.2712 8.59134L12.2675 7.97259L12.2975 7.97241ZM12.2187 7.08375H11.99V7.05375H12.2187V7.08375ZM12.2037 7.55625V7.06875H12.2337V7.55625H12.2037ZM11.99 7.54125H12.2187V7.57125H11.99V7.54125ZM12.005 7.06875V7.55625H11.975V7.06875H12.005Z" fill="black"/>
<path fill-rule="evenodd" clip-rule="evenodd" d="M13.3924 6.4725V7.56H12.2112V6.47625C12.229 6.47625 12.2409 6.5009 12.2553 6.5307C12.2774 6.57622 12.3052 6.63375 12.3687 6.63375C12.4249 6.63375 12.4174 6.56625 12.3874 6.51375C12.3612 6.465 12.3274 6.40125 12.3724 6.2775C12.4062 6.37125 12.4887 6.40125 12.4737 6.345C12.4654 6.31303 12.4519 6.28929 12.4391 6.26693C12.4115 6.21845 12.3876 6.17646 12.4287 6.07125C12.4474 6.19875 12.5299 6.195 12.5112 6.12C12.5057 6.09904 12.4987 6.08097 12.4921 6.06389C12.4714 6.01066 12.4545 5.9671 12.4999 5.87625C12.5337 6.015 12.5749 6.0075 12.5749 5.92125C12.5749 5.9185 12.5749 5.91575 12.5749 5.913C12.5748 5.79139 12.5748 5.65767 12.7324 5.61C12.7324 5.61 12.7437 5.4975 12.7999 5.4975C12.8599 5.4975 12.8712 5.61 12.8712 5.61C13.0287 5.65875 13.0287 5.79375 13.0287 5.92125C13.0287 6.0075 13.0699 6.015 13.1037 5.87625C13.1491 5.9671 13.1322 6.01066 13.1115 6.06389C13.1049 6.08097 13.0979 6.09904 13.0924 6.12C13.0737 6.195 13.1562 6.19875 13.1749 6.07125C13.216 6.17646 13.1921 6.21845 13.1645 6.26693C13.1517 6.28929 13.1382 6.31303 13.1299 6.345C13.1149 6.40125 13.1974 6.37125 13.2312 6.2775C13.2762 6.40125 13.2424 6.465 13.2162 6.51375C13.1824 6.56625 13.1787 6.63375 13.2349 6.63375C13.2984 6.63375 13.3262 6.57485 13.3483 6.52825C13.3627 6.49774 13.3746 6.4725 13.3924 6.4725ZM13.6512 7.5675V6.73875C13.6192 6.72 13.5872 6.72 13.5512 6.73875V7.5675H13.6512Z" fill="white"/>
<path d="M13.3924 7.56H13.4074V7.575H13.3924V7.56ZM13.3924 6.4725V6.4575H13.4074V6.4725H13.3924ZM12.2112 7.56V7.575H12.1962V7.56H12.2112ZM12.2112 6.47625H12.1962V6.46125H12.2112V6.47625ZM12.2553 6.5307L12.2418 6.53724L12.2553 6.5307ZM12.3874 6.51375L12.3744 6.52119L12.3742 6.52086L12.3874 6.51375ZM12.3724 6.2775L12.3583 6.27237L12.3725 6.23341L12.3865 6.27242L12.3724 6.2775ZM12.4737 6.345L12.4592 6.34886L12.4592 6.34876L12.4737 6.345ZM12.4391 6.26693L12.4522 6.2595L12.4391 6.26693ZM12.4287 6.07125L12.4147 6.06579L12.4353 6.01306L12.4435 6.06907L12.4287 6.07125ZM12.5112 6.12L12.5257 6.11621L12.5257 6.11636L12.5112 6.12ZM12.4921 6.06389L12.5061 6.05846V6.05846L12.4921 6.06389ZM12.4999 5.87625L12.4865 5.86954L12.5048 5.83291L12.5145 5.8727L12.4999 5.87625ZM12.5749 5.913L12.5899 5.91299V5.91299L12.5749 5.913ZM12.7324 5.61L12.7474 5.61149L12.7464 5.62146L12.7368 5.62436L12.7324 5.61ZM12.8712 5.61L12.8667 5.62433L12.8572 5.62139L12.8563 5.61149L12.8712 5.61ZM13.1037 5.87625L13.0891 5.8727L13.0988 5.83291L13.1171 5.86954L13.1037 5.87625ZM13.1115 6.06389L13.0976 6.05846L13.1115 6.06389ZM13.0924 6.12L13.0779 6.11636L13.0779 6.11621L13.0924 6.12ZM13.1749 6.07125L13.1601 6.06907L13.1683 6.01306L13.1889 6.06579L13.1749 6.07125ZM13.1645 6.26693L13.1514 6.2595L13.1645 6.26693ZM13.1299 6.345L13.1445 6.34876L13.1444 6.34886L13.1299 6.345ZM13.2312 6.2775L13.2171 6.27242L13.2311 6.23341L13.2453 6.27237L13.2312 6.2775ZM13.2162 6.51375L13.2294 6.52088L13.2288 6.52186L13.2162 6.51375ZM13.3483 6.52825L13.3347 6.52184L13.3483 6.52825ZM13.6512 6.73875L13.6588 6.72581L13.6662 6.73015V6.73875H13.6512ZM13.6512 7.5675H13.6662V7.5825H13.6512V7.5675ZM13.5512 6.73875H13.5362V6.72965L13.5443 6.72544L13.5512 6.73875ZM13.5512 7.5675V7.5825H13.5362V7.5675H13.5512ZM13.3774 7.56V6.4725H13.4074V7.56H13.3774ZM12.2112 7.545H13.3924V7.575H12.2112V7.545ZM12.2262 6.47625V7.56H12.1962V6.47625H12.2262ZM12.2418 6.53724C12.2344 6.52194 12.2284 6.50962 12.2223 6.50098C12.2159 6.49195 12.2124 6.49125 12.2112 6.49125V6.46125C12.2278 6.46125 12.2391 6.47287 12.2468 6.48362C12.2547 6.49475 12.2618 6.50966 12.2688 6.52417L12.2418 6.53724ZM12.3687 6.64875C12.3316 6.64875 12.3049 6.63164 12.2852 6.6092C12.266 6.58733 12.2527 6.55964 12.2418 6.53724L12.2688 6.52417C12.28 6.54729 12.2917 6.57112 12.3077 6.58939C12.3233 6.60709 12.3423 6.61875 12.3687 6.61875V6.64875ZM12.4005 6.50631C12.4163 6.53395 12.427 6.56691 12.4254 6.59433C12.4245 6.60823 12.4204 6.62214 12.4105 6.63267C12.4003 6.64348 12.3859 6.64875 12.3687 6.64875V6.61875C12.3796 6.61875 12.3854 6.61557 12.3886 6.61209C12.3922 6.60833 12.3949 6.60208 12.3954 6.59254C12.3966 6.57309 12.3886 6.54604 12.3744 6.52119L12.4005 6.50631ZM12.3865 6.28262C12.3648 6.34249 12.3624 6.38676 12.368 6.42134C12.3737 6.45612 12.3875 6.48229 12.4006 6.50664L12.3742 6.52086C12.3611 6.49646 12.3449 6.46638 12.3384 6.42615C12.3318 6.38574 12.3351 6.33626 12.3583 6.27237L12.3865 6.28262ZM12.4882 6.34113C12.4923 6.35658 12.4921 6.37513 12.4766 6.38428C12.4696 6.38837 12.4619 6.38889 12.4551 6.38793C12.4482 6.38697 12.4411 6.38436 12.4343 6.38075C12.4074 6.36649 12.3762 6.33226 12.3583 6.28258L12.3865 6.27242C12.4024 6.31649 12.4293 6.34413 12.4484 6.35425C12.4531 6.35673 12.4567 6.35787 12.4592 6.35822C12.4618 6.35858 12.4621 6.358 12.4613 6.35845C12.4581 6.36033 12.4626 6.36154 12.4592 6.34886L12.4882 6.34113ZM12.4522 6.2595C12.4649 6.28184 12.4794 6.30713 12.4882 6.34123L12.4592 6.34876C12.4514 6.31893 12.4389 6.29674 12.4261 6.27435L12.4522 6.2595ZM12.4427 6.0767C12.4227 6.1278 12.4192 6.16189 12.423 6.18822C12.4268 6.21474 12.4382 6.23504 12.4522 6.2595L12.4261 6.27435C12.4124 6.25034 12.3981 6.22541 12.3933 6.19251C12.3885 6.15942 12.3936 6.11991 12.4147 6.06579L12.4427 6.0767ZM12.5257 6.11636C12.5309 6.13717 12.5299 6.15607 12.5217 6.16972C12.5174 6.17671 12.5113 6.18219 12.5037 6.18514C12.496 6.18809 12.4879 6.18816 12.48 6.18603C12.4647 6.18185 12.4506 6.16931 12.4393 6.15105C12.428 6.13251 12.4187 6.10679 12.4138 6.07343L12.4435 6.06907C12.448 6.09945 12.4561 6.12107 12.4649 6.13535C12.4738 6.1499 12.4826 6.15564 12.4879 6.15709C12.4904 6.15777 12.492 6.15749 12.4929 6.15716C12.4937 6.15683 12.4949 6.1561 12.496 6.15418C12.4985 6.15002 12.5008 6.14032 12.4966 6.12364L12.5257 6.11636ZM12.5061 6.05846C12.5127 6.07549 12.52 6.09431 12.5257 6.11621L12.4967 6.12378C12.4915 6.10378 12.4847 6.08645 12.4781 6.06932L12.5061 6.05846ZM12.5134 5.88296C12.4914 5.92683 12.4852 5.9579 12.4862 5.98359C12.4872 6.00962 12.4956 6.03156 12.5061 6.05846L12.4781 6.06932C12.4679 6.04299 12.4575 6.01654 12.4562 5.98476C12.455 5.95265 12.463 5.91652 12.4865 5.86954L12.5134 5.88296ZM12.5899 5.92125C12.5899 5.94361 12.5873 5.96252 12.5818 5.97583C12.5791 5.98244 12.5751 5.98909 12.569 5.99358C12.5621 5.99861 12.5538 6.00007 12.5455 5.9974C12.5381 5.99501 12.532 5.98975 12.527 5.98387C12.5219 5.97783 12.5171 5.96998 12.5124 5.96058C12.5032 5.94176 12.4939 5.91506 12.4854 5.87979L12.5145 5.8727C12.5228 5.90681 12.5314 5.9312 12.5393 5.94731C12.5433 5.95537 12.5469 5.96094 12.55 5.96453C12.5531 5.96829 12.5548 5.96889 12.5547 5.96885C12.5537 5.96852 12.552 5.96881 12.5512 5.96941C12.5511 5.96948 12.5524 5.96846 12.5541 5.9644C12.5574 5.95638 12.5599 5.94201 12.5599 5.92125H12.5899ZM12.5899 5.91299C12.5899 5.91574 12.5899 5.9185 12.5899 5.92125H12.5599C12.5599 5.91851 12.5599 5.91576 12.5599 5.913L12.5899 5.91299ZM12.7368 5.62436C12.6625 5.6468 12.6267 5.68867 12.6086 5.73886C12.59 5.79051 12.5899 5.85155 12.5899 5.91299L12.5599 5.91301C12.5599 5.85283 12.5597 5.7862 12.5804 5.72868C12.6017 5.66969 12.6447 5.62086 12.7281 5.59564L12.7368 5.62436ZM12.7999 5.5125C12.7916 5.5125 12.7842 5.51648 12.7771 5.52479C12.7698 5.53333 12.7639 5.54544 12.7592 5.5587C12.7547 5.57179 12.7517 5.58504 12.7498 5.59512C12.7489 5.60014 12.7483 5.6043 12.7479 5.60718C12.7477 5.60862 12.7476 5.60974 12.7475 5.61047C12.7474 5.61084 12.7474 5.61111 12.7474 5.61129C12.7474 5.61137 12.7474 5.61143 12.7474 5.61147C12.7474 5.61148 12.7474 5.61149 12.7474 5.6115C12.7474 5.6115 12.7474 5.6115 12.7474 5.6115C12.7474 5.6115 12.7474 5.6115 12.7474 5.6115C12.7474 5.61149 12.7474 5.61149 12.7324 5.61C12.7175 5.6085 12.7175 5.6085 12.7175 5.6085C12.7175 5.60849 12.7175 5.60849 12.7175 5.60849C12.7175 5.60848 12.7175 5.60847 12.7175 5.60846C12.7175 5.60843 12.7175 5.6084 12.7175 5.60836C12.7175 5.60829 12.7175 5.60819 12.7176 5.60806C12.7176 5.60781 12.7176 5.60745 12.7177 5.607C12.7178 5.60609 12.7179 5.60478 12.7182 5.60315C12.7186 5.59988 12.7193 5.59525 12.7203 5.58971C12.7223 5.5787 12.7257 5.56383 12.7309 5.54879C12.7361 5.53393 12.7436 5.51791 12.7542 5.50536C12.7651 5.49258 12.7802 5.4825 12.7999 5.4825V5.5125ZM12.8712 5.61C12.8563 5.61149 12.8563 5.61149 12.8563 5.6115C12.8563 5.6115 12.8563 5.6115 12.8563 5.6115C12.8563 5.6115 12.8563 5.6115 12.8563 5.6115C12.8563 5.6115 12.8563 5.61149 12.8563 5.61147C12.8563 5.61144 12.8562 5.61138 12.8562 5.61129C12.8562 5.61113 12.8562 5.61085 12.8561 5.61049C12.8561 5.60976 12.8559 5.60865 12.8557 5.60722C12.8553 5.60435 12.8547 5.6002 12.8537 5.5952C12.8519 5.58515 12.8488 5.57195 12.844 5.55891C12.8391 5.54572 12.8329 5.53365 12.8252 5.52511C12.8178 5.51684 12.8096 5.5125 12.7999 5.5125V5.4825C12.8202 5.4825 12.836 5.49222 12.8475 5.50504C12.8588 5.51759 12.8667 5.53365 12.8721 5.54858C12.8777 5.56367 12.8811 5.57859 12.8832 5.58964C12.8843 5.59519 12.885 5.59983 12.8854 5.60311C12.8857 5.60476 12.8858 5.60606 12.8859 5.60698C12.886 5.60744 12.886 5.6078 12.8861 5.60806C12.8861 5.60818 12.8861 5.60829 12.8861 5.60836C12.8861 5.6084 12.8861 5.60843 12.8861 5.60845C12.8861 5.60847 12.8861 5.60848 12.8861 5.60848C12.8861 5.60849 12.8861 5.60849 12.8861 5.6085C12.8861 5.6085 12.8861 5.6085 12.8712 5.61ZM13.0137 5.92125C13.0137 5.85685 13.0135 5.79398 12.9949 5.74108C12.9767 5.68967 12.9409 5.64727 12.8667 5.62433L12.8756 5.59567C12.959 5.62148 13.0019 5.67095 13.0231 5.7311C13.0438 5.78976 13.0437 5.85814 13.0437 5.92125H13.0137ZM13.1183 5.87979C13.1097 5.91506 13.1005 5.94176 13.0912 5.96058C13.0865 5.96998 13.0817 5.97783 13.0766 5.98387C13.0716 5.98975 13.0655 5.99501 13.0581 5.9974C13.0499 6.00007 13.0415 5.99861 13.0346 5.99358C13.0285 5.98909 13.0245 5.98244 13.0218 5.97583C13.0163 5.96252 13.0137 5.94361 13.0137 5.92125H13.0437C13.0437 5.94201 13.0462 5.95638 13.0495 5.9644C13.0512 5.96846 13.0525 5.96948 13.0524 5.96941C13.0516 5.96881 13.0499 5.96852 13.0489 5.96885C13.0488 5.96889 13.0505 5.96829 13.0537 5.96453C13.0567 5.96094 13.0603 5.95537 13.0643 5.94731C13.0722 5.9312 13.0808 5.90681 13.0891 5.8727L13.1183 5.87979ZM13.0976 6.05846C13.108 6.03156 13.1164 6.00962 13.1174 5.98359C13.1184 5.9579 13.1122 5.92683 13.0903 5.88296L13.1171 5.86954C13.1406 5.91652 13.1486 5.95265 13.1474 5.98476C13.1461 6.01654 13.1357 6.04299 13.1255 6.06932L13.0976 6.05846ZM13.0779 6.11621C13.0836 6.09431 13.091 6.07549 13.0976 6.05846L13.1255 6.06932C13.1189 6.08645 13.1122 6.10378 13.1069 6.12378L13.0779 6.11621ZM13.1898 6.07343C13.1849 6.10679 13.1757 6.13251 13.1643 6.15105C13.1531 6.16931 13.1389 6.18185 13.1236 6.18603C13.1158 6.18816 13.1076 6.18809 13.0999 6.18514C13.0923 6.18219 13.0862 6.17671 13.0819 6.16972C13.0737 6.15607 13.0727 6.13717 13.0779 6.11636L13.107 6.12364C13.1028 6.14032 13.1051 6.15002 13.1076 6.15418C13.1088 6.1561 13.1099 6.15683 13.1108 6.15716C13.1116 6.15749 13.1132 6.15777 13.1157 6.15709C13.121 6.15564 13.1298 6.1499 13.1387 6.13535C13.1475 6.12107 13.1556 6.09945 13.1601 6.06907L13.1898 6.07343ZM13.1514 6.2595C13.1654 6.23504 13.1768 6.21474 13.1806 6.18822C13.1844 6.16189 13.1809 6.1278 13.161 6.0767L13.1889 6.06579C13.21 6.11991 13.2151 6.15942 13.2103 6.19251C13.2055 6.22541 13.1912 6.25034 13.1775 6.27435L13.1514 6.2595ZM13.1154 6.34123C13.1243 6.30713 13.1387 6.28184 13.1514 6.2595L13.1775 6.27435C13.1648 6.29674 13.1522 6.31893 13.1445 6.34876L13.1154 6.34123ZM13.2453 6.28258C13.2274 6.33226 13.1962 6.36649 13.1693 6.38075C13.1625 6.38436 13.1555 6.38697 13.1486 6.38793C13.1417 6.38889 13.134 6.38837 13.1271 6.38428C13.1116 6.37513 13.1113 6.35658 13.1154 6.34113L13.1444 6.34886C13.141 6.36154 13.1455 6.36033 13.1423 6.35845C13.1415 6.358 13.1418 6.35858 13.1444 6.35822C13.1469 6.35787 13.1506 6.35673 13.1552 6.35425C13.1743 6.34413 13.2012 6.31649 13.2171 6.27242L13.2453 6.28258ZM13.203 6.50664C13.2161 6.48229 13.2299 6.45612 13.2356 6.42134C13.2412 6.38676 13.2389 6.34249 13.2171 6.28262L13.2453 6.27237C13.2685 6.33626 13.2718 6.38574 13.2652 6.42615C13.2587 6.46638 13.2425 6.49646 13.2294 6.52086L13.203 6.50664ZM13.2349 6.64875C13.2177 6.64875 13.2033 6.64349 13.1928 6.6329C13.1826 6.62252 13.178 6.6087 13.1769 6.59463C13.1746 6.5669 13.1856 6.53364 13.2036 6.50564L13.2288 6.52186C13.2131 6.54636 13.2052 6.5731 13.2068 6.59224C13.2075 6.60161 13.2104 6.60794 13.2142 6.61186C13.2179 6.61556 13.224 6.61875 13.2349 6.61875V6.64875ZM13.3618 6.53466C13.351 6.55759 13.3377 6.58589 13.3185 6.60825C13.2988 6.63117 13.2721 6.64875 13.2349 6.64875V6.61875C13.2612 6.61875 13.2801 6.60688 13.2958 6.5887C13.3119 6.56996 13.3235 6.54551 13.3347 6.52184L13.3618 6.53466ZM13.3924 6.4875C13.3914 6.4875 13.3879 6.48813 13.3814 6.49747C13.3753 6.50636 13.3692 6.51901 13.3618 6.53466L13.3347 6.52184C13.3417 6.50698 13.3489 6.49175 13.3568 6.48039C13.3643 6.46948 13.3757 6.4575 13.3924 6.4575V6.4875ZM13.6662 6.73875V7.5675H13.6362V6.73875H13.6662ZM13.5443 6.72544C13.5639 6.71523 13.5832 6.70969 13.6027 6.70969C13.6222 6.70969 13.6408 6.71528 13.6588 6.72581L13.6436 6.75169C13.6296 6.74347 13.6162 6.73969 13.6027 6.73969C13.5891 6.73969 13.5745 6.74352 13.5581 6.75205L13.5443 6.72544ZM13.5362 7.5675V6.73875H13.5662V7.5675H13.5362ZM13.6512 7.5825H13.5512V7.5525H13.6512V7.5825Z" fill="black"/>
<path fill-rule="evenodd" clip-rule="evenodd" d="M12.6537 5.95499L12.7212 6.01124H12.89L12.9575 5.95124V5.87624C12.9312 5.88374 12.92 5.88749 12.9012 5.91374C12.8847 5.8658 12.8496 5.82657 12.8037 5.80499C12.7585 5.82823 12.7247 5.86883 12.71 5.91749C12.6912 5.89124 12.6762 5.87999 12.6537 5.87999V5.95499ZM12.2112 7.56374C12.1812 7.39874 12.065 7.33124 11.9487 7.27499V7.56374H12.2112Z" fill="white"/>
<path d="M12.7212 6.01124V6.03077L12.7116 6.02277L12.7212 6.01124ZM12.6537 5.95499L12.6387 5.97299V5.95499H12.6537ZM12.89 6.01124L12.9033 6.02624H12.89V6.01124ZM12.9575 5.95124H12.98L12.9674 5.96245L12.9575 5.95124ZM12.9575 5.87624L12.9533 5.86182L12.9725 5.85636V5.87624H12.9575ZM12.9012 5.91374L12.9134 5.92246L12.8965 5.94616L12.887 5.91862L12.9012 5.91374ZM12.8037 5.80499L12.7925 5.78312L12.8101 5.79142L12.8037 5.80499ZM12.71 5.91749L12.7243 5.92183L12.7155 5.95104L12.6978 5.92621L12.71 5.91749ZM12.6537 5.87999H12.6387V5.86499H12.6537V5.87999ZM11.9487 7.27499H11.9337V7.25107L11.9552 7.26149L11.9487 7.27499ZM12.2112 7.56374L12.226 7.56106L12.2292 7.57874H12.2112V7.56374ZM11.9487 7.56374V7.57874H11.9337V7.56374H11.9487ZM12.7116 6.02277L12.6441 5.96652L12.6633 5.94347L12.7308 5.99972L12.7116 6.02277ZM12.89 6.02624H12.7212V5.99624H12.89V6.02624ZM12.9674 5.96245L12.8999 6.02245L12.88 6.00003L12.9475 5.94003L12.9674 5.96245ZM12.9725 5.87624V5.95124H12.9425V5.87624H12.9725ZM12.889 5.90502C12.899 5.89105 12.9079 5.88178 12.9187 5.87516C12.9292 5.86877 12.9405 5.86548 12.9533 5.86182L12.9616 5.89067C12.9481 5.89451 12.9408 5.89684 12.9343 5.90076C12.9283 5.90446 12.9222 5.91019 12.9134 5.92246L12.889 5.90502ZM12.8101 5.79142C12.8596 5.81473 12.8976 5.8571 12.9154 5.90887L12.887 5.91862C12.8719 5.87451 12.8395 5.83842 12.7973 5.81857L12.8101 5.79142ZM12.6956 5.91315C12.7115 5.8606 12.748 5.81675 12.7969 5.79165L12.8106 5.81833C12.769 5.83972 12.7378 5.87707 12.7243 5.92183L12.6956 5.91315ZM12.6537 5.86499C12.6678 5.86499 12.6802 5.86863 12.6917 5.87652C12.7028 5.88409 12.7124 5.89513 12.7222 5.90877L12.6978 5.92621C12.6887 5.9136 12.6815 5.9059 12.6748 5.90128C12.6685 5.89698 12.6621 5.89499 12.6537 5.89499V5.86499ZM12.6387 5.95499V5.87999H12.6687V5.95499H12.6387ZM11.9552 7.26149C12.0719 7.31795 12.1946 7.3883 12.226 7.56106L12.1965 7.56643C12.1679 7.40919 12.058 7.34454 11.9422 7.2885L11.9552 7.26149ZM11.9337 7.56374V7.27499H11.9637V7.56374H11.9337ZM12.2112 7.57874H11.9487V7.54874H12.2112V7.57874Z" fill="black"/>
<path d="M12.6837 6.19499L12.6537 6.12374V6.02999C12.6762 6.02999 12.6912 6.04124 12.71 6.06749C12.7247 6.01883 12.7585 5.97823 12.8037 5.95499C12.8496 5.97657 12.8847 6.0158 12.9012 6.06374C12.92 6.03749 12.9312 6.03374 12.9575 6.02999V6.12374L12.9275 6.19499H12.6837Z" fill="white" stroke="black" stroke-width="0.03"/>
<path d="M12.6762 6.44249L12.5787 6.31874V6.19874C12.6162 6.19874 12.635 6.21749 12.6612 6.25874C12.6875 6.17249 12.7362 6.15749 12.8037 6.11624C12.875 6.15374 12.9237 6.17249 12.9462 6.25499C12.9762 6.21374 12.995 6.20249 13.0325 6.19874V6.31874L12.9312 6.44249H12.6762Z" fill="white" stroke="black" stroke-width="0.03"/>
<path d="M12.65 6.68625C12.65 6.68625 12.53 6.585 12.5262 6.52875V6.3975C12.5712 6.40125 12.6125 6.4125 12.6462 6.46875C12.6762 6.36 12.7212 6.33 12.8037 6.28125C12.89 6.33 12.935 6.36 12.9612 6.46875C12.9987 6.4125 13.0362 6.40125 13.085 6.39375V6.52875C13.0535 6.58823 13.0116 6.64158 12.9612 6.68625H12.65Z" fill="white" stroke="black" stroke-width="0.03"/>
<path d="M12.6012 7.13624C12.6012 7.13624 12.4362 6.95999 12.4324 6.88874V6.68624C12.4924 6.69374 12.5524 6.73499 12.5974 6.82124C12.6349 6.65249 12.6949 6.53624 12.8037 6.45374C12.9162 6.53624 12.9762 6.65249 13.0137 6.82124C13.0587 6.73499 13.1149 6.69374 13.1749 6.68624V6.88874C13.1637 6.95999 13.0099 7.13624 13.0099 7.13624H12.6012Z" fill="white" stroke="black" stroke-width="0.03"/>
<path d="M12.6012 7.40251C12.6012 7.40251 12.4624 7.26376 12.4324 7.20376V7.00126C12.4924 7.00876 12.5524 7.05001 12.5974 7.13251C12.6177 6.9947 12.6919 6.87059 12.8037 6.78751C12.9162 6.87001 12.9762 6.96376 13.0137 7.13251C13.0587 7.05001 13.1149 7.00876 13.1749 7.00126V7.20376C13.1374 7.26376 13.0099 7.40251 13.0099 7.40251H12.6012Z" fill="white" stroke="black" stroke-width="0.03"/>
<path d="M12.5449 7.56C12.5824 7.38375 12.6199 7.2525 12.8112 7.12125C13.0062 7.2525 13.0399 7.38375 13.0812 7.56H12.5449Z" fill="white" stroke="black" stroke-width="0.03"/>
<path fill-rule="evenodd" clip-rule="evenodd" d="M14.1125 9.03H5.88497V9.33375H14.1125V9.03ZM5.40122 9.735H14.6V10.2037L14.8437 10.2037V10.6725H5.15747V10.2037L5.40122 10.2037V9.735Z" fill="white"/>
<path d="M5.88497 9.03V9.015H5.86997V9.03H5.88497ZM14.1125 9.03H14.1275V9.015H14.1125V9.03ZM5.88497 9.33375H5.86997V9.34875H5.88497V9.33375ZM14.1125 9.33375V9.34875H14.1275V9.33375H14.1125ZM14.6 9.735H14.615V9.72H14.6V9.735ZM5.40122 9.735V9.72H5.38622V9.735H5.40122ZM14.6 10.2037H14.585V10.2187H14.6V10.2037ZM14.8437 10.2037H14.8587V10.1887H14.8437V10.2037ZM14.8437 10.6725V10.6875H14.8587V10.6725H14.8437ZM5.15747 10.6725H5.14247V10.6875H5.15747V10.6725ZM5.15747 10.2037L5.15747 10.1887H5.14247V10.2037H5.15747ZM5.40122 10.2037V10.2187H5.41622V10.2037H5.40122ZM5.88497 9.045H14.1125V9.015H5.88497V9.045ZM5.89997 9.33375V9.03H5.86997V9.33375H5.89997ZM14.1125 9.31875H5.88497V9.34875H14.1125V9.31875ZM14.0975 9.03V9.33375H14.1275V9.03H14.0975ZM14.6 9.72H5.40122V9.75H14.6V9.72ZM14.615 10.2037V9.735H14.585V10.2037H14.615ZM14.8437 10.1887L14.6 10.1887V10.2187L14.8437 10.2187V10.1887ZM14.8587 10.6725V10.2037H14.8287V10.6725H14.8587ZM5.15747 10.6875H14.8437V10.6575H5.15747V10.6875ZM5.14247 10.2037V10.6725H5.17247V10.2037H5.14247ZM5.40122 10.1887L5.15747 10.1887L5.15747 10.2187L5.40122 10.2187V10.1887ZM5.38622 9.735V10.2037H5.41622V9.735H5.38622Z" fill="black"/>
<path fill-rule="evenodd" clip-rule="evenodd" d="M13.9775 8.76999H6.02746V9.01899H13.9775V8.76999ZM14.36 9.34429H5.64496V9.76999H14.36V9.34429Z" fill="white"/>
<path d="M6.02746 8.76999V8.75499H6.01246V8.76999H6.02746ZM13.9775 8.76999H13.9925V8.75499H13.9775V8.76999ZM6.02746 9.01899H6.01246V9.03398H6.02746V9.01899ZM13.9775 9.01899V9.03398H13.9925V9.01899H13.9775ZM5.64496 9.34429V9.32929H5.62996V9.34429H5.64496ZM14.36 9.34429H14.375V9.32929H14.36V9.34429ZM5.64496 9.76999H5.62996V9.78499H5.64496V9.76999ZM14.36 9.76999V9.78499H14.375V9.76999H14.36ZM6.02746 8.78499H13.9775V8.75499H6.02746V8.78499ZM6.04246 9.01899V8.76999H6.01246V9.01899H6.04246ZM13.9775 9.00399H6.02746V9.03398H13.9775V9.00399ZM13.9625 8.76999V9.01899H13.9925V8.76999H13.9625ZM5.64496 9.35929H14.36V9.32929H5.64496V9.35929ZM5.65996 9.76999V9.34429H5.62996V9.76999H5.65996ZM14.36 9.75499H5.64496V9.78499H14.36V9.75499ZM14.345 9.34429V9.76999H14.375V9.34429H14.345Z" fill="black"/>
<path d="M6.88995 8.78625H7.48995V10.6613H6.88995V8.78625Z" fill="white" stroke="black" stroke-width="0.03"/>
<path fill-rule="evenodd" clip-rule="evenodd" d="M7.35874 8.78625H7.02499L7.02124 10.6613H7.35874V8.78625ZM10.2875 8.78625H9.68749V10.6613H10.2875V8.78625Z" fill="white"/>
<path d="M7.02499 8.78625V8.77125H7.01002L7.00999 8.78622L7.02499 8.78625ZM7.35874 8.78625H7.37374V8.77125H7.35874V8.78625ZM7.02124 10.6613L7.00624 10.6612L7.00621 10.6763H7.02124V10.6613ZM7.35874 10.6613V10.6763H7.37374V10.6613H7.35874ZM9.68749 8.78625V8.77125H9.67249V8.78625H9.68749ZM10.2875 8.78625H10.3025V8.77125H10.2875V8.78625ZM9.68749 10.6613H9.67249V10.6763H9.68749V10.6613ZM10.2875 10.6613V10.6763H10.3025V10.6613H10.2875ZM7.02499 8.80125H7.35874V8.77125H7.02499V8.80125ZM7.03624 10.6613L7.03999 8.78628L7.00999 8.78622L7.00624 10.6612L7.03624 10.6613ZM7.35874 10.6463H7.02124V10.6763H7.35874V10.6463ZM7.34374 8.78625V10.6613H7.37374V8.78625H7.34374ZM9.68749 8.80125H10.2875V8.77125H9.68749V8.80125ZM9.70249 10.6613V8.78625H9.67249V10.6613H9.70249ZM10.2875 10.6463H9.68749V10.6763H10.2875V10.6463ZM10.2725 8.78625V10.6613H10.3025V8.78625H10.2725Z" fill="black"/>
<path fill-rule="evenodd" clip-rule="evenodd" d="M10.1637 8.78625H9.82623V10.6613H10.1637V8.78625ZM13.1075 8.78625H12.5075V10.6613H13.1075V8.78625Z" fill="white"/>
<path d="M9.82623 8.78625V8.77125H9.81123V8.78625H9.82623ZM10.1637 8.78625H10.1787V8.77125H10.1637V8.78625ZM9.82623 10.6613H9.81123V10.6763H9.82623V10.6613ZM10.1637 10.6613V10.6763H10.1787V10.6613H10.1637ZM12.5075 8.78625V8.77125H12.4925V8.78625H12.5075ZM13.1075 8.78625H13.1225V8.77125H13.1075V8.78625ZM12.5075 10.6613H12.4925V10.6763H12.5075V10.6613ZM13.1075 10.6613V10.6763H13.1225V10.6613H13.1075ZM9.82623 8.80125H10.1637V8.77125H9.82623V8.80125ZM9.84123 10.6613V8.78625H9.81123V10.6613H9.84123ZM10.1637 10.6463H9.82623V10.6763H10.1637V10.6463ZM10.1487 8.78625V10.6613H10.1787V8.78625H10.1487ZM12.5075 8.80125H13.1075V8.77125H12.5075V8.80125ZM12.5225 10.6613V8.78625H12.4925V10.6613H12.5225ZM13.1075 10.6463H12.5075V10.6763H13.1075V10.6463ZM13.0925 8.78625V10.6613H13.1225V8.78625H13.0925Z" fill="black"/>
<path d="M12.6387 8.78625H12.9762V10.6613H12.6387V8.78625Z" fill="white" stroke="black" stroke-width="0.03"/>
</g>
<defs>
<clipPath id="clip0_3122_25143">
<rect width="20" height="15" rx="2" fill="white"/>
</clipPath>
</defs>
</svg>
