<svg width="20" height="15" viewBox="0 0 20 15" fill="none" xmlns="http://www.w3.org/2000/svg">
<g clip-path="url(#clip0_3122_25260)">
<rect width="20" height="15" rx="2" fill="white"/>
<path fill-rule="evenodd" clip-rule="evenodd" d="M0 0H20V15H0V0Z" fill="#2E42A5"/>
<g clip-path="url(#clip1_3122_25260)">
<rect width="11" height="9" fill="#2E42A5"/>
<path d="M-1.25269 8.12488L1.22291 9.21063L11.3062 1.18046L12.612 -0.432999L9.96468 -0.795888L5.85197 2.66454L2.54165 4.99607L-1.25269 8.12488Z" fill="#F7FCFF"/>
<path d="M-0.913757 8.88561L0.347444 9.51569L12.1431 -0.582886H10.3722L-0.913757 8.88561Z" fill="#F50100"/>
<path d="M12.5027 8.1249L10.3056 9.5206L-0.0561562 1.18047L-1.36198 -0.432984L1.28532 -0.795875L5.39803 2.66456L8.70835 4.99608L12.5027 8.1249Z" fill="#F7FCFF"/>
<path d="M12.4182 8.67082L11.157 9.3009L6.13431 4.97718L4.64518 4.4941L-1.48763 -0.427482H0.283246L6.41261 4.37728L8.04071 4.95655L12.4182 8.67082Z" fill="#F50100"/>
<path fill-rule="evenodd" clip-rule="evenodd" d="M6 0H5V4H0V5H5V9H6V5H11V4H6V0Z" fill="#F50100"/>
<path fill-rule="evenodd" clip-rule="evenodd" d="M4.0625 0H6.9375V3.0625L11 3V5.875L6.9375 5.9375V9H4.0625V5.9375L0 5.875V3L4.0625 3.0625V0ZM5 4H0V5H5V9H6V5H11V4H6V0H5V4Z" fill="#F7FCFF"/>
</g>
<g clip-path="url(#clip2_3122_25260)">
<path d="M13.481 9.27169V6.99547H18.1222V6.99695V7.00098V7.00502V7.00907V7.01313V7.0172V7.02127V7.02536V7.02945V7.03356V7.03767V7.0418V7.04593V7.05007V7.05422V7.05838V7.06255V7.06673V7.07092V7.07511V7.07932V7.08353V7.08775V7.09198V7.09622V7.10047V7.10472V7.10899V7.11326V7.11754V7.12183V7.12613V7.13044V7.13475V7.13908V7.14341V7.14775V7.15209V7.15645V7.16081V7.16518V7.16956V7.17395V7.17834V7.18274V7.18715V7.19157V7.19599V7.20043V7.20487V7.20931V7.21377V7.21823V7.2227V7.22718V7.23166V7.23615V7.24065V7.24515V7.24967V7.25419V7.25871V7.26325V7.26779V7.27233V7.27689V7.28145V7.28601V7.29059V7.29517V7.29975V7.30435V7.30895V7.31355V7.31816V7.32278V7.32741V7.33204V7.33668V7.34132V7.34597V7.35062V7.35529V7.35995V7.36463V7.36931V7.37399V7.37868V7.38338V7.38808V7.39279V7.3975V7.40222V7.40695V7.41168V7.41641V7.42115V7.4259V7.43065V7.43541V7.44017V7.44494V7.44971V7.45449V7.45927V7.46405V7.46885V7.47364V7.47844V7.48325V7.48806V7.49288V7.4977V7.50252V7.50735V7.51219V7.51703V7.52187V7.52672V7.53157V7.53642V7.54128V7.54615V7.55102V7.55589V7.56077V7.56565V7.57053V7.57542V7.58031V7.58521V7.59011V7.59501V7.59992V7.60483V7.60975V7.61467V7.61959V7.62451V7.62944V7.63437V7.63931V7.64425V7.64919V7.65413V7.65908V7.66403V7.66899V7.67395V7.67891V7.68387V7.68884V7.69381V7.69878V7.70375V7.70873V7.71371V7.71869V7.72368V7.72866V7.73365V7.73865V7.74364V7.74864V7.75364V7.75864V7.76364V7.76865V7.77366V7.77867V7.78368V7.7887V7.79371V7.79873V7.80375V7.80877V7.8138V7.81882V7.82385V7.82888V7.83391V7.83894V7.84397V7.849V7.85404V7.85908V7.86412V7.86916V7.8742V7.87924V7.88428V7.88933V7.89437V7.89942V7.90447V7.90951V7.91456V7.91961V7.92466V7.92971V7.93477V7.93982V7.94487V7.94993V7.95498V7.96003V7.96509V7.97014V7.9752V7.98026V7.98531V7.99037V7.99542V8.00048V8.00554V8.01059V8.01565V8.02071V8.02576V8.03082V8.03587V8.04093V8.04598V8.05104V8.05609V8.06115V8.0662V8.07125V8.07631V8.08136V8.08641V8.09146V8.09651V8.10156V8.1066V8.11165V8.1167V8.12174V8.12678V8.13183V8.13687V8.14191V8.14695V8.15199V8.15702V8.16206V8.16709V8.17212V8.17715V8.18218V8.18721V8.19224V8.19726V8.20228V8.2073V8.21232V8.21734V8.22235V8.22737V8.23238V8.23739V8.24239V8.2474V8.2524V8.2574V8.2624V8.2674V8.27239V8.27738V8.28237V8.28735V8.29234V8.29732V8.3023V8.30727V8.31225V8.31722V8.32218V8.32715V8.33211V8.33707V8.34202V8.34698V8.35193V8.35687V8.36181V8.36675V8.37169V8.37662V8.38155V8.38648V8.3914V8.39632V8.40124V8.40615V8.41106V8.41597V8.42087V8.42577V8.43066V8.43555V8.44044V8.44532V8.4502V8.45507V8.45994V8.46481V8.46967V8.47453V8.47938V8.48423V8.48907V8.49391V8.49875V8.50358V8.50841V8.51323V8.51805V8.52286V8.52767V8.53247V8.53727V8.54206V8.54685V8.55164V8.55642V8.56119V8.56596V8.57072V8.57548V8.58023V8.58498V8.58973V8.59446V8.5992V8.60392V8.60864V8.61336V8.61807V8.62277V8.62747V8.63216V8.63685V8.64153V8.64621V8.65088V8.65554V8.6602V8.66485V8.6695V8.67414V8.67877V8.6834V8.68802V8.69263V8.69724V8.70185V8.70644V8.71103V8.71561V8.72019V8.72476V8.72932V8.73388V8.73843V8.74297V8.7475V8.75203V8.75655V8.76107V8.76558V8.77008V8.77457V8.77906V8.78354V8.78801V8.79247V8.79693V8.80138V8.80582V8.81026V8.81469V8.81911V8.82352V8.82793V8.83232V8.83671V8.84109V8.84547V8.84983V8.85419V8.85854V8.86288V8.86722V8.87154V8.87586V8.88017V8.88447V8.88876V8.89305V8.89733V8.90159V8.90585V8.9101V8.91435V8.91858V8.9228V8.92702V8.93123V8.93543V8.93962V8.9438V8.94797V8.95213V8.95629V8.96043V8.96457V8.9687V8.97281V8.97692V8.98102V8.98511V8.98919V8.99326V8.99733V9.00138V9.00542V9.00945V9.01348V9.01749V9.02149V9.02549V9.02947V9.03345V9.03741V9.04137V9.04531V9.04925V9.05317V9.05709V9.06099V9.06488V9.06877V9.07264V9.0765V9.08036V9.0842V9.08803V9.09185V9.09566V9.09946V9.10325V9.10703V9.1108V9.11455V9.1183V9.12204V9.12576V9.12947V9.13317V9.13687V9.14055V9.14421V9.14787V9.15152V9.15515V9.15878V9.16239V9.16599V9.16958V9.17316V9.17672V9.18028V9.18382V9.18735V9.19087V9.19438V9.19787V9.20136V9.20483V9.20829V9.21174V9.21517V9.2186V9.22201V9.22541V9.22879V9.23217V9.23553V9.23888V9.24222V9.24554V9.24886V9.25216V9.25544V9.25872V9.26198V9.26523V9.26846V9.27169C18.1222 10.7369 17.5788 11.7061 17.0261 12.309C16.7495 12.6108 16.4702 12.8212 16.2549 12.9559C16.1473 13.0233 16.0559 13.0716 15.9892 13.1029C15.9558 13.1186 15.9289 13.1298 15.9095 13.137C15.8998 13.1406 15.8924 13.143 15.8873 13.1445C15.887 13.1446 15.8867 13.1447 15.8864 13.1447C15.8861 13.1446 15.8856 13.1445 15.8852 13.1444C15.8798 13.1429 15.8719 13.1404 15.8616 13.1368C15.841 13.1295 15.8124 13.1182 15.7768 13.1024C15.7056 13.071 15.6077 13.0226 15.4922 12.9551C15.2612 12.8202 14.9605 12.6096 14.6625 12.3077C14.0671 11.7044 13.481 10.7356 13.481 9.27169Z" fill="white"/>
<path d="M13.481 9.27169V6.99547H18.1222V6.99695V7.00098V7.00502V7.00907V7.01313V7.0172V7.02127V7.02536V7.02945V7.03356V7.03767V7.0418V7.04593V7.05007V7.05422V7.05838V7.06255V7.06673V7.07092V7.07511V7.07932V7.08353V7.08775V7.09198V7.09622V7.10047V7.10472V7.10899V7.11326V7.11754V7.12183V7.12613V7.13044V7.13475V7.13908V7.14341V7.14775V7.15209V7.15645V7.16081V7.16518V7.16956V7.17395V7.17834V7.18274V7.18715V7.19157V7.19599V7.20043V7.20487V7.20931V7.21377V7.21823V7.2227V7.22718V7.23166V7.23615V7.24065V7.24515V7.24967V7.25419V7.25871V7.26325V7.26779V7.27233V7.27689V7.28145V7.28601V7.29059V7.29517V7.29975V7.30435V7.30895V7.31355V7.31816V7.32278V7.32741V7.33204V7.33668V7.34132V7.34597V7.35062V7.35529V7.35995V7.36463V7.36931V7.37399V7.37868V7.38338V7.38808V7.39279V7.3975V7.40222V7.40695V7.41168V7.41641V7.42115V7.4259V7.43065V7.43541V7.44017V7.44494V7.44971V7.45449V7.45927V7.46405V7.46885V7.47364V7.47844V7.48325V7.48806V7.49288V7.4977V7.50252V7.50735V7.51219V7.51703V7.52187V7.52672V7.53157V7.53642V7.54128V7.54615V7.55102V7.55589V7.56077V7.56565V7.57053V7.57542V7.58031V7.58521V7.59011V7.59501V7.59992V7.60483V7.60975V7.61467V7.61959V7.62451V7.62944V7.63437V7.63931V7.64425V7.64919V7.65413V7.65908V7.66403V7.66899V7.67395V7.67891V7.68387V7.68884V7.69381V7.69878V7.70375V7.70873V7.71371V7.71869V7.72368V7.72866V7.73365V7.73865V7.74364V7.74864V7.75364V7.75864V7.76364V7.76865V7.77366V7.77867V7.78368V7.7887V7.79371V7.79873V7.80375V7.80877V7.8138V7.81882V7.82385V7.82888V7.83391V7.83894V7.84397V7.849V7.85404V7.85908V7.86412V7.86916V7.8742V7.87924V7.88428V7.88933V7.89437V7.89942V7.90447V7.90951V7.91456V7.91961V7.92466V7.92971V7.93477V7.93982V7.94487V7.94993V7.95498V7.96003V7.96509V7.97014V7.9752V7.98026V7.98531V7.99037V7.99542V8.00048V8.00554V8.01059V8.01565V8.02071V8.02576V8.03082V8.03587V8.04093V8.04598V8.05104V8.05609V8.06115V8.0662V8.07125V8.07631V8.08136V8.08641V8.09146V8.09651V8.10156V8.1066V8.11165V8.1167V8.12174V8.12678V8.13183V8.13687V8.14191V8.14695V8.15199V8.15702V8.16206V8.16709V8.17212V8.17715V8.18218V8.18721V8.19224V8.19726V8.20228V8.2073V8.21232V8.21734V8.22235V8.22737V8.23238V8.23739V8.24239V8.2474V8.2524V8.2574V8.2624V8.2674V8.27239V8.27738V8.28237V8.28735V8.29234V8.29732V8.3023V8.30727V8.31225V8.31722V8.32218V8.32715V8.33211V8.33707V8.34202V8.34698V8.35193V8.35687V8.36181V8.36675V8.37169V8.37662V8.38155V8.38648V8.3914V8.39632V8.40124V8.40615V8.41106V8.41597V8.42087V8.42577V8.43066V8.43555V8.44044V8.44532V8.4502V8.45507V8.45994V8.46481V8.46967V8.47453V8.47938V8.48423V8.48907V8.49391V8.49875V8.50358V8.50841V8.51323V8.51805V8.52286V8.52767V8.53247V8.53727V8.54206V8.54685V8.55164V8.55642V8.56119V8.56596V8.57072V8.57548V8.58023V8.58498V8.58973V8.59446V8.5992V8.60392V8.60864V8.61336V8.61807V8.62277V8.62747V8.63216V8.63685V8.64153V8.64621V8.65088V8.65554V8.6602V8.66485V8.6695V8.67414V8.67877V8.6834V8.68802V8.69263V8.69724V8.70185V8.70644V8.71103V8.71561V8.72019V8.72476V8.72932V8.73388V8.73843V8.74297V8.7475V8.75203V8.75655V8.76107V8.76558V8.77008V8.77457V8.77906V8.78354V8.78801V8.79247V8.79693V8.80138V8.80582V8.81026V8.81469V8.81911V8.82352V8.82793V8.83232V8.83671V8.84109V8.84547V8.84983V8.85419V8.85854V8.86288V8.86722V8.87154V8.87586V8.88017V8.88447V8.88876V8.89305V8.89733V8.90159V8.90585V8.9101V8.91435V8.91858V8.9228V8.92702V8.93123V8.93543V8.93962V8.9438V8.94797V8.95213V8.95629V8.96043V8.96457V8.9687V8.97281V8.97692V8.98102V8.98511V8.98919V8.99326V8.99733V9.00138V9.00542V9.00945V9.01348V9.01749V9.02149V9.02549V9.02947V9.03345V9.03741V9.04137V9.04531V9.04925V9.05317V9.05709V9.06099V9.06488V9.06877V9.07264V9.0765V9.08036V9.0842V9.08803V9.09185V9.09566V9.09946V9.10325V9.10703V9.1108V9.11455V9.1183V9.12204V9.12576V9.12947V9.13317V9.13687V9.14055V9.14421V9.14787V9.15152V9.15515V9.15878V9.16239V9.16599V9.16958V9.17316V9.17672V9.18028V9.18382V9.18735V9.19087V9.19438V9.19787V9.20136V9.20483V9.20829V9.21174V9.21517V9.2186V9.22201V9.22541V9.22879V9.23217V9.23553V9.23888V9.24222V9.24554V9.24886V9.25216V9.25544V9.25872V9.26198V9.26523V9.26846V9.27169C18.1222 10.7369 17.5788 11.7061 17.0261 12.309C16.7495 12.6108 16.4702 12.8212 16.2549 12.9559C16.1473 13.0233 16.0559 13.0716 15.9892 13.1029C15.9558 13.1186 15.9289 13.1298 15.9095 13.137C15.8998 13.1406 15.8924 13.143 15.8873 13.1445C15.887 13.1446 15.8867 13.1447 15.8864 13.1447C15.8861 13.1446 15.8856 13.1445 15.8852 13.1444C15.8798 13.1429 15.8719 13.1404 15.8616 13.1368C15.841 13.1295 15.8124 13.1182 15.7768 13.1024C15.7056 13.071 15.6077 13.0226 15.4922 12.9551C15.2612 12.8202 14.9605 12.6096 14.6625 12.3077C14.0671 11.7044 13.481 10.7356 13.481 9.27169Z" stroke="#0B50A0" stroke-width="0.1"/>
<path d="M13.481 9.27169V6.99547H18.1222V6.99695V7.00098V7.00502V7.00907V7.01313V7.0172V7.02127V7.02536V7.02945V7.03356V7.03767V7.0418V7.04593V7.05007V7.05422V7.05838V7.06255V7.06673V7.07092V7.07511V7.07932V7.08353V7.08775V7.09198V7.09622V7.10047V7.10472V7.10899V7.11326V7.11754V7.12183V7.12613V7.13044V7.13475V7.13908V7.14341V7.14775V7.15209V7.15645V7.16081V7.16518V7.16956V7.17395V7.17834V7.18274V7.18715V7.19157V7.19599V7.20043V7.20487V7.20931V7.21377V7.21823V7.2227V7.22718V7.23166V7.23615V7.24065V7.24515V7.24967V7.25419V7.25871V7.26325V7.26779V7.27233V7.27689V7.28145V7.28601V7.29059V7.29517V7.29975V7.30435V7.30895V7.31355V7.31816V7.32278V7.32741V7.33204V7.33668V7.34132V7.34597V7.35062V7.35529V7.35995V7.36463V7.36931V7.37399V7.37868V7.38338V7.38808V7.39279V7.3975V7.40222V7.40695V7.41168V7.41641V7.42115V7.4259V7.43065V7.43541V7.44017V7.44494V7.44971V7.45449V7.45927V7.46405V7.46885V7.47364V7.47844V7.48325V7.48806V7.49288V7.4977V7.50252V7.50735V7.51219V7.51703V7.52187V7.52672V7.53157V7.53642V7.54128V7.54615V7.55102V7.55589V7.56077V7.56565V7.57053V7.57542V7.58031V7.58521V7.59011V7.59501V7.59992V7.60483V7.60975V7.61467V7.61959V7.62451V7.62944V7.63437V7.63931V7.64425V7.64919V7.65413V7.65908V7.66403V7.66899V7.67395V7.67891V7.68387V7.68884V7.69381V7.69878V7.70375V7.70873V7.71371V7.71869V7.72368V7.72866V7.73365V7.73865V7.74364V7.74864V7.75364V7.75864V7.76364V7.76865V7.77366V7.77867V7.78368V7.7887V7.79371V7.79873V7.80375V7.80877V7.8138V7.81882V7.82385V7.82888V7.83391V7.83894V7.84397V7.849V7.85404V7.85908V7.86412V7.86916V7.8742V7.87924V7.88428V7.88933V7.89437V7.89942V7.90447V7.90951V7.91456V7.91961V7.92466V7.92971V7.93477V7.93982V7.94487V7.94993V7.95498V7.96003V7.96509V7.97014V7.9752V7.98026V7.98531V7.99037V7.99542V8.00048V8.00554V8.01059V8.01565V8.02071V8.02576V8.03082V8.03587V8.04093V8.04598V8.05104V8.05609V8.06115V8.0662V8.07125V8.07631V8.08136V8.08641V8.09146V8.09651V8.10156V8.1066V8.11165V8.1167V8.12174V8.12678V8.13183V8.13687V8.14191V8.14695V8.15199V8.15702V8.16206V8.16709V8.17212V8.17715V8.18218V8.18721V8.19224V8.19726V8.20228V8.2073V8.21232V8.21734V8.22235V8.22737V8.23238V8.23739V8.24239V8.2474V8.2524V8.2574V8.2624V8.2674V8.27239V8.27738V8.28237V8.28735V8.29234V8.29732V8.3023V8.30727V8.31225V8.31722V8.32218V8.32715V8.33211V8.33707V8.34202V8.34698V8.35193V8.35687V8.36181V8.36675V8.37169V8.37662V8.38155V8.38648V8.3914V8.39632V8.40124V8.40615V8.41106V8.41597V8.42087V8.42577V8.43066V8.43555V8.44044V8.44532V8.4502V8.45507V8.45994V8.46481V8.46967V8.47453V8.47938V8.48423V8.48907V8.49391V8.49875V8.50358V8.50841V8.51323V8.51805V8.52286V8.52767V8.53247V8.53727V8.54206V8.54685V8.55164V8.55642V8.56119V8.56596V8.57072V8.57548V8.58023V8.58498V8.58973V8.59446V8.5992V8.60392V8.60864V8.61336V8.61807V8.62277V8.62747V8.63216V8.63685V8.64153V8.64621V8.65088V8.65554V8.6602V8.66485V8.6695V8.67414V8.67877V8.6834V8.68802V8.69263V8.69724V8.70185V8.70644V8.71103V8.71561V8.72019V8.72476V8.72932V8.73388V8.73843V8.74297V8.7475V8.75203V8.75655V8.76107V8.76558V8.77008V8.77457V8.77906V8.78354V8.78801V8.79247V8.79693V8.80138V8.80582V8.81026V8.81469V8.81911V8.82352V8.82793V8.83232V8.83671V8.84109V8.84547V8.84983V8.85419V8.85854V8.86288V8.86722V8.87154V8.87586V8.88017V8.88447V8.88876V8.89305V8.89733V8.90159V8.90585V8.9101V8.91435V8.91858V8.9228V8.92702V8.93123V8.93543V8.93962V8.9438V8.94797V8.95213V8.95629V8.96043V8.96457V8.9687V8.97281V8.97692V8.98102V8.98511V8.98919V8.99326V8.99733V9.00138V9.00542V9.00945V9.01348V9.01749V9.02149V9.02549V9.02947V9.03345V9.03741V9.04137V9.04531V9.04925V9.05317V9.05709V9.06099V9.06488V9.06877V9.07264V9.0765V9.08036V9.0842V9.08803V9.09185V9.09566V9.09946V9.10325V9.10703V9.1108V9.11455V9.1183V9.12204V9.12576V9.12947V9.13317V9.13687V9.14055V9.14421V9.14787V9.15152V9.15515V9.15878V9.16239V9.16599V9.16958V9.17316V9.17672V9.18028V9.18382V9.18735V9.19087V9.19438V9.19787V9.20136V9.20483V9.20829V9.21174V9.21517V9.2186V9.22201V9.22541V9.22879V9.23217V9.23553V9.23888V9.24222V9.24554V9.24886V9.25216V9.25544V9.25872V9.26198V9.26523V9.26846V9.27169C18.1222 10.7369 17.5788 11.7061 17.0261 12.309C16.7495 12.6108 16.4702 12.8212 16.2549 12.9559C16.1473 13.0233 16.0559 13.0716 15.9892 13.1029C15.9558 13.1186 15.9289 13.1298 15.9095 13.137C15.8998 13.1406 15.8924 13.143 15.8873 13.1445C15.887 13.1446 15.8867 13.1447 15.8864 13.1447C15.8861 13.1446 15.8856 13.1445 15.8852 13.1444C15.8798 13.1429 15.8719 13.1404 15.8616 13.1368C15.841 13.1295 15.8124 13.1182 15.7768 13.1024C15.7056 13.071 15.6077 13.0226 15.4922 12.9551C15.2612 12.8202 14.9605 12.6096 14.6625 12.3077C14.0671 11.7044 13.481 10.7356 13.481 9.27169Z" stroke="#F7FCFF" stroke-width="0.1"/>
<mask id="mask0_3122_25260" style="mask-type:luminance" maskUnits="userSpaceOnUse" x="13" y="6" width="6" height="8">
<path d="M13.481 9.27169V6.99547H18.1222V6.99695V7.00098V7.00502V7.00907V7.01313V7.0172V7.02127V7.02536V7.02945V7.03356V7.03767V7.0418V7.04593V7.05007V7.05422V7.05838V7.06255V7.06673V7.07092V7.07511V7.07932V7.08353V7.08775V7.09198V7.09622V7.10047V7.10472V7.10899V7.11326V7.11754V7.12183V7.12613V7.13044V7.13475V7.13908V7.14341V7.14775V7.15209V7.15645V7.16081V7.16518V7.16956V7.17395V7.17834V7.18274V7.18715V7.19157V7.19599V7.20043V7.20487V7.20931V7.21377V7.21823V7.2227V7.22718V7.23166V7.23615V7.24065V7.24515V7.24967V7.25419V7.25871V7.26325V7.26779V7.27233V7.27689V7.28145V7.28601V7.29059V7.29517V7.29975V7.30435V7.30895V7.31355V7.31816V7.32278V7.32741V7.33204V7.33668V7.34132V7.34597V7.35062V7.35529V7.35995V7.36463V7.36931V7.37399V7.37868V7.38338V7.38808V7.39279V7.3975V7.40222V7.40695V7.41168V7.41641V7.42115V7.4259V7.43065V7.43541V7.44017V7.44494V7.44971V7.45449V7.45927V7.46405V7.46885V7.47364V7.47844V7.48325V7.48806V7.49288V7.4977V7.50252V7.50735V7.51219V7.51703V7.52187V7.52672V7.53157V7.53642V7.54128V7.54615V7.55102V7.55589V7.56077V7.56565V7.57053V7.57542V7.58031V7.58521V7.59011V7.59501V7.59992V7.60483V7.60975V7.61467V7.61959V7.62451V7.62944V7.63437V7.63931V7.64425V7.64919V7.65413V7.65908V7.66403V7.66899V7.67395V7.67891V7.68387V7.68884V7.69381V7.69878V7.70375V7.70873V7.71371V7.71869V7.72368V7.72866V7.73365V7.73865V7.74364V7.74864V7.75364V7.75864V7.76364V7.76865V7.77366V7.77867V7.78368V7.7887V7.79371V7.79873V7.80375V7.80877V7.8138V7.81882V7.82385V7.82888V7.83391V7.83894V7.84397V7.849V7.85404V7.85908V7.86412V7.86916V7.8742V7.87924V7.88428V7.88933V7.89437V7.89942V7.90447V7.90951V7.91456V7.91961V7.92466V7.92971V7.93477V7.93982V7.94487V7.94993V7.95498V7.96003V7.96509V7.97014V7.9752V7.98026V7.98531V7.99037V7.99542V8.00048V8.00554V8.01059V8.01565V8.02071V8.02576V8.03082V8.03587V8.04093V8.04598V8.05104V8.05609V8.06115V8.0662V8.07125V8.07631V8.08136V8.08641V8.09146V8.09651V8.10156V8.1066V8.11165V8.1167V8.12174V8.12678V8.13183V8.13687V8.14191V8.14695V8.15199V8.15702V8.16206V8.16709V8.17212V8.17715V8.18218V8.18721V8.19224V8.19726V8.20228V8.2073V8.21232V8.21734V8.22235V8.22737V8.23238V8.23739V8.24239V8.2474V8.2524V8.2574V8.2624V8.2674V8.27239V8.27738V8.28237V8.28735V8.29234V8.29732V8.3023V8.30727V8.31225V8.31722V8.32218V8.32715V8.33211V8.33707V8.34202V8.34698V8.35193V8.35687V8.36181V8.36675V8.37169V8.37662V8.38155V8.38648V8.3914V8.39632V8.40124V8.40615V8.41106V8.41597V8.42087V8.42577V8.43066V8.43555V8.44044V8.44532V8.4502V8.45507V8.45994V8.46481V8.46967V8.47453V8.47938V8.48423V8.48907V8.49391V8.49875V8.50358V8.50841V8.51323V8.51805V8.52286V8.52767V8.53247V8.53727V8.54206V8.54685V8.55164V8.55642V8.56119V8.56596V8.57072V8.57548V8.58023V8.58498V8.58973V8.59446V8.5992V8.60392V8.60864V8.61336V8.61807V8.62277V8.62747V8.63216V8.63685V8.64153V8.64621V8.65088V8.65554V8.6602V8.66485V8.6695V8.67414V8.67877V8.6834V8.68802V8.69263V8.69724V8.70185V8.70644V8.71103V8.71561V8.72019V8.72476V8.72932V8.73388V8.73843V8.74297V8.7475V8.75203V8.75655V8.76107V8.76558V8.77008V8.77457V8.77906V8.78354V8.78801V8.79247V8.79693V8.80138V8.80582V8.81026V8.81469V8.81911V8.82352V8.82793V8.83232V8.83671V8.84109V8.84547V8.84983V8.85419V8.85854V8.86288V8.86722V8.87154V8.87586V8.88017V8.88447V8.88876V8.89305V8.89733V8.90159V8.90585V8.9101V8.91435V8.91858V8.9228V8.92702V8.93123V8.93543V8.93962V8.9438V8.94797V8.95213V8.95629V8.96043V8.96457V8.9687V8.97281V8.97692V8.98102V8.98511V8.98919V8.99326V8.99733V9.00138V9.00542V9.00945V9.01348V9.01749V9.02149V9.02549V9.02947V9.03345V9.03741V9.04137V9.04531V9.04925V9.05317V9.05709V9.06099V9.06488V9.06877V9.07264V9.0765V9.08036V9.0842V9.08803V9.09185V9.09566V9.09946V9.10325V9.10703V9.1108V9.11455V9.1183V9.12204V9.12576V9.12947V9.13317V9.13687V9.14055V9.14421V9.14787V9.15152V9.15515V9.15878V9.16239V9.16599V9.16958V9.17316V9.17672V9.18028V9.18382V9.18735V9.19087V9.19438V9.19787V9.20136V9.20483V9.20829V9.21174V9.21517V9.2186V9.22201V9.22541V9.22879V9.23217V9.23553V9.23888V9.24222V9.24554V9.24886V9.25216V9.25544V9.25872V9.26198V9.26523V9.26846V9.27169C18.1222 10.7369 17.5788 11.7061 17.0261 12.309C16.7495 12.6108 16.4702 12.8212 16.2549 12.9559C16.1473 13.0233 16.0559 13.0716 15.9892 13.1029C15.9558 13.1186 15.9289 13.1298 15.9095 13.137C15.8998 13.1406 15.8924 13.143 15.8873 13.1445C15.887 13.1446 15.8867 13.1447 15.8864 13.1447C15.8861 13.1446 15.8856 13.1445 15.8852 13.1444C15.8798 13.1429 15.8719 13.1404 15.8616 13.1368C15.841 13.1295 15.8124 13.1182 15.7768 13.1024C15.7056 13.071 15.6077 13.0226 15.4922 12.9551C15.2612 12.8202 14.9605 12.6096 14.6625 12.3077C14.0671 11.7044 13.481 10.7356 13.481 9.27169Z" fill="white"/>
<path d="M13.481 9.27169V6.99547H18.1222V6.99695V7.00098V7.00502V7.00907V7.01313V7.0172V7.02127V7.02536V7.02945V7.03356V7.03767V7.0418V7.04593V7.05007V7.05422V7.05838V7.06255V7.06673V7.07092V7.07511V7.07932V7.08353V7.08775V7.09198V7.09622V7.10047V7.10472V7.10899V7.11326V7.11754V7.12183V7.12613V7.13044V7.13475V7.13908V7.14341V7.14775V7.15209V7.15645V7.16081V7.16518V7.16956V7.17395V7.17834V7.18274V7.18715V7.19157V7.19599V7.20043V7.20487V7.20931V7.21377V7.21823V7.2227V7.22718V7.23166V7.23615V7.24065V7.24515V7.24967V7.25419V7.25871V7.26325V7.26779V7.27233V7.27689V7.28145V7.28601V7.29059V7.29517V7.29975V7.30435V7.30895V7.31355V7.31816V7.32278V7.32741V7.33204V7.33668V7.34132V7.34597V7.35062V7.35529V7.35995V7.36463V7.36931V7.37399V7.37868V7.38338V7.38808V7.39279V7.3975V7.40222V7.40695V7.41168V7.41641V7.42115V7.4259V7.43065V7.43541V7.44017V7.44494V7.44971V7.45449V7.45927V7.46405V7.46885V7.47364V7.47844V7.48325V7.48806V7.49288V7.4977V7.50252V7.50735V7.51219V7.51703V7.52187V7.52672V7.53157V7.53642V7.54128V7.54615V7.55102V7.55589V7.56077V7.56565V7.57053V7.57542V7.58031V7.58521V7.59011V7.59501V7.59992V7.60483V7.60975V7.61467V7.61959V7.62451V7.62944V7.63437V7.63931V7.64425V7.64919V7.65413V7.65908V7.66403V7.66899V7.67395V7.67891V7.68387V7.68884V7.69381V7.69878V7.70375V7.70873V7.71371V7.71869V7.72368V7.72866V7.73365V7.73865V7.74364V7.74864V7.75364V7.75864V7.76364V7.76865V7.77366V7.77867V7.78368V7.7887V7.79371V7.79873V7.80375V7.80877V7.8138V7.81882V7.82385V7.82888V7.83391V7.83894V7.84397V7.849V7.85404V7.85908V7.86412V7.86916V7.8742V7.87924V7.88428V7.88933V7.89437V7.89942V7.90447V7.90951V7.91456V7.91961V7.92466V7.92971V7.93477V7.93982V7.94487V7.94993V7.95498V7.96003V7.96509V7.97014V7.9752V7.98026V7.98531V7.99037V7.99542V8.00048V8.00554V8.01059V8.01565V8.02071V8.02576V8.03082V8.03587V8.04093V8.04598V8.05104V8.05609V8.06115V8.0662V8.07125V8.07631V8.08136V8.08641V8.09146V8.09651V8.10156V8.1066V8.11165V8.1167V8.12174V8.12678V8.13183V8.13687V8.14191V8.14695V8.15199V8.15702V8.16206V8.16709V8.17212V8.17715V8.18218V8.18721V8.19224V8.19726V8.20228V8.2073V8.21232V8.21734V8.22235V8.22737V8.23238V8.23739V8.24239V8.2474V8.2524V8.2574V8.2624V8.2674V8.27239V8.27738V8.28237V8.28735V8.29234V8.29732V8.3023V8.30727V8.31225V8.31722V8.32218V8.32715V8.33211V8.33707V8.34202V8.34698V8.35193V8.35687V8.36181V8.36675V8.37169V8.37662V8.38155V8.38648V8.3914V8.39632V8.40124V8.40615V8.41106V8.41597V8.42087V8.42577V8.43066V8.43555V8.44044V8.44532V8.4502V8.45507V8.45994V8.46481V8.46967V8.47453V8.47938V8.48423V8.48907V8.49391V8.49875V8.50358V8.50841V8.51323V8.51805V8.52286V8.52767V8.53247V8.53727V8.54206V8.54685V8.55164V8.55642V8.56119V8.56596V8.57072V8.57548V8.58023V8.58498V8.58973V8.59446V8.5992V8.60392V8.60864V8.61336V8.61807V8.62277V8.62747V8.63216V8.63685V8.64153V8.64621V8.65088V8.65554V8.6602V8.66485V8.6695V8.67414V8.67877V8.6834V8.68802V8.69263V8.69724V8.70185V8.70644V8.71103V8.71561V8.72019V8.72476V8.72932V8.73388V8.73843V8.74297V8.7475V8.75203V8.75655V8.76107V8.76558V8.77008V8.77457V8.77906V8.78354V8.78801V8.79247V8.79693V8.80138V8.80582V8.81026V8.81469V8.81911V8.82352V8.82793V8.83232V8.83671V8.84109V8.84547V8.84983V8.85419V8.85854V8.86288V8.86722V8.87154V8.87586V8.88017V8.88447V8.88876V8.89305V8.89733V8.90159V8.90585V8.9101V8.91435V8.91858V8.9228V8.92702V8.93123V8.93543V8.93962V8.9438V8.94797V8.95213V8.95629V8.96043V8.96457V8.9687V8.97281V8.97692V8.98102V8.98511V8.98919V8.99326V8.99733V9.00138V9.00542V9.00945V9.01348V9.01749V9.02149V9.02549V9.02947V9.03345V9.03741V9.04137V9.04531V9.04925V9.05317V9.05709V9.06099V9.06488V9.06877V9.07264V9.0765V9.08036V9.0842V9.08803V9.09185V9.09566V9.09946V9.10325V9.10703V9.1108V9.11455V9.1183V9.12204V9.12576V9.12947V9.13317V9.13687V9.14055V9.14421V9.14787V9.15152V9.15515V9.15878V9.16239V9.16599V9.16958V9.17316V9.17672V9.18028V9.18382V9.18735V9.19087V9.19438V9.19787V9.20136V9.20483V9.20829V9.21174V9.21517V9.2186V9.22201V9.22541V9.22879V9.23217V9.23553V9.23888V9.24222V9.24554V9.24886V9.25216V9.25544V9.25872V9.26198V9.26523V9.26846V9.27169C18.1222 10.7369 17.5788 11.7061 17.0261 12.309C16.7495 12.6108 16.4702 12.8212 16.2549 12.9559C16.1473 13.0233 16.0559 13.0716 15.9892 13.1029C15.9558 13.1186 15.9289 13.1298 15.9095 13.137C15.8998 13.1406 15.8924 13.143 15.8873 13.1445C15.887 13.1446 15.8867 13.1447 15.8864 13.1447C15.8861 13.1446 15.8856 13.1445 15.8852 13.1444C15.8798 13.1429 15.8719 13.1404 15.8616 13.1368C15.841 13.1295 15.8124 13.1182 15.7768 13.1024C15.7056 13.071 15.6077 13.0226 15.4922 12.9551C15.2612 12.8202 14.9605 12.6096 14.6625 12.3077C14.0671 11.7044 13.481 10.7356 13.481 9.27169Z" stroke="white" stroke-width="0.1"/>
</mask>
<g mask="url(#mask0_3122_25260)">
<rect x="13.1265" y="6.63297" width="5.4" height="2.125" fill="#F50100"/>
<path d="M15.5337 9.19547C15.7065 9.19547 16.0521 8.99955 16.1385 8.95434C16.4553 8.75843 16.6857 8.93927 16.8729 9.02969C17.0745 9.12011 17.4489 9.22561 17.6793 9.02969C17.9097 8.83378 18.0393 8.84885 18.1977 8.84885C18.2265 8.6228 18.2265 8.39675 18.2265 8.14055V7.95971C18.0249 7.9145 17.9241 7.97478 17.7081 8.1707C17.4921 8.36661 17.2473 8.3214 16.9305 8.20084C16.6281 8.0652 16.3257 7.82408 16.0233 8.20084C15.9369 8.30633 15.7353 8.45703 15.5337 8.45703C15.3177 8.45703 15.1305 8.30633 15.0441 8.20084C14.7273 7.82408 14.4393 8.0652 14.1369 8.20084C13.8201 8.3214 13.5609 8.36661 13.3449 8.1707C13.1433 7.97478 13.0425 7.9145 12.8265 7.95971V8.14055C12.8265 8.39675 12.8409 8.6228 12.8697 8.84885C13.0281 8.84885 13.1433 8.83378 13.3737 9.02969C13.6041 9.22561 13.9929 9.12011 14.1801 9.02969C14.3817 8.93927 14.6121 8.75843 14.9289 8.95434C15.0153 8.99955 15.3465 9.19547 15.5337 9.19547H15.5337Z" fill="#F50100"/>
<path fill-rule="evenodd" clip-rule="evenodd" d="M14.0767 7.601C14.0767 7.601 14.2068 7.60728 14.361 7.77301C14.5151 7.93873 15.0822 7.83325 15.0822 7.73328C15.0822 7.63331 14.7381 7.57359 14.8703 7.40265C15.0025 7.23172 15.2265 7.23141 15.4065 7.32046C15.4581 7.32046 15.4524 7.90518 15.5702 7.87309C15.9433 7.77144 16.5451 7.57001 16.7217 7.65643C16.9539 7.77013 17.1316 7.74185 17.0726 7.57871C17.0136 7.41557 16.8618 7.31361 16.5696 7.40265C16.2775 7.4917 16.3464 7.57871 16.0939 7.57871C15.8414 7.57871 15.4081 7.72102 15.6005 7.40265C15.7729 7.11737 15.9786 7.11179 16.0571 7.23172C16.0973 7.29307 15.7697 7.42856 15.7697 7.4917C15.7697 7.57871 16.6135 7.32058 16.7217 7.32058C16.8298 7.32058 17.1275 7.31361 17.157 7.40265C17.1865 7.4917 17.3662 7.57341 17.2292 7.65643C17.0922 7.73944 16.8663 7.79144 17.0217 7.8978C17.1772 8.00416 17.571 8.05253 17.5883 8.16317C17.6055 8.2738 17.7749 8.43901 17.7069 8.43901C17.6389 8.43901 17.516 8.59482 17.4016 8.54738C17.2872 8.49994 17.2737 8.45828 17.3835 8.41985C17.4932 8.38142 17.4921 8.21979 17.4016 8.21979C17.3111 8.21979 17.3189 8.20755 17.1128 8.15093C16.9068 8.0943 16.6341 8.03135 16.6505 8.15093C16.6669 8.2705 16.8064 8.52715 16.5589 8.55161C16.3114 8.57608 16.1956 8.67429 16.1474 8.5952C16.0992 8.51611 15.9271 8.41072 16.0625 8.37692C16.1978 8.34313 16.3272 8.49179 16.376 8.46752C16.4247 8.44324 16.5299 8.35663 16.4373 8.25378C16.3448 8.15093 16.165 8.14744 16.3065 8.07046C16.448 7.99347 16.3635 7.93482 16.0939 8.0943C15.8243 8.25378 15.6743 8.38931 15.4377 8.37015C15.201 8.35098 15.0948 8.43868 15.0187 8.41283C14.9426 8.38697 14.5721 8.69846 14.4654 8.61941C14.3587 8.54036 14.0143 8.51003 14.0763 8.41283C14.1383 8.31562 14.2216 8.26558 14.3143 8.31562C14.407 8.36567 14.4991 8.41571 14.5617 8.36567C14.6242 8.31562 14.8223 8.08206 14.7769 8.04772C14.7315 8.01339 14.5714 7.9546 14.3143 7.9546C14.0571 7.9546 14.0512 7.77662 13.9902 7.69546C13.9291 7.61429 14.0767 7.601 14.0767 7.601Z" fill="#FFD100"/>
<path d="M15.5337 10.6955C15.7065 10.6955 16.0521 10.4996 16.1385 10.4543C16.4553 10.2584 16.6857 10.4393 16.8729 10.5297C17.0745 10.6201 17.4489 10.7256 17.6793 10.5297C17.9097 10.3338 18.0393 10.3489 18.1977 10.3489C18.2265 10.1228 18.2265 9.89675 18.2265 9.64055V9.45971C18.0249 9.4145 17.9241 9.47478 17.7081 9.6707C17.4921 9.86661 17.2473 9.8214 16.9305 9.70084C16.6281 9.5652 16.3257 9.32408 16.0233 9.70084C15.9369 9.80633 15.7353 9.95703 15.5337 9.95703C15.3177 9.95703 15.1305 9.80633 15.0441 9.70084C14.7273 9.32408 14.4393 9.5652 14.1369 9.70084C13.8201 9.8214 13.5609 9.86661 13.3449 9.6707C13.1433 9.47478 13.0425 9.4145 12.8265 9.45971V9.64055C12.8265 9.89675 12.8409 10.1228 12.8697 10.3489C13.0281 10.3489 13.1433 10.3338 13.3737 10.5297C13.6041 10.7256 13.9929 10.6201 14.1801 10.5297C14.3817 10.4393 14.6121 10.2584 14.9289 10.4543C15.0153 10.4996 15.3465 10.6955 15.5337 10.6955H15.5337Z" fill="#0B50A0"/>
<path d="M15.5337 12.133C15.7065 12.133 16.0521 11.9371 16.1385 11.8918C16.4553 11.6959 16.6857 11.8768 16.8729 11.9672C17.0745 12.0576 17.4489 12.1631 17.6793 11.9672C17.9097 11.7713 18.0393 11.7864 18.1977 11.7864C18.2265 11.5603 18.2265 11.3342 18.2265 11.0781V10.8972C18.0249 10.852 17.9241 10.9123 17.7081 11.1082C17.4921 11.3041 17.2473 11.2589 16.9305 11.1383C16.6281 11.0027 16.3257 10.7616 16.0233 11.1383C15.9369 11.2438 15.7353 11.3945 15.5337 11.3945C15.3177 11.3945 15.1305 11.2438 15.0441 11.1383C14.7273 10.7616 14.4393 11.0027 14.1369 11.1383C13.8201 11.2589 13.5609 11.3041 13.3449 11.1082C13.1433 10.9123 13.0425 10.852 12.8265 10.8972V11.0781C12.8265 11.3342 12.8409 11.5603 12.8697 11.7864C13.0281 11.7864 13.1433 11.7713 13.3737 11.9672C13.6041 12.1631 13.9929 12.0576 14.1801 11.9672C14.3817 11.8768 14.6121 11.6959 14.9289 11.8918C15.0153 11.9371 15.3465 12.133 15.5337 12.133H15.5337Z" fill="#0B50A0"/>
<path d="M15.5337 13.5705C15.7065 13.5705 16.0521 13.3746 16.1385 13.3293C16.4553 13.1334 16.6857 13.3143 16.8729 13.4047C17.0745 13.4951 17.4489 13.6006 17.6793 13.4047C17.9097 13.2088 18.0393 13.2239 18.1977 13.2239C18.2265 12.9978 18.2265 12.7717 18.2265 12.5156V12.3347C18.0249 12.2895 17.9241 12.3498 17.7081 12.5457C17.4921 12.7416 17.2473 12.6964 16.9305 12.5758C16.6281 12.4402 16.3257 12.1991 16.0233 12.5758C15.9369 12.6813 15.7353 12.832 15.5337 12.832C15.3177 12.832 15.1305 12.6813 15.0441 12.5758C14.7273 12.1991 14.4393 12.4402 14.1369 12.5758C13.8201 12.6964 13.5609 12.7416 13.3449 12.5457C13.1433 12.3498 13.0425 12.2895 12.8265 12.3347V12.5156C12.8265 12.7717 12.8409 12.9978 12.8697 13.2239C13.0281 13.2239 13.1433 13.2088 13.3737 13.4047C13.6041 13.6006 13.9929 13.4951 14.1801 13.4047C14.3817 13.3143 14.6121 13.1334 14.9289 13.3293C15.0153 13.3746 15.3465 13.5705 15.5337 13.5705H15.5337Z" fill="#0B50A0"/>
<path d="M15.8712 11.656L15.8464 11.643L15.8223 11.6572L15.5521 11.8174L15.631 11.4844L15.6378 11.456L15.6163 11.4362L15.3542 11.194H15.6914H15.7262L15.7383 11.1613L15.851 10.8552L15.9842 11.1638L15.9972 11.194H16.0301H16.3102L16.0787 11.4385L16.0581 11.4603L16.0676 11.4888L16.1778 11.818L15.8712 11.656Z" fill="#059334" stroke="#FFD100" stroke-width="0.1"/>
<path d="M14.6712 10.406L14.6464 10.393L14.6223 10.4072L14.3521 10.5674L14.431 10.2344L14.4378 10.206L14.4163 10.1862L14.1542 9.944H14.4913H14.5262L14.5383 9.91127L14.651 9.60516L14.7842 9.91381L14.7972 9.944H14.8301H15.1102L14.8787 10.1885L14.8581 10.2103L14.8676 10.2388L14.9777 10.568L14.6712 10.406Z" fill="#059334" stroke="#FFD100" stroke-width="0.1"/>
<path d="M17.0712 10.406L17.0464 10.393L17.0224 10.4072L16.7521 10.5674L16.831 10.2344L16.8378 10.206L16.8163 10.1862L16.5542 9.944H16.8914H16.9262L16.9383 9.91127L17.051 9.60516L17.1842 9.91381L17.1973 9.944H17.2301H17.5103L17.2787 10.1885L17.2581 10.2103L17.2676 10.2388L17.3778 10.568L17.0712 10.406Z" fill="#059334" stroke="#FFD100" stroke-width="0.1"/>
</g>
</g>
<path d="M13.0286 12.967C13.0837 13.0898 13.4787 13.2511 13.9381 13.0438C14.2504 12.8978 14.4525 12.6905 14.6454 12.3218C14.7006 12.2297 14.7281 12.1145 14.5995 12.0454C14.4984 11.9839 14.3331 11.9148 14.2596 11.8534C14.2229 11.8226 14.1861 11.7996 14.1585 11.7766C14.1769 11.7919 14.1953 11.8073 14.2137 11.8303C14.3974 12.0146 14.2045 12.2834 14.0024 12.4447C13.8554 12.5599 13.589 12.8441 13.2031 12.5753C13.1205 12.5138 12.9275 12.7673 13.0286 12.967L13.0286 12.967Z" fill="#FFD100"/>
<path d="M18.614 12.967C18.5497 13.0898 18.1547 13.2511 17.7045 13.0438C17.3922 12.8978 17.1901 12.6905 16.988 12.3218C16.942 12.2297 16.9145 12.1145 17.0431 12.0454C17.1441 11.9839 17.3095 11.9148 17.383 11.8534C17.4197 11.8226 17.4473 11.7996 17.484 11.7766C17.4657 11.7919 17.4473 11.8073 17.4289 11.8303C17.2452 12.0146 17.4381 12.2834 17.631 12.4447C17.778 12.5599 18.0536 12.8441 18.4394 12.5753C18.5221 12.5138 18.7059 12.7673 18.614 12.967L18.614 12.967Z" fill="#FFD100"/>
<path d="M15.8213 13.6274C16.5563 13.6274 17.6862 13.351 18.2925 12.3833C18.3936 12.222 18.2925 12.1375 18.1731 12.0837C18.0445 12.0377 17.8883 11.9301 17.8057 11.861C17.9526 11.9839 17.9251 12.0684 17.824 12.2066C17.3555 12.8594 16.7124 13.1897 15.8214 13.1897C14.9302 13.1897 14.2872 12.8594 13.8187 12.2066C13.7176 12.0684 13.6901 11.9839 13.8279 11.861C13.7544 11.9301 13.589 12.0377 13.4604 12.0837C13.341 12.1375 13.2399 12.222 13.341 12.3833C13.9473 13.351 15.0864 13.6274 15.8214 13.6274H15.8213Z" fill="#FFD100"/>
<path d="M14.1218 12.3295C14.1034 12.2527 13.984 12.2834 13.9472 12.3756C13.9013 12.3218 13.8554 12.2681 13.8186 12.2066C13.7084 12.0684 13.69 11.9762 13.8462 11.8457C13.9197 11.7842 14.0667 11.7151 14.1677 11.7919C14.379 11.9378 14.2688 12.1759 14.1218 12.3295L14.1218 12.3295Z" fill="#F50100"/>
<path d="M17.5116 12.3295C17.53 12.2527 17.6586 12.2834 17.6954 12.3756C17.7413 12.3218 17.7872 12.2681 17.824 12.2066C17.9342 12.0684 17.9526 11.9762 17.7872 11.8457C17.7229 11.7842 17.5759 11.7151 17.4657 11.7919C17.2636 11.9378 17.3647 12.1759 17.5116 12.3295L17.5116 12.3295Z" fill="#F50100"/>
<path d="M14.8808 5.9232C14.8086 5.82053 14.6127 5.7749 14.5302 5.86616C14.4993 5.88898 14.458 5.88898 14.4271 5.90039C14.3755 5.90039 14.3097 5.92911 14.3303 6.0432C14.3858 6.0432 14.3858 6.07151 14.4168 6.07151C14.4374 6.0601 14.491 6.26937 14.5941 6.25797C14.7076 6.25797 14.8086 6.31109 14.8293 6.3339C14.8602 6.36813 14.9015 6.4594 14.8499 6.50503C14.7777 6.57348 14.7261 6.7332 14.8499 6.85869C14.984 6.97277 15.3243 7.1439 15.7059 6.81305C16.0771 6.49362 16.6546 6.67615 16.6959 6.79024C16.7475 6.90432 16.7681 6.97277 16.7784 7.02981C16.7887 7.07545 17.0672 7.1439 17.1084 7.17812C17.16 7.21235 17.2322 7.20094 17.2115 7.09826C17.1703 6.77883 16.995 6.7332 16.9744 6.58489C17.0775 6.5963 17.1497 6.5963 17.1909 6.55066C17.2219 6.50503 17.2631 6.42517 17.3044 6.40235C17.3353 6.37954 17.3353 6.35672 17.294 6.36813C17.2425 6.37954 17.2115 6.40235 17.1187 6.39095C16.8992 6.36454 16.9535 5.49915 16.2273 5.33081C15.7786 5.22678 15.219 5.94016 15.0656 6.01079C15.0622 6.01233 15.0591 6.01356 15.0562 6.01447C14.984 6.01447 14.9221 5.98025 14.8808 5.9232Z" fill="#059334"/>
</g>
<defs>
<clipPath id="clip0_3122_25260">
<rect width="20" height="15" rx="2" fill="white"/>
</clipPath>
<clipPath id="clip1_3122_25260">
<rect width="11" height="9" fill="white"/>
</clipPath>
<clipPath id="clip2_3122_25260">
<rect width="5" height="7" fill="white" transform="translate(13.4265 6.94547)"/>
</clipPath>
</defs>
</svg>
