<svg width="20" height="15" viewBox="0 0 20 15" fill="none" xmlns="http://www.w3.org/2000/svg">
<g clip-path="url(#clip0_3123_1269)">
<rect width="20" height="15" rx="2" fill="white"/>
<path fill-rule="evenodd" clip-rule="evenodd" d="M0 0H20V15H0V0Z" fill="#FECA00"/>
<rect x="1.25" y="1.25" width="3.75" height="12.5" fill="#1F8A6E"/>
<rect x="5" y="1.25" width="3.75" height="12.5" fill="#F56800"/>
<rect x="8.75" y="1.25" width="10" height="12.5" fill="#B01D00"/>
<rect x="7.5" y="1.25" width="1.25" height="12.5" fill="#E8AA00"/>
<path fill-rule="evenodd" clip-rule="evenodd" d="M10.6878 3.85846C10.6878 3.85846 9.89171 3.85615 9.89171 5.24228V7.27489C9.89171 7.27489 9.51276 7.34245 9.51276 7.57786C9.51276 7.81326 9.59307 8.01925 9.74239 8.01925C9.89171 8.01925 10.041 8.70982 9.89171 8.70982C9.74239 8.70982 9.59307 9.00612 9.74239 9.00612C9.77812 9.00612 9.8053 9.00128 9.82597 8.99759C9.84772 8.99372 9.86227 8.99112 9.87201 8.9968C9.89171 9.00827 9.89171 9.05359 9.89171 9.19059C9.89171 9.45969 9.74239 9.56851 9.74239 9.56851C9.74239 9.56851 9.60176 9.52927 9.60176 9.68763C9.60176 9.84599 9.74239 9.88608 9.74239 9.88608C9.74239 9.88608 9.8229 9.92089 9.66783 9.99587C9.51276 10.0709 9.51276 10.1071 9.51276 10.1071H9.89171L10.0815 10.4543L10.2626 10.1071H10.6367C10.6367 10.1071 10.4483 9.98662 10.4262 9.96137C10.4041 9.93613 10.3774 9.89924 10.4262 9.85702C10.4404 9.84471 10.4613 9.8353 10.4837 9.8252C10.538 9.80066 10.6015 9.77201 10.6015 9.68763C10.6015 9.56851 10.3627 9.56851 10.3627 9.56851C10.3627 9.56851 10.217 9.30546 10.2626 9.19059C10.2754 9.15847 10.2826 9.12989 10.2889 9.10539C10.3049 9.04224 10.3141 9.00612 10.3925 9.00612C10.5012 9.00612 10.5636 8.86885 10.4262 8.70982C10.4262 8.70982 10.5837 8.87913 10.5374 9.09883C10.4912 9.31854 10.5856 9.41804 10.6367 9.41804C10.6878 9.41804 10.7691 9.34249 10.7691 9.34249C10.7691 9.34249 11.1938 9.72219 11.3804 9.72219C11.5671 9.72219 11.8346 9.41804 11.8346 9.41804L12.2188 9.6338C12.2188 9.6338 12.5 10.0277 12.4585 10.2985C12.4171 10.5694 12.2568 10.7203 12.0682 10.6784C11.8795 10.6365 11.5727 10.7224 11.5494 10.8392C11.5458 10.8569 11.5406 10.8785 11.5348 10.9021L11.5348 10.9021C11.5025 11.0347 11.4542 11.2332 11.602 11.1842C11.7763 11.1265 11.8104 11.0822 11.8104 11.0822C11.8104 11.0822 11.7875 11.1842 11.9278 11.1842C12.0682 11.1842 12.1087 11.0822 12.1087 11.0822C12.1087 11.0822 12.2542 11.1842 12.3564 11.1842C12.4585 11.1842 12.573 11.1056 12.573 11.1056C12.573 11.1056 12.6483 11.2223 12.8148 11.1842C12.9814 11.146 13.1073 10.7113 12.9862 10.6139C12.9862 10.6139 13.388 10.5556 13.4911 10.2063C13.4911 10.2063 13.1024 10.2006 13.1425 9.96137C13.1825 9.72219 13.3878 9.56851 13.3878 9.56851C13.3878 9.56851 13.9789 9.28235 14.2333 9.19059C14.4876 9.09883 14.9103 9.00612 15.015 9.00612C15.0577 9.00612 15.0881 9.10563 15.1294 9.24051C15.1895 9.43705 15.2726 9.70871 15.4499 9.85702C15.7488 10.1071 15.545 10.6784 15.545 10.6784C15.545 10.6784 14.8797 10.7454 14.8797 10.9255C14.8797 11.1056 14.8904 11.1842 15.015 11.1842C15.1396 11.1842 15.1371 11.0822 15.1371 11.0822C15.1371 11.0822 15.211 11.1842 15.3305 11.1842C15.4499 11.1842 15.545 11.0822 15.545 11.0822C15.545 11.0822 15.5767 11.1842 15.7332 11.1842C15.8896 11.1842 15.8885 11.0822 15.8885 11.0822C15.8885 11.0822 15.9167 11.1842 16.0545 11.1842C16.1924 11.1842 16.4754 11.0822 16.4754 11.0822C16.4754 11.0822 16.5198 11.1842 16.663 11.1842C16.8061 11.1842 16.8095 11.0822 16.8095 11.0822C16.8095 11.0822 16.886 11.1842 17.01 11.1842C17.134 11.1842 17.2067 11.0822 17.2067 11.0822C17.2067 11.0822 17.385 11.1842 17.508 11.1842C17.631 11.1842 17.5869 11.0001 17.508 10.8392C17.4881 10.7986 17.465 10.7638 17.4439 10.732C17.3816 10.6383 17.3367 10.5707 17.4423 10.4543C17.4722 10.4214 17.5064 10.3881 17.5407 10.3547L17.5407 10.3547C17.6686 10.2303 17.7971 10.1053 17.7029 9.99587C17.675 9.96338 17.6423 9.94065 17.6094 9.91779C17.5016 9.84294 17.3919 9.76674 17.4423 9.34249C17.4724 9.08843 17.5298 8.8819 17.583 8.69014L17.583 8.69013C17.6458 8.46385 17.7029 8.25816 17.7029 8.01925C17.7029 7.57786 17.4423 7.07313 17.4423 7.07313C17.4423 7.07313 17.7933 6.82817 17.7933 6.32987C17.7933 5.83156 17.01 5.77721 17.01 5.77721C17.01 5.77721 16.232 5.97748 15.8885 5.87735C15.811 5.85475 15.7461 5.8385 15.6921 5.82498C15.5069 5.77858 15.4499 5.7643 15.4499 5.63592C15.4499 5.47012 15.1998 5.77721 15.1998 5.77721C15.1998 5.77721 15.0039 5.69855 15.1371 5.53578C15.2703 5.37302 15.3305 5.30921 15.3305 5.30921C15.3305 5.30921 15.2131 5.17535 15.015 5.24228C14.817 5.30921 14.7816 5.42012 14.7816 5.42012C14.7816 5.42012 14.5558 5.18897 14.6965 5.02113C14.8372 4.85329 15.015 5.02113 15.015 5.02113C15.015 5.02113 15.2173 5.12674 15.2336 4.98811C15.2499 4.84949 15.2336 4.73894 15.2336 4.73894C15.2336 4.73894 15.7411 4.8845 15.5977 5.11089C15.4543 5.33729 15.545 5.42012 15.545 5.42012C15.545 5.42012 15.8938 5.44158 15.9568 5.20097C15.9807 5.10997 15.9767 5.02171 15.9593 4.95236C16.0598 4.99969 16.1736 5.05579 16.1418 5.14884C16.0834 5.3198 15.9568 5.53578 15.9568 5.53578C15.9568 5.53578 16.3053 5.51541 16.4092 5.24228C16.5131 4.96914 16.4754 5.30921 16.4754 5.30921C16.4754 5.30921 16.609 5.30445 16.8095 5.42012C17.01 5.53578 16.8095 5.24228 16.8095 5.24228C16.8095 5.24228 17.2257 5.75828 17.6193 5.6971C18.0129 5.63592 17.9911 5.30921 17.9911 5.30921C17.9911 5.30921 17.8979 5.14884 17.7029 5.14884C17.508 5.14884 17.6193 5.30921 17.6193 5.30921C17.6193 5.30921 17.8093 5.41745 17.508 5.30921C17.4208 5.27786 17.2905 5.17666 17.129 5.05109L17.1289 5.05109C16.7326 4.74312 16.1477 4.28854 15.545 4.35816C14.6965 4.45616 14.4005 4.83531 14.4005 4.83531V4.51961C14.4005 4.51961 14.2579 4.73894 14.125 4.73894C13.9921 4.73894 13.623 4.51961 13.623 4.51961L13.3878 4.73894C13.3878 4.73894 13.2988 4.51961 13.1425 4.51961C12.9862 4.51961 12.9862 4.73894 12.9862 4.73894C12.9862 4.73894 12.7895 4.64225 12.573 4.64225C12.4842 4.64225 12.4088 4.60985 12.3506 4.58487C12.2667 4.54887 12.2188 4.52828 12.2188 4.64225C12.2188 4.66538 12.2193 4.68746 12.2198 4.70847V4.70847C12.2236 4.86277 12.226 4.95906 12.0015 4.98811C11.7464 5.02113 11.5494 5.02113 11.5494 5.02113C11.5494 5.02113 11.3967 4.83531 11.2779 4.83531C11.1591 4.83531 11.0215 4.97951 11.0215 5.11089C11.0215 5.24228 11.1754 5.61699 11.2779 5.6971C11.3049 5.7182 11.2999 5.71589 11.2779 5.70575C11.2162 5.67737 11.0215 5.58766 11.0215 5.77721C11.0215 5.9079 11.0541 5.94057 11.0779 5.96444C11.101 5.98756 11.1158 6.00241 11.0847 6.09016C11.0718 6.12667 11.054 6.16891 11.0354 6.21298C10.9634 6.38413 10.8796 6.58307 11.0215 6.58307C11.0981 6.58307 11.1705 6.5662 11.2221 6.55419C11.2907 6.53822 11.3224 6.53084 11.2779 6.58307C11.2602 6.60388 11.2363 6.62894 11.2122 6.65421L11.2122 6.65421C11.1304 6.74007 11.0463 6.82841 11.1919 6.76137C11.2685 6.72613 11.3331 6.675 11.3864 6.63284C11.4644 6.5712 11.5181 6.52872 11.5494 6.58307C11.5692 6.61744 11.5533 6.66338 11.5397 6.70275C11.5171 6.76823 11.5008 6.81556 11.665 6.76137C11.7225 6.74237 11.7562 6.72756 11.775 6.71691C11.7758 6.72757 11.7845 6.7424 11.8104 6.76137C11.8655 6.80182 11.8549 6.84013 11.8469 6.86942C11.8377 6.90256 11.8318 6.92414 11.9278 6.92414C12.0197 6.92414 12.1495 6.8529 12.2263 6.81067C12.3008 6.76979 12.3257 6.75611 12.2188 6.86064C12.1514 6.92652 12.054 6.97043 11.9458 7.01918C11.705 7.12767 11.4112 7.26008 11.2779 7.71174C11.098 8.32141 11.1786 8.44705 11.1905 8.46142L10.6367 7.85503C10.6367 7.85503 10.7691 7.75152 10.7691 7.57786C10.7691 7.40419 10.4262 7.27489 10.4262 7.27489C10.4262 7.27489 10.4382 5.11379 10.5374 4.64225C10.6367 4.17071 10.6878 3.85846 10.6878 3.85846ZM11.7922 6.6965C11.786 6.69651 11.774 6.70332 11.775 6.71691C11.799 6.70328 11.7985 6.69648 11.7922 6.6965ZM15.9593 4.95236L15.9519 4.9489C15.8708 4.91076 15.8011 4.87795 15.8279 4.83531C15.8656 4.77539 15.9306 4.83833 15.9593 4.95236ZM16.3257 9.62855C16.3257 9.62855 16.0633 9.88597 16.2299 9.94255C16.2805 9.95971 16.342 9.96928 16.3991 9.97818C16.5304 9.99861 16.6389 10.0155 16.5394 10.1127C16.3966 10.2522 16.2757 10.4407 16.2757 10.6123C16.2757 10.784 16.2798 10.9289 16.3257 10.8564C16.351 10.8167 16.4546 10.775 16.5663 10.7302C16.658 10.6933 16.7552 10.6543 16.8186 10.6123C16.9386 10.533 16.9369 10.4473 16.9338 10.2933V10.2932C16.9332 10.2666 16.9326 10.2379 16.9326 10.2069C16.9326 9.9963 16.3257 9.62855 16.3257 9.62855ZM14.2894 6.18103C14.3505 6.13241 14.3545 5.53231 14.3545 5.53231C14.3545 5.53231 14.5691 5.60375 14.5691 5.6975C14.5691 5.75588 14.5528 5.78927 14.5283 5.83967C14.5135 5.8702 14.4956 5.90697 14.4764 5.95931C14.4293 6.08823 14.5576 6.16899 14.6768 6.24402C14.6858 6.24974 14.6949 6.25543 14.7038 6.2611C14.7846 6.31261 14.8073 6.20085 14.8248 6.11457C14.8345 6.06675 14.8426 6.02675 14.8582 6.02675C14.9018 6.02675 15.227 6.10049 15.4718 6.22488C15.6854 6.33341 15.895 6.28012 16.375 6.15809C16.4451 6.14026 16.521 6.12096 16.6035 6.10049C17.2509 5.93987 17.3359 6.18103 17.4023 6.3709C17.4686 6.56076 16.9661 6.82386 16.6035 6.87154C16.4442 6.89249 16.3063 6.88583 16.1793 6.8797C16.0173 6.87187 15.8733 6.86492 15.726 6.91731C15.495 6.99942 14.7728 6.99124 14.4908 6.98805C14.4519 6.98761 14.4214 6.98726 14.4017 6.98726C14.2723 6.98726 14.2478 6.94641 14.1987 6.86444C14.1862 6.8436 14.1721 6.82012 14.1543 6.79397C14.0665 6.66494 14.1731 6.58057 14.2421 6.58057C14.3112 6.58057 14.2894 6.42954 14.2421 6.3709C14.1949 6.31226 14.2282 6.22966 14.2894 6.18103Z" fill="#FECA00"/>
<path fill-rule="evenodd" clip-rule="evenodd" d="M8.85699 1.32648V1.55213C8.85699 1.57991 8.845 1.61781 8.83156 1.66029C8.78895 1.79495 8.73178 1.97566 8.99572 2.02644C9.34294 2.09325 9.59871 2.24508 9.67648 2.38842C9.72632 2.48028 9.71228 2.32721 9.69577 2.14718C9.68651 2.04629 9.67648 1.93692 9.67648 1.85745C9.67648 1.63618 9.42862 1.20498 9.25298 1.32648C9.07735 1.44797 8.85699 1.32648 8.85699 1.32648ZM8.85699 13.4421V13.6677C8.85699 13.6677 9.07735 13.5462 9.25298 13.6677C9.42862 13.7892 9.67648 13.358 9.67648 13.1368C9.67648 13.0573 9.68651 12.9479 9.69577 12.847C9.71228 12.667 9.72632 12.5139 9.67648 12.6058C9.59871 12.7491 9.34294 12.901 8.99572 12.9678C8.73178 13.0186 8.78896 13.1993 8.83156 13.3339C8.845 13.3764 8.85699 13.4143 8.85699 13.4421ZM18.6473 13.4421V13.6677C18.6473 13.6677 18.4269 13.5462 18.2513 13.6677C18.0756 13.7892 17.8278 13.358 17.8278 13.1368C17.8278 13.0573 17.8177 12.9479 17.8085 12.847C17.792 12.667 17.7779 12.5139 17.8278 12.6058C17.9055 12.7491 18.1613 12.901 18.5085 12.9678C18.7725 13.0186 18.7153 13.1993 18.6727 13.3339C18.6593 13.3764 18.6473 13.4143 18.6473 13.4421ZM18.6473 1.55213V1.32648C18.6473 1.32648 18.4269 1.44797 18.2513 1.32648C18.0756 1.20498 17.8278 1.63618 17.8278 1.85745C17.8278 1.93692 17.8177 2.04629 17.8085 2.14718C17.792 2.32721 17.7779 2.48028 17.8278 2.38842C17.9055 2.24508 18.1613 2.09325 18.5085 2.02644C18.7725 1.97566 18.7153 1.79495 18.6727 1.66029C18.6593 1.61781 18.6473 1.57991 18.6473 1.55213Z" fill="#FECA00"/>
</g>
<defs>
<clipPath id="clip0_3123_1269">
<rect width="20" height="15" rx="2" fill="white"/>
</clipPath>
</defs>
</svg>
