<svg width="20" height="15" viewBox="0 0 20 15" fill="none" xmlns="http://www.w3.org/2000/svg">
<g clip-path="url(#clip0_3123_698)">
<rect width="20" height="15" rx="2" fill="white"/>
<path fill-rule="evenodd" clip-rule="evenodd" d="M14 0H20V15H14V0Z" fill="#D9071E"/>
<path fill-rule="evenodd" clip-rule="evenodd" d="M0 0H6V15H0V0Z" fill="#006923"/>
<path fill-rule="evenodd" clip-rule="evenodd" d="M6 0H14V15H6V0Z" fill="white"/>
<path fill-rule="evenodd" clip-rule="evenodd" d="M8.9901 4.94588C8.9901 4.94588 8.56085 5.27879 8.64113 5.63371C8.7214 5.98864 9.56734 5.63371 9.46508 5.2898C9.36281 4.94588 8.9901 4.94588 8.9901 4.94588Z" fill="#FCCA3D"/>
<path fill-rule="evenodd" clip-rule="evenodd" d="M8.33464 5.79255C8.01347 5.79255 7.87957 5.5249 7.946 5.24043C7.98151 5.0884 8.07372 4.89555 8.22418 4.64496L8.76001 4.96669C8.70264 5.06223 8.65692 5.14516 8.62301 5.21361C8.73534 5.2468 8.84608 5.29609 8.93621 5.35544C9.22803 5.54761 9.33544 5.89001 9.02259 6.14377C8.96204 6.19289 8.86378 6.36033 8.80955 6.52114C8.95882 6.52946 9.06553 6.55191 9.16388 6.61009C9.44012 6.77349 9.41414 7.0715 9.20377 7.30164C9.05467 7.46475 8.85558 7.59706 8.66803 7.66483C8.35599 7.77759 8.02214 7.7344 8.02214 7.33493L8.02207 7.33201C8.02145 7.31574 8.02041 7.28793 8.15976 7.28478M8.16587 7.28466L8.15976 7.28478C7.92199 7.28141 7.8711 7.15553 7.84144 6.9314C7.83393 6.87462 7.8309 6.82058 7.82673 6.70397L7.82395 6.62808L7.8206 6.55418L7.8196 6.53774C7.8149 6.4656 7.81165 6.41564 7.97339 6.41564H7.61084V5.79064H7.97339C8.17901 5.79064 8.29264 5.86007 8.35776 6.00363C8.39401 5.93853 8.43344 5.87724 8.47494 5.8223C8.42267 5.8042 8.36965 5.79255 8.33464 5.79255M8.16587 7.28466C8.17257 7.28455 8.17957 7.28449 8.1869 7.28449L8.1774 7.28443L8.16587 7.28466ZM8.73273 6.89036L8.74246 6.87995C8.74139 6.88111 8.74035 6.8826 8.73934 6.88438L8.73273 6.89036ZM8.45891 7.07583C8.45877 7.07589 8.45913 7.07581 8.45982 7.07566L8.45891 7.07583ZM8.45976 6.84006L8.46104 6.84942C8.46032 6.84398 8.45965 6.83803 8.45902 6.83133L8.45976 6.84006Z" fill="#A8AC71"/>
<path fill-rule="evenodd" clip-rule="evenodd" d="M12.0415 7.75181C12.0415 7.75181 12.6197 6.03847 11.7007 5.15157C10.7817 4.26467 9.71975 4.32402 9.71975 4.32402C9.71975 4.32402 9.41394 4.55123 9.71975 4.72452C10.0256 4.89781 9.89744 5.06396 9.89744 5.06396C9.89744 5.06396 9.38529 4.54393 9.0453 4.84775C8.70532 5.15157 9.36268 5.10533 9.29309 5.33409C9.22351 5.56285 8.92869 6.57851 9.35948 7.09129C9.79027 7.60407 8.95218 7.49279 9.12263 7.49279C9.29309 7.49279 9.89744 7.61215 9.89744 7.49279C9.89744 7.37343 10.1075 7.95684 10.2873 7.95684C10.4671 7.95684 10.6059 7.75181 10.6059 7.75181C10.6059 7.75181 10.858 7.95684 11.0116 7.95684C11.1651 7.95684 11.7007 7.82266 11.7007 7.82266L10.6885 6.96983C10.6885 6.96983 10.7495 6.59367 10.6059 6.51225C10.4623 6.43084 11.757 7.23377 11.8584 7.49279C11.9598 7.75181 12.0415 7.75181 12.0415 7.75181Z" fill="#8F4620"/>
<path d="M6.91656 7.32911C6.91656 7.32911 7.01041 7.03001 7.11088 7.00925C7.19792 6.99126 7.38096 7.15258 7.38096 7.15258C7.70611 8.95875 8.49232 9.6642 9.79686 9.6642C11.1167 9.6642 11.9167 9.12815 12.3835 7.46236C12.3835 7.46236 12.6317 7.20893 12.7192 7.2371C12.8146 7.26777 12.934 7.60307 12.934 7.60307C12.3985 9.51408 11.3866 10.3649 9.79686 10.3649C8.19173 10.3649 7.28991 9.40299 6.91656 7.32911Z" fill="#9FAB2F"/>
<path fill-rule="evenodd" clip-rule="evenodd" d="M8.33392 8.53528C8.33392 8.53528 10.2116 8.93362 10.9528 8.93362C11.6939 8.93362 10.3025 9.53849 9.75959 9.53849C9.21667 9.53849 8.33392 8.53528 8.33392 8.53528Z" fill="#2FC2DC"/>
<rect x="9.16669" y="8.8125" width="1.25" height="0.669643" rx="0.104167" fill="#F9AA51"/>
<path d="M7.60974 7.58494L8.12138 7.22598C8.78728 8.17512 9.7831 8.48737 11.1759 8.16147L11.3183 8.77004C9.69012 9.15101 8.43161 8.75639 7.60974 7.58494Z" fill="#259485"/>
<path fill-rule="evenodd" clip-rule="evenodd" d="M10.3696 7.71892C10.3696 7.71892 9.61108 8.11822 9.86393 8.11822C10.1168 8.11822 11.1063 8.31787 10.9138 8.11822C10.7212 7.91857 10.3696 7.71892 10.3696 7.71892Z" fill="#FCCA3D"/>
<path fill-rule="evenodd" clip-rule="evenodd" d="M9.47277 7.24264C9.47277 7.24264 9.32864 6.82635 9.02871 6.82635C8.72878 6.82635 8.81344 7.16784 8.66921 7.16784C8.52497 7.16784 8.8036 7.40814 8.92779 7.40814C9.05197 7.40814 9.47277 7.24264 9.47277 7.24264Z" fill="#FCCA3D"/>
</g>
<defs>
<clipPath id="clip0_3123_698">
<rect width="20" height="15" rx="2" fill="white"/>
</clipPath>
</defs>
</svg>
