<svg width="20" height="15" viewBox="0 0 20 15" fill="none" xmlns="http://www.w3.org/2000/svg">
<g clip-path="url(#clip0_3123_736)">
<rect width="20" height="15" rx="2" fill="white"/>
<path fill-rule="evenodd" clip-rule="evenodd" d="M0 0V15H20V0H0Z" fill="#F7FCFF"/>
<mask id="mask0_3123_736" style="mask-type:luminance" maskUnits="userSpaceOnUse" x="0" y="0" width="20" height="15">
<path fill-rule="evenodd" clip-rule="evenodd" d="M0 0V15H20V0H0Z" fill="white"/>
</mask>
<g mask="url(#mask0_3123_736)">
<path fill-rule="evenodd" clip-rule="evenodd" d="M0 0V5H20V0H0Z" fill="#FECA00"/>
<path fill-rule="evenodd" clip-rule="evenodd" d="M0 10V15H20V10H0Z" fill="#009933"/>
<path d="M0 4.375H-0.625V5V10V10.625H0H20H20.625V10V5V4.375H20H0Z" fill="#272727" stroke="white" stroke-width="1.25"/>
</g>
<path fill-rule="evenodd" clip-rule="evenodd" d="M0 0V15L11.25 7.5L0 0Z" fill="#F50100"/>
<mask id="mask1_3123_736" style="mask-type:luminance" maskUnits="userSpaceOnUse" x="0" y="0" width="12" height="15">
<path fill-rule="evenodd" clip-rule="evenodd" d="M0 0V15L11.25 7.5L0 0Z" fill="white"/>
</mask>
<g mask="url(#mask1_3123_736)">
<path fill-rule="evenodd" clip-rule="evenodd" d="M5.043 8.97076L2.68117 10.8773L3.76453 8.32942L1.90302 6.53678H4.10027L5.00188 4.375L5.9595 6.53678H8.15302L6.19317 8.32942L7.17402 10.8773L5.043 8.97076Z" fill="#FECA00"/>
<path fill-rule="evenodd" clip-rule="evenodd" d="M3.84746 7.49014L3.4469 8.82792C3.4469 8.82792 4.79917 8.81454 4.96159 8.95117C5.45096 8.64602 6.45843 8.82792 6.45843 8.82792L5.92258 7.39621C5.92258 7.39621 5.24317 7.08835 4.96159 7.25715C4.27141 7.10125 3.84746 7.49014 3.84746 7.49014Z" fill="#F7FCFF"/>
<path d="M7.22739 9.51017C7.3312 9.64804 7.3036 9.84397 7.16573 9.94779C7.02785 10.0516 6.83192 10.024 6.72811 9.88613L4.11555 6.4166C4.01173 6.27873 4.03934 6.0828 4.17721 5.97899C4.31508 5.87517 4.51101 5.90277 4.61483 6.04065L7.22739 9.51017Z" fill="black"/>
<path d="M4.35876 6.14984L4.10876 5.84984" stroke="black" stroke-width="0.625" stroke-linecap="round" stroke-linejoin="round"/>
<path fill-rule="evenodd" clip-rule="evenodd" d="M3.50294 5.85158L2.74762 7.06116L3.12528 7.71535L3.98914 6.43145L4.14452 6.03445L3.98914 5.85158H3.50294Z" fill="black"/>
<path fill-rule="evenodd" clip-rule="evenodd" d="M2.52435 9.44284L2.88849 9.95644L5.69825 6.632L5.8148 6.76226L6.46248 6.15292L7.49759 5.02687L6.46248 5.87287L6.12773 5.78005L5.8148 6.27167H5.50087L3.20582 8.82643L2.52435 9.44284Z" fill="black"/>
</g>
</g>
<defs>
<clipPath id="clip0_3123_736">
<rect width="20" height="15" rx="2" fill="white"/>
</clipPath>
</defs>
</svg>
