<svg width="20" height="15" viewBox="0 0 20 15" fill="none" xmlns="http://www.w3.org/2000/svg">
<g clip-path="url(#clip0_3123_754)">
<rect width="20" height="15" rx="2" fill="white"/>
<path fill-rule="evenodd" clip-rule="evenodd" d="M0 0V15H20V0H0Z" fill="#009933"/>
<mask id="mask0_3123_754" style="mask-type:luminance" maskUnits="userSpaceOnUse" x="0" y="0" width="20" height="15">
<path fill-rule="evenodd" clip-rule="evenodd" d="M0 0V15H20V0H0Z" fill="white"/>
</mask>
<g mask="url(#mask0_3123_754)">
<path fill-rule="evenodd" clip-rule="evenodd" d="M0 0V15L20 0H0Z" fill="#3195F9"/>
<path d="M-0.632764 16.9335L-0.301167 17.5343L0.266105 17.1481L22.036 2.32979L22.4748 2.0311L22.2511 1.54972L20.7875 -1.59977L20.4804 -2.26045L19.8741 -1.85649L-2.22319 12.8663L-2.70166 13.1851L-2.42383 13.6885L-0.632764 16.9335Z" fill="#E31D1C" stroke="#F7FCFF" stroke-width="1.25"/>
<path fill-rule="evenodd" clip-rule="evenodd" d="M3.89358 5.77797L3.08477 6.78704L2.88885 5.50875L1.68387 5.97823L2.15334 4.77324L0.875061 4.57733L1.88413 3.76852L0.875061 2.95971L2.15334 2.76379L1.68387 1.55881L2.88885 2.02828L3.08477 0.75L3.89358 1.75907L4.70239 0.75L4.8983 2.02828L6.10329 1.55881L5.63382 2.76379L6.9121 2.95971L5.90303 3.76852L6.9121 4.57733L5.63382 4.77324L6.10329 5.97823L4.8983 5.50875L4.70239 6.78704L3.89358 5.77797ZM3.89358 5.33102C4.75652 5.33102 5.45608 4.63146 5.45608 3.76852C5.45608 2.90557 4.75652 2.20602 3.89358 2.20602C3.03063 2.20602 2.33108 2.90557 2.33108 3.76852C2.33108 4.63146 3.03063 5.33102 3.89358 5.33102ZM5.14358 3.76852C5.14358 4.45887 4.58394 5.01852 3.89358 5.01852C3.20322 5.01852 2.64358 4.45887 2.64358 3.76852C2.64358 3.07816 3.20322 2.51852 3.89358 2.51852C4.58394 2.51852 5.14358 3.07816 5.14358 3.76852Z" fill="#FECA00"/>
</g>
</g>
<defs>
<clipPath id="clip0_3123_754">
<rect width="20" height="15" rx="2" fill="white"/>
</clipPath>
</defs>
</svg>
