<svg width="20" height="15" viewBox="0 0 20 15" fill="none" xmlns="http://www.w3.org/2000/svg">
<g clip-path="url(#clip0_3123_767)">
<rect width="20" height="15" rx="2" fill="white"/>
<rect width="20" height="15" fill="white"/>
<path d="M7.11834 7.93841L12.6718 14.5H0.5V0.97794L12.001 7.11539H7.5H6.42178L7.11834 7.93841Z" fill="#C51918" stroke="#4857A1"/>
<mask id="mask0_3123_767" style="mask-type:luminance" maskUnits="userSpaceOnUse" x="0" y="0" width="14" height="15">
<path d="M7.11834 7.93841L12.6718 14.5H0.5V0.97794L12.001 7.11539H7.5H6.42178L7.11834 7.93841Z" fill="white" stroke="white"/>
</mask>
<g mask="url(#mask0_3123_767)">
<path fill-rule="evenodd" clip-rule="evenodd" d="M3.64352 12.5448L2.87779 13.5233L2.84244 12.2885L1.63881 12.637L2.34735 11.6175L1.16557 11.2029L2.34735 10.7882L1.63881 9.76876L2.84244 10.1172L2.87779 8.88244L3.64352 9.86095L4.40925 8.88244L4.4446 10.1172L5.64822 9.76876L4.93969 10.7882L6.12147 11.2029L4.93969 11.6175L5.64822 12.637L4.4446 12.2885L4.40925 13.5233L3.64352 12.5448Z" fill="#F7FCFF"/>
<path fill-rule="evenodd" clip-rule="evenodd" d="M3.625 5.23927L3.2251 5.75029L3.20664 5.10542L2.57805 5.28741L2.94808 4.75502L2.3309 4.53846L2.94808 4.3219L2.57805 3.78951L3.20664 3.9715L3.2251 3.32664L3.625 3.83766L4.0249 3.32664L4.04336 3.9715L4.67195 3.78951L4.30192 4.3219L4.9191 4.53846L4.30192 4.75502L4.67195 5.28741L4.04336 5.10542L4.0249 5.75029L3.625 5.23927Z" fill="#F7FCFF"/>
<path fill-rule="evenodd" clip-rule="evenodd" d="M3.54064 5.0892C4.91068 5.09476 5.64115 4.30539 5.64115 4.30539C5.78565 5.20611 4.66995 5.80539 3.554 5.80539C2.43804 5.80539 1.76239 4.9885 1.34613 4.30539C1.34613 4.30539 2.1706 5.08364 3.54064 5.0892Z" fill="#F9FAFA"/>
</g>
</g>
<defs>
<clipPath id="clip0_3123_767">
<rect width="20" height="15" rx="2" fill="white"/>
</clipPath>
</defs>
</svg>
