<svg width="20" height="15" viewBox="0 0 20 15" fill="none" xmlns="http://www.w3.org/2000/svg">
<g clip-path="url(#clip0_3123_784)">
<rect width="20" height="15" rx="2" fill="white"/>
<path fill-rule="evenodd" clip-rule="evenodd" d="M0 0V15H20V0H0Z" fill="#2E42A5"/>
<g clip-path="url(#clip1_3123_784)">
<rect width="11" height="9" fill="#2E42A5"/>
<path d="M-1.25269 8.12489L1.22291 9.21064L11.3062 1.18047L12.612 -0.432991L9.96468 -0.79588L5.85197 2.66455L2.54165 4.99607L-1.25269 8.12489Z" fill="#F7FCFF"/>
<path d="M-0.913757 8.88559L0.347444 9.51567L12.1431 -0.582901H10.3722L-0.913757 8.88559Z" fill="#F50100"/>
<path d="M12.5027 8.12489L10.3056 9.52059L-0.0561562 1.18046L-1.36198 -0.432992L1.28532 -0.795882L5.39803 2.66455L8.70835 4.99607L12.5027 8.12489Z" fill="#F7FCFF"/>
<path d="M12.4182 8.67084L11.157 9.30092L6.13431 4.9772L4.64518 4.49412L-1.48763 -0.427466H0.283246L6.41261 4.3773L8.04071 4.95656L12.4182 8.67084Z" fill="#F50100"/>
<path fill-rule="evenodd" clip-rule="evenodd" d="M6 0H5V4H0V5H5V9H6V5H11V4H6V0Z" fill="#F50100"/>
<path fill-rule="evenodd" clip-rule="evenodd" d="M4.0625 0H6.9375V3.0625L11 3V5.875L6.9375 5.9375V9H4.0625V5.9375L0 5.875V3L4.0625 3.0625V0ZM5 4H0V5H5V9H6V5H11V4H6V0H5V4Z" fill="#F7FCFF"/>
</g>
<path fill-rule="evenodd" clip-rule="evenodd" d="M15.5332 12.8125L14.4311 13.3919L14.6416 12.1647L13.75 11.2956L14.9822 11.1165L15.5332 10L16.0843 11.1165L17.3165 11.2956L16.4248 12.1647L16.6353 13.3919L15.5332 12.8125Z" fill="#F50100" stroke="#F7FCFF" stroke-width="0.5"/>
<path fill-rule="evenodd" clip-rule="evenodd" d="M13.25 8.66864L12.4002 9.11541L12.5625 8.16914L11.875 7.499L12.8251 7.36094L13.25 6.5L13.6749 7.36094L14.625 7.499L13.9375 8.16914L14.0998 9.11541L13.25 8.66864Z" fill="#F50100" stroke="#F7FCFF" stroke-width="0.5"/>
<path fill-rule="evenodd" clip-rule="evenodd" d="M17.6235 8.66623L16.7746 9.1125L16.9367 8.16729L16.25 7.49789L17.199 7.35998L17.6235 6.5L18.0479 7.35998L18.9969 7.49789L18.3102 8.16729L18.4723 9.1125L17.6235 8.66623Z" fill="#F50100" stroke="#F7FCFF" stroke-width="0.5"/>
<path fill-rule="evenodd" clip-rule="evenodd" d="M15.75 5.16863L14.9002 5.6154L15.0625 4.66914L14.375 3.99899L15.3251 3.86093L15.75 2.99999L16.1749 3.86093L17.125 3.99899L16.4375 4.66914L16.5998 5.6154L15.75 5.16863Z" fill="#F50100" stroke="#F7FCFF" stroke-width="0.5"/>
</g>
<defs>
<clipPath id="clip0_3123_784">
<rect width="20" height="15" rx="2" fill="white"/>
</clipPath>
<clipPath id="clip1_3123_784">
<rect width="11" height="9" fill="white"/>
</clipPath>
</defs>
</svg>
