<svg width="20" height="15" viewBox="0 0 20 15" fill="none" xmlns="http://www.w3.org/2000/svg">
<g clip-path="url(#clip0_3123_857)">
<rect width="20" height="15" rx="2" fill="white"/>
<path fill-rule="evenodd" clip-rule="evenodd" d="M0 0V15H20V0H0Z" fill="#F50101"/>
<mask id="mask0_3123_857" style="mask-type:luminance" maskUnits="userSpaceOnUse" x="0" y="0" width="20" height="15">
<path fill-rule="evenodd" clip-rule="evenodd" d="M0 0V15H20V0H0Z" fill="white"/>
</mask>
<g mask="url(#mask0_3123_857)">
<path fill-rule="evenodd" clip-rule="evenodd" d="M0 0V5H20V0H0Z" fill="#F7FCFF"/>
<path fill-rule="evenodd" clip-rule="evenodd" d="M0 10V15H20V10H0Z" fill="#5EAA22"/>
<rect width="7.5" height="15" fill="#F50101"/>
<path fill-rule="evenodd" clip-rule="evenodd" d="M6.73148 1.27053C6.7374 1.21352 6.66447 1.19159 6.63539 1.24098C6.40859 1.62626 5.84011 2.54279 4.90432 3.74134V3.16779C4.81506 3.07078 4.53049 2.80979 4.53049 2.80979V2.23709L5.04529 1.77122L4.33825 1.25L3.59303 1.77122L4.15631 2.23709V2.80979C4.15631 3.08441 3.81482 3.16779 3.81482 3.16779L3.75229 3.67297C2.8817 2.54247 2.33892 1.66101 2.10907 1.26703C2.0794 1.21619 2.00479 1.24014 2.01355 1.29835C2.08293 1.75907 2.29043 2.78132 2.86361 3.87278H2.70988V3.85246C2.70988 3.82244 2.68555 3.79811 2.65553 3.79811H1.3376C1.30758 3.79811 1.28325 3.82244 1.28325 3.85246V4.68126C1.28325 4.71128 1.30758 4.73561 1.3376 4.73561H2.65553C2.68555 4.73561 2.70988 4.71128 2.70988 4.68126V4.24614H2.87586C2.93216 4.37595 3.06144 4.46744 3.21263 4.47009C3.31825 4.63305 3.43279 4.79556 3.557 4.95603C3.27128 4.92778 1.38293 4.76701 1.38293 5.454C1.38293 5.86406 1.84223 6.08112 2.41826 6.19331C1.83826 6.71853 1.29081 7.2127 1.03894 7.43995C0.998068 7.47682 1.03001 7.54069 1.08344 7.52745C1.53324 7.41597 2.71227 7.07206 3.83467 6.30635L3.86963 6.3064C4.18573 6.3064 4.40558 6.16927 4.55839 5.98367C5.69997 6.91549 6.99147 7.34585 7.55209 7.50005C7.61026 7.51605 7.64171 7.44076 7.59215 7.40636C7.13679 7.09028 6.10998 6.32961 5.06005 5.22473L5.0876 5.19247C5.30181 4.93969 5.48846 4.67967 5.65109 4.41895C5.71914 4.37916 5.77333 4.31862 5.80477 4.24614H5.97075V4.68126C5.97075 4.71128 5.99508 4.73561 6.0251 4.73561H7.34303C7.37305 4.73561 7.39738 4.71128 7.39738 4.68126V3.85246C7.39738 3.82244 7.37305 3.79811 7.34303 3.79811H6.0251C6.01118 3.79811 5.99849 3.80334 5.98887 3.81194C6.52782 2.72101 6.68605 1.70875 6.73148 1.27053ZM5.97075 3.87278V3.85246L5.97093 3.84801L5.95846 3.87278H5.97075ZM3.5251 4.10053C3.5251 4.26755 3.38823 4.40295 3.21939 4.40295C3.05055 4.40295 2.91368 4.26755 2.91368 4.10053C2.91368 3.93351 3.05055 3.79811 3.21939 3.79811C3.38823 3.79811 3.5251 3.93351 3.5251 4.10053ZM5.15553 4.10053C5.15553 4.26755 5.2924 4.40295 5.46124 4.40295C5.63008 4.40295 5.76695 4.26755 5.76695 4.10053C5.76695 3.93351 5.63008 3.79811 5.46124 3.79811C5.2924 3.79811 5.15553 3.93351 5.15553 4.10053Z" fill="#F7FCFF"/>
</g>
</g>
<defs>
<clipPath id="clip0_3123_857">
<rect width="20" height="15" rx="2" fill="white"/>
</clipPath>
</defs>
</svg>
