<svg width="20" height="15" viewBox="0 0 20 15" fill="none" xmlns="http://www.w3.org/2000/svg">
<g clip-path="url(#clip0_3123_911)">
<rect width="20" height="15" rx="2" fill="white"/>
<path fill-rule="evenodd" clip-rule="evenodd" d="M5 0H15.625V15H5V0Z" fill="#F7FCFF"/>
<path fill-rule="evenodd" clip-rule="evenodd" d="M15 0H20V15H15V0Z" fill="#F50101"/>
<path fill-rule="evenodd" clip-rule="evenodd" d="M0 0H5V15H0V0Z" fill="#F50101"/>
<path d="M9.83836 5.46572L9.85929 5.69193C9.23527 5.75505 8.89813 5.45013 8.89813 4.8173C8.89813 4.18935 9.22798 3.85557 9.84816 3.85162L9.84949 4.07889C9.34701 4.08209 9.11552 4.31634 9.11552 4.8173C9.11552 5.31338 9.33972 5.51615 9.83836 5.46572Z" fill="#A2BB6A"/>
<path d="M10.1147 5.46572L10.0938 5.69193C10.7178 5.75505 11.0549 5.45013 11.0549 4.8173C11.0549 4.18935 10.7251 3.85557 10.1049 3.85162L10.1036 4.07889C10.6061 4.08209 10.8375 4.31634 10.8375 4.8173C10.8375 5.31338 10.6133 5.51615 10.1147 5.46572Z" fill="#A2BB6A"/>
<path fill-rule="evenodd" clip-rule="evenodd" d="M9.46226 10.7018C9.28283 10.7661 8.06628 10.7018 8.06628 10.7018V11.0406H8.87283C9.14194 11.0406 9.24368 11.0888 9.33701 11.133C9.4161 11.1704 9.48915 11.205 9.6529 11.205C9.97185 11.205 9.96601 10.9677 9.96114 10.7703C9.96056 10.7467 9.95999 10.7237 9.95999 10.7018C9.95999 10.6179 9.9731 10.571 9.9833 10.5346C9.99814 10.4816 10.0068 10.4506 9.95999 10.3594C9.88098 10.2055 9.12965 10.226 9.12965 10.3594C9.12965 10.4223 9.24356 10.4877 9.3451 10.5461C9.45884 10.6114 9.55706 10.6678 9.46226 10.7018ZM10.5557 10.7018C10.7351 10.7661 11.9516 10.7018 11.9516 10.7018V11.0406H11.1451C10.876 11.0406 10.7742 11.0888 10.6809 11.133C10.6018 11.1704 10.5288 11.205 10.365 11.205C10.0461 11.205 10.0519 10.9677 10.0568 10.7703C10.0574 10.7467 10.0579 10.7237 10.0579 10.7018C10.0579 10.6179 10.0448 10.571 10.0346 10.5346C10.0198 10.4816 10.0111 10.4506 10.0579 10.3594C10.1369 10.2055 10.8883 10.226 10.8883 10.3594C10.8883 10.4223 10.7744 10.4877 10.6728 10.5461C10.5591 10.6114 10.4609 10.6678 10.5557 10.7018Z" fill="#E31D1C"/>
<path fill-rule="evenodd" clip-rule="evenodd" d="M10.2544 10.7342C10.2544 10.7342 11.2037 10.6399 11.4184 10.2975C11.6331 9.95517 11.9908 9.37068 12.1165 9.22918C12.2423 9.08767 12.2504 9.43129 12.2504 9.43129C12.2504 9.43129 12.4579 9.72556 12.4579 9.34929C12.4579 8.97302 12.3103 9.2359 12.1165 8.66977C11.9228 8.10363 11.8137 7.54832 11.8682 7.46427C11.9228 7.38022 12.0518 7.54832 12.0518 7.46427C12.0518 7.38022 12.0518 7.21569 12.0518 7.21569L12.2504 7.46427L12.4579 7.38553C12.4579 7.38553 12.6287 7.75128 12.7339 7.86451C12.8391 7.97774 12.9006 7.71286 12.8698 7.46427C12.8391 7.21569 12.4579 7.21569 12.4579 7.21569C12.4579 7.21569 11.9704 6.95291 11.9704 6.84278C11.9704 6.73266 12.1811 6.76546 12.1811 6.76546L12.1165 6.42446C12.1165 6.42446 12.2908 6.63157 12.3743 6.52802C12.4579 6.42446 12.2504 6.24274 12.2504 6.24274H12.5812V6.08305L12.7339 6.16852L12.5812 5.8198C12.5812 5.8198 12.1333 5.88724 12.0518 5.8198C11.9704 5.75235 11.7139 5.48947 11.7139 5.48947V5.36468H11.5661L11.7139 5.11436V4.71575L12.2504 4.82272V4.52798C12.2504 4.52798 13.0058 4.89621 12.8698 5.19284C12.7339 5.48947 12.7339 5.8198 12.7339 5.8198V6.08305C12.7339 6.08305 12.7565 6.00246 12.8698 6.00246C12.9832 6.00246 13.1121 6.06102 13.1121 6.24274C13.1121 6.42446 13.3429 6.16852 13.3429 6.16852V6.92452C13.3429 6.92452 13.3972 7.00626 13.5158 6.92452C13.6344 6.84278 13.5824 6.90655 13.2261 7.38553C12.8698 7.86451 12.9982 7.8658 13.1121 7.74844C13.2261 7.63109 13.6887 7.29745 13.5158 7.46427C13.3429 7.63109 13.3315 7.98057 13.5158 7.86451C13.7001 7.74844 13.6645 7.66586 13.6645 7.86451C13.6645 8.06316 13.3401 8.73931 13.2261 8.84523C13.1121 8.95115 13.0058 9.01628 12.8698 9.12273C12.7339 9.22918 12.5812 9.35497 12.5812 9.43129C12.5812 9.50762 12.8698 9.34929 12.8698 9.34929L12.7339 9.83463H12.9981C12.9981 9.83463 12.7878 10.4791 12.3743 10.4791C11.9608 10.4791 11.6492 10.4791 11.5661 10.4791C11.483 10.4791 11.1076 10.6562 11.1076 10.6562L10.833 10.7342C10.833 10.7342 11.2708 10.776 11.4184 10.9075C11.5661 11.039 11.4184 11.1306 11.4184 11.1306C11.4184 11.1306 11.0132 11.0904 10.7107 10.999C10.4083 10.9075 10.2544 11.0808 10.2544 10.9075C10.2544 10.7342 10.2544 10.7342 10.2544 10.7342Z" fill="#00A854"/>
<path fill-rule="evenodd" clip-rule="evenodd" d="M12.9891 5.5682C12.9891 5.63096 12.9405 5.68183 12.8804 5.68183C12.8204 5.68183 12.7717 5.63096 12.7717 5.5682C12.7717 5.50544 12.8204 5.45456 12.8804 5.45456C12.9405 5.45456 12.9891 5.50544 12.9891 5.5682ZM12.4457 6.02274C12.4457 6.0855 12.397 6.13638 12.337 6.13638C12.2769 6.13638 12.2283 6.0855 12.2283 6.02274C12.2283 5.95998 12.2769 5.9091 12.337 5.9091C12.397 5.9091 12.4457 5.95998 12.4457 6.02274ZM12.9891 5.9091C13.0492 5.9091 13.0978 5.85823 13.0978 5.79547C13.0978 5.73271 13.0492 5.68183 12.9891 5.68183C12.9291 5.68183 12.8804 5.73271 12.8804 5.79547C12.8804 5.85823 12.9291 5.9091 12.9891 5.9091ZM12.7717 7.61365C12.7717 7.67641 12.7231 7.72729 12.663 7.72729C12.603 7.72729 12.5544 7.67641 12.5544 7.61365C12.5544 7.55089 12.603 7.50001 12.663 7.50001C12.7231 7.50001 12.7717 7.55089 12.7717 7.61365ZM12.2283 9.09092C12.2883 9.09092 12.337 9.04005 12.337 8.97729C12.337 8.91453 12.2883 8.86365 12.2283 8.86365C12.1682 8.86365 12.1196 8.91453 12.1196 8.97729C12.1196 9.04005 12.1682 9.09092 12.2283 9.09092ZM13.0978 9.3182C13.0978 9.38096 13.0492 9.43183 12.9891 9.43183C12.9291 9.43183 12.8804 9.38096 12.8804 9.3182C12.8804 9.25544 12.9291 9.20456 12.9891 9.20456C13.0492 9.20456 13.0978 9.25544 13.0978 9.3182ZM13.2065 9.20456C13.2666 9.20456 13.3152 9.15368 13.3152 9.09092C13.3152 9.02816 13.2666 8.97729 13.2065 8.97729C13.1465 8.97729 13.0978 9.02816 13.0978 9.09092C13.0978 9.15368 13.1465 9.20456 13.2065 9.20456ZM13.2065 7.50001C13.2065 7.56277 13.1579 7.61365 13.0978 7.61365C13.0378 7.61365 12.9891 7.56277 12.9891 7.50001C12.9891 7.43725 13.0378 7.38638 13.0978 7.38638C13.1579 7.38638 13.2065 7.43725 13.2065 7.50001Z" fill="#C51918"/>
<path fill-rule="evenodd" clip-rule="evenodd" d="M9.80345 10.5341C9.80345 10.5341 8.07618 10.1928 7.98172 9.53201C7.88725 8.87125 7.88857 8.16779 7.88857 8.16779L7.7284 8.59769C7.7284 8.59769 7.72031 8.01246 8.04884 7.59501C8.37737 7.17756 7.63817 7.87161 7.63817 7.87161C7.63817 7.87161 8.01245 7.28146 8.16827 7.22528C8.3241 7.1691 7.54216 7.59501 7.54216 7.59501C7.54216 7.59501 7.76617 7.09981 7.9403 6.95974C8.11443 6.81966 7.54216 7.22528 7.54216 7.22528C7.54216 7.22528 7.67165 6.73412 7.82652 6.61694C7.9814 6.49976 7.32043 7.22528 7.32043 7.22528C7.32043 7.22528 7.66911 6.10299 7.86556 5.99826C8.06201 5.89352 7.54216 6.20402 7.54216 6.20402C7.54216 6.20402 7.86059 5.72403 8.14579 5.48542C8.431 5.2468 7.63028 5.58717 7.7284 5.58717C7.7284 5.58717 8.01795 5.26018 8.1843 5.16789C8.35065 5.0756 7.54216 5.48542 7.54216 5.48542C7.54216 5.48542 8.12252 4.845 8.29649 4.75072C8.47046 4.65643 7.44246 5.2593 7.44246 5.2593C7.44246 5.2593 7.50249 4.98004 7.52841 4.78047C7.55433 4.58089 7.05215 5.32743 7.12033 5.99826C7.18851 6.66909 6.84713 5.48542 6.84713 5.48542C6.84713 5.48542 6.70976 5.74239 7.04347 6.41549L6.68178 5.90856C6.68178 5.90856 6.73124 6.36859 6.84713 6.61694C6.96302 6.86529 6.51818 6.20402 6.51818 6.20402C6.51818 6.20402 6.43307 6.61694 6.51818 6.61694C6.51818 6.61694 7.02612 7.29557 7.04495 7.49342C7.06378 7.69128 6.47449 6.78698 6.39562 6.78698C6.31676 6.78698 6.27307 7.07741 6.39562 7.07741C6.51818 7.07741 6.75033 7.49342 6.75033 7.49342C6.75033 7.49342 6.44862 7.27538 6.38393 7.2625C6.31924 7.24961 6.43471 7.39184 6.51818 7.49342C6.51818 7.49342 6.28216 7.68586 6.30009 7.83163C6.31803 7.9774 6.94334 8.00826 7.21586 8.70027C7.21586 8.70027 6.65242 8.40232 6.51818 8.40232C6.38393 8.40232 6.73436 8.71343 6.84713 8.81612C6.9599 8.91881 6.67337 8.71343 6.59577 8.81612C6.51818 8.91881 7.0248 9.35738 7.12033 9.35738C7.21586 9.35738 6.75033 9.35738 6.75033 9.35738C6.75033 9.35738 6.87405 9.53201 7.04495 9.53201C7.21586 9.53201 7.82652 9.80646 7.82652 9.89538C7.82652 9.9843 7.31138 9.78158 7.21586 9.78158C7.12033 9.78158 7.88841 10.5065 8.29649 10.5341C8.70457 10.5618 8.96243 10.6713 9.13836 10.6713C9.31429 10.6713 9.43795 10.6713 9.43795 10.6713L8.60682 11.0948C8.60682 11.0948 8.52288 11.0948 8.88346 11.0948C9.24404 11.0948 9.51983 11.195 9.66164 10.9879C9.80345 10.7807 9.80345 10.5341 9.80345 10.5341Z" fill="#00A854"/>
<mask id="path-11-outside-1_3123_911" maskUnits="userSpaceOnUse" x="7.2356" y="3.55093" width="6" height="8" fill="black">
<rect fill="white" x="7.2356" y="3.55093" width="6" height="8"/>
<path fill-rule="evenodd" clip-rule="evenodd" d="M10.0542 5.5659C10.0709 5.55647 10.0801 5.55093 10.0801 5.55093V5.58039C10.2005 5.64677 10.5034 5.80232 10.7004 5.80232C10.9508 5.80232 11.2912 5.55093 11.2912 5.55093L11.8608 6.35514C11.8608 6.35514 11.4772 7.15908 11.7707 8.14146C12.0642 9.12384 11.7552 9.88133 10.45 9.96544C10.45 9.96544 10.1928 10.0143 10.0801 10.0922V10.1641C10.0801 10.1462 10.0705 10.1292 10.0542 10.1132C10.0379 10.1292 10.0283 10.1462 10.0283 10.1641V10.0922C9.91563 10.0143 9.65845 9.96544 9.65845 9.96544C8.35326 9.88133 8.04422 9.12384 8.33772 8.14146C8.63122 7.15908 8.24765 6.35514 8.24765 6.35514L8.8172 5.55093C8.8172 5.55093 9.1576 5.80232 9.40802 5.80232C9.60502 5.80232 9.90797 5.64677 10.0283 5.58039V5.55093C10.0283 5.55093 10.0376 5.55647 10.0542 5.5659Z"/>
</mask>
<path fill-rule="evenodd" clip-rule="evenodd" d="M10.0542 5.5659C10.0709 5.55647 10.0801 5.55093 10.0801 5.55093V5.58039C10.2005 5.64677 10.5034 5.80232 10.7004 5.80232C10.9508 5.80232 11.2912 5.55093 11.2912 5.55093L11.8608 6.35514C11.8608 6.35514 11.4772 7.15908 11.7707 8.14146C12.0642 9.12384 11.7552 9.88133 10.45 9.96544C10.45 9.96544 10.1928 10.0143 10.0801 10.0922V10.1641C10.0801 10.1462 10.0705 10.1292 10.0542 10.1132C10.0379 10.1292 10.0283 10.1462 10.0283 10.1641V10.0922C9.91563 10.0143 9.65845 9.96544 9.65845 9.96544C8.35326 9.88133 8.04422 9.12384 8.33772 8.14146C8.63122 7.15908 8.24765 6.35514 8.24765 6.35514L8.8172 5.55093C8.8172 5.55093 9.1576 5.80232 9.40802 5.80232C9.60502 5.80232 9.90797 5.64677 10.0283 5.58039V5.55093C10.0283 5.55093 10.0376 5.55647 10.0542 5.5659Z" fill="#E8AA00"/>
<path d="M10.0801 5.55093H10.7051V4.4507L9.7601 5.01409L10.0801 5.55093ZM10.0542 5.5659L9.74602 6.10963L10.0542 6.28432L10.3624 6.10963L10.0542 5.5659ZM10.0801 5.58039H9.45514V5.94938L9.77822 6.12763L10.0801 5.58039ZM11.2912 5.55093L11.8013 5.18971L11.4328 4.66942L10.9199 5.04818L11.2912 5.55093ZM11.8608 6.35514L12.4249 6.62428L12.5828 6.29324L12.3708 5.99392L11.8608 6.35514ZM11.7707 8.14146L11.1719 8.32037L11.1719 8.32037L11.7707 8.14146ZM10.45 9.96544L10.4098 9.34173L10.3713 9.34421L10.3333 9.35142L10.45 9.96544ZM10.0801 10.0922L9.72478 9.57804L9.45514 9.7644V10.0922H10.0801ZM10.0542 10.1132L10.4919 9.66701L10.0542 9.23776L9.61658 9.66701L10.0542 10.1132ZM10.0283 10.0922H10.6533V9.7644L10.3837 9.57804L10.0283 10.0922ZM9.65845 9.96544L9.77513 9.35142L9.73719 9.34421L9.69865 9.34173L9.65845 9.96544ZM8.24765 6.35514L7.7376 5.99392L7.52562 6.29324L7.68356 6.62428L8.24765 6.35514ZM8.8172 5.55093L9.1885 5.04818L8.67564 4.66942L8.30716 5.18971L8.8172 5.55093ZM10.0283 5.58039L10.3302 6.12763L10.6533 5.94938V5.58039H10.0283ZM10.0283 5.55093L10.3483 5.01409L9.4033 4.4507V5.55093H10.0283ZM10.0801 5.55093C9.7601 5.01409 9.76011 5.01409 9.76012 5.01408C9.76012 5.01408 9.76013 5.01407 9.76014 5.01407C9.76015 5.01406 9.76017 5.01405 9.76018 5.01404C9.76021 5.01403 9.76023 5.01401 9.76026 5.014C9.76031 5.01397 9.76035 5.01394 9.7604 5.01391C9.76049 5.01386 9.76057 5.01381 9.76065 5.01377C9.7608 5.01368 9.76091 5.01361 9.76099 5.01356C9.76115 5.01347 9.76118 5.01345 9.76107 5.01351C9.76086 5.01364 9.76014 5.01406 9.75892 5.01477C9.75648 5.0162 9.7521 5.01873 9.74602 5.02217L10.3624 6.10963C10.373 6.10364 10.3816 6.09869 10.3879 6.09499C10.3911 6.09313 10.3937 6.09159 10.3958 6.09038C10.3968 6.08977 10.3977 6.08925 10.3984 6.08882C10.3988 6.0886 10.3991 6.0884 10.3994 6.08823C10.3996 6.08814 10.3997 6.08806 10.3998 6.08799C10.3999 6.08795 10.4 6.08791 10.4 6.08788C10.4 6.08786 10.4001 6.08784 10.4001 6.08783C10.4001 6.08782 10.4001 6.08781 10.4001 6.0878C10.4001 6.0878 10.4002 6.08779 10.4002 6.08779C10.4002 6.08778 10.4002 6.08778 10.0801 5.55093ZM10.7051 5.58039V5.55093H9.45514V5.58039H10.7051ZM9.77822 6.12763C9.84915 6.16676 9.97839 6.23482 10.125 6.29476C10.2517 6.34656 10.4725 6.42732 10.7004 6.42732V5.17732C10.7266 5.17732 10.7292 5.18139 10.6999 5.17349C10.6744 5.16662 10.6399 5.15484 10.5981 5.13774C10.5139 5.10331 10.4315 5.0604 10.3821 5.03315L9.77822 6.12763ZM10.7004 6.42732C10.9928 6.42732 11.2592 6.29539 11.3867 6.22659C11.4646 6.18449 11.5309 6.14313 11.5776 6.11236C11.6013 6.09678 11.6208 6.08341 11.6351 6.07336C11.6423 6.06832 11.6482 6.06408 11.6528 6.06076C11.6551 6.0591 11.6571 6.05768 11.6587 6.05649C11.6595 6.0559 11.6602 6.05537 11.6609 6.0549C11.6612 6.05467 11.6615 6.05445 11.6618 6.05425C11.6619 6.05415 11.662 6.05405 11.6622 6.05396C11.6622 6.05391 11.6623 6.05384 11.6624 6.05382C11.6624 6.05375 11.6625 6.05369 11.2912 5.55093C10.9199 5.04818 10.92 5.04812 10.9201 5.04805C10.9201 5.04803 10.9202 5.04797 10.9203 5.04793C10.9204 5.04786 10.9205 5.04778 10.9206 5.04771C10.9208 5.04757 10.9209 5.04744 10.9211 5.04733C10.9214 5.0471 10.9216 5.04693 10.9218 5.04682C10.9221 5.04659 10.9221 5.04657 10.9219 5.04675C10.9214 5.04712 10.9198 5.04828 10.9171 5.05011C10.9119 5.05381 10.9028 5.06008 10.8906 5.06807C10.8658 5.08443 10.8312 5.10592 10.7928 5.12667C10.7531 5.14809 10.7181 5.16394 10.6913 5.17333C10.6601 5.18431 10.666 5.17732 10.7004 5.17732V6.42732ZM10.7812 5.91216L11.3507 6.71637L12.3708 5.99392L11.8013 5.18971L10.7812 5.91216ZM11.8608 6.35514C11.2967 6.08601 11.2966 6.08622 11.2965 6.08644C11.2965 6.08652 11.2964 6.08674 11.2963 6.0869C11.2961 6.08721 11.296 6.08753 11.2958 6.08786C11.2955 6.08854 11.2952 6.08926 11.2948 6.09003C11.2941 6.09158 11.2933 6.09334 11.2924 6.09529C11.2905 6.09921 11.2884 6.10394 11.2859 6.10947C11.281 6.12053 11.2748 6.1348 11.2676 6.15212C11.2532 6.18673 11.2349 6.23373 11.2148 6.29183C11.1747 6.40771 11.127 6.56978 11.0909 6.76749C11.0188 7.16155 10.99 7.71171 11.1719 8.32037L12.3696 7.96255C12.2579 7.58883 12.2741 7.24583 12.3205 6.99233C12.3436 6.86626 12.3734 6.76595 12.3961 6.70039C12.4074 6.66777 12.4167 6.64429 12.4222 6.63109C12.4249 6.62451 12.4267 6.62055 12.4272 6.61935C12.4275 6.61875 12.4274 6.61885 12.427 6.61967C12.4269 6.62007 12.4266 6.62066 12.4262 6.62143C12.426 6.62181 12.4258 6.62224 12.4256 6.62272C12.4255 6.62296 12.4254 6.6232 12.4253 6.62346C12.4252 6.6236 12.4251 6.6238 12.4251 6.62386C12.425 6.62407 12.4249 6.62428 11.8608 6.35514ZM11.1719 8.32037C11.2953 8.73362 11.2461 8.95419 11.1814 9.05665C11.1274 9.14208 10.9592 9.30633 10.4098 9.34173L10.4902 10.5891C11.246 10.5404 11.8848 10.2839 12.2384 9.72395C12.5811 9.18104 12.5396 8.53168 12.3696 7.96255L11.1719 8.32037ZM10.45 9.96544C10.3333 9.35142 10.3332 9.35143 10.3332 9.35145C10.3332 9.35145 10.3331 9.35146 10.333 9.35147C10.333 9.35149 10.3329 9.35151 10.3328 9.35153C10.3326 9.35157 10.3323 9.35161 10.3321 9.35165C10.3316 9.35174 10.3311 9.35185 10.3305 9.35196C10.3293 9.3522 10.3278 9.35248 10.3261 9.35282C10.3227 9.35349 10.3183 9.35436 10.3131 9.35545C10.3026 9.35761 10.2884 9.36061 10.2714 9.36442C10.2378 9.37194 10.1911 9.3831 10.1388 9.39776C10.0604 9.41972 9.87579 9.47366 9.72478 9.57804L10.4355 10.6063C10.4057 10.6269 10.3915 10.63 10.4119 10.622C10.4268 10.6163 10.4488 10.609 10.4759 10.6014C10.5019 10.5942 10.5266 10.5882 10.5447 10.5842C10.5536 10.5822 10.5604 10.5807 10.5644 10.5799C10.5663 10.5795 10.5676 10.5793 10.568 10.5792C10.5682 10.5791 10.5682 10.5791 10.568 10.5792C10.5679 10.5792 10.5677 10.5792 10.5675 10.5793C10.5674 10.5793 10.5673 10.5793 10.5671 10.5794C10.5671 10.5794 10.567 10.5794 10.5669 10.5794C10.5669 10.5794 10.5668 10.5794 10.5668 10.5794C10.5667 10.5794 10.5667 10.5794 10.45 9.96544ZM10.7051 10.1641V10.0922H9.45514V10.1641H10.7051ZM9.61658 10.5594C9.57285 10.5165 9.45514 10.3825 9.45514 10.1641H10.7051C10.7051 9.90991 10.5682 9.7419 10.4919 9.66701L9.61658 10.5594ZM9.61658 9.66701C9.54022 9.7419 9.4033 9.90991 9.4033 10.1641H10.6533C10.6533 10.3825 10.5356 10.5165 10.4919 10.5594L9.61658 9.66701ZM10.6533 10.1641V10.0922H9.4033V10.1641H10.6533ZM9.65845 9.96544C9.54178 10.5794 9.54172 10.5794 9.54166 10.5794C9.54164 10.5794 9.54158 10.5794 9.54154 10.5794C9.54146 10.5794 9.54139 10.5794 9.54132 10.5794C9.54118 10.5793 9.54105 10.5793 9.54094 10.5793C9.54072 10.5792 9.54055 10.5792 9.54044 10.5792C9.54022 10.5791 9.54022 10.5791 9.54043 10.5792C9.54085 10.5793 9.5421 10.5795 9.54408 10.5799C9.54806 10.5807 9.55484 10.5822 9.56371 10.5842C9.58189 10.5882 9.60652 10.5942 9.63256 10.6014C9.65962 10.609 9.6816 10.6163 9.69651 10.622C9.7169 10.63 9.7027 10.6269 9.67294 10.6063L10.3837 9.57804C10.2327 9.47366 10.0481 9.41972 9.96968 9.39776C9.91735 9.3831 9.87065 9.37194 9.83708 9.36442C9.82008 9.36061 9.80589 9.35761 9.79537 9.35545C9.7901 9.35436 9.78571 9.35349 9.78231 9.35282C9.78061 9.35248 9.77915 9.3522 9.77795 9.35196C9.77735 9.35185 9.77681 9.35174 9.77634 9.35165C9.77611 9.35161 9.77589 9.35157 9.77568 9.35153C9.77558 9.35151 9.77549 9.35149 9.77539 9.35147C9.77535 9.35146 9.77528 9.35145 9.77526 9.35145C9.77519 9.35143 9.77513 9.35142 9.65845 9.96544ZM7.73888 7.96255C7.56884 8.53168 7.52733 9.18104 7.87009 9.72395C8.22359 10.2839 8.86243 10.5404 9.61826 10.5891L9.69865 9.34173C9.14928 9.30633 8.981 9.14208 8.92706 9.05665C8.86238 8.95419 8.8131 8.73362 8.93657 8.32037L7.73888 7.96255ZM8.24765 6.35514C7.68356 6.62428 7.68346 6.62407 7.68337 6.62386C7.68333 6.6238 7.68324 6.6236 7.68318 6.62346C7.68305 6.6232 7.68293 6.62296 7.68282 6.62272C7.6826 6.62224 7.68239 6.62181 7.68221 6.62143C7.68185 6.62066 7.68158 6.62007 7.68139 6.61967C7.68102 6.61885 7.68098 6.61875 7.68124 6.61935C7.68178 6.62055 7.68353 6.62451 7.68626 6.63109C7.69173 6.64429 7.70104 6.66777 7.71232 6.70039C7.735 6.76595 7.76489 6.86626 7.78794 6.99233C7.8343 7.24583 7.85053 7.58883 7.73888 7.96255L8.93657 8.32037C9.11841 7.71171 9.08961 7.16155 9.01755 6.76749C8.9814 6.56978 8.93374 6.40771 8.89367 6.29183C8.87357 6.23373 8.85521 6.18673 8.84085 6.15212C8.83367 6.1348 8.82747 6.12053 8.82253 6.10947C8.82005 6.10394 8.8179 6.09921 8.81609 6.09529C8.81518 6.09334 8.81436 6.09158 8.81364 6.09003C8.81327 6.08926 8.81293 6.08854 8.81261 6.08786C8.81246 6.08753 8.8123 6.08721 8.81215 6.0869C8.81208 6.08674 8.81198 6.08652 8.81194 6.08644C8.81183 6.08622 8.81173 6.08601 8.24765 6.35514ZM8.30716 5.18971L7.7376 5.99392L8.75769 6.71637L9.32725 5.91216L8.30716 5.18971ZM9.40802 5.17732C9.4424 5.17732 9.44838 5.18431 9.4171 5.17333C9.39034 5.16394 9.35531 5.14809 9.31564 5.12667C9.2772 5.10592 9.24268 5.08443 9.2178 5.06807C9.20566 5.06008 9.19657 5.05381 9.1913 5.05011C9.18869 5.04828 9.18707 5.04712 9.18656 5.04675C9.18631 5.04657 9.18633 5.04659 9.18665 5.04682C9.18681 5.04693 9.18704 5.0471 9.18735 5.04733C9.1875 5.04744 9.18768 5.04757 9.18787 5.04771C9.18796 5.04778 9.18807 5.04786 9.18817 5.04793C9.18822 5.04797 9.18831 5.04803 9.18833 5.04805C9.18842 5.04812 9.1885 5.04818 8.8172 5.55093C8.44591 6.05369 8.44599 6.05375 8.44608 6.05382C8.44612 6.05384 8.44621 6.05391 8.44627 6.05396C8.44639 6.05405 8.44653 6.05415 8.44666 6.05425C8.44694 6.05445 8.44723 6.05467 8.44755 6.0549C8.44819 6.05537 8.44892 6.0559 8.44973 6.05649C8.45135 6.05768 8.45331 6.0591 8.45561 6.06076C8.46021 6.06408 8.46616 6.06832 8.47334 6.07336C8.48767 6.08341 8.50712 6.09678 8.53081 6.11236C8.57758 6.14313 8.6438 6.18449 8.72177 6.22659C8.8492 6.29539 9.1156 6.42732 9.40802 6.42732V5.17732ZM9.72638 5.03315C9.67698 5.0604 9.59458 5.10331 9.51038 5.13774C9.46855 5.15484 9.43406 5.16662 9.40856 5.17349C9.37923 5.18139 9.38185 5.17732 9.40802 5.17732V6.42732C9.63595 6.42732 9.85675 6.34656 9.98345 6.29476C10.13 6.23482 10.2593 6.16676 10.3302 6.12763L9.72638 5.03315ZM10.6533 5.58039V5.55093H9.4033V5.58039H10.6533ZM10.0283 5.55093C9.70826 6.08778 9.70827 6.08778 9.70828 6.08779C9.70828 6.08779 9.70829 6.0878 9.7083 6.0878C9.70831 6.08781 9.70833 6.08782 9.70834 6.08783C9.70837 6.08784 9.7084 6.08786 9.70843 6.08788C9.70849 6.08791 9.70855 6.08795 9.70861 6.08799C9.70874 6.08806 9.70888 6.08814 9.70902 6.08823C9.70932 6.0884 9.70965 6.0886 9.71001 6.08882C9.71075 6.08925 9.71163 6.08977 9.71265 6.09038C9.71471 6.09159 9.71734 6.09313 9.72052 6.09499C9.72688 6.09869 9.73547 6.10364 9.74602 6.10963L10.3624 5.02217C10.3563 5.01873 10.352 5.0162 10.3495 5.01477C10.3483 5.01406 10.3476 5.01364 10.3474 5.01351C10.3473 5.01345 10.3473 5.01347 10.3474 5.01356C10.3475 5.01361 10.3476 5.01368 10.3478 5.01377C10.3479 5.01381 10.3479 5.01386 10.348 5.01391C10.3481 5.01394 10.3481 5.01397 10.3482 5.014C10.3482 5.01401 10.3482 5.01403 10.3483 5.01404C10.3483 5.01405 10.3483 5.01406 10.3483 5.01407C10.3483 5.01407 10.3483 5.01408 10.3483 5.01408C10.3483 5.01409 10.3483 5.01409 10.0283 5.55093Z" fill="#E8AA00" mask="url(#path-11-outside-1_3123_911)"/>
<mask id="mask0_3123_911" style="mask-type:luminance" maskUnits="userSpaceOnUse" x="7" y="4" width="6" height="7">
<mask id="path-13-outside-2_3123_911" maskUnits="userSpaceOnUse" x="7.2356" y="3.55093" width="6" height="8" fill="black">
<rect fill="white" x="7.2356" y="3.55093" width="6" height="8"/>
<path fill-rule="evenodd" clip-rule="evenodd" d="M10.0542 5.5659C10.0709 5.55647 10.0801 5.55093 10.0801 5.55093V5.58039C10.2005 5.64677 10.5034 5.80232 10.7004 5.80232C10.9508 5.80232 11.2912 5.55093 11.2912 5.55093L11.8608 6.35514C11.8608 6.35514 11.4772 7.15908 11.7707 8.14146C12.0642 9.12384 11.7552 9.88133 10.45 9.96544C10.45 9.96544 10.1928 10.0143 10.0801 10.0922V10.1641C10.0801 10.1462 10.0705 10.1292 10.0542 10.1132C10.0379 10.1292 10.0283 10.1462 10.0283 10.1641V10.0922C9.91563 10.0143 9.65845 9.96544 9.65845 9.96544C8.35326 9.88133 8.04422 9.12384 8.33772 8.14146C8.63122 7.15908 8.24765 6.35514 8.24765 6.35514L8.8172 5.55093C8.8172 5.55093 9.1576 5.80232 9.40802 5.80232C9.60502 5.80232 9.90797 5.64677 10.0283 5.58039V5.55093C10.0283 5.55093 10.0376 5.55647 10.0542 5.5659Z"/>
</mask>
<path fill-rule="evenodd" clip-rule="evenodd" d="M10.0542 5.5659C10.0709 5.55647 10.0801 5.55093 10.0801 5.55093V5.58039C10.2005 5.64677 10.5034 5.80232 10.7004 5.80232C10.9508 5.80232 11.2912 5.55093 11.2912 5.55093L11.8608 6.35514C11.8608 6.35514 11.4772 7.15908 11.7707 8.14146C12.0642 9.12384 11.7552 9.88133 10.45 9.96544C10.45 9.96544 10.1928 10.0143 10.0801 10.0922V10.1641C10.0801 10.1462 10.0705 10.1292 10.0542 10.1132C10.0379 10.1292 10.0283 10.1462 10.0283 10.1641V10.0922C9.91563 10.0143 9.65845 9.96544 9.65845 9.96544C8.35326 9.88133 8.04422 9.12384 8.33772 8.14146C8.63122 7.15908 8.24765 6.35514 8.24765 6.35514L8.8172 5.55093C8.8172 5.55093 9.1576 5.80232 9.40802 5.80232C9.60502 5.80232 9.90797 5.64677 10.0283 5.58039V5.55093C10.0283 5.55093 10.0376 5.55647 10.0542 5.5659Z" fill="white"/>
<path d="M10.0801 5.55093H10.7051V4.4507L9.7601 5.01409L10.0801 5.55093ZM10.0542 5.5659L9.74602 6.10963L10.0542 6.28432L10.3624 6.10963L10.0542 5.5659ZM10.0801 5.58039H9.45514V5.94938L9.77822 6.12763L10.0801 5.58039ZM11.2912 5.55093L11.8013 5.18971L11.4328 4.66942L10.9199 5.04818L11.2912 5.55093ZM11.8608 6.35514L12.4249 6.62428L12.5828 6.29324L12.3708 5.99392L11.8608 6.35514ZM11.7707 8.14146L11.1719 8.32037L11.1719 8.32037L11.7707 8.14146ZM10.45 9.96544L10.4098 9.34173L10.3713 9.34421L10.3333 9.35142L10.45 9.96544ZM10.0801 10.0922L9.72478 9.57804L9.45514 9.7644V10.0922H10.0801ZM10.0542 10.1132L10.4919 9.66701L10.0542 9.23776L9.61658 9.66701L10.0542 10.1132ZM10.0283 10.0922H10.6533V9.7644L10.3837 9.57804L10.0283 10.0922ZM9.65845 9.96544L9.77513 9.35142L9.73719 9.34421L9.69865 9.34173L9.65845 9.96544ZM8.24765 6.35514L7.7376 5.99392L7.52562 6.29324L7.68356 6.62428L8.24765 6.35514ZM8.8172 5.55093L9.1885 5.04818L8.67564 4.66942L8.30716 5.18971L8.8172 5.55093ZM10.0283 5.58039L10.3302 6.12763L10.6533 5.94938V5.58039H10.0283ZM10.0283 5.55093L10.3483 5.01409L9.4033 4.4507V5.55093H10.0283ZM10.0801 5.55093C9.7601 5.01409 9.76011 5.01409 9.76012 5.01408C9.76012 5.01408 9.76013 5.01407 9.76014 5.01407C9.76015 5.01406 9.76017 5.01405 9.76018 5.01404C9.76021 5.01403 9.76023 5.01401 9.76026 5.014C9.76031 5.01397 9.76035 5.01394 9.7604 5.01391C9.76049 5.01386 9.76057 5.01381 9.76065 5.01377C9.7608 5.01368 9.76091 5.01361 9.76099 5.01356C9.76115 5.01347 9.76118 5.01345 9.76107 5.01351C9.76086 5.01364 9.76014 5.01406 9.75892 5.01477C9.75648 5.0162 9.7521 5.01873 9.74602 5.02217L10.3624 6.10963C10.373 6.10364 10.3816 6.09869 10.3879 6.09499C10.3911 6.09313 10.3937 6.09159 10.3958 6.09038C10.3968 6.08977 10.3977 6.08925 10.3984 6.08882C10.3988 6.0886 10.3991 6.0884 10.3994 6.08823C10.3996 6.08814 10.3997 6.08806 10.3998 6.08799C10.3999 6.08795 10.4 6.08791 10.4 6.08788C10.4 6.08786 10.4001 6.08784 10.4001 6.08783C10.4001 6.08782 10.4001 6.08781 10.4001 6.0878C10.4001 6.0878 10.4002 6.08779 10.4002 6.08779C10.4002 6.08778 10.4002 6.08778 10.0801 5.55093ZM10.7051 5.58039V5.55093H9.45514V5.58039H10.7051ZM9.77822 6.12763C9.84915 6.16676 9.97839 6.23482 10.125 6.29476C10.2517 6.34656 10.4725 6.42732 10.7004 6.42732V5.17732C10.7266 5.17732 10.7292 5.18139 10.6999 5.17349C10.6744 5.16662 10.6399 5.15484 10.5981 5.13774C10.5139 5.10331 10.4315 5.0604 10.3821 5.03315L9.77822 6.12763ZM10.7004 6.42732C10.9928 6.42732 11.2592 6.29539 11.3867 6.22659C11.4646 6.18449 11.5309 6.14313 11.5776 6.11236C11.6013 6.09678 11.6208 6.08341 11.6351 6.07336C11.6423 6.06832 11.6482 6.06408 11.6528 6.06076C11.6551 6.0591 11.6571 6.05768 11.6587 6.05649C11.6595 6.0559 11.6602 6.05537 11.6609 6.0549C11.6612 6.05467 11.6615 6.05445 11.6618 6.05425C11.6619 6.05415 11.662 6.05405 11.6622 6.05396C11.6622 6.05391 11.6623 6.05384 11.6624 6.05382C11.6624 6.05375 11.6625 6.05369 11.2912 5.55093C10.9199 5.04818 10.92 5.04812 10.9201 5.04805C10.9201 5.04803 10.9202 5.04797 10.9203 5.04793C10.9204 5.04786 10.9205 5.04778 10.9206 5.04771C10.9208 5.04757 10.9209 5.04744 10.9211 5.04733C10.9214 5.0471 10.9216 5.04693 10.9218 5.04682C10.9221 5.04659 10.9221 5.04657 10.9219 5.04675C10.9214 5.04712 10.9198 5.04828 10.9171 5.05011C10.9119 5.05381 10.9028 5.06008 10.8906 5.06807C10.8658 5.08443 10.8312 5.10592 10.7928 5.12667C10.7531 5.14809 10.7181 5.16394 10.6913 5.17333C10.6601 5.18431 10.666 5.17732 10.7004 5.17732V6.42732ZM10.7812 5.91216L11.3507 6.71637L12.3708 5.99392L11.8013 5.18971L10.7812 5.91216ZM11.8608 6.35514C11.2967 6.08601 11.2966 6.08622 11.2965 6.08644C11.2965 6.08652 11.2964 6.08674 11.2963 6.0869C11.2961 6.08721 11.296 6.08753 11.2958 6.08786C11.2955 6.08854 11.2952 6.08926 11.2948 6.09003C11.2941 6.09158 11.2933 6.09334 11.2924 6.09529C11.2905 6.09921 11.2884 6.10394 11.2859 6.10947C11.281 6.12053 11.2748 6.1348 11.2676 6.15212C11.2532 6.18673 11.2349 6.23373 11.2148 6.29183C11.1747 6.40771 11.127 6.56978 11.0909 6.76749C11.0188 7.16155 10.99 7.71171 11.1719 8.32037L12.3696 7.96255C12.2579 7.58883 12.2741 7.24583 12.3205 6.99233C12.3436 6.86626 12.3734 6.76595 12.3961 6.70039C12.4074 6.66777 12.4167 6.64429 12.4222 6.63109C12.4249 6.62451 12.4267 6.62055 12.4272 6.61935C12.4275 6.61875 12.4274 6.61885 12.427 6.61967C12.4269 6.62007 12.4266 6.62066 12.4262 6.62143C12.426 6.62181 12.4258 6.62224 12.4256 6.62272C12.4255 6.62296 12.4254 6.6232 12.4253 6.62346C12.4252 6.6236 12.4251 6.6238 12.4251 6.62386C12.425 6.62407 12.4249 6.62428 11.8608 6.35514ZM11.1719 8.32037C11.2953 8.73362 11.2461 8.95419 11.1814 9.05665C11.1274 9.14208 10.9592 9.30633 10.4098 9.34173L10.4902 10.5891C11.246 10.5404 11.8848 10.2839 12.2384 9.72395C12.5811 9.18104 12.5396 8.53168 12.3696 7.96255L11.1719 8.32037ZM10.45 9.96544C10.3333 9.35142 10.3332 9.35143 10.3332 9.35145C10.3332 9.35145 10.3331 9.35146 10.333 9.35147C10.333 9.35149 10.3329 9.35151 10.3328 9.35153C10.3326 9.35157 10.3323 9.35161 10.3321 9.35165C10.3316 9.35174 10.3311 9.35185 10.3305 9.35196C10.3293 9.3522 10.3278 9.35248 10.3261 9.35282C10.3227 9.35349 10.3183 9.35436 10.3131 9.35545C10.3026 9.35761 10.2884 9.36061 10.2714 9.36442C10.2378 9.37194 10.1911 9.3831 10.1388 9.39776C10.0604 9.41972 9.87579 9.47366 9.72478 9.57804L10.4355 10.6063C10.4057 10.6269 10.3915 10.63 10.4119 10.622C10.4268 10.6163 10.4488 10.609 10.4759 10.6014C10.5019 10.5942 10.5266 10.5882 10.5447 10.5842C10.5536 10.5822 10.5604 10.5807 10.5644 10.5799C10.5663 10.5795 10.5676 10.5793 10.568 10.5792C10.5682 10.5791 10.5682 10.5791 10.568 10.5792C10.5679 10.5792 10.5677 10.5792 10.5675 10.5793C10.5674 10.5793 10.5673 10.5793 10.5671 10.5794C10.5671 10.5794 10.567 10.5794 10.5669 10.5794C10.5669 10.5794 10.5668 10.5794 10.5668 10.5794C10.5667 10.5794 10.5667 10.5794 10.45 9.96544ZM10.7051 10.1641V10.0922H9.45514V10.1641H10.7051ZM9.61658 10.5594C9.57285 10.5165 9.45514 10.3825 9.45514 10.1641H10.7051C10.7051 9.90991 10.5682 9.7419 10.4919 9.66701L9.61658 10.5594ZM9.61658 9.66701C9.54022 9.7419 9.4033 9.90991 9.4033 10.1641H10.6533C10.6533 10.3825 10.5356 10.5165 10.4919 10.5594L9.61658 9.66701ZM10.6533 10.1641V10.0922H9.4033V10.1641H10.6533ZM9.65845 9.96544C9.54178 10.5794 9.54172 10.5794 9.54166 10.5794C9.54164 10.5794 9.54158 10.5794 9.54154 10.5794C9.54146 10.5794 9.54139 10.5794 9.54132 10.5794C9.54118 10.5793 9.54105 10.5793 9.54094 10.5793C9.54072 10.5792 9.54055 10.5792 9.54044 10.5792C9.54022 10.5791 9.54022 10.5791 9.54043 10.5792C9.54085 10.5793 9.5421 10.5795 9.54408 10.5799C9.54806 10.5807 9.55484 10.5822 9.56371 10.5842C9.58189 10.5882 9.60652 10.5942 9.63256 10.6014C9.65962 10.609 9.6816 10.6163 9.69651 10.622C9.7169 10.63 9.7027 10.6269 9.67294 10.6063L10.3837 9.57804C10.2327 9.47366 10.0481 9.41972 9.96968 9.39776C9.91735 9.3831 9.87065 9.37194 9.83708 9.36442C9.82008 9.36061 9.80589 9.35761 9.79537 9.35545C9.7901 9.35436 9.78571 9.35349 9.78231 9.35282C9.78061 9.35248 9.77915 9.3522 9.77795 9.35196C9.77735 9.35185 9.77681 9.35174 9.77634 9.35165C9.77611 9.35161 9.77589 9.35157 9.77568 9.35153C9.77558 9.35151 9.77549 9.35149 9.77539 9.35147C9.77535 9.35146 9.77528 9.35145 9.77526 9.35145C9.77519 9.35143 9.77513 9.35142 9.65845 9.96544ZM7.73888 7.96255C7.56884 8.53168 7.52733 9.18104 7.87009 9.72395C8.22359 10.2839 8.86243 10.5404 9.61826 10.5891L9.69865 9.34173C9.14928 9.30633 8.981 9.14208 8.92706 9.05665C8.86238 8.95419 8.8131 8.73362 8.93657 8.32037L7.73888 7.96255ZM8.24765 6.35514C7.68356 6.62428 7.68346 6.62407 7.68337 6.62386C7.68333 6.6238 7.68324 6.6236 7.68318 6.62346C7.68305 6.6232 7.68293 6.62296 7.68282 6.62272C7.6826 6.62224 7.68239 6.62181 7.68221 6.62143C7.68185 6.62066 7.68158 6.62007 7.68139 6.61967C7.68102 6.61885 7.68098 6.61875 7.68124 6.61935C7.68178 6.62055 7.68353 6.62451 7.68626 6.63109C7.69173 6.64429 7.70104 6.66777 7.71232 6.70039C7.735 6.76595 7.76489 6.86626 7.78794 6.99233C7.8343 7.24583 7.85053 7.58883 7.73888 7.96255L8.93657 8.32037C9.11841 7.71171 9.08961 7.16155 9.01755 6.76749C8.9814 6.56978 8.93374 6.40771 8.89367 6.29183C8.87357 6.23373 8.85521 6.18673 8.84085 6.15212C8.83367 6.1348 8.82747 6.12053 8.82253 6.10947C8.82005 6.10394 8.8179 6.09921 8.81609 6.09529C8.81518 6.09334 8.81436 6.09158 8.81364 6.09003C8.81327 6.08926 8.81293 6.08854 8.81261 6.08786C8.81246 6.08753 8.8123 6.08721 8.81215 6.0869C8.81208 6.08674 8.81198 6.08652 8.81194 6.08644C8.81183 6.08622 8.81173 6.08601 8.24765 6.35514ZM8.30716 5.18971L7.7376 5.99392L8.75769 6.71637L9.32725 5.91216L8.30716 5.18971ZM9.40802 5.17732C9.4424 5.17732 9.44838 5.18431 9.4171 5.17333C9.39034 5.16394 9.35531 5.14809 9.31564 5.12667C9.2772 5.10592 9.24268 5.08443 9.2178 5.06807C9.20566 5.06008 9.19657 5.05381 9.1913 5.05011C9.18869 5.04828 9.18707 5.04712 9.18656 5.04675C9.18631 5.04657 9.18633 5.04659 9.18665 5.04682C9.18681 5.04693 9.18704 5.0471 9.18735 5.04733C9.1875 5.04744 9.18768 5.04757 9.18787 5.04771C9.18796 5.04778 9.18807 5.04786 9.18817 5.04793C9.18822 5.04797 9.18831 5.04803 9.18833 5.04805C9.18842 5.04812 9.1885 5.04818 8.8172 5.55093C8.44591 6.05369 8.44599 6.05375 8.44608 6.05382C8.44612 6.05384 8.44621 6.05391 8.44627 6.05396C8.44639 6.05405 8.44653 6.05415 8.44666 6.05425C8.44694 6.05445 8.44723 6.05467 8.44755 6.0549C8.44819 6.05537 8.44892 6.0559 8.44973 6.05649C8.45135 6.05768 8.45331 6.0591 8.45561 6.06076C8.46021 6.06408 8.46616 6.06832 8.47334 6.07336C8.48767 6.08341 8.50712 6.09678 8.53081 6.11236C8.57758 6.14313 8.6438 6.18449 8.72177 6.22659C8.8492 6.29539 9.1156 6.42732 9.40802 6.42732V5.17732ZM9.72638 5.03315C9.67698 5.0604 9.59458 5.10331 9.51038 5.13774C9.46855 5.15484 9.43406 5.16662 9.40856 5.17349C9.37923 5.18139 9.38185 5.17732 9.40802 5.17732V6.42732C9.63595 6.42732 9.85675 6.34656 9.98345 6.29476C10.13 6.23482 10.2593 6.16676 10.3302 6.12763L9.72638 5.03315ZM10.6533 5.58039V5.55093H9.4033V5.58039H10.6533ZM10.0283 5.55093C9.70826 6.08778 9.70827 6.08778 9.70828 6.08779C9.70828 6.08779 9.70829 6.0878 9.7083 6.0878C9.70831 6.08781 9.70833 6.08782 9.70834 6.08783C9.70837 6.08784 9.7084 6.08786 9.70843 6.08788C9.70849 6.08791 9.70855 6.08795 9.70861 6.08799C9.70874 6.08806 9.70888 6.08814 9.70902 6.08823C9.70932 6.0884 9.70965 6.0886 9.71001 6.08882C9.71075 6.08925 9.71163 6.08977 9.71265 6.09038C9.71471 6.09159 9.71734 6.09313 9.72052 6.09499C9.72688 6.09869 9.73547 6.10364 9.74602 6.10963L10.3624 5.02217C10.3563 5.01873 10.352 5.0162 10.3495 5.01477C10.3483 5.01406 10.3476 5.01364 10.3474 5.01351C10.3473 5.01345 10.3473 5.01347 10.3474 5.01356C10.3475 5.01361 10.3476 5.01368 10.3478 5.01377C10.3479 5.01381 10.3479 5.01386 10.348 5.01391C10.3481 5.01394 10.3481 5.01397 10.3482 5.014C10.3482 5.01401 10.3482 5.01403 10.3483 5.01404C10.3483 5.01405 10.3483 5.01406 10.3483 5.01407C10.3483 5.01407 10.3483 5.01408 10.3483 5.01408C10.3483 5.01409 10.3483 5.01409 10.0283 5.55093Z" fill="white" mask="url(#path-13-outside-2_3123_911)"/>
</mask>
<g mask="url(#mask0_3123_911)">
<rect x="8.31519" y="5.45456" width="1.73913" height="2.38636" fill="#67BAFF"/>
<rect x="10.0543" y="5.45456" width="1.73913" height="2.38636" fill="white"/>
<rect x="8.09778" y="8.06819" width="4.34783" height="2.72727" fill="#C51918"/>
<path d="M10.8967 7.67186H10.6793V6.03767H10.8967V7.67186Z" fill="#C9A951"/>
<path d="M10.8086 6.92849L10.7026 7.1183L10.3274 6.90879L10.4334 6.71898L10.8086 6.92849Z" fill="#C9A951"/>
<path d="M10.8086 6.47393L10.7026 6.66374L10.3274 6.45423L10.4334 6.26442L10.8086 6.47393Z" fill="#C9A951"/>
<path d="M10.7622 6.92849L10.8682 7.1183L11.2434 6.90879L11.1374 6.71898L10.7622 6.92849Z" fill="#C9A951"/>
<path d="M10.7622 6.47393L10.8682 6.66374L11.2434 6.45423L11.1374 6.26442L10.7622 6.47393Z" fill="#C9A951"/>
<path fill-rule="evenodd" clip-rule="evenodd" d="M11.0807 8.5656C11.0807 8.5656 11.2319 8.39268 11.2319 8.47914C11.2319 8.5656 11.2319 8.71098 11.1563 8.71098C11.0807 8.71098 10.7284 8.64181 10.5942 8.47914C10.4601 8.31648 10.1762 8.03328 9.81073 8.09996C9.44531 8.16665 9.0119 8.64036 8.90506 8.64036C8.79823 8.64036 8.56408 9.00551 8.73457 9.29067C8.90506 9.57583 9.19507 9.48735 9.19507 9.57008C9.19507 9.65281 9.26759 9.66234 9.53916 9.66234C9.81073 9.66234 9.91003 9.75812 10.1451 9.75812C10.3803 9.75812 10.0675 9.7546 10.4462 9.66234C10.8249 9.57008 11.1117 9.29067 10.891 9.29067C10.6704 9.29067 10.5991 9.29067 10.4462 9.29067C10.2933 9.29067 9.95308 9.40084 9.95308 9.29067C9.95308 9.1805 10.0286 8.94462 10.2374 9.06256C10.4462 9.1805 11.0263 9.27043 11.2319 9.06256C11.4375 8.8547 11.5094 8.72936 11.4734 8.47914C11.4375 8.22893 11.1563 8.30094 11.1563 8.30094L11.0807 8.5656Z" fill="#FBCD17"/>
<path fill-rule="evenodd" clip-rule="evenodd" d="M9.61006 5.98119C9.47903 6.0958 9.56356 6.51466 9.34884 6.51466C9.13412 6.51466 8.83196 6.20101 8.75586 6.40797C8.67977 6.61493 8.75586 6.54539 8.75586 6.72167C8.75586 6.89794 8.57361 7.38775 8.66474 7.47056C8.75586 7.55336 8.84924 7.77154 8.83306 7.66941C8.81687 7.56727 8.74798 7.41728 8.77669 7.25435C8.74894 7.08602 8.93027 6.92412 8.93027 6.92412C8.93027 6.92412 8.91059 7.09888 8.89631 7.16404C8.89631 7.16404 8.83653 7.29555 8.8608 7.3829C8.8608 7.3829 8.92219 7.6291 8.9475 7.64611C8.9475 7.64611 8.96394 7.06317 8.98263 6.9671C9.00133 6.87103 9.13459 7.07547 9.17892 7.0523C9.17892 7.0523 9.19414 7.45091 9.17109 7.4984C9.17109 7.4984 9.12435 7.59269 9.14173 7.62281C9.14173 7.62281 9.18508 7.73194 9.22207 7.70015C9.22207 7.70015 9.22338 7.69788 9.24212 7.59167C9.24212 7.59167 9.22034 7.52753 9.25443 7.38149C9.25443 7.38149 9.29034 7.05991 9.3052 7.12968C9.3052 7.12968 9.29852 7.2815 9.31565 7.35976C9.31565 7.35976 9.343 7.55405 9.34849 7.57538C9.34849 7.57538 9.47968 7.76224 9.48317 7.68332C9.48317 7.68332 9.35741 7.53336 9.38435 7.41925C9.38435 7.41925 9.31235 7.09598 9.41285 7.0239C9.41285 7.0239 9.67948 6.90057 9.69552 6.68945C9.69552 6.68945 9.73415 6.44886 9.74109 6.33857C9.74109 6.33857 9.6826 6.30614 9.8035 6.2492C9.8035 6.2492 9.99812 6.17449 9.87685 6.07062" fill="#D18219"/>
</g>
</g>
<defs>
<clipPath id="clip0_3123_911">
<rect width="20" height="15" rx="2" fill="white"/>
</clipPath>
</defs>
</svg>
