<svg width="20" height="15" viewBox="0 0 20 15" fill="none" xmlns="http://www.w3.org/2000/svg">
<g clip-path="url(#clip0_3123_954)">
<rect width="20" height="15" rx="2" fill="white"/>
<path fill-rule="evenodd" clip-rule="evenodd" d="M0 0V15H20V0H0Z" fill="#BF2714"/>
<mask id="mask0_3123_954" style="mask-type:luminance" maskUnits="userSpaceOnUse" x="0" y="0" width="20" height="15">
<path fill-rule="evenodd" clip-rule="evenodd" d="M0 0V15H20V0H0Z" fill="white"/>
</mask>
<g mask="url(#mask0_3123_954)">
<path fill-rule="evenodd" clip-rule="evenodd" d="M0 -1.25V7.5H20V-1.25H0Z" fill="#3D58DB"/>
</g>
<path fill-rule="evenodd" clip-rule="evenodd" d="M0 0V15L11.25 7.5L0 0Z" fill="#F7FCFF"/>
<mask id="mask1_3123_954" style="mask-type:luminance" maskUnits="userSpaceOnUse" x="0" y="0" width="12" height="15">
<path fill-rule="evenodd" clip-rule="evenodd" d="M0 0V15L11.25 7.5L0 0Z" fill="white"/>
</mask>
<g mask="url(#mask1_3123_954)">
<path fill-rule="evenodd" clip-rule="evenodd" d="M8.50315 6.82508L9.30058 7.1326L9.77502 6.57427L9.78761 7.321L10.5215 7.55971L9.74902 7.82193L9.79993 8.50811L9.29113 7.98248L8.49137 8.1346L8.96355 7.52919L8.50315 6.82508Z" fill="#FECA00"/>
<path fill-rule="evenodd" clip-rule="evenodd" d="M1.00315 10.5751L1.73613 10.8992L2.27502 10.3243L2.22316 11.0875L3.02152 11.3097L2.18457 11.5885L2.29993 12.2581L1.7172 11.7796L0.991365 11.8846L1.3991 11.2957L1.00315 10.5751Z" fill="#FECA00"/>
<path fill-rule="evenodd" clip-rule="evenodd" d="M1.00315 3.07508L1.81425 3.37397L2.27502 2.82427L2.30128 3.56237L3.02152 3.80971L2.26269 4.0633L2.29993 4.75811L1.79532 4.25444L0.991365 4.3846L1.47722 3.77056L1.00315 3.07508Z" fill="#FECA00"/>
<path fill-rule="evenodd" clip-rule="evenodd" d="M5.07593 9.08302C5.93887 9.08302 6.63843 8.38347 6.63843 7.52052C6.63843 6.65758 5.93887 5.95802 5.07593 5.95802C4.21298 5.95802 3.51343 6.65758 3.51343 7.52052C3.51343 8.38347 4.21298 9.08302 5.07593 9.08302Z" fill="#FECA00"/>
<path fill-rule="evenodd" clip-rule="evenodd" d="M4.89123 5.14981L4.97519 6.15356C4.98322 6.21451 5.03011 6.26307 5.09074 6.27322C5.16692 6.28598 5.239 6.23456 5.25175 6.15839L5.36257 5.15804C5.36452 5.14641 5.3656 5.13465 5.3658 5.12285C5.3681 4.99125 5.26328 4.8827 5.13167 4.8804C5.11988 4.8802 5.10809 4.88087 5.09639 4.88241C4.9659 4.89959 4.87404 5.01932 4.89123 5.14981ZM4.62991 5.63492L4.75967 6.07156C4.77171 6.11209 4.81219 6.13719 4.85797 6.12912C4.8955 6.12025 4.91873 6.08264 4.90986 6.04511L4.80631 5.60689C4.7944 5.5565 4.74557 5.52387 4.69445 5.53214C4.69104 5.53269 4.68766 5.53346 4.68434 5.53445C4.64157 5.54716 4.6172 5.59214 4.62991 5.63492ZM5.33167 6.08976C5.3215 6.12695 5.34341 6.16535 5.38469 6.17651C5.42607 6.18519 5.4674 6.16152 5.48085 6.12143L5.62577 5.68958C5.63997 5.64727 5.61718 5.60147 5.57488 5.58727C5.5716 5.58617 5.56825 5.58528 5.56486 5.58461C5.51406 5.57456 5.46412 5.60547 5.45046 5.65542L5.33167 6.08976ZM6.62987 5.6509L5.9313 6.42228C5.89388 6.47106 5.8927 6.53855 5.9284 6.58861C5.97324 6.65148 6.06057 6.6661 6.12345 6.62126L6.95734 5.99001C6.96694 5.98316 6.97603 5.97561 6.98451 5.96742C7.07919 5.87598 7.08183 5.72511 6.99039 5.63042C6.9822 5.62194 6.97339 5.61407 6.96403 5.60689C6.8596 5.52677 6.70999 5.54648 6.62987 5.6509ZM6.41736 7.28837L7.46046 7.20764C7.59095 7.19045 7.71068 7.28231 7.72786 7.41281C7.7294 7.4245 7.73007 7.43629 7.72987 7.44809C7.72757 7.57969 7.61902 7.68451 7.48742 7.68222C7.47562 7.68201 7.46386 7.68093 7.45223 7.67898L6.41253 7.56493C6.33636 7.55218 6.28495 7.4801 6.2977 7.40392C6.30785 7.34329 6.35641 7.2964 6.41736 7.28837ZM6.95872 8.94974L6.14864 8.24448C6.09986 8.20706 6.03237 8.20588 5.98232 8.24158C5.91944 8.28642 5.90482 8.37375 5.94967 8.43663L6.61961 9.27721C6.62646 9.28681 6.63401 9.29589 6.6422 9.30438C6.73364 9.39906 6.88452 9.40169 6.9792 9.31026C6.98768 9.30207 6.99555 9.29325 7.00273 9.2839C7.08285 9.17947 7.06315 9.02986 6.95872 8.94974ZM5.28255 8.73054L5.3444 9.78368C5.36159 9.91418 5.26973 10.0339 5.13923 10.0511C5.12754 10.0526 5.11575 10.0533 5.10396 10.0531C4.97235 10.0508 4.86753 9.94225 4.86982 9.81064C4.87003 9.79885 4.87111 9.78709 4.87306 9.77545L5.00599 8.72571C5.01874 8.64954 5.09083 8.59813 5.167 8.61088C5.22763 8.62103 5.27453 8.66959 5.28255 8.73054ZM3.63813 9.29949L4.32644 8.46182C4.36387 8.41304 4.36504 8.34555 4.32935 8.2955C4.2845 8.23262 4.19717 8.218 4.1343 8.26285L3.31066 8.96038C3.30106 8.96723 3.29198 8.97479 3.28349 8.98298C3.18881 9.07441 3.18618 9.22529 3.27761 9.31997C3.2858 9.32846 3.29462 9.33632 3.30397 9.3435C3.4084 9.42362 3.55801 9.40392 3.63813 9.29949ZM3.84038 7.59573L2.79088 7.68222C2.66038 7.6994 2.54066 7.60755 2.52347 7.47705C2.52193 7.46536 2.52126 7.45356 2.52147 7.44177C2.52376 7.31017 2.63231 7.20534 2.76392 7.20764C2.77571 7.20785 2.78747 7.20893 2.79911 7.21087L3.84521 7.31917C3.92138 7.33192 3.9728 7.40401 3.96004 7.48018C3.94989 7.54081 3.90133 7.58771 3.84038 7.59573ZM3.21896 5.95131L4.1091 6.63962C4.15788 6.67705 4.22537 6.67822 4.27543 6.64253C4.3383 6.59768 4.35292 6.51035 4.30808 6.44748L3.55807 5.62384C3.55122 5.61424 3.54367 5.60516 3.53547 5.59667C3.44404 5.50199 3.29316 5.49936 3.19848 5.59079C3.18999 5.59898 3.18213 5.6078 3.17495 5.61715C3.09483 5.72158 3.11453 5.87119 3.21896 5.95131ZM5.83689 6.2119L6.05389 5.81139C6.07515 5.77216 6.12419 5.75759 6.16342 5.77884C6.16646 5.78049 6.1694 5.78233 6.1722 5.78436C6.2142 5.81465 6.22565 5.87225 6.19844 5.91631L5.96179 6.29941C5.94153 6.33221 5.89851 6.34238 5.8657 6.32211C5.82762 6.29545 5.81674 6.24908 5.83689 6.2119ZM6.93601 6.94309L6.49936 7.07285C6.45883 7.08489 6.43373 7.12537 6.4418 7.17115C6.45067 7.20868 6.48828 7.23191 6.52581 7.22304L6.96403 7.11949C7.01443 7.10758 7.04706 7.05875 7.03878 7.00763C7.03823 7.00422 7.03746 7.00084 7.03647 6.99752C7.02376 6.95475 6.97878 6.93038 6.93601 6.94309ZM6.35902 8.15007L6.75953 8.36707C6.79876 8.38833 6.81334 8.43737 6.79208 8.4766C6.79043 8.47964 6.78859 8.48258 6.78657 8.48538C6.75627 8.52738 6.69867 8.53883 6.65461 8.51162L6.27152 8.27497C6.23871 8.25471 6.22854 8.21169 6.24881 8.17888C6.27547 8.1408 6.32184 8.12992 6.35902 8.15007ZM5.62783 9.24919L5.49807 8.81254C5.48603 8.77201 5.44555 8.74691 5.39977 8.75498C5.36224 8.76385 5.33901 8.80146 5.34788 8.83899L5.45144 9.27721C5.46335 9.32761 5.51217 9.36024 5.56329 9.35196C5.56671 9.35141 5.57008 9.35064 5.5734 9.34965C5.61617 9.33694 5.64055 9.29196 5.62783 9.24919ZM4.42085 8.6722L4.20385 9.07271C4.1826 9.11194 4.13356 9.12652 4.09432 9.10526C4.09128 9.10361 4.08835 9.10177 4.08554 9.09975C4.04354 9.06945 4.03209 9.01185 4.05931 8.96779L4.29595 8.5847C4.31622 8.55189 4.35924 8.54172 4.39204 8.56199C4.43012 8.58865 4.441 8.63502 4.42085 8.6722ZM3.32174 7.94101L3.75838 7.81125C3.79891 7.79921 3.82401 7.75873 3.81594 7.71295C3.80707 7.67542 3.76946 7.65219 3.73193 7.66106L3.29371 7.76462C3.24332 7.77653 3.21069 7.82535 3.21896 7.87647C3.21951 7.87989 3.22028 7.88326 3.22127 7.88658C3.23398 7.92935 3.27896 7.95373 3.32174 7.94101ZM3.89872 6.73403L3.49821 6.51703C3.45898 6.49578 3.44441 6.44674 3.46566 6.4075C3.46731 6.40446 3.46915 6.40153 3.47118 6.39872C3.50147 6.35672 3.55907 6.34527 3.60313 6.37249L3.98623 6.60913C4.01903 6.6294 4.0292 6.67242 4.00893 6.70522C3.98227 6.7433 3.9359 6.75418 3.89872 6.73403ZM6.22849 6.62924C6.195 6.64834 6.18333 6.69098 6.20463 6.72806C6.22776 6.76347 6.27372 6.77595 6.31158 6.75712L6.71942 6.55423C6.75937 6.53435 6.77565 6.48585 6.75577 6.4459C6.75423 6.4428 6.75249 6.4398 6.75057 6.43693C6.72175 6.3939 6.66459 6.38045 6.61961 6.40611L6.22849 6.62924ZM6.39442 7.69786C6.40557 7.65659 6.44397 7.63468 6.48117 7.64485L6.91551 7.76364C6.96546 7.7773 6.99636 7.82724 6.98631 7.87804C6.98564 7.88143 6.98475 7.88478 6.98365 7.88806C6.96945 7.93036 6.92365 7.95315 6.88135 7.93895L6.44949 7.79403C6.40941 7.78058 6.38574 7.73925 6.39442 7.69786ZM5.94169 8.54167C5.92258 8.50818 5.87994 8.49652 5.84286 8.51781C5.80746 8.54094 5.79497 8.5869 5.81381 8.62476L6.0167 9.0326C6.03657 9.07255 6.08507 9.08883 6.12503 9.06895C6.12812 9.06741 6.13112 9.06567 6.13399 9.06375C6.17702 9.03493 6.19048 8.97777 6.16482 8.93279L5.94169 8.54167ZM4.87306 8.7076C4.91434 8.71875 4.93624 8.75715 4.92607 8.79435L4.80728 9.22869C4.79362 9.27864 4.74369 9.30954 4.69289 9.29949C4.68949 9.29882 4.68615 9.29793 4.68287 9.29683C4.64056 9.28263 4.61777 9.23683 4.63197 9.19452L4.77689 8.76267C4.79034 8.72259 4.83167 8.69891 4.87306 8.7076ZM4.02925 8.25487C4.06275 8.23576 4.07441 8.19312 4.05311 8.15604C4.02998 8.12064 3.98402 8.10815 3.94616 8.12699L3.53832 8.32988C3.49837 8.34975 3.4821 8.39825 3.50197 8.43821C3.50351 8.4413 3.50525 8.4443 3.50718 8.44717C3.53599 8.4902 3.59315 8.50366 3.63813 8.478L4.02925 8.25487ZM3.86333 7.18624C3.85217 7.22752 3.81377 7.24942 3.77658 7.23925L3.34224 7.12046C3.29229 7.1068 3.26138 7.05687 3.27143 7.00607C3.2721 7.00267 3.27299 6.99933 3.27409 6.99605C3.28829 6.95374 3.33409 6.93095 3.3764 6.94515L3.80825 7.09007C3.84834 7.10352 3.87201 7.14485 3.86333 7.18624ZM4.31606 6.34243C4.33516 6.37593 4.3778 6.38759 4.41488 6.36629C4.45029 6.34316 4.46277 6.2972 4.44394 6.25934L4.24105 5.8515C4.22117 5.81155 4.17267 5.79528 4.13272 5.81515C4.12962 5.81669 4.12662 5.81843 4.12375 5.82036C4.08072 5.84917 4.06727 5.90633 4.09293 5.95131L4.31606 6.34243Z" fill="#FECA00"/>
</g>
</g>
<defs>
<clipPath id="clip0_3123_954">
<rect width="20" height="15" rx="2" fill="white"/>
</clipPath>
</defs>
</svg>
