<svg width="20" height="15" viewBox="0 0 20 15" fill="none" xmlns="http://www.w3.org/2000/svg">
<g clip-path="url(#clip0_3123_881)">
<rect width="20" height="15" rx="2" fill="white"/>
<path fill-rule="evenodd" clip-rule="evenodd" d="M5 0H20V15H5V0Z" fill="#2F8D00"/>
<path fill-rule="evenodd" clip-rule="evenodd" d="M0 0H5V15H0V0Z" fill="#F7FCFF"/>
<path fill-rule="evenodd" clip-rule="evenodd" d="M14.0184 9.56638C14.0184 9.56638 11.2273 10.2941 9.01191 8.80972C6.7965 7.32538 7.91014 3.90484 7.91014 3.90484C6.75455 4.073 4.93977 8.28916 7.86503 10.4038C10.7903 12.5185 13.5926 10.4858 14.0184 9.56638ZM10.9212 5.54154L9.43896 6.26632L11.0026 6.54481L11.2137 8.07326L12.0993 6.77152L13.8422 6.88903L12.4771 5.87097L13.2038 4.51074L11.8448 5.13315L10.8353 4.18398L10.9212 5.54154Z" fill="#F1F9FF"/>
</g>
<defs>
<clipPath id="clip0_3123_881">
<rect width="20" height="15" rx="2" fill="white"/>
</clipPath>
</defs>
</svg>
