<svg width="20" height="15" viewBox="0 0 20 15" fill="none" xmlns="http://www.w3.org/2000/svg">
<g clip-path="url(#clip0_3123_1072)">
<rect width="20" height="15" rx="2" fill="white"/>
<path fill-rule="evenodd" clip-rule="evenodd" d="M0 0V15H20V0H0Z" fill="#4857A1"/>
<mask id="mask0_3123_1072" style="mask-type:luminance" maskUnits="userSpaceOnUse" x="0" y="0" width="20" height="15">
<path fill-rule="evenodd" clip-rule="evenodd" d="M0 0V15H20V0H0Z" fill="white"/>
</mask>
<g mask="url(#mask0_3123_1072)">
<path fill-rule="evenodd" clip-rule="evenodd" d="M0 0V5H20V0H0Z" fill="#C51918"/>
<path fill-rule="evenodd" clip-rule="evenodd" d="M0 10V15H20V10H0Z" fill="#F7FCFF"/>
<path fill-rule="evenodd" clip-rule="evenodd" d="M7.15987 2.37704L7.08915 2.09363C7.14944 2.11214 7.21492 2.13114 7.28403 2.15068L7.28336 2.14706C8.10839 2.2219 9.38373 2.64896 9.62113 3.10254C9.71289 3.27786 9.62164 3.42731 9.50207 3.62317C9.4842 3.65244 9.4657 3.68274 9.44708 3.71432C9.38695 3.81631 9.33245 3.9138 9.28108 4.00568C9.09574 4.33716 8.95125 4.59559 8.73131 4.72834L8.7357 5.47896L5.05099 5.44728L5.04621 4.68908C4.85785 4.54802 4.72312 4.30704 4.55462 4.00568L4.55462 4.00567L4.55461 4.00567L4.55461 4.00567L4.55461 4.00566C4.50324 3.91378 4.44874 3.8163 4.38862 3.71432C4.37 3.68274 4.3515 3.65244 4.33363 3.62317L4.33363 3.62317C4.21405 3.42731 4.12281 3.27786 4.21457 3.10254C4.39306 2.76151 5.20173 2.42984 5.94272 2.25443C6.08852 2.20258 6.24089 2.15413 6.39196 2.10774L6.45939 2.15655C6.51798 2.14855 6.57474 2.14203 6.6292 2.13709L6.71409 2.3264H7.01411C7.01411 2.3264 7.19527 2.86424 7.19527 3.16293C7.19527 3.46163 7.01411 3.70863 7.01411 3.70863V3.91481C7.04557 3.91743 7.07858 3.92063 7.11288 3.92433C7.11312 3.90644 7.11486 3.88761 7.11826 3.86833C7.13563 3.7698 7.18965 3.69697 7.23892 3.70565C7.28819 3.71434 7.31404 3.80126 7.29667 3.89979C7.29384 3.91581 7.29005 3.93115 7.28546 3.94557C7.47985 3.97201 7.69769 4.00891 7.90402 4.04688C7.9826 3.89457 8.0784 3.7441 8.16988 3.60042L8.16988 3.60041C8.40632 3.22904 8.61382 2.9031 8.42016 2.70854C8.38344 2.67164 8.31697 2.63731 8.23124 2.60552C7.94791 2.53502 7.63943 2.48065 7.33965 2.45345L7.3306 2.40419C7.27079 2.39448 7.21337 2.38543 7.15987 2.37704ZM8.56001 4.17672C8.66476 4.19879 8.72829 4.21283 8.72829 4.21283L8.72892 4.32024C9.09399 4.03887 9.35227 3.41544 9.37556 3.21121C9.38959 3.08809 9.19434 2.94614 8.88821 2.81752C9.03309 3.09231 8.83905 3.36499 8.59552 3.70721C8.504 3.83583 8.40549 3.97426 8.31536 4.12631L8.40475 4.14447C8.40398 4.11623 8.4077 4.08448 8.41644 4.05184C8.44234 3.9552 8.5025 3.88735 8.55082 3.9003C8.59914 3.91325 8.61732 4.00209 8.59143 4.09873C8.58364 4.1278 8.57275 4.15427 8.56001 4.17672ZM6.6772 3.91621V3.68658C6.6772 3.68658 6.52036 3.51128 6.49604 3.14619C6.47865 2.88503 6.53249 2.57801 6.56455 2.42438C6.33053 2.45406 6.08381 2.50015 5.84492 2.55676C5.68641 2.60138 5.5601 2.65193 5.50376 2.70854C5.3101 2.9031 5.5176 3.22904 5.75404 3.60042L5.75404 3.60042L5.75405 3.60043C5.8424 3.7392 5.93479 3.88433 6.0118 4.03131C6.14499 4.00247 6.27882 3.97578 6.40378 3.95455C6.39839 3.93523 6.39453 3.91415 6.39259 3.89196C6.38387 3.79228 6.4172 3.70795 6.46704 3.70359C6.51687 3.69923 6.56434 3.7765 6.57306 3.87617C6.57464 3.89423 6.57484 3.91179 6.57381 3.92847C6.60969 3.92366 6.64425 3.91954 6.6772 3.91621ZM5.60771 4.12487C5.51781 3.97338 5.41963 3.83542 5.3284 3.70722L5.3284 3.70721L5.3284 3.70721C5.07937 3.35726 4.88208 3.08001 5.04606 2.79888C4.68762 2.93768 4.44614 3.08841 4.46014 3.21121C4.48214 3.40417 4.71392 3.97135 5.04734 4.27067C5.07056 4.26419 5.19949 4.22843 5.38146 4.18164C5.36749 4.15984 5.35517 4.13388 5.34583 4.10513C5.31491 4.00998 5.32841 3.92031 5.37599 3.90485C5.42357 3.88939 5.4872 3.95399 5.51812 4.04915C5.52879 4.08199 5.53417 4.11418 5.53468 4.14288L5.60771 4.12487Z" fill="#F6C540"/>
<path fill-rule="evenodd" clip-rule="evenodd" d="M7.28262 2.19127C7.28262 2.41095 7.10013 2.58903 6.87501 2.58903C6.6499 2.58903 6.4674 2.41095 6.4674 2.19127C6.4674 1.9716 6.6499 1.79352 6.87501 1.79352C7.10013 1.79352 7.28262 1.9716 7.28262 2.19127ZM6.87501 5.14497C7.0501 5.14497 7.19204 5.06386 7.19204 4.96381C7.19204 4.86376 7.0501 4.78265 6.87501 4.78265C6.69992 4.78265 6.55798 4.86376 6.55798 4.96381C6.55798 5.06386 6.69992 5.14497 6.87501 5.14497ZM5.28987 5.09968C5.28987 5.17472 5.22904 5.23555 5.154 5.23555C5.07896 5.23555 5.01813 5.17472 5.01813 5.09968C5.01813 5.02464 5.07896 4.96381 5.154 4.96381C5.22904 4.96381 5.28987 5.02464 5.28987 5.09968ZM8.91305 5.09968C8.91305 5.17472 8.85222 5.23555 8.77719 5.23555C8.70215 5.23555 8.64132 5.17472 8.64132 5.09968C8.64132 5.02464 8.70215 4.96381 8.77719 4.96381C8.85222 4.96381 8.91305 5.02464 8.91305 5.09968Z" fill="#2E42A5"/>
<path fill-rule="evenodd" clip-rule="evenodd" d="M6.19564 5.0091C6.19564 5.08414 6.09425 5.14497 5.96919 5.14497C5.84412 5.14497 5.74274 5.08414 5.74274 5.0091C5.74274 4.93406 5.84412 4.87323 5.96919 4.87323C6.09425 4.87323 6.19564 4.93406 6.19564 5.0091ZM8.09781 5.0091C8.09781 5.08414 7.99642 5.14497 7.87136 5.14497C7.7463 5.14497 7.64491 5.08414 7.64491 5.0091C7.64491 4.93406 7.7463 4.87323 7.87136 4.87323C7.99642 4.87323 8.09781 4.93406 8.09781 5.0091Z" fill="#C5363C"/>
<path fill-rule="evenodd" clip-rule="evenodd" d="M7.64493 3.87684C7.64493 3.97689 7.60438 4.058 7.55435 4.058C7.50432 4.058 7.46377 3.97689 7.46377 3.87684C7.46377 3.77679 7.50432 3.69568 7.55435 3.69568C7.60438 3.69568 7.64493 3.77679 7.64493 3.87684ZM6.2818 3.84885C6.31272 3.944 6.29921 4.03367 6.25164 4.04913C6.20406 4.06459 6.14042 3.99998 6.10951 3.90483C6.07859 3.80967 6.0921 3.72 6.13967 3.70455C6.18725 3.68909 6.25088 3.75369 6.2818 3.84885ZM5.21623 4.33999C5.2638 4.32454 5.27731 4.23487 5.24639 4.13971C5.21547 4.04456 5.15184 3.97995 5.10426 3.99541C5.05669 4.01087 5.04318 4.10054 5.0741 4.19569C5.10502 4.29085 5.16865 4.35545 5.21623 4.33999ZM8.80036 4.21705C8.74734 4.3019 8.66997 4.34919 8.62754 4.32268C8.58512 4.29617 8.59371 4.2059 8.64673 4.12105C8.69975 4.0362 8.77712 3.98891 8.81954 4.01542C8.86197 4.04193 8.85338 4.1322 8.80036 4.21705Z" fill="#F7FCFF"/>
<path fill-rule="evenodd" clip-rule="evenodd" d="M6.10564 2.37024C6.1309 2.38863 6.162 2.39948 6.19564 2.39948C6.28018 2.39948 6.34872 2.33095 6.34872 2.2464C6.34872 2.16186 6.28018 2.09332 6.19564 2.09332C6.13568 2.09332 6.08378 2.12779 6.05866 2.17799C6.0334 2.1596 6.00229 2.14875 5.96866 2.14875C5.91472 2.14875 5.8673 2.17665 5.84003 2.21879C5.81358 2.19699 5.77969 2.1839 5.74274 2.1839C5.6582 2.1839 5.58966 2.25244 5.58966 2.33698C5.58966 2.3417 5.58987 2.34636 5.59029 2.35096C5.56223 2.31612 5.51922 2.29383 5.471 2.29383C5.39437 2.29383 5.3309 2.35013 5.31968 2.42362C5.29165 2.38796 5.24813 2.36506 5.19926 2.36506C5.1258 2.36506 5.06442 2.41681 5.04959 2.48585C5.02446 2.46776 4.99361 2.4571 4.96027 2.4571C4.89243 2.4571 4.8349 2.50123 4.81482 2.56234C4.79422 2.55203 4.77097 2.54622 4.74636 2.54622C4.67083 2.54622 4.60807 2.60093 4.59555 2.67288C4.58574 2.6709 4.57559 2.66987 4.5652 2.66987C4.48147 2.66987 4.41343 2.7371 4.41214 2.82053C4.40303 2.81884 4.39364 2.81796 4.38404 2.81796C4.2995 2.81796 4.23096 2.8865 4.23096 2.97104C4.23096 2.98176 4.23207 2.99222 4.23416 3.00232C4.22406 3.00022 4.2136 2.99912 4.20288 2.99912C4.11834 2.99912 4.0498 3.06766 4.0498 3.1522C4.0498 3.21643 4.08937 3.27143 4.14545 3.29414C4.14215 3.30666 4.14038 3.3198 4.14038 3.33336C4.14038 3.39759 4.17995 3.45259 4.23603 3.4753C4.23273 3.48782 4.23096 3.50096 4.23096 3.51452C4.23096 3.59705 4.29628 3.66433 4.37804 3.66748C4.34357 3.69555 4.32154 3.73833 4.32154 3.78626C4.32154 3.8708 4.39008 3.93934 4.47462 3.93934C4.55917 3.93934 4.6277 3.8708 4.6277 3.78626C4.6277 3.70372 4.56239 3.63644 4.48062 3.63329C4.5151 3.60522 4.53712 3.56244 4.53712 3.51452C4.53712 3.45028 4.49756 3.39529 4.44147 3.37258C4.44478 3.36006 4.44654 3.34692 4.44654 3.33336C4.44654 3.26913 4.40698 3.21413 4.35089 3.19142C4.3542 3.1789 4.35596 3.16576 4.35596 3.1522C4.35596 3.14148 4.35486 3.13102 4.35277 3.12092C4.36286 3.12302 4.37332 3.12412 4.38404 3.12412C4.46778 3.12412 4.53581 3.05689 4.5371 2.97346C4.54621 2.97515 4.55561 2.97603 4.5652 2.97603C4.64074 2.97603 4.70349 2.92132 4.71601 2.84937C4.72582 2.85135 4.73597 2.85238 4.74636 2.85238C4.8142 2.85238 4.87173 2.80826 4.89182 2.74714C4.91242 2.75746 4.93567 2.76326 4.96027 2.76326C4.99386 2.76326 5.02492 2.75244 5.05016 2.73411C5.05492 2.75458 5.06378 2.77348 5.07584 2.78988C5.0572 2.81524 5.04618 2.84657 5.04618 2.88046C5.04618 2.963 5.1115 3.03027 5.19326 3.03342C5.15878 3.06149 5.13676 3.10427 5.13676 3.1522C5.13676 3.21643 5.17632 3.27143 5.23241 3.29414C5.2291 3.30666 5.22734 3.3198 5.22734 3.33336C5.22734 3.39759 5.2669 3.45259 5.32299 3.4753C5.31968 3.48782 5.31792 3.50096 5.31792 3.51452C5.31792 3.59906 5.38646 3.6676 5.471 3.6676C5.55554 3.6676 5.62408 3.59906 5.62408 3.51452C5.62408 3.45028 5.58452 3.39529 5.52843 3.37258C5.53174 3.36006 5.5335 3.34692 5.5335 3.33336C5.5335 3.26913 5.49394 3.21413 5.43785 3.19142C5.44116 3.1789 5.44292 3.16576 5.44292 3.1522C5.44292 3.06966 5.3776 3.00239 5.29584 2.99924C5.33032 2.97117 5.35234 2.92839 5.35234 2.88046C5.35234 2.84657 5.34133 2.81524 5.32268 2.78988C5.34133 2.76452 5.35234 2.7332 5.35234 2.6993C5.35234 2.66541 5.34133 2.63408 5.32268 2.60872C5.33697 2.58928 5.34678 2.56634 5.35058 2.54143C5.37861 2.57708 5.42213 2.59999 5.471 2.59999C5.55554 2.59999 5.62408 2.53145 5.62408 2.44691C5.62408 2.44219 5.62387 2.43753 5.62345 2.43293C5.65151 2.46777 5.69452 2.49006 5.74274 2.49006C5.79667 2.49006 5.84409 2.46217 5.87136 2.42002C5.89781 2.44182 5.9317 2.45491 5.96866 2.45491C6.02861 2.45491 6.08052 2.42044 6.10564 2.37024ZM5.10994 2.64247C5.13508 2.66057 5.16592 2.67122 5.19926 2.67122C5.24991 2.67122 5.29481 2.64662 5.32268 2.60872C5.29481 2.57082 5.24991 2.54622 5.19926 2.54622C5.21477 2.54622 5.22734 2.53365 5.22734 2.51814C5.22734 2.50263 5.21477 2.49006 5.19926 2.49006C5.18375 2.49006 5.17118 2.50263 5.17118 2.51814C5.17118 2.53365 5.18375 2.54622 5.19926 2.54622C5.16568 2.54622 5.13462 2.55704 5.10938 2.57538C5.10086 2.53873 5.07918 2.50714 5.04959 2.48585C5.04736 2.49626 5.04618 2.50706 5.04618 2.51814C5.04618 2.55204 5.0572 2.58336 5.07584 2.60872C5.0572 2.63409 5.04618 2.66541 5.04618 2.6993C5.04618 2.71127 5.04756 2.72293 5.05016 2.73411C5.08013 2.71233 5.10189 2.67995 5.10994 2.64247ZM5.10994 2.64247C5.09688 2.63308 5.08537 2.62168 5.07584 2.60872C5.08523 2.59595 5.09655 2.58469 5.10938 2.57538C5.11198 2.58656 5.11335 2.59821 5.11335 2.61018C5.11335 2.62126 5.11217 2.63206 5.10994 2.64247ZM5.19926 2.85238C5.14861 2.85238 5.10371 2.82778 5.07584 2.78988C5.10371 2.75198 5.14861 2.72738 5.19926 2.72738C5.24991 2.72738 5.29481 2.75198 5.32268 2.78988C5.29481 2.82778 5.24991 2.85238 5.19926 2.85238ZM5.19926 2.85238C5.21477 2.85238 5.22734 2.86495 5.22734 2.88046C5.22734 2.89597 5.21477 2.90854 5.19926 2.90854C5.18375 2.90854 5.17118 2.89597 5.17118 2.88046C5.17118 2.86495 5.18375 2.85238 5.19926 2.85238ZM5.19926 2.72738C5.18375 2.72738 5.17118 2.71481 5.17118 2.6993C5.17118 2.68379 5.18375 2.67122 5.19926 2.67122C5.21477 2.67122 5.22734 2.68379 5.22734 2.6993C5.22734 2.71481 5.21477 2.72738 5.19926 2.72738ZM5.52843 3.37258C5.5107 3.36539 5.49131 3.36144 5.471 3.36144C5.40001 3.36144 5.34031 3.40976 5.32299 3.4753C5.34072 3.48248 5.36011 3.48644 5.38042 3.48644C5.45141 3.48644 5.51111 3.43812 5.52843 3.37258ZM5.43785 3.19142C5.42012 3.18423 5.40073 3.18028 5.38042 3.18028C5.30943 3.18028 5.24973 3.2286 5.23241 3.29414C5.25014 3.30132 5.26953 3.30528 5.28984 3.30528C5.36083 3.30528 5.42053 3.25696 5.43785 3.19142ZM5.29584 2.99924L5.28984 2.99912C5.25322 2.99912 5.21961 3.01198 5.19326 3.03342L5.19926 3.03354C5.23588 3.03354 5.2695 3.02068 5.29584 2.99924ZM4.48062 3.63329L4.47462 3.63318C4.438 3.63318 4.40439 3.64604 4.37804 3.66748L4.38404 3.6676C4.42066 3.6676 4.45428 3.65474 4.48062 3.63329ZM4.44147 3.37258C4.42415 3.43812 4.36445 3.48644 4.29346 3.48644C4.27315 3.48644 4.25377 3.48248 4.23603 3.4753C4.25335 3.40976 4.31306 3.36144 4.38404 3.36144C4.40435 3.36144 4.42374 3.36539 4.44147 3.37258ZM4.35089 3.19142C4.33357 3.25696 4.27387 3.30528 4.20288 3.30528C4.18257 3.30528 4.16319 3.30132 4.14545 3.29414C4.16277 3.2286 4.22248 3.18028 4.29346 3.18028C4.31377 3.18028 4.33316 3.18423 4.35089 3.19142ZM4.23416 3.00232C4.2465 3.06176 4.29332 3.10858 4.35277 3.12092C4.34042 3.06148 4.29361 3.01466 4.23416 3.00232ZM4.5371 2.97346C4.46598 2.96026 4.41212 2.89789 4.41212 2.82295L4.41214 2.82053C4.48327 2.83373 4.53712 2.89609 4.53712 2.97104L4.5371 2.97346ZM4.71601 2.84937C4.64601 2.83529 4.59328 2.77345 4.59328 2.6993C4.59328 2.69029 4.59406 2.68146 4.59555 2.67288C4.66556 2.68696 4.71828 2.7488 4.71828 2.82295C4.71828 2.83196 4.7175 2.84079 4.71601 2.84937ZM4.89182 2.74714C4.84164 2.72201 4.80719 2.67012 4.80719 2.61018C4.80719 2.59347 4.80987 2.57739 4.81482 2.56234C4.86499 2.58747 4.89944 2.63936 4.89944 2.6993C4.89944 2.71601 4.89677 2.73209 4.89182 2.74714ZM5.35058 2.54143C5.33012 2.5154 5.31792 2.48258 5.31792 2.44691C5.31792 2.43899 5.31852 2.43121 5.31968 2.42362C5.34014 2.44965 5.35234 2.48247 5.35234 2.51814C5.35234 2.52606 5.35174 2.53384 5.35058 2.54143ZM5.59029 2.35096C5.59309 2.38185 5.60505 2.41008 5.62345 2.43293C5.62065 2.40204 5.60869 2.37381 5.59029 2.35096ZM5.87136 2.42002C5.83729 2.39194 5.81558 2.34943 5.81558 2.30183C5.81558 2.27122 5.82456 2.24271 5.84003 2.21879C5.8741 2.24687 5.89582 2.28939 5.89582 2.33698C5.89582 2.36759 5.88684 2.3961 5.87136 2.42002ZM6.10564 2.37024C6.06741 2.34241 6.04256 2.29731 6.04256 2.2464C6.04256 2.22181 6.04836 2.19858 6.05866 2.17799C6.09689 2.20582 6.12174 2.25093 6.12174 2.30183C6.12174 2.32642 6.11594 2.34965 6.10564 2.37024ZM4.5652 2.85103C4.58071 2.85103 4.59328 2.83846 4.59328 2.82295C4.59328 2.80744 4.58071 2.79487 4.5652 2.79487C4.5497 2.79487 4.53712 2.80744 4.53712 2.82295C4.53712 2.83846 4.5497 2.85103 4.5652 2.85103ZM4.38404 2.99912C4.39955 2.99912 4.41212 2.98655 4.41212 2.97104C4.41212 2.95553 4.39955 2.94296 4.38404 2.94296C4.36854 2.94296 4.35596 2.95553 4.35596 2.97104C4.35596 2.98655 4.36854 2.99912 4.38404 2.99912ZM4.20288 3.18028C4.21839 3.18028 4.23096 3.16771 4.23096 3.1522C4.23096 3.13669 4.21839 3.12412 4.20288 3.12412C4.18738 3.12412 4.1748 3.13669 4.1748 3.1522C4.1748 3.16771 4.18738 3.18028 4.20288 3.18028ZM4.29346 3.36144C4.30897 3.36144 4.32154 3.34887 4.32154 3.33336C4.32154 3.31785 4.30897 3.30528 4.29346 3.30528C4.27796 3.30528 4.26538 3.31785 4.26538 3.33336C4.26538 3.34887 4.27796 3.36144 4.29346 3.36144ZM4.38404 3.5426C4.39955 3.5426 4.41212 3.53003 4.41212 3.51452C4.41212 3.49901 4.39955 3.48644 4.38404 3.48644C4.36854 3.48644 4.35596 3.49901 4.35596 3.51452C4.35596 3.53003 4.36854 3.5426 4.38404 3.5426ZM4.5027 3.78626C4.5027 3.80177 4.49013 3.81434 4.47462 3.81434C4.45912 3.81434 4.44654 3.80177 4.44654 3.78626C4.44654 3.77075 4.45912 3.75818 4.47462 3.75818C4.49013 3.75818 4.5027 3.77075 4.5027 3.78626ZM4.74636 2.72738C4.76187 2.72738 4.77444 2.71481 4.77444 2.6993C4.77444 2.68379 4.76187 2.67122 4.74636 2.67122C4.73085 2.67122 4.71828 2.68379 4.71828 2.6993C4.71828 2.71481 4.73085 2.72738 4.74636 2.72738ZM4.96027 2.63826C4.97578 2.63826 4.98835 2.62569 4.98835 2.61018C4.98835 2.59467 4.97578 2.5821 4.96027 2.5821C4.94476 2.5821 4.93219 2.59467 4.93219 2.61018C4.93219 2.62569 4.94476 2.63826 4.96027 2.63826ZM5.471 2.47499C5.48651 2.47499 5.49908 2.46241 5.49908 2.44691C5.49908 2.4314 5.48651 2.41883 5.471 2.41883C5.45549 2.41883 5.44292 2.4314 5.44292 2.44691C5.44292 2.46241 5.45549 2.47499 5.471 2.47499ZM5.74274 2.36506C5.75825 2.36506 5.77082 2.35249 5.77082 2.33698C5.77082 2.32147 5.75825 2.3089 5.74274 2.3089C5.72723 2.3089 5.71466 2.32147 5.71466 2.33698C5.71466 2.35249 5.72723 2.36506 5.74274 2.36506ZM5.96866 2.32991C5.98416 2.32991 5.99674 2.31734 5.99674 2.30183C5.99674 2.28632 5.98416 2.27375 5.96866 2.27375C5.95315 2.27375 5.94058 2.28632 5.94058 2.30183C5.94058 2.31734 5.95315 2.32991 5.96866 2.32991ZM6.19564 2.27448C6.21115 2.27448 6.22372 2.26191 6.22372 2.2464C6.22372 2.23089 6.21115 2.21832 6.19564 2.21832C6.18013 2.21832 6.16756 2.23089 6.16756 2.2464C6.16756 2.26191 6.18013 2.27448 6.19564 2.27448ZM5.28984 3.18028C5.30535 3.18028 5.31792 3.16771 5.31792 3.1522C5.31792 3.13669 5.30535 3.12412 5.28984 3.12412C5.27433 3.12412 5.26176 3.13669 5.26176 3.1522C5.26176 3.16771 5.27433 3.18028 5.28984 3.18028ZM5.38042 3.36144C5.39593 3.36144 5.4085 3.34887 5.4085 3.33336C5.4085 3.31785 5.39593 3.30528 5.38042 3.30528C5.36491 3.30528 5.35234 3.31785 5.35234 3.33336C5.35234 3.34887 5.36491 3.36144 5.38042 3.36144ZM5.471 3.5426C5.48651 3.5426 5.49908 3.53003 5.49908 3.51452C5.49908 3.49901 5.48651 3.48644 5.471 3.48644C5.45549 3.48644 5.44292 3.49901 5.44292 3.51452C5.44292 3.53003 5.45549 3.5426 5.471 3.5426ZM9.45651 3.81434C9.47202 3.81434 9.48459 3.80177 9.48459 3.78626C9.48459 3.77075 9.47202 3.75818 9.45651 3.75818C9.441 3.75818 9.42843 3.77075 9.42843 3.78626C9.42843 3.80177 9.441 3.81434 9.45651 3.81434ZM9.30343 3.78626C9.30343 3.8708 9.37196 3.93934 9.45651 3.93934C9.54105 3.93934 9.60959 3.8708 9.60959 3.78626C9.60959 3.73833 9.58756 3.69555 9.55309 3.66748C9.63485 3.66433 9.70017 3.59705 9.70017 3.51452C9.70017 3.50096 9.69841 3.48782 9.6951 3.4753C9.75118 3.45259 9.79075 3.39759 9.79075 3.33336C9.79075 3.3198 9.78898 3.30666 9.78568 3.29414C9.84176 3.27143 9.88133 3.21643 9.88133 3.1522C9.88133 3.06766 9.81279 2.99912 9.72825 2.99912C9.71753 2.99912 9.70707 3.00022 9.69697 3.00232C9.69907 2.99222 9.70017 2.98176 9.70017 2.97104C9.70017 2.8865 9.63163 2.81796 9.54709 2.81796C9.53749 2.81796 9.5281 2.81884 9.51899 2.82053C9.5177 2.7371 9.44967 2.66987 9.36593 2.66987C9.35554 2.66987 9.34539 2.6709 9.33558 2.67288C9.32306 2.60093 9.2603 2.54622 9.18477 2.54622C9.16016 2.54622 9.13691 2.55203 9.11632 2.56234C9.09623 2.50123 9.0387 2.4571 8.97086 2.4571C8.93752 2.4571 8.90668 2.46776 8.88154 2.48585C8.86671 2.41681 8.80534 2.36506 8.73187 2.36506C8.683 2.36506 8.63948 2.38796 8.61145 2.42362C8.60023 2.35013 8.53676 2.29383 8.46013 2.29383C8.41191 2.29383 8.3689 2.31612 8.34084 2.35096C8.34126 2.34636 8.34147 2.3417 8.34147 2.33698C8.34147 2.25244 8.27294 2.1839 8.18839 2.1839C8.15144 2.1839 8.11755 2.19699 8.0911 2.21879C8.06383 2.17665 8.01641 2.14875 7.96248 2.14875C7.92884 2.14875 7.89774 2.1596 7.87247 2.17799C7.84735 2.12779 7.79545 2.09332 7.73549 2.09332C7.65095 2.09332 7.58241 2.16186 7.58241 2.2464C7.58241 2.33095 7.65095 2.39948 7.73549 2.39948C7.76913 2.39948 7.80023 2.38863 7.82549 2.37024C7.85061 2.42044 7.90252 2.45491 7.96248 2.45491C7.99943 2.45491 8.03332 2.44182 8.05977 2.42002C8.08704 2.46217 8.13446 2.49006 8.18839 2.49006C8.23661 2.49006 8.27962 2.46777 8.30768 2.43293C8.30726 2.43753 8.30705 2.44219 8.30705 2.44691C8.30705 2.53145 8.37559 2.59999 8.46013 2.59999C8.509 2.59999 8.55252 2.57708 8.58055 2.54143C8.58435 2.56634 8.59416 2.58928 8.60845 2.60872C8.58981 2.63408 8.57879 2.66541 8.57879 2.6993C8.57879 2.7332 8.58981 2.76452 8.60845 2.78988C8.58981 2.81524 8.57879 2.84657 8.57879 2.88046C8.57879 2.92839 8.60081 2.97117 8.63529 2.99924C8.55353 3.00239 8.48821 3.06966 8.48821 3.1522C8.48821 3.16576 8.48997 3.1789 8.49328 3.19142C8.43719 3.21413 8.39763 3.26913 8.39763 3.33336C8.39763 3.34692 8.39939 3.36006 8.4027 3.37258C8.34661 3.39529 8.30705 3.45028 8.30705 3.51452C8.30705 3.59906 8.37559 3.6676 8.46013 3.6676C8.54467 3.6676 8.61321 3.59906 8.61321 3.51452C8.61321 3.50096 8.61145 3.48782 8.60814 3.4753C8.66423 3.45259 8.70379 3.39759 8.70379 3.33336C8.70379 3.3198 8.70203 3.30666 8.69872 3.29414C8.75481 3.27143 8.79437 3.21643 8.79437 3.1522C8.79437 3.10427 8.77235 3.06149 8.73787 3.03342C8.81963 3.03027 8.88495 2.96299 8.88495 2.88046C8.88495 2.84657 8.87393 2.81524 8.85529 2.78988C8.86735 2.77348 8.87622 2.75458 8.88098 2.73411C8.90622 2.75244 8.93727 2.76326 8.97086 2.76326C8.99546 2.76326 9.01871 2.75746 9.03931 2.74714C9.0594 2.80826 9.11693 2.85238 9.18477 2.85238C9.19516 2.85238 9.20531 2.85135 9.21512 2.84937C9.22764 2.92132 9.2904 2.97603 9.36593 2.97603C9.37553 2.97603 9.38492 2.97515 9.39403 2.97346C9.39532 3.05689 9.46335 3.12412 9.54709 3.12412C9.55781 3.12412 9.56827 3.12302 9.57837 3.12092C9.57627 3.13102 9.57517 3.14148 9.57517 3.1522C9.57517 3.16576 9.57693 3.1789 9.58024 3.19142C9.52415 3.21413 9.48459 3.26913 9.48459 3.33336C9.48459 3.34692 9.48635 3.36006 9.48966 3.37258C9.43357 3.39529 9.39401 3.45028 9.39401 3.51452C9.39401 3.56244 9.41603 3.60522 9.45051 3.63329C9.36875 3.63644 9.30343 3.70372 9.30343 3.78626ZM8.82119 2.64247C8.79605 2.66057 8.76521 2.67122 8.73187 2.67122C8.68122 2.67122 8.63632 2.64662 8.60845 2.60872C8.63632 2.57082 8.68122 2.54622 8.73187 2.54622C8.76546 2.54622 8.79651 2.55704 8.82175 2.57538C8.81916 2.58656 8.81778 2.59821 8.81778 2.61018C8.81778 2.62126 8.81896 2.63206 8.82119 2.64247ZM8.85529 2.60872C8.87393 2.63409 8.88495 2.66541 8.88495 2.6993C8.88495 2.71127 8.88358 2.72293 8.88098 2.73411C8.85101 2.71233 8.82924 2.67995 8.82119 2.64247C8.83425 2.63308 8.84576 2.62168 8.85529 2.60872ZM8.85529 2.60872C8.8459 2.59595 8.83458 2.58469 8.82175 2.57538C8.83027 2.53873 8.85195 2.50714 8.88154 2.48585C8.88377 2.49626 8.88495 2.50706 8.88495 2.51814C8.88495 2.55204 8.87393 2.58336 8.85529 2.60872ZM8.73187 2.54622C8.71636 2.54622 8.70379 2.53365 8.70379 2.51814C8.70379 2.50263 8.71636 2.49006 8.73187 2.49006C8.74738 2.49006 8.75995 2.50263 8.75995 2.51814C8.75995 2.53365 8.74738 2.54622 8.73187 2.54622ZM8.73187 2.85238C8.68122 2.85238 8.63632 2.82778 8.60845 2.78988C8.63632 2.75198 8.68122 2.72738 8.73187 2.72738C8.78252 2.72738 8.82742 2.75198 8.85529 2.78988C8.82742 2.82778 8.78252 2.85238 8.73187 2.85238ZM8.73187 2.85238C8.74738 2.85238 8.75995 2.86495 8.75995 2.88046C8.75995 2.89597 8.74738 2.90854 8.73187 2.90854C8.71636 2.90854 8.70379 2.89597 8.70379 2.88046C8.70379 2.86495 8.71636 2.85238 8.73187 2.85238ZM8.73187 2.72738C8.71636 2.72738 8.70379 2.71481 8.70379 2.6993C8.70379 2.68379 8.71636 2.67122 8.73187 2.67122C8.74738 2.67122 8.75995 2.68379 8.75995 2.6993C8.75995 2.71481 8.74738 2.72738 8.73187 2.72738ZM8.60814 3.4753C8.59082 3.40976 8.53112 3.36144 8.46013 3.36144C8.43982 3.36144 8.42043 3.36539 8.4027 3.37258C8.42002 3.43812 8.47972 3.48644 8.55071 3.48644C8.57102 3.48644 8.59041 3.48248 8.60814 3.4753ZM8.69872 3.29414C8.6814 3.2286 8.6217 3.18028 8.55071 3.18028C8.5304 3.18028 8.51101 3.18423 8.49328 3.19142C8.5106 3.25696 8.5703 3.30528 8.64129 3.30528C8.6616 3.30528 8.68099 3.30132 8.69872 3.29414ZM8.73787 3.03342C8.71152 3.01198 8.67791 2.99912 8.64129 2.99912L8.63529 2.99924C8.66164 3.02068 8.69525 3.03354 8.73187 3.03354L8.73787 3.03342ZM7.82549 2.37024C7.86372 2.34241 7.88857 2.29731 7.88857 2.2464C7.88857 2.22181 7.88278 2.19858 7.87247 2.17799C7.83424 2.20582 7.8094 2.25093 7.8094 2.30183C7.8094 2.32642 7.81519 2.34965 7.82549 2.37024ZM8.05977 2.42002C8.09384 2.39194 8.11556 2.34943 8.11556 2.30183C8.11556 2.27122 8.10657 2.24271 8.0911 2.21879C8.05703 2.24687 8.03531 2.28939 8.03531 2.33698C8.03531 2.36759 8.0443 2.3961 8.05977 2.42002ZM8.34084 2.35096C8.33805 2.38185 8.32608 2.41008 8.30768 2.43293C8.31048 2.40204 8.32245 2.37381 8.34084 2.35096ZM8.58055 2.54143C8.60101 2.5154 8.61321 2.48258 8.61321 2.44691C8.61321 2.43899 8.61261 2.43121 8.61145 2.42362C8.59099 2.44965 8.57879 2.48247 8.57879 2.51814C8.57879 2.52606 8.57939 2.53384 8.58055 2.54143ZM9.03931 2.74714C9.08949 2.72201 9.12394 2.67012 9.12394 2.61018C9.12394 2.59347 9.12126 2.57739 9.11632 2.56234C9.06614 2.58747 9.03169 2.63936 9.03169 2.6993C9.03169 2.71601 9.03437 2.73209 9.03931 2.74714ZM9.21512 2.84937C9.28512 2.83529 9.33785 2.77345 9.33785 2.6993C9.33785 2.69029 9.33707 2.68146 9.33558 2.67288C9.26557 2.68696 9.21285 2.7488 9.21285 2.82295C9.21285 2.83196 9.21363 2.84079 9.21512 2.84937ZM9.57837 3.12092C9.63781 3.10858 9.68463 3.06176 9.69697 3.00232C9.63752 3.01466 9.59071 3.06148 9.57837 3.12092ZM9.51899 2.82053L9.51901 2.82295C9.51901 2.89789 9.46515 2.96026 9.39403 2.97346L9.39401 2.97104C9.39401 2.89609 9.44787 2.83373 9.51899 2.82053ZM9.58024 3.19142C9.59797 3.18423 9.61736 3.18028 9.63767 3.18028C9.70865 3.18028 9.76836 3.2286 9.78568 3.29414C9.76794 3.30132 9.74856 3.30528 9.72825 3.30528C9.65726 3.30528 9.59756 3.25696 9.58024 3.19142ZM9.48966 3.37258C9.50739 3.36539 9.52678 3.36144 9.54709 3.36144C9.61807 3.36144 9.67778 3.40976 9.6951 3.4753C9.67736 3.48248 9.65798 3.48644 9.63767 3.48644C9.56668 3.48644 9.50698 3.43812 9.48966 3.37258ZM9.54709 3.6676C9.51047 3.6676 9.47685 3.65474 9.45051 3.63329L9.45651 3.63318C9.49313 3.63318 9.52674 3.64604 9.55309 3.66748L9.54709 3.6676ZM9.54709 3.5426C9.5626 3.5426 9.57517 3.53003 9.57517 3.51452C9.57517 3.49901 9.5626 3.48644 9.54709 3.48644C9.53158 3.48644 9.51901 3.49901 9.51901 3.51452C9.51901 3.53003 9.53158 3.5426 9.54709 3.5426ZM9.63767 3.36144C9.65317 3.36144 9.66575 3.34887 9.66575 3.33336C9.66575 3.31785 9.65317 3.30528 9.63767 3.30528C9.62216 3.30528 9.60959 3.31785 9.60959 3.33336C9.60959 3.34887 9.62216 3.36144 9.63767 3.36144ZM9.72825 3.18028C9.74375 3.18028 9.75633 3.16771 9.75633 3.1522C9.75633 3.13669 9.74375 3.12412 9.72825 3.12412C9.71274 3.12412 9.70017 3.13669 9.70017 3.1522C9.70017 3.16771 9.71274 3.18028 9.72825 3.18028ZM9.54709 2.99912C9.5626 2.99912 9.57517 2.98655 9.57517 2.97104C9.57517 2.95553 9.5626 2.94296 9.54709 2.94296C9.53158 2.94296 9.51901 2.95553 9.51901 2.97104C9.51901 2.98655 9.53158 2.99912 9.54709 2.99912ZM9.36593 2.85103C9.38144 2.85103 9.39401 2.83846 9.39401 2.82295C9.39401 2.80744 9.38144 2.79487 9.36593 2.79487C9.35042 2.79487 9.33785 2.80744 9.33785 2.82295C9.33785 2.83846 9.35042 2.85103 9.36593 2.85103ZM9.18477 2.72738C9.20028 2.72738 9.21285 2.71481 9.21285 2.6993C9.21285 2.68379 9.20028 2.67122 9.18477 2.67122C9.16926 2.67122 9.15669 2.68379 9.15669 2.6993C9.15669 2.71481 9.16926 2.72738 9.18477 2.72738ZM8.97086 2.63826C8.98637 2.63826 8.99894 2.62569 8.99894 2.61018C8.99894 2.59467 8.98637 2.5821 8.97086 2.5821C8.95535 2.5821 8.94278 2.59467 8.94278 2.61018C8.94278 2.62569 8.95535 2.63826 8.97086 2.63826ZM8.46013 2.47499C8.47564 2.47499 8.48821 2.46241 8.48821 2.44691C8.48821 2.4314 8.47564 2.41883 8.46013 2.41883C8.44462 2.41883 8.43205 2.4314 8.43205 2.44691C8.43205 2.46241 8.44462 2.47499 8.46013 2.47499ZM8.18839 2.36506C8.2039 2.36506 8.21647 2.35249 8.21647 2.33698C8.21647 2.32147 8.2039 2.3089 8.18839 2.3089C8.17288 2.3089 8.16031 2.32147 8.16031 2.33698C8.16031 2.35249 8.17288 2.36506 8.18839 2.36506ZM7.96248 2.32991C7.97798 2.32991 7.99056 2.31734 7.99056 2.30183C7.99056 2.28632 7.97798 2.27375 7.96248 2.27375C7.94697 2.27375 7.9344 2.28632 7.9344 2.30183C7.9344 2.31734 7.94697 2.32991 7.96248 2.32991ZM7.73549 2.27448C7.751 2.27448 7.76357 2.26191 7.76357 2.2464C7.76357 2.23089 7.751 2.21832 7.73549 2.21832C7.71999 2.21832 7.70741 2.23089 7.70741 2.2464C7.70741 2.26191 7.71999 2.27448 7.73549 2.27448ZM8.64129 3.18028C8.6568 3.18028 8.66937 3.16771 8.66937 3.1522C8.66937 3.13669 8.6568 3.12412 8.64129 3.12412C8.62578 3.12412 8.61321 3.13669 8.61321 3.1522C8.61321 3.16771 8.62578 3.18028 8.64129 3.18028ZM8.55071 3.36144C8.56622 3.36144 8.57879 3.34887 8.57879 3.33336C8.57879 3.31785 8.56622 3.30528 8.55071 3.30528C8.5352 3.30528 8.52263 3.31785 8.52263 3.33336C8.52263 3.34887 8.5352 3.36144 8.55071 3.36144ZM8.46013 3.5426C8.47564 3.5426 8.48821 3.53003 8.48821 3.51452C8.48821 3.49901 8.47564 3.48644 8.46013 3.48644C8.44462 3.48644 8.43205 3.49901 8.43205 3.51452C8.43205 3.53003 8.44462 3.5426 8.46013 3.5426Z" fill="white"/>
<path fill-rule="evenodd" clip-rule="evenodd" d="M6.93849 1.34632L6.80422 1.34852L6.80445 1.56922L6.55662 1.56908L6.55957 1.70307L6.80459 1.7032L6.80485 1.95475L6.93912 1.95255L6.93886 1.70328L7.18267 1.70342L7.17972 1.56943L6.93872 1.5693L6.93849 1.34632Z" fill="#F6C540"/>
<path fill-rule="evenodd" clip-rule="evenodd" d="M3.61548 5.45886H10.1155V10.9798C10.1155 10.9798 9.91891 13.7298 6.86548 13.7298C3.81204 13.7298 3.61548 10.9798 3.61548 10.9798V5.45886Z" fill="#C51918"/>
<path fill-rule="evenodd" clip-rule="evenodd" d="M5.57727 5.6499C5.51767 5.6499 5.42592 5.69271 5.3043 5.74118C5.18268 5.78966 5.05496 5.89431 5.17963 5.99914C5.3043 6.10396 5.48277 6.33403 5.48277 6.24801C5.48277 6.16199 5.69598 6.07859 5.69598 6.12029C5.69598 6.16199 5.62997 6.24801 5.80311 6.24801C5.97626 6.24801 6.06546 6.29916 5.88072 6.29916C5.69598 6.29916 5.6759 6.38368 5.55584 6.38368C5.43577 6.38368 5.17963 6.29853 5.17963 6.24801C5.17963 6.19749 5.32797 6.49638 5.48277 6.49638C5.63758 6.49638 5.72551 6.6418 5.80311 6.56909C5.88072 6.49638 5.87153 6.49638 5.99691 6.49638C6.12228 6.49638 6.07652 6.20272 6.07652 6.20272C6.07652 6.20272 5.63688 5.6499 5.57727 5.6499Z" fill="#E8AA00"/>
<path fill-rule="evenodd" clip-rule="evenodd" d="M8.08569 5.6499C8.14529 5.6499 8.23705 5.69271 8.35866 5.74118C8.48028 5.78966 8.608 5.89431 8.48333 5.99914C8.35866 6.10396 8.18019 6.33403 8.18019 6.24801C8.18019 6.16199 7.96699 6.07859 7.96699 6.12029C7.96699 6.16199 8.03299 6.24801 7.85985 6.24801C7.68671 6.24801 7.5975 6.29916 7.78225 6.29916C7.96699 6.29916 7.98706 6.38368 8.10713 6.38368C8.22719 6.38368 8.48333 6.29853 8.48333 6.24801C8.48333 6.19749 8.335 6.49638 8.18019 6.49638C8.02538 6.49638 7.93746 6.6418 7.85985 6.56909C7.78225 6.49638 7.79143 6.49638 7.66606 6.49638C7.54068 6.49638 7.58644 6.20272 7.58644 6.20272C7.58644 6.20272 8.02609 5.6499 8.08569 5.6499Z" fill="#E8AA00"/>
<path fill-rule="evenodd" clip-rule="evenodd" d="M8.88248 6.25011C9.00708 6.54068 8.05213 7.62011 8.05213 7.62011H7.9452C7.90027 7.62011 7.8167 7.50955 7.71579 7.37605C7.64663 7.28456 7.56933 7.18229 7.49074 7.09746C7.3429 6.93788 7.42125 6.80381 7.49429 6.67884C7.51673 6.64045 7.53867 6.60292 7.55339 6.56576C7.58529 6.48528 7.58983 6.45317 7.59501 6.41649C7.60001 6.38111 7.60561 6.34148 7.63693 6.25011C7.68295 6.11583 7.84341 5.94257 7.95467 5.82244C7.99763 5.77605 8.03326 5.73758 8.05213 5.71234C8.1117 5.63265 8.0665 5.63311 7.94216 5.63438C7.9251 5.63455 7.90655 5.63474 7.88657 5.63474C7.72101 5.63474 7.40475 5.71234 7.31022 5.80296C7.21569 5.89358 7.11656 5.91291 6.97091 5.91291C6.82525 5.91291 6.91509 6.011 7.04774 6.07724C6.90492 6.10455 6.81335 6.34263 6.75956 6.55402C6.73021 6.34263 6.66547 6.10455 6.52264 6.07724C6.65529 6.011 6.74513 5.91291 6.59948 5.91291C6.45382 5.91291 6.3547 5.89358 6.26016 5.80296C6.16563 5.71234 5.84937 5.63474 5.68381 5.63474C5.66384 5.63474 5.64529 5.63455 5.62823 5.63438C5.50388 5.63311 5.45869 5.63265 5.51825 5.71234C5.53712 5.73758 5.57275 5.77605 5.61571 5.82244C5.72697 5.94257 5.88743 6.11583 5.93345 6.25011C5.96477 6.34148 5.97037 6.38111 5.97537 6.41649C5.98056 6.45317 5.9851 6.48528 6.01699 6.56576C6.03172 6.60292 6.05365 6.64045 6.07609 6.67884C6.14913 6.80381 6.22749 6.93788 6.07965 7.09746C6.00106 7.18229 5.92375 7.28456 5.8546 7.37605C5.75369 7.50955 5.67011 7.62011 5.62518 7.62011H5.51825C5.51825 7.62011 4.5633 6.54068 4.6879 6.25011C4.73606 6.13779 4.81375 6.03196 4.87803 5.94438C4.98006 5.80537 5.04835 5.71234 4.9113 5.71234C4.6879 5.71234 3.79736 6.27702 3.79736 7.55029C3.79736 8.82356 3.87962 9.54771 4.07057 10.055C4.20088 10.4012 4.08152 10.7375 3.99257 10.988C3.95117 11.1047 3.91636 11.2027 3.91636 11.2746C3.91636 11.501 4.26699 11.3026 4.26699 11.1609C4.26699 11.0935 4.315 11.1939 4.36535 11.2992C4.42087 11.4153 4.47924 11.5373 4.47924 11.447C4.47924 11.3505 4.53514 11.2487 4.58439 11.159C4.62316 11.0883 4.65781 11.0252 4.65781 10.9782C4.65781 10.9311 4.707 10.9329 4.76204 10.9348C4.83195 10.9373 4.9113 10.9401 4.9113 10.8437C4.9113 10.7786 4.93655 10.7656 4.96798 10.7494C5.01982 10.7228 5.08848 10.6874 5.08848 10.3957C5.08848 10.1795 5.13177 10.2561 5.18143 10.344C5.22713 10.4248 5.27823 10.5152 5.30593 10.3957C5.30863 10.3841 5.33731 10.3339 5.37277 10.2719C5.42439 10.1817 5.49035 10.0665 5.51145 10.0082C5.4464 10.2629 5.29034 10.5283 5.19123 10.6547C5.08848 10.7858 4.9113 11.0703 4.9113 11.0703C4.9113 11.0703 5.07654 11.1625 5.19123 11.0703C5.2553 11.0188 5.25962 11.0673 5.26434 11.12C5.26806 11.1618 5.27203 11.2062 5.30593 11.2062C5.32721 11.2062 5.34725 11.2097 5.3651 11.2128C5.3783 11.2151 5.39031 11.2172 5.40073 11.2175C5.36244 11.315 5.3281 11.4709 5.44329 11.3667C5.52555 11.2923 5.58323 11.2621 5.62144 11.2421C5.66567 11.219 5.68381 11.2095 5.68381 11.1609C5.68381 11.1124 5.70178 11.1288 5.72993 11.1545C5.75436 11.1769 5.78645 11.2062 5.82112 11.2062C5.8658 11.2062 5.8751 11.144 5.88862 11.0535C5.89769 10.9929 5.90866 10.9195 5.93345 10.8437C5.93923 10.826 5.94466 10.809 5.9498 10.7929C5.99968 10.6368 6.02294 10.564 6.07965 10.7609C6.10615 10.853 6.15295 10.9181 6.19371 10.9749C6.24917 11.0521 6.29343 11.1137 6.26016 11.2062C6.24714 11.2424 6.2308 11.2834 6.21331 11.3272C6.15327 11.4776 6.07965 11.662 6.07965 11.8073C6.07965 11.8936 6.00105 12.0113 5.92718 12.1219C5.84059 12.2515 5.7605 12.3715 5.82112 12.4198C5.93345 12.5093 5.79752 12.8107 5.68381 12.9653C5.5701 13.12 5.58891 13.3088 5.76118 13.3088C5.85546 13.3088 5.90662 13.343 5.95294 13.3739C5.99126 13.3996 6.02627 13.423 6.07965 13.423C6.19754 13.423 6.26016 13.3649 6.26016 13.3649C6.26016 13.3649 6.33294 13.4749 6.45382 13.4749C6.5747 13.4749 6.59948 13.3649 6.59948 13.3649L6.68898 13.4749L6.69592 12.9932V13.4749L6.97091 13.3649C6.97091 13.3649 6.99568 13.4749 7.11656 13.4749C7.23744 13.4749 7.31022 13.3649 7.31022 13.3649C7.31022 13.3649 7.37284 13.423 7.49074 13.423C7.54412 13.423 7.57913 13.3996 7.61745 13.3739C7.66377 13.343 7.71492 13.3088 7.8092 13.3088C7.98147 13.3088 8.00028 13.12 7.88657 12.9653C7.77286 12.8107 7.63693 12.5093 7.74926 12.4198C7.80988 12.3715 7.7298 12.2515 7.64321 12.1219C7.56934 12.0113 7.49074 11.8936 7.49074 11.8073C7.49074 11.662 7.41711 11.4776 7.35708 11.3272C7.33959 11.2834 7.32325 11.2424 7.31022 11.2062C7.27695 11.1137 7.32122 11.0521 7.37667 10.9749C7.41743 10.9181 7.46424 10.853 7.49074 10.7609C7.54744 10.564 7.57071 10.6368 7.62058 10.7929C7.62573 10.809 7.63115 10.826 7.63693 10.8437C7.66172 10.9195 7.67269 10.9929 7.68176 11.0535C7.69529 11.144 7.70459 11.2062 7.74926 11.2062C7.78393 11.2062 7.81603 11.1769 7.84045 11.1545C7.8686 11.1288 7.88657 11.1124 7.88657 11.1609C7.88657 11.2095 7.90472 11.219 7.94894 11.2421C7.98715 11.2621 8.04483 11.2923 8.1271 11.3667C8.24229 11.4709 8.20794 11.315 8.16965 11.2175C8.18007 11.2172 8.19208 11.2151 8.20528 11.2128C8.22313 11.2097 8.24317 11.2062 8.26446 11.2062C8.29835 11.2062 8.30232 11.1618 8.30605 11.12C8.31076 11.0673 8.31509 11.0188 8.37915 11.0703C8.49384 11.1625 8.65908 11.0703 8.65908 11.0703C8.65908 11.0703 8.4819 10.7858 8.37915 10.6547C8.28005 10.5283 8.12398 10.2629 8.05894 10.0082C8.08003 10.0665 8.146 10.1817 8.19761 10.2719C8.23307 10.3339 8.26176 10.3841 8.26446 10.3957C8.29216 10.5152 8.34325 10.4248 8.38896 10.344C8.43861 10.2561 8.4819 10.1795 8.4819 10.3957C8.4819 10.6874 8.55056 10.7228 8.6024 10.7494C8.63384 10.7656 8.65908 10.7786 8.65908 10.8437C8.65908 10.9401 8.73844 10.9373 8.80835 10.9348C8.86339 10.9329 8.91258 10.9311 8.91258 10.9782C8.91258 11.0252 8.94722 11.0883 8.98599 11.159C9.03524 11.2487 9.09114 11.3505 9.09114 11.447C9.09114 11.5373 9.14951 11.4153 9.20503 11.2992C9.25539 11.1939 9.3034 11.0935 9.3034 11.1609C9.3034 11.3026 9.65402 11.501 9.65402 11.2746C9.65402 11.2027 9.61921 11.1047 9.57781 10.988C9.48886 10.7375 9.3695 10.4012 9.49981 10.055C9.69076 9.54771 9.77302 8.82356 9.77302 7.55029C9.77302 6.27702 8.88248 5.71234 8.65908 5.71234C8.52204 5.71234 8.59032 5.80537 8.69235 5.94438C8.75664 6.03196 8.83432 6.13779 8.88248 6.25011ZM8.05213 9.98016C8.05427 9.9895 8.05654 9.99886 8.05894 10.0082C8.05457 9.99619 8.05213 9.98659 8.05213 9.98016ZM8.1271 11.1609C8.1271 11.1291 8.14895 11.1647 8.16965 11.2175C8.14333 11.2183 8.1271 11.2078 8.1271 11.1609ZM5.40073 11.2175C5.42705 11.2183 5.44329 11.2078 5.44329 11.1609C5.44329 11.1291 5.42143 11.1647 5.40073 11.2175ZM5.51145 10.0082C5.51581 9.99619 5.51825 9.98659 5.51825 9.98016C5.51611 9.9895 5.51384 9.99886 5.51145 10.0082Z" fill="#F7FCFF"/>
<path fill-rule="evenodd" clip-rule="evenodd" d="M5.11801 12.0012C5.11801 11.9134 5.34271 11.7097 5.34271 11.7097V11.7269C5.37424 11.7524 5.57506 11.918 5.57506 11.999C5.57506 12.0492 5.54906 12.122 5.5268 12.1843C5.51014 12.231 5.49558 12.2718 5.49558 12.2928C5.49558 12.307 5.50146 12.2968 5.51266 12.2775C5.54039 12.2296 5.60073 12.1255 5.68502 12.1951C5.79666 12.2873 5.79599 12.4233 5.79556 12.5095C5.79553 12.5147 5.79551 12.5196 5.79551 12.5244C5.79551 12.5512 5.79545 12.551 5.79187 12.5383C5.78417 12.5107 5.76011 12.4247 5.68502 12.4247C5.57506 12.4247 5.49558 12.5244 5.49558 12.5244V12.6944C5.49558 12.6944 5.50953 12.8348 5.57506 12.7646C5.6406 12.6944 5.65454 12.8512 5.57506 12.8512C5.53449 12.8512 5.49275 12.8943 5.45189 12.9365C5.41272 12.9769 5.37434 13.0165 5.33857 13.0165V13.0024C5.30468 12.9997 5.27676 12.9648 5.24828 12.9293C5.21738 12.8907 5.18581 12.8512 5.14523 12.8512C5.06575 12.8512 5.0797 12.6944 5.14523 12.7646C5.21077 12.8348 5.22471 12.6944 5.22471 12.6944V12.5244C5.22471 12.5244 5.14523 12.4247 5.03528 12.4247C4.96018 12.4247 4.93613 12.5107 4.92842 12.5383C4.92484 12.551 4.92479 12.5512 4.92479 12.5244C4.92479 12.5196 4.92476 12.5147 4.92474 12.5095C4.92431 12.4233 4.92363 12.2873 5.03528 12.1951C5.11956 12.1255 5.1799 12.2296 5.20764 12.2775C5.21883 12.2968 5.22471 12.307 5.22471 12.2928C5.22471 12.2718 5.20517 12.2314 5.1828 12.1852C5.15292 12.1235 5.11801 12.0514 5.11801 12.0012Z" fill="#E8AA00"/>
<path fill-rule="evenodd" clip-rule="evenodd" d="M8.10714 12.0012C8.10714 11.9134 8.33185 11.7097 8.33185 11.7097V11.7269C8.36337 11.7524 8.5642 11.918 8.5642 11.999C8.5642 12.0492 8.53819 12.122 8.51593 12.1843C8.49928 12.231 8.48472 12.2718 8.48472 12.2928C8.48472 12.307 8.4906 12.2968 8.50179 12.2775C8.52953 12.2296 8.58987 12.1255 8.67415 12.1951C8.7858 12.2873 8.78512 12.4233 8.78469 12.5095C8.78467 12.5147 8.78464 12.5196 8.78464 12.5244C8.78464 12.5512 8.78459 12.551 8.78101 12.5383C8.7733 12.5107 8.74925 12.4247 8.67415 12.4247C8.5642 12.4247 8.48472 12.5244 8.48472 12.5244V12.6944C8.48472 12.6944 8.49866 12.8348 8.5642 12.7646C8.62973 12.6944 8.64368 12.8512 8.5642 12.8512C8.52362 12.8512 8.48189 12.8943 8.44103 12.9365C8.40185 12.9769 8.36348 13.0165 8.32771 13.0165V13.0024C8.29382 12.9997 8.2659 12.9648 8.23742 12.9293C8.20651 12.8907 8.17494 12.8512 8.13437 12.8512C8.05489 12.8512 8.06883 12.6944 8.13437 12.7646C8.1999 12.8348 8.21385 12.6944 8.21385 12.6944V12.5244C8.21385 12.5244 8.13437 12.4247 8.02441 12.4247C7.94932 12.4247 7.92526 12.5107 7.91756 12.5383C7.91398 12.551 7.91392 12.5512 7.91392 12.5244C7.91392 12.5196 7.9139 12.5147 7.91387 12.5095C7.91344 12.4233 7.91277 12.2873 8.02441 12.1951C8.1087 12.1255 8.16904 12.2296 8.19677 12.2775C8.20797 12.2968 8.21385 12.307 8.21385 12.2928C8.21385 12.2718 8.1943 12.2314 8.17194 12.1852C8.14205 12.1235 8.10714 12.0514 8.10714 12.0012Z" fill="#E8AA00"/>
<path fill-rule="evenodd" clip-rule="evenodd" d="M4.89421 11.4745C5.09451 11.4745 5.135 11.0936 5.135 11.0936C5.135 11.0936 5.30305 10.9194 5.30305 11.0479C5.30305 11.1164 5.25527 11.2026 5.21893 11.2683C5.18712 11.3257 5.16407 11.3674 5.18951 11.3674H5.46688C5.69557 11.3674 5.42672 11.4745 5.30305 11.5223C5.24695 11.544 5.20717 11.5553 5.169 11.5662C5.12304 11.5793 5.07942 11.5917 5.01248 11.6207C4.88996 11.6738 4.83739 12.0233 4.89421 12.1356C4.95103 12.2478 4.83739 12.2004 4.79043 12.1356C4.76434 12.0995 4.74529 12.1491 4.71872 12.2183C4.69747 12.2737 4.67141 12.3416 4.63308 12.3882C4.55905 12.4782 4.55984 12.3987 4.56155 12.2274C4.56183 12.1992 4.56214 12.1684 4.56214 12.1356C4.56214 11.9838 4.59243 11.9825 4.63748 11.9804C4.66138 11.9794 4.68943 11.9781 4.71933 11.9541C4.78388 11.9023 4.79163 11.8756 4.81114 11.8085C4.8177 11.7859 4.82558 11.7588 4.83739 11.7246C4.88436 11.5887 4.63308 11.8036 4.56214 11.9053C4.51894 11.9673 4.48885 11.9741 4.44385 11.9842C4.41494 11.9907 4.37988 11.9985 4.33124 12.0233C4.25218 12.0636 4.27363 11.9845 4.29976 11.8881C4.31473 11.8328 4.33124 11.7719 4.33124 11.7246C4.33124 11.643 4.38034 11.6639 4.44326 11.6908C4.48048 11.7067 4.52254 11.7246 4.56214 11.7246C4.66332 11.7246 4.71558 11.6819 4.78008 11.6291C4.78349 11.6263 4.78694 11.6235 4.79043 11.6207C4.84218 11.5786 4.72945 11.5913 4.59519 11.6064C4.54927 11.6116 4.50084 11.617 4.45561 11.6207C4.35237 11.629 4.34547 11.6228 4.31969 11.5996C4.30116 11.5829 4.27286 11.5575 4.19195 11.5223C3.99853 11.4382 4.31629 11.4745 4.45561 11.5223C4.53308 11.5489 4.59808 11.5311 4.67496 11.5101C4.73634 11.4934 4.80529 11.4745 4.89421 11.4745ZM8.77852 11.4745C8.57823 11.4745 8.53773 11.0936 8.53773 11.0936C8.53773 11.0936 8.36968 10.9194 8.36968 11.0479C8.36968 11.1164 8.41746 11.2026 8.45381 11.2683C8.48562 11.3257 8.50867 11.3674 8.48322 11.3674H8.20586C7.97717 11.3674 8.24602 11.4745 8.36968 11.5223C8.42578 11.544 8.46557 11.5553 8.50374 11.5662C8.5497 11.5793 8.59332 11.5917 8.66026 11.6207C8.78278 11.6738 8.83534 12.0233 8.77852 12.1356C8.7217 12.2478 8.83534 12.2004 8.88231 12.1356C8.9084 12.0995 8.92745 12.1491 8.95401 12.2183C8.97526 12.2737 9.00132 12.3416 9.03965 12.3882C9.11369 12.4782 9.11289 12.3986 9.11119 12.2274C9.1109 12.1992 9.1106 12.1684 9.1106 12.1356C9.1106 11.9838 9.08031 11.9825 9.03525 11.9804C9.01136 11.9794 8.9833 11.9781 8.95341 11.9541C8.88885 11.9023 8.8811 11.8756 8.86159 11.8085C8.85504 11.7859 8.84715 11.7588 8.83534 11.7246C8.78838 11.5887 9.03965 11.8036 9.1106 11.9053C9.1538 11.9673 9.18389 11.9741 9.22889 11.9842C9.2578 11.9907 9.29286 11.9985 9.3415 12.0233C9.42056 12.0636 9.3991 11.9845 9.37298 11.8881C9.35801 11.8328 9.3415 11.7719 9.3415 11.7246C9.3415 11.643 9.2924 11.6639 9.22947 11.6908C9.19225 11.7067 9.15019 11.7246 9.1106 11.7246C9.00941 11.7246 8.95716 11.6819 8.89265 11.6291C8.88924 11.6263 8.8858 11.6235 8.88231 11.6207C8.83055 11.5786 8.94329 11.5913 9.07755 11.6064C9.12347 11.6116 9.1719 11.617 9.21713 11.6207C9.32037 11.629 9.32727 11.6228 9.35304 11.5996C9.37158 11.5829 9.39988 11.5575 9.48079 11.5223C9.67421 11.4382 9.35645 11.4745 9.21713 11.5223C9.13966 11.5489 9.07466 11.5311 8.99778 11.5101C8.9364 11.4934 8.86744 11.4745 8.77852 11.4745Z" fill="#E8AA00"/>
<path fill-rule="evenodd" clip-rule="evenodd" d="M5.65436 7.71332H8.07655V9.92227C8.07655 9.92227 7.81653 11.0226 6.86546 11.0226C5.91438 11.0226 5.65436 9.92227 5.65436 9.92227V7.71332Z" fill="#C51918"/>
<path fill-rule="evenodd" clip-rule="evenodd" d="M7.19202 7.68121H6.55796V8.94933H5.65216V9.40223H6.55796V11.0327H7.19202V9.40223H8.09781V8.94933H7.19202V7.68121Z" fill="#F7FCFF"/>
<path fill-rule="evenodd" clip-rule="evenodd" d="M6.063 8.31807C6.1238 8.31807 6.1528 8.26679 6.12065 8.22164C6.10374 8.1979 6.06871 8.19103 6.04241 8.20628C6.04005 8.20765 6.03784 8.20915 6.03579 8.21077C6.0261 8.20834 6.01427 8.20505 6.00062 8.20088C5.98838 8.19713 5.97508 8.19728 5.96295 8.20129C5.94824 8.20616 5.9399 8.1911 5.94699 8.09741C5.95376 8.07128 5.98957 8.05512 6.07302 8.05512C6.2255 8.05512 6.28815 8.07143 6.28815 8.08577V8.30984L6.21415 8.37662C6.17849 8.4088 6.20375 8.46383 6.25418 8.46383H6.28815V8.6354C6.24162 8.67167 6.20003 8.68863 6.1636 8.68863C6.0272 8.68863 5.95056 8.6378 5.94845 8.57775C5.94903 8.56015 5.94983 8.54716 5.9504 8.53833L5.96216 8.54218C5.97464 8.54651 5.98841 8.5467 6.00104 8.54274L6.00623 8.54103C6.01111 8.53938 6.01394 8.53843 6.01553 8.53943C6.01772 8.54083 6.01751 8.546 6.017 8.55835L6.01642 8.57512C6.01574 8.60332 6.04053 8.62669 6.07179 8.62731C6.10305 8.62792 6.12894 8.60555 6.12962 8.57734C6.13201 8.47838 6.07651 8.42148 5.98437 8.44083C5.93 8.42454 5.89196 8.42643 5.8623 8.45996C5.8405 8.48458 5.83759 8.5048 5.83528 8.57777C5.83947 8.70314 5.97165 8.7908 6.1636 8.7908C6.2376 8.7908 6.3109 8.75773 6.38384 8.69494C6.39504 8.6853 6.40137 8.67194 6.40137 8.65797V8.41274C6.40137 8.39622 6.39268 8.38152 6.37919 8.37218L6.38479 8.36713C6.39541 8.35755 6.40137 8.34455 6.40137 8.331V8.08577C6.40137 7.98107 6.29337 7.95294 6.07302 7.95294C5.94316 7.95294 5.85821 7.99128 5.83541 8.08196C5.82256 8.23688 5.86846 8.32931 5.98193 8.30289C6.01704 8.31296 6.04303 8.31807 6.063 8.31807ZM7.6539 8.22164C7.62174 8.26679 7.65074 8.31807 7.71154 8.31807C7.73151 8.31807 7.7575 8.31296 7.79261 8.30289C7.90608 8.32931 7.95198 8.23688 7.93913 8.08196C7.91633 7.99128 7.83138 7.95294 7.70152 7.95294C7.48117 7.95294 7.37317 7.98107 7.37317 8.08577V8.331C7.37317 8.34455 7.37913 8.35755 7.38975 8.36713L7.39535 8.37218C7.38186 8.38152 7.37317 8.39622 7.37317 8.41274V8.65797C7.37317 8.67194 7.3795 8.6853 7.3907 8.69494C7.46364 8.75773 7.53695 8.7908 7.61094 8.7908C7.80289 8.7908 7.93507 8.70314 7.93927 8.57777C7.93696 8.5048 7.93404 8.48458 7.91225 8.45996C7.88258 8.42643 7.84454 8.42454 7.79017 8.44083C7.69803 8.42148 7.64253 8.47838 7.64492 8.57734C7.6456 8.60555 7.6715 8.62792 7.70275 8.62731C7.73401 8.62669 7.7588 8.60332 7.75812 8.57512L7.75754 8.55835V8.55835C7.75703 8.546 7.75682 8.54083 7.75902 8.53943C7.7606 8.53843 7.76343 8.53938 7.76831 8.54103L7.7735 8.54274C7.78613 8.5467 7.7999 8.54651 7.81239 8.54218L7.82414 8.53833C7.82472 8.54716 7.82551 8.56015 7.82609 8.57775C7.82398 8.6378 7.74734 8.68863 7.61094 8.68863C7.57451 8.68863 7.53292 8.67167 7.48639 8.6354V8.46383H7.52036C7.5708 8.46383 7.59605 8.4088 7.56039 8.37662L7.48639 8.30984V8.08577C7.48639 8.07143 7.54904 8.05512 7.70152 8.05512C7.78497 8.05512 7.82079 8.07128 7.82755 8.09741C7.83464 8.1911 7.8263 8.20616 7.81159 8.20129C7.79946 8.19728 7.78616 8.19713 7.77392 8.20088C7.76027 8.20505 7.74844 8.20834 7.73876 8.21077C7.7367 8.20915 7.73449 8.20765 7.73213 8.20628C7.70583 8.19103 7.6708 8.1979 7.6539 8.22164ZM7.84468 8.53377L7.84226 8.53369L7.84387 8.53383L7.84468 8.53377ZM7.71154 9.94851C7.65074 9.94851 7.62174 9.89722 7.6539 9.85207C7.6708 9.82833 7.70583 9.82146 7.73213 9.83672C7.73449 9.83809 7.7367 9.83959 7.73876 9.8412C7.74844 9.83878 7.76027 9.83549 7.77392 9.83131C7.78616 9.82756 7.79946 9.82771 7.81159 9.83173C7.8263 9.8366 7.83464 9.82154 7.82755 9.72784C7.82079 9.70172 7.78497 9.68555 7.70152 9.68555C7.54904 9.68555 7.48639 9.70187 7.48639 9.71621V9.94027L7.56039 10.0071C7.59605 10.0392 7.5708 10.0943 7.52036 10.0943H7.48639V10.2658C7.53292 10.3021 7.57451 10.3191 7.61094 10.3191C7.74734 10.3191 7.82398 10.2682 7.82609 10.2082C7.82551 10.1906 7.82472 10.1776 7.82414 10.1688L7.81239 10.1726C7.7999 10.1769 7.78613 10.1771 7.7735 10.1732L7.76831 10.1715L7.76831 10.1715C7.76343 10.1698 7.7606 10.1689 7.75902 10.1699C7.75682 10.1713 7.75703 10.1764 7.75754 10.1888L7.75812 10.2056C7.7588 10.2338 7.73401 10.2571 7.70275 10.2577C7.6715 10.2584 7.6456 10.236 7.64492 10.2078C7.64253 10.1088 7.69803 10.0519 7.79017 10.0713C7.84454 10.055 7.88258 10.0569 7.91225 10.0904C7.93404 10.115 7.93696 10.1352 7.93927 10.2082C7.93507 10.3336 7.80289 10.4212 7.61094 10.4212C7.53695 10.4212 7.46364 10.3882 7.3907 10.3254C7.3795 10.3157 7.37317 10.3024 7.37317 10.2884V10.0432C7.37317 10.0267 7.38186 10.012 7.39535 10.0026L7.38975 9.99756C7.37913 9.98798 7.37317 9.97499 7.37317 9.96144V9.71621C7.37317 9.6115 7.48117 9.58338 7.70152 9.58338C7.83138 9.58338 7.91633 9.62171 7.93913 9.7124C7.95198 9.86732 7.90608 9.95975 7.79261 9.93333C7.7575 9.9434 7.73151 9.94851 7.71154 9.94851ZM6.063 9.94851C6.1238 9.94851 6.1528 9.89722 6.12065 9.85207C6.10374 9.82833 6.06871 9.82146 6.04241 9.83672C6.04005 9.83809 6.03784 9.83959 6.03579 9.8412C6.0261 9.83878 6.01427 9.83549 6.00062 9.83131C5.98838 9.82756 5.97508 9.82771 5.96295 9.83173C5.94824 9.8366 5.9399 9.82154 5.94699 9.72784C5.95376 9.70172 5.98957 9.68555 6.07302 9.68555C6.2255 9.68555 6.28815 9.70187 6.28815 9.71621V9.94027L6.21415 10.0071C6.17849 10.0392 6.20375 10.0943 6.25418 10.0943H6.28815V10.2658C6.24162 10.3021 6.20003 10.3191 6.1636 10.3191C6.0272 10.3191 5.95056 10.2682 5.94845 10.2082C5.94903 10.1906 5.94983 10.1776 5.9504 10.1688L5.96216 10.1726C5.97464 10.1769 5.98841 10.1771 6.00104 10.1732C6.00299 10.1726 6.00471 10.172 6.00623 10.1715C6.01111 10.1698 6.01394 10.1689 6.01553 10.1699C6.01772 10.1713 6.01751 10.1764 6.017 10.1888C6.01681 10.1933 6.01659 10.1989 6.01642 10.2056C6.01574 10.2338 6.04053 10.2571 6.07179 10.2577C6.10305 10.2584 6.12894 10.236 6.12962 10.2078C6.13201 10.1088 6.07651 10.0519 5.98437 10.0713C5.93 10.055 5.89196 10.0569 5.8623 10.0904C5.8405 10.115 5.83759 10.1352 5.83528 10.2082C5.83947 10.3336 5.97165 10.4212 6.1636 10.4212C6.2376 10.4212 6.3109 10.3882 6.38384 10.3254C6.39504 10.3157 6.40137 10.3024 6.40137 10.2884V10.0432C6.40137 10.0267 6.39268 10.012 6.37919 10.0026L6.38479 9.99756C6.39541 9.98798 6.40137 9.97499 6.40137 9.96144V9.71621C6.40137 9.6115 6.29337 9.58338 6.07302 9.58338C5.94316 9.58338 5.85821 9.62171 5.83541 9.7124C5.82256 9.86732 5.86846 9.95975 5.98193 9.93333C6.01704 9.9434 6.04303 9.94851 6.063 9.94851Z" fill="#F7FCFF"/>
</g>
</g>
<defs>
<clipPath id="clip0_3123_1072">
<rect width="20" height="15" rx="2" fill="white"/>
</clipPath>
</defs>
</svg>
