<svg width="20" height="15" viewBox="0 0 20 15" fill="none" xmlns="http://www.w3.org/2000/svg">
<g clip-path="url(#clip0_3123_1224)">
<rect width="20" height="15" rx="2" fill="white"/>
<path fill-rule="evenodd" clip-rule="evenodd" d="M0 0V15H20V0H0Z" fill="#F7FCFF"/>
<mask id="mask0_3123_1224" style="mask-type:luminance" maskUnits="userSpaceOnUse" x="0" y="0" width="20" height="15">
<path fill-rule="evenodd" clip-rule="evenodd" d="M0 0V15H20V0H0Z" fill="white"/>
</mask>
<g mask="url(#mask0_3123_1224)">
<path fill-rule="evenodd" clip-rule="evenodd" d="M0 0V7.5H20V0H0Z" fill="#E31D1C"/>
<path fill-rule="evenodd" clip-rule="evenodd" d="M5.54277 6.61847C5.54277 6.61847 3.77671 5.90817 3.77671 3.98375C3.77671 2.05932 5.54277 1.37196 5.54277 1.37196C4.68443 1.15467 2.40686 1.34902 2.40686 3.98375C2.40686 6.61847 4.65002 7.11535 5.54277 6.61847ZM5.99525 6.30038L6.50189 5.99452L7.01969 6.30038L6.89297 5.70353L7.3139 5.23269H6.74359L6.50189 4.67538L6.26019 5.23269L5.6889 5.25684L6.11081 5.70353L5.99525 6.30038ZM8.34333 5.96037L7.83669 6.26623L7.95225 5.66937L7.53034 5.22269L8.10163 5.19854L8.34333 4.64123L8.58503 5.19854H9.15534L8.7344 5.66937L8.86113 6.26623L8.34333 5.96037ZM7.05448 3.60616L7.56112 3.3003L8.07893 3.60616L7.9522 3.00931L8.37314 2.53847H7.80282L7.56112 1.98116L7.31943 2.53847L6.74814 2.56262L7.17005 3.00931L7.05448 3.60616ZM5.85613 4.51415L5.34949 4.82001L5.46505 4.22316L5.04314 3.77647L5.61443 3.75232L5.85613 3.19501L6.09783 3.75232H6.66814L6.24721 4.22316L6.37394 4.82001L5.85613 4.51415ZM8.6985 4.7926L9.20514 4.48674L9.72294 4.7926L9.59622 4.19575L10.0172 3.72491H9.44684L9.20514 3.1676L8.96344 3.72491L8.39215 3.74906L8.81406 4.19575L8.6985 4.7926Z" fill="#F1F9FF"/>
</g>
</g>
<defs>
<clipPath id="clip0_3123_1224">
<rect width="20" height="15" rx="2" fill="white"/>
</clipPath>
</defs>
</svg>
