<svg width="20" height="15" viewBox="0 0 20 15" fill="none" xmlns="http://www.w3.org/2000/svg">
<g clip-path="url(#clip0_3123_1349)">
<rect width="20" height="15" rx="2" fill="white"/>
<path fill-rule="evenodd" clip-rule="evenodd" d="M0 0V15H20V0H0Z" fill="#00B4FF"/>
<g clip-path="url(#clip1_3123_1349)">
<rect width="11" height="9" fill="#2E42A5"/>
<path d="M-1.25269 8.12488L1.22291 9.21063L11.3062 1.18046L12.612 -0.432999L9.96468 -0.795888L5.85197 2.66454L2.54165 4.99607L-1.25269 8.12488Z" fill="#F7FCFF"/>
<path d="M-0.913757 8.88561L0.347444 9.51569L12.1431 -0.582886H10.3722L-0.913757 8.88561Z" fill="#F50100"/>
<path d="M12.5027 8.1249L10.3056 9.5206L-0.0561562 1.18047L-1.36198 -0.432984L1.28532 -0.795875L5.39803 2.66456L8.70835 4.99608L12.5027 8.1249Z" fill="#F7FCFF"/>
<path d="M12.4182 8.67082L11.157 9.3009L6.13431 4.97718L4.64518 4.4941L-1.48763 -0.427482H0.283246L6.41261 4.37728L8.04071 4.95655L12.4182 8.67082Z" fill="#F50100"/>
<path fill-rule="evenodd" clip-rule="evenodd" d="M6 0H5V4H0V5H5V9H6V5H11V4H6V0Z" fill="#F50100"/>
<path fill-rule="evenodd" clip-rule="evenodd" d="M4.0625 0H6.9375V3.0625L11 3V5.875L6.9375 5.9375V9H4.0625V5.9375L0 5.875V3L4.0625 3.0625V0ZM5 4H0V5H5V9H6V5H11V4H6V0H5V4Z" fill="#F7FCFF"/>
</g>
<path fill-rule="evenodd" clip-rule="evenodd" d="M16.7854 6.67803L17.1649 5.97463L17.9975 5.94975L17.3529 5.41139L17.5751 4.68476L17.0194 5.01865L16.3169 4.59262L16.3849 5.39991L15.7555 5.77811L16.5725 5.88025L16.7854 6.67803ZM14.6649 7.22463L14.2854 7.92803L14.0725 7.13025L13.2555 7.02811L13.8849 6.64991L13.8169 5.84262L14.5194 6.26865L15.0751 5.93476L14.8529 6.66139L15.4975 7.19975L14.6649 7.22463ZM13.0354 9.17803L13.4149 8.47463L14.2475 8.44975L13.6029 7.91139L13.8251 7.18476L13.2694 7.51866L12.5669 7.09262L12.6349 7.89991L12.0055 8.27811L12.8225 8.38025L13.0354 9.17803ZM10.5354 11.678L10.9149 10.9746L11.7475 10.9498L11.1029 10.4114L11.3251 9.68476L10.7694 10.0187L10.0669 9.59262L10.1349 10.3999L9.50547 10.7781L10.3225 10.8802L10.5354 11.678ZM8.10881 13.5847L7.42124 13.9922L7.64966 13.1988L7.00189 12.6904H7.7362L8.09369 11.9634L8.47645 12.6904H9.12474L8.56 13.1988L8.83527 13.9922L8.10881 13.5847ZM10.9149 13.4746L10.5354 14.178L10.3225 13.3802L9.50547 13.2781L10.1349 12.8999L10.0669 12.0926L10.7694 12.5187L11.3251 12.1848L11.1029 12.9114L11.7475 13.4498L10.9149 13.4746ZM13.4149 12.2246L13.0354 12.928L12.8225 12.1302L12.0055 12.0281L12.6349 11.6499L12.5669 10.8426L13.2694 11.2687L13.8251 10.9348L13.6029 11.6614L14.2475 12.1998L13.4149 12.2246ZM15.9149 10.9746L15.5354 11.678L15.3225 10.8802L14.5055 10.7781L15.1349 10.3999L15.0669 9.59262L15.7694 10.0187L16.3251 9.68476L16.1029 10.4114L16.7475 10.9498L15.9149 10.9746ZM16.7854 10.428L17.1649 9.72463L17.9975 9.69975L17.3529 9.16139L17.5751 8.43476L17.0194 8.76865L16.3169 8.34262L16.3849 9.14991L15.7555 9.52811L16.5725 9.63025L16.7854 10.428Z" fill="#FFD018"/>
</g>
<defs>
<clipPath id="clip0_3123_1349">
<rect width="20" height="15" rx="2" fill="white"/>
</clipPath>
<clipPath id="clip1_3123_1349">
<rect width="11" height="9" fill="white"/>
</clipPath>
</defs>
</svg>
