<svg width="20" height="15" viewBox="0 0 20 15" fill="none" xmlns="http://www.w3.org/2000/svg">
<g clip-path="url(#clip0_3124_1397)">
<rect width="20" height="15" rx="2" fill="white"/>
<path fill-rule="evenodd" clip-rule="evenodd" d="M0 0H20V15H0V0Z" fill="#E31D1C"/>
<path fill-rule="evenodd" clip-rule="evenodd" d="M0 1.25V2.5H20V1.25H0ZM0 3.75V5H20V3.75H0ZM0 7.5V6.25H20V7.5H0ZM0 8.75V10H20V8.75H0ZM0 12.5V11.25H20V12.5H0ZM0 15V13.75H20V15H0Z" fill="#F7FCFF"/>
<rect width="11.25" height="8.75" fill="#2E42A5"/>
<path fill-rule="evenodd" clip-rule="evenodd" d="M1.3 2.71723L1.9624 2.25582L2.47623 2.62573H2.1853L2.77364 3.1461L2.57492 3.87573H2.26369L1.96148 3.20561L1.70375 3.87573H0.935303L1.52364 4.3961L1.3 5.21723L1.9624 4.75582L2.47623 5.12573H2.1853L2.77364 5.6461L2.57492 6.37573H2.26369L1.96148 5.70561L1.70375 6.37573H0.935303L1.52364 6.8961L1.3 7.71723L1.9624 7.25582L2.60332 7.71723L2.40406 6.8961L2.91877 6.37573H2.68136L3.2124 6.00582L3.72623 6.37573H3.4353L4.02364 6.8961L3.8 7.71723L4.4624 7.25582L5.10332 7.71723L4.90406 6.8961L5.41877 6.37573H5.18136L5.7124 6.00582L6.22623 6.37573H5.9353L6.52364 6.8961L6.3 7.71723L6.9624 7.25582L7.60332 7.71723L7.40406 6.8961L7.91877 6.37573H7.68136L8.2124 6.00582L8.72623 6.37573H8.4353L9.02364 6.8961L8.8 7.71723L9.4624 7.25582L10.1033 7.71723L9.90406 6.8961L10.4188 6.37573H9.76369L9.46148 5.70561L9.20375 6.37573H8.83112L8.65406 5.6461L9.16877 5.12573H8.93136L9.4624 4.75582L10.1033 5.21723L9.90406 4.3961L10.4188 3.87573H9.76369L9.46148 3.20561L9.20375 3.87573H8.83112L8.65406 3.1461L9.16877 2.62573H8.93136L9.4624 2.25582L10.1033 2.71723L9.90406 1.8961L10.4188 1.37573H9.76369L9.46148 0.705612L9.20375 1.37573H8.4353L9.02364 1.8961L8.82492 2.62573H8.51369L8.21148 1.95561L7.95375 2.62573H7.58112L7.40406 1.8961L7.91877 1.37573H7.26369L6.96148 0.705612L6.70375 1.37573H5.9353L6.52364 1.8961L6.32492 2.62573H6.01369L5.71148 1.95561L5.45375 2.62573H5.08112L4.90406 1.8961L5.41877 1.37573H4.76369L4.46148 0.705612L4.20375 1.37573H3.4353L4.02364 1.8961L3.82492 2.62573H3.51369L3.21148 1.95561L2.95375 2.62573H2.58112L2.40406 1.8961L2.91877 1.37573H2.26369L1.96148 0.705612L1.70375 1.37573H0.935303L1.52364 1.8961L1.3 2.71723ZM8.82492 5.12573L9.02364 4.3961L8.4353 3.87573H8.72623L8.2124 3.50582L7.68136 3.87573H7.91877L7.40406 4.3961L7.58112 5.12573H7.95375L8.21148 4.45561L8.51369 5.12573H8.82492ZM7.47623 5.12573L6.9624 4.75582L6.43136 5.12573H6.66877L6.15406 5.6461L6.33112 6.37573H6.70375L6.96148 5.70561L7.26369 6.37573H7.57492L7.77364 5.6461L7.1853 5.12573H7.47623ZM5.27364 5.6461L5.07492 6.37573H4.76369L4.46148 5.70561L4.20375 6.37573H3.83112L3.65406 5.6461L4.16877 5.12573H3.93136L4.4624 4.75582L4.97623 5.12573H4.6853L5.27364 5.6461ZM5.45375 5.12573H5.08112L4.90406 4.3961L5.41877 3.87573H5.18136L5.7124 3.50582L6.22623 3.87573H5.9353L6.52364 4.3961L6.32492 5.12573H6.01369L5.71148 4.45561L5.45375 5.12573ZM3.82492 5.12573L4.02364 4.3961L3.4353 3.87573H3.72623L3.2124 3.50582L2.68136 3.87573H2.91877L2.40406 4.3961L2.58112 5.12573H2.95375L3.21148 4.45561L3.51369 5.12573H3.82492ZM7.77364 3.1461L7.57492 3.87573H7.26369L6.96148 3.20561L6.70375 3.87573H6.33112L6.15406 3.1461L6.66877 2.62573H6.43136L6.9624 2.25582L7.47623 2.62573H7.1853L7.77364 3.1461ZM4.97623 2.62573L4.4624 2.25582L3.93136 2.62573H4.16877L3.65406 3.1461L3.83112 3.87573H4.20375L4.46148 3.20561L4.76369 3.87573H5.07492L5.27364 3.1461L4.6853 2.62573H4.97623Z" fill="#F7FCFF"/>
</g>
<defs>
<clipPath id="clip0_3124_1397">
<rect width="20" height="15" rx="2" fill="white"/>
</clipPath>
</defs>
</svg>
