<svg width="20" height="15" viewBox="0 0 20 15" fill="none" xmlns="http://www.w3.org/2000/svg">
<g clip-path="url(#clip0_3124_1441)">
<rect width="20" height="15" rx="2" fill="white"/>
<path fill-rule="evenodd" clip-rule="evenodd" d="M0 10H20V15H0V10Z" fill="#14DC5A"/>
<path fill-rule="evenodd" clip-rule="evenodd" d="M0 0H20V6.25H0V0Z" fill="#0099B5"/>
<path d="M-1.25 5.78125H-1.71875V6.25V10V10.4688H-1.25H21.25H21.7188V10V6.25V5.78125H21.25H-1.25Z" fill="#F7FCFF" stroke="#C51918" stroke-width="0.9375"/>
<path fill-rule="evenodd" clip-rule="evenodd" d="M10.4546 1.50057L9.84042 1.84899L10.0158 1.14086L9.42749 0.620483H10.1959L10.4537 -0.0496368L10.7559 0.620483H11.411L10.8962 1.14086L11.1437 1.84899L10.4546 1.50057ZM7.30596 3.42205L7.92014 3.07362L8.60928 3.42205L8.36179 2.71391L8.8765 2.19353H8.22142L7.91921 1.52341L7.66148 2.19353H6.89304L7.48137 2.71391L7.30596 3.42205ZM5.61034 4.72074L4.99616 5.06916L5.17157 4.36102L4.58324 3.84065H5.35168L5.60941 3.17053L5.91162 3.84065H6.5667L6.05199 4.36102L6.29948 5.06916L5.61034 4.72074ZM7.95551 4.72345L7.34133 5.07188L7.51674 4.36374L6.92841 3.84337H7.69685L7.95458 3.17325L8.25679 3.84337H8.91187L8.39716 4.36374L8.64465 5.07188L7.95551 4.72345ZM10.4555 4.72345L9.84133 5.07188L10.0167 4.36374L9.4284 3.84337H10.1969L10.4546 3.17325L10.7568 3.84337H11.4119L10.8972 4.36374L11.1446 5.07188L10.4555 4.72345ZM9.80596 3.42205L10.4201 3.07362L11.1093 3.42205L10.8618 2.71391L11.3765 2.19353H10.7214L10.4192 1.52341L10.1615 2.19353H9.39304L9.98137 2.71391L9.80596 3.42205ZM12.3413 5.07188L12.9555 4.72345L13.6446 5.07188L13.3972 4.36374L13.9119 3.84337H13.2568L12.9546 3.17325L12.6969 3.84337H11.9284L12.5167 4.36374L12.3413 5.07188ZM12.9201 3.07362L12.306 3.42205L12.4814 2.71391L11.893 2.19353H12.6615L12.9192 1.52341L13.2214 2.19353H13.8765L13.3618 2.71391L13.6093 3.42205L12.9201 3.07362ZM12.3404 1.84899L12.9546 1.50057L13.6437 1.84899L13.3962 1.14086L13.911 0.620483H13.2559L12.9537 -0.0496368L12.6959 0.620483H11.9275L12.5158 1.14086L12.3404 1.84899ZM15.4555 4.72345L14.8413 5.07188L15.0167 4.36374L14.4284 3.84337H15.1969L15.4546 3.17325L15.7568 3.84337H16.4119L15.8972 4.36374L16.1446 5.07188L15.4555 4.72345ZM14.806 3.42205L15.4201 3.07362L16.1093 3.42205L15.8618 2.71391L16.3765 2.19353H15.7214L15.4192 1.52341L15.1615 2.19353H14.393L14.9814 2.71391L14.806 3.42205ZM15.4546 1.50057L14.8404 1.84899L15.0158 1.14086L14.4275 0.620483H15.1959L15.4537 -0.0496368L15.7559 0.620483H16.411L15.8962 1.14086L16.1437 1.84899L15.4546 1.50057ZM3.67807 5.15038C3.67807 5.15038 2.16816 4.74086 2.19659 3.22619C2.22503 1.71151 3.75 1.31825 3.75 1.31825C3.12689 1.08229 1.28447 1.39892 1.25046 3.21083C1.21644 5.02274 3.09746 5.37969 3.67807 5.15038Z" fill="#F7FCFF"/>
</g>
<defs>
<clipPath id="clip0_3124_1441">
<rect width="20" height="15" rx="2" fill="white"/>
</clipPath>
</defs>
</svg>
