<svg width="20" height="15" viewBox="0 0 20 15" fill="none" xmlns="http://www.w3.org/2000/svg">
<g clip-path="url(#clip0_3124_1462)">
<rect width="20" height="15" rx="2" fill="white"/>
<path fill-rule="evenodd" clip-rule="evenodd" d="M0 0V15H20V0H0Z" fill="#2E42A5"/>
<mask id="mask0_3124_1462" style="mask-type:luminance" maskUnits="userSpaceOnUse" x="0" y="0" width="20" height="15">
<path fill-rule="evenodd" clip-rule="evenodd" d="M0 0V15H20V0H0Z" fill="white"/>
</mask>
<g mask="url(#mask0_3124_1462)">
<path fill-rule="evenodd" clip-rule="evenodd" d="M0 0V5H20V0H0Z" fill="#FECA00"/>
<path fill-rule="evenodd" clip-rule="evenodd" d="M0 10V15H20V10H0Z" fill="#E31D1C"/>
<path fill-rule="evenodd" clip-rule="evenodd" d="M7.96047 7.41215L8.57465 7.06372L9.26379 7.41215L9.0163 6.70401L9.53102 6.18364H8.87594L8.57373 5.51352L8.316 6.18364H7.54755L8.12536 6.6947H7.47734L7.17513 6.02458L6.9174 6.6947H6.14895L6.73729 7.21508L6.62484 7.66903H6.13448L5.83227 6.99891L5.57454 7.66903H4.8061L5.39443 8.18941L5.28562 8.62868H5.07094L4.76873 7.95856L4.511 8.62868H3.74255L4.33089 9.14906L4.15548 9.8572L4.76966 9.50877L5.45879 9.8572L5.21131 9.14906L5.72602 8.62868H5.69295L5.8332 8.54912L6.52234 8.89755L6.27485 8.18941L6.5698 7.89121L6.56188 7.92322L7.17605 7.57479L7.86519 7.92322L7.61771 7.21508L8.12913 6.69803L8.13589 6.70401L7.96047 7.41215Z" fill="#F7FCFF"/>
<path fill-rule="evenodd" clip-rule="evenodd" d="M12.0143 7.38475L11.4001 7.03632L10.711 7.38475L10.9585 6.67661L10.4438 6.15623H11.0989L11.4011 5.48611L11.6588 6.15623H12.4272L11.8494 6.6673H12.5005L12.8027 5.99718L13.0604 6.6673H13.8289L13.2406 7.18767L13.353 7.64163H13.8434L14.1456 6.97151L14.4033 7.64163H15.1717L14.5834 8.162L14.6922 8.60128H14.9069L15.2091 7.93116L15.4668 8.60128H16.2353L15.647 9.12165L15.8224 9.82979L15.2082 9.48136L14.519 9.82979L14.7665 9.12165L14.2518 8.60128H14.2849L14.1446 8.52171L13.4555 8.87014L13.703 8.162L13.408 7.86381L13.416 7.89581L12.8018 7.54738L12.1127 7.89581L12.3601 7.18767L11.8473 6.66919L11.8389 6.67661L12.0143 7.38475Z" fill="#F7FCFF"/>
<path fill-rule="evenodd" clip-rule="evenodd" d="M9.89557 6.58422L9.28139 6.93264L9.4568 6.2245L8.86847 5.70413H9.63692L9.89465 5.03401L10.1969 5.70413H10.8519L10.3372 6.2245L10.5847 6.93264L9.89557 6.58422Z" fill="#F7FCFF"/>
</g>
</g>
<defs>
<clipPath id="clip0_3124_1462">
<rect width="20" height="15" rx="2" fill="white"/>
</clipPath>
</defs>
</svg>
