<?xml version="1.0" encoding="UTF-8" standalone="no"?>
<!DOCTYPE svg PUBLIC "-//W3C//DTD SVG 1.1//EN" "http://www.w3.org/Graphics/SVG/1.1/DTD/svg11.dtd">
<svg width="100%" height="100%" viewBox="0 0 26 26" version="1.1" xmlns="http://www.w3.org/2000/svg" xmlns:xlink="http://www.w3.org/1999/xlink" xml:space="preserve" xmlns:serif="http://www.serif.com/" style="fill-rule:evenodd;clip-rule:evenodd;stroke-linecap:round;">
    <g transform="matrix(1,0,0,1,0.579227,0.0344828)">
        <g>
            <g transform="matrix(0.0403238,0,0,0.0403238,1.33353,1.87052)">
                <path d="M263.462,151.945C266.407,148.912 270.433,147.168 274.66,147.094C276.801,147.056 278.927,147.449 280.913,148.248C282.899,149.047 284.705,150.236 286.223,151.745C287.741,153.255 288.941,155.054 289.752,157.035C290.562,159.017 290.967,161.141 290.941,163.281L290.941,176.781C316.753,181.656 338.91,198.276 338.91,227.063C338.91,231.31 337.223,235.384 334.219,238.387C331.216,241.391 327.142,243.078 322.895,243.078C318.647,243.078 314.573,241.391 311.57,238.387C308.566,235.384 306.879,231.31 306.879,227.063C306.879,200.396 243.004,200.396 243.004,227.063C243.004,239.063 245.832,242.918 251.723,247.5C257.614,252.082 267.973,255.875 279.973,259.875C291.973,263.875 305.645,268.082 317.754,277.5C329.863,286.918 338.91,303.094 338.91,323.094C338.91,351.906 316.761,368.571 290.941,373.438L290.941,386.844C290.989,388.975 290.61,391.094 289.827,393.076C289.044,395.059 287.873,396.865 286.383,398.389C284.892,399.913 283.112,401.124 281.148,401.95C279.183,402.777 277.073,403.203 274.941,403.203C272.81,403.203 270.7,402.777 268.735,401.95C266.77,401.124 264.991,399.913 263.5,398.389C262.01,396.865 260.839,395.059 260.056,393.076C259.273,391.094 258.894,388.975 258.941,386.844L258.941,373.438C233.127,368.569 211.004,351.902 211.004,323.094C210.957,320.963 211.336,318.844 212.118,316.861C212.901,314.879 214.072,313.072 215.563,311.549C217.053,310.025 218.833,308.814 220.798,307.987C222.762,307.161 224.872,306.735 227.004,306.735C229.135,306.735 231.246,307.161 233.21,307.987C235.175,308.814 236.955,310.025 238.445,311.549C239.936,313.072 241.107,314.879 241.889,316.861C242.672,318.844 243.051,320.963 243.004,323.094C243.004,349.76 306.879,349.76 306.879,323.094C306.879,311.094 304.051,307.238 298.16,302.656C292.269,298.074 281.91,294.25 269.91,290.25C257.91,286.25 244.238,282.074 232.129,272.656C220.02,263.238 211.004,247.062 211.004,227.063C211.004,198.232 233.107,181.596 258.941,176.75L258.941,163.281C258.892,159.054 260.517,154.979 263.462,151.945Z" style="fill:rgb(48,64,80);fill-rule:nonzero;"/>
            </g>
            <g transform="matrix(0.0372214,0,0,0.0372214,2.35031,2.72962)">
                <path d="M449.071,375.5C393.567,471.637 270.637,504.576 174.5,449.071C78.363,393.566 45.424,270.637 100.929,174.5C156.434,78.363 279.363,45.424 375.5,100.929C439.931,138.128 475.975,205.612 476.034,275.019" style="fill:none;fill-rule:nonzero;stroke:rgb(48,64,80);stroke-width:40.3px;"/>
            </g>
            <g transform="matrix(0.0370871,-0.00315998,0.00315998,0.0370871,1.56614,4.26665)">
                <path d="M429.109,248.075L472.317,288.635L520.877,253.426" style="fill:none;fill-rule:nonzero;stroke:rgb(48,64,80);stroke-width:40.3px;stroke-linejoin:round;"/>
            </g>
        </g>
    </g>
</svg>
