<?xml version="1.0" encoding="UTF-8" standalone="no"?>
<!DOCTYPE svg PUBLIC "-//W3C//DTD SVG 1.1//EN" "http://www.w3.org/Graphics/SVG/1.1/DTD/svg11.dtd">
<svg width="100%" height="100%" viewBox="0 0 26 26" version="1.1" xmlns="http://www.w3.org/2000/svg" xmlns:xlink="http://www.w3.org/1999/xlink" xml:space="preserve" xmlns:serif="http://www.serif.com/" style="fill-rule:evenodd;clip-rule:evenodd;stroke-linejoin:round;stroke-miterlimit:2;">
    <path d="M13,2.864L21.8,4.793L21.8,13.6C21.8,16.084 20.356,18.596 17.881,20.081L13,23.057L8.101,20.069L8.083,20.058C5.614,18.453 4.2,16.068 4.2,13.6L4.2,4.793L13,2.864ZM5.7,6L5.7,13.6C5.7,15.6 6.9,17.5 8.9,18.8L13,21.3L17.1,18.8C19.1,17.6 20.3,15.6 20.3,13.6L20.3,6L13,4.4L5.7,6Z" style="fill:rgb(48,64,80);"/>
    <path d="M16.5,11.6L13.1,11.6L13.1,13L15.1,13C15.1,13.3 14.8,13.8 14.4,14.2C14.1,14.4 13.7,14.6 13.1,14.6C12.1,14.6 11.3,14 11,13.1C10.9,12.9 10.9,12.6 10.9,12.4C10.9,12.1 10.9,11.9 11,11.7C11.3,10.8 12.1,10.2 13.1,10.2C13.8,10.2 14.2,10.5 14.5,10.7L15.5,9.7C14.9,9.1 14,8.8 13.1,8.8C11.7,8.8 10.4,9.6 9.8,10.8C9.6,11.3 9.4,11.9 9.4,12.4C9.4,12.9 9.5,13.5 9.8,14C10.4,15.2 11.6,16 13.1,16C14.1,16 14.9,15.7 15.5,15.1C16.2,14.5 16.6,13.5 16.6,12.4C16.6,12 16.6,11.8 16.5,11.6Z" style="fill:rgb(48,64,80);fill-rule:nonzero;"/>
</svg>
