<svg width="382" height="194" viewBox="0 0 382 194" fill="none" xmlns="http://www.w3.org/2000/svg">
<path d="M257.416 67.0212C251.341 67.0212 245.493 68.0383 240.011 69.862C241.164 65.3728 241.844 60.7084 241.844 55.851C241.844 25.0058 216.95 0 186.243 0C155.536 0 130.625 25.0058 130.625 55.851C130.625 61.3747 131.463 66.7056 132.946 71.7558C126.103 68.7222 118.562 67.0212 110.601 67.0212C79.894 67.0212 55 96.1654 55 127.011C55 157.856 79.894 187 110.601 187H257.399C288.106 187 313 157.873 313 127.011C313 96.1479 288.106 67.0212 257.399 67.0212H257.416Z" fill="url(#paint0_linear_2751_9)"/>
<path d="M257.416 67.0212C251.341 67.0212 245.493 68.0383 240.011 69.862C241.164 65.3728 241.844 60.7084 241.844 55.851C241.844 25.0058 216.95 0 186.243 0C155.536 0 130.625 25.0058 130.625 55.851C130.625 61.3747 131.463 66.7056 132.946 71.7558C126.103 68.7222 118.562 67.0212 110.601 67.0212C79.894 67.0212 55 96.1654 55 127.011C55 157.856 79.894 187 110.601 187H257.399C288.106 187 313 157.873 313 127.011C313 96.1479 288.106 67.0212 257.399 67.0212H257.416Z" fill="url(#paint1_linear_2751_9)"/>
<circle cx="344.95" cy="131.95" r="1.95" fill="#E6B866"/>
<circle cx="356.65" cy="131.95" r="1.95" fill="#E6B866"/>
<circle cx="368.35" cy="131.95" r="1.95" fill="#E6B866"/>
<circle cx="380.05" cy="131.95" r="1.95" fill="#E6B866"/>
<circle cx="344.95" cy="151.85" r="1.95" fill="#E6B866"/>
<circle cx="356.65" cy="151.85" r="1.95" fill="#E6B866"/>
<circle cx="368.35" cy="151.85" r="1.95" fill="#E6B866"/>
<circle cx="380.05" cy="151.85" r="1.95" fill="#E6B866"/>
<circle cx="344.95" cy="171.75" r="1.95" fill="#E6B866"/>
<circle cx="356.65" cy="171.75" r="1.95" fill="#E6B866"/>
<circle cx="368.35" cy="171.75" r="1.95" fill="#E6B866"/>
<circle cx="380.05" cy="171.75" r="1.95" fill="#E6B866"/>
<circle cx="344.95" cy="191.65" r="1.95" fill="#E6B866"/>
<circle cx="356.65" cy="191.65" r="1.95" fill="#E6B866"/>
<circle cx="368.35" cy="191.65" r="1.95" fill="#E6B866"/>
<circle cx="380.05" cy="191.65" r="1.95" fill="#E6B866"/>
<path d="M0 73C5.50233 73 5.50233 80.0443 10.9941 80.0443C16.4859 80.0443 16.4964 73 21.9882 73C27.48 73 27.4905 80.0443 32.9823 80.0443C38.4741 80.0443 38.4846 73 43.987 73" stroke="#46D98D" stroke-width="5.17494" stroke-linejoin="round"/>
<defs>
<linearGradient id="paint0_linear_2751_9" x1="184" y1="0" x2="184" y2="187" gradientUnits="userSpaceOnUse">
<stop stop-color="#EBE2D3"/>
<stop offset="1" stop-color="#FAF4E9"/>
</linearGradient>
<linearGradient id="paint1_linear_2751_9" x1="184" y1="0" x2="184" y2="187" gradientUnits="userSpaceOnUse">
<stop stop-color="white"/>
<stop offset="1" stop-color="#FAF4E9"/>
</linearGradient>
</defs>
</svg>
