<?xml version="1.0" encoding="UTF-8"?><svg id="a" xmlns="http://www.w3.org/2000/svg" viewBox="0 0 26 26"><defs><style>.b{fill:none;stroke:#C4D6FF;stroke-linecap:round;stroke-linejoin:round;stroke-width:1.5px;}</style></defs><path class="b" d="m11.4,14.5h-5.01c-.39.02-.72-.25-.75-.6,0,0,0,0,0,0v-7.29c.02-.35.36-.62.74-.6,0,0,0,0,0,0h5.01c.39-.02.72.25.75.6,0,0,0,0,0,0v7.29c-.02.35-.36.62-.74.6,0,0,0,0,0,0Z"/><path class="b" d="m20.9,14.5h-5.01c-.39.02-.72-.25-.75-.61,0,0,0,0,0,0v-7.28c.02-.36.36-.63.74-.61,0,0,0,0,0,0h5.01c.39-.02.72.25.75.61,0,0,0,0,0,0v7.28c-.02.36-.36.63-.74.61,0,0,0,0,0,0Z"/><line class="b" x1="5.65" y1="17.62" x2="12.15" y2="17.62"/><line class="b" x1="5.65" y1="20" x2="9.65" y2="20"/><line class="b" x1="15.15" y1="17.62" x2="21.65" y2="17.62"/><line class="b" x1="15.15" y1="20" x2="19.15" y2="20"/></svg>