<?xml version="1.0" encoding="UTF-8"?><svg id="a" xmlns="http://www.w3.org/2000/svg" viewBox="0 0 26 26"><defs><style>.b{fill:none;stroke:#C4D6FF;stroke-linecap:round;stroke-linejoin:round;stroke-width:1.5px;}</style></defs><line class="b" x1="4.35" y1="13.14" x2="20.35" y2="13.14"/><path class="b" d="m8.35,9.72h-3.03c-.38.02-.71-.2-.74-.49,0,0,0,0,0,0v-3.02c.02-.29.35-.5.73-.49,0,0,0,0,0,0h3.03c.38-.02.71.2.74.49,0,0,0,0,0,0v3.02c-.02.29-.35.5-.73.49,0,0,0,0,0,0Z"/><line class="b" x1="12" y1="7.72" x2="16.5" y2="7.72"/><line class="b" x1="19.32" y1="7.72" x2="20.82" y2="7.72"/><path class="b" d="m8.4,20.28h-2.98c-.39.02-.73-.2-.76-.49,0,0,0,0,0,0v-3.02c.02-.29.36-.5.76-.49,0,0,0,0,0,0h2.98c.39-.02.73.2.76.49,0,0,0,0,0,0v3.02c-.02.29-.36.5-.76.49,0,0,0,0,0,0Z"/><line class="b" x1="12" y1="18.28" x2="16.5" y2="18.28"/><line class="b" x1="19.39" y1="18.28" x2="20.89" y2="18.28"/></svg>