<?xml version="1.0" encoding="utf-8"?>
<!-- Generator: Adobe Illustrator 28.1.0, SVG Export Plug-In . SVG Version: 6.00 Build 0)  -->
<svg version="1.1" id="th_color" xmlns="http://www.w3.org/2000/svg" xmlns:xlink="http://www.w3.org/1999/xlink" x="0px" y="0px"
	 viewBox="0 0 26 26" style="enable-background:new 0 0 26 26;" xml:space="preserve">
<style type="text/css">
	.st0{fill:none;stroke:#C4D6FF;stroke-linecap:round;stroke-linejoin:round;}
</style>
<g>
	<g>
		<circle class="st0" cx="6" cy="13" r="3.7"/>
		<line class="st0" x1="5.9" y1="14.1" x2="7.1" y2="11.9"/>
		<line class="st0" x1="5.9" y1="14.2" x2="5" y2="13.2"/>
	</g>
	<path class="st0" d="M20.6,14.5c0.3,0.6,0.9,1.1,1.6,1c0.8,0,1.5-0.5,1.5-1.4l0,0c0-0.9-0.8-1.4-1.8-1.4l1.5-2.2h-2.6"/>
	<path class="st0" d="M16.4,15.5h-3l2.2-2.2c0.2-0.2,0.5-0.5,0.6-0.8c0.1-0.2,0.1-0.5,0.1-0.6c0-0.4-0.1-0.6-0.4-0.9
		c-0.2-0.2-0.6-0.4-1.1-0.4c-0.2,0-0.6,0-0.9,0.1c-0.2,0.1-0.6,0.4-0.8,0.6"/>
</g>
</svg>
