<?xml version="1.0" encoding="utf-8"?>
<!-- Generator: Adobe Illustrator 28.1.0, SVG Export Plug-In . SVG Version: 6.00 Build 0)  -->
<svg version="1.1" id="a" xmlns="http://www.w3.org/2000/svg" xmlns:xlink="http://www.w3.org/1999/xlink" x="0px" y="0px"
	 viewBox="0 0 26 26" style="enable-background:new 0 0 26 26;" xml:space="preserve">
<style type="text/css">
	.st0{fill:none;stroke:#C4D6FF;stroke-width:1.5;stroke-linecap:round;stroke-linejoin:round;}
	.st1{fill:#C4D6FF;}
</style>
<g>
	<line class="st0" x1="12.1" y1="13.9" x2="18.4" y2="13.9"/>
	<line class="st0" x1="12.1" y1="11" x2="17.1" y2="11"/>
	<line class="st0" x1="12.1" y1="16.7" x2="16.2" y2="16.7"/>
	<circle class="st1" cx="8.6" cy="11" r="1"/>
	<circle class="st1" cx="8.6" cy="13.9" r="1"/>
	<circle class="st1" cx="8.6" cy="16.7" r="1"/>
</g>
<path class="st0" d="M5.8,6.5h14.4c0.4,0,0.8,0.3,0.8,0.7v12.6c0,0.3-0.4,0.7-0.8,0.7H5.8c-0.4,0-0.8-0.4-0.8-0.7V7.2
	C5,6.8,5.4,6.5,5.8,6.5z"/>
<line class="st0" x1="9.8" y1="5.2" x2="9.8" y2="7.7"/>
<line class="st0" x1="16.2" y1="5.2" x2="16.2" y2="7.7"/>
</svg>
