<?xml version="1.0" encoding="utf-8"?>
<!-- Generator: Adobe Illustrator 28.1.0, SVG Export Plug-In . SVG Version: 6.00 Build 0)  -->
<svg version="1.1" id="Layer_1" xmlns="http://www.w3.org/2000/svg" xmlns:xlink="http://www.w3.org/1999/xlink" x="0px" y="0px"
	 viewBox="0 0 24 24" style="enable-background:new 0 0 24 24;" xml:space="preserve">
<style type="text/css">
	.st0{fill:#ffffff;}
</style>
<g>
	<g>
		<path class="st0" d="M5.8,19.9c-0.1,0-0.2,0-0.3-0.1c-0.1,0-0.2-0.1-0.3-0.1c0,0-0.1,0-0.1-0.1c-0.1,0-0.1-0.1-0.2-0.1
			c-0.1,0-0.1-0.1-0.2-0.1c0,0-0.1-0.1-0.1-0.1c-0.1-0.1-0.2-0.1-0.2-0.2C4.2,19,4.1,18.9,4,18.7c0-0.1-0.1-0.1-0.1-0.1
			c-0.1-0.1-0.1-0.2-0.2-0.3c-0.2-0.4-0.4-0.9-0.4-1.4V8.2c0-0.5,0.1-1,0.4-1.4c0-0.1,0.1-0.2,0.2-0.3c0.3-0.4,0.6-0.7,1.1-1
			c0.4-0.2,0.9-0.4,1.4-0.4H14l0.3-0.8H6.4c-2.1,0-3.9,1.7-3.9,3.9v8.7c0,2.1,1.7,3.9,3.9,3.9h0.5v-0.8H6.4
			C6.2,19.9,6,19.9,5.8,19.9z M18.9,4.6L18.9,4.6l-0.3,0.7l0.1,0c0.1,0.1,0.3,0.1,0.4,0.2c0.4,0.2,0.8,0.6,1.1,1
			c0.1,0.1,0.1,0.2,0.2,0.3c0.2,0.4,0.4,0.9,0.4,1.4v11.8h-7.7l0,0c-0.1,0.2-0.3,0.5-0.4,0.7l-0.1,0.1h9V8.2
			C21.4,6.6,20.4,5.1,18.9,4.6L18.9,4.6z"/>
	</g>
	<path class="st0" d="M16.1,1.9l-4.3,11.9L9.6,7.2H7l3.2,8.3c0.3,0.8,0.3,1.6,0,2.4c-0.3,0.8-0.9,1.8-2.4,2l-0.1,0v2.2l0.1,0
		c1.3-0.1,2.3-0.5,3.2-1.3c0.9-0.9,1.6-2.2,2.4-4.3L18.8,2l0-0.1H16.1L16.1,1.9z"/>
</g>
</svg>
