<?xml version="1.0" encoding="utf-8"?>
<!-- Generator: Adobe Illustrator 28.1.0, SVG Export Plug-In . SVG Version: 6.00 Build 0)  -->
<svg version="1.1" id="Layer_1" xmlns="http://www.w3.org/2000/svg" xmlns:xlink="http://www.w3.org/1999/xlink" x="0px" y="0px"
	 viewBox="0 0 150 120" style="enable-background:new 0 0 150 120;" xml:space="preserve">
<style type="text/css">
	.st0{opacity:0.7;fill:#7D818E;enable-background:new    ;}
</style>
<path class="st0" d="M13,10h54.7c1.7,0,3,1.3,3,3v24c0,1.7-1.3,3-3,3H13c-1.7,0-3-1.3-3-3V13C10,11.3,11.3,10,13,10z"/>
<path class="st0" d="M82.3,10H137c1.7,0,3,1.3,3,3v24c0,1.7-1.3,3-3,3H82.3c-1.7,0-3-1.3-3-3V13C79.3,11.3,80.7,10,82.3,10z"/>
<path class="st0" d="M13,65h54.7c1.7,0,3,1.3,3,3v24c0,1.7-1.3,3-3,3H13c-1.7,0-3-1.3-3-3V68C10,66.3,11.3,65,13,65z"/>
<path class="st0" d="M82.3,65H137c1.7,0,3,1.3,3,3v24c0,1.7-1.3,3-3,3H82.3c-1.7,0-3-1.3-3-3V68C79.3,66.3,80.7,65,82.3,65z"/>
<path class="st0" d="M11.5,100h46.3c0.8,0,1.5,0.7,1.5,1.5l0,0c0,0.8-0.7,1.5-1.5,1.5H11.5c-0.8,0-1.5-0.7-1.5-1.5l0,0
	C10,100.7,10.7,100,11.5,100z"/>
<path class="st0" d="M11.5,107h35.8c0.8,0,1.5,0.7,1.5,1.5l0,0c0,0.8-0.7,1.5-1.5,1.5H11.5c-0.8,0-1.5-0.7-1.5-1.5l0,0
	C10,107.7,10.7,107,11.5,107z"/>
<path class="st0" d="M80.8,100h46.3c0.8,0,1.5,0.7,1.5,1.5l0,0c0,0.8-0.7,1.5-1.5,1.5H80.8c-0.8,0-1.5-0.7-1.5-1.5l0,0
	C79.3,100.7,80,100,80.8,100z"/>
<path class="st0" d="M80.8,107h35.8c0.8,0,1.5,0.7,1.5,1.5l0,0c0,0.8-0.7,1.5-1.5,1.5H80.8c-0.8,0-1.5-0.7-1.5-1.5l0,0
	C79.3,107.7,80,107,80.8,107z"/>
<path class="st0" d="M11.5,45h46.3c0.8,0,1.5,0.7,1.5,1.5l0,0c0,0.8-0.7,1.5-1.5,1.5H11.5c-0.8,0-1.5-0.7-1.5-1.5l0,0
	C10,45.7,10.7,45,11.5,45z"/>
<path class="st0" d="M11.5,52h35.8c0.8,0,1.5,0.7,1.5,1.5l0,0c0,0.8-0.7,1.5-1.5,1.5H11.5c-0.8,0-1.5-0.7-1.5-1.5l0,0
	C10,52.7,10.7,52,11.5,52z"/>
<path class="st0" d="M80.8,45h46.3c0.8,0,1.5,0.7,1.5,1.5l0,0c0,0.8-0.7,1.5-1.5,1.5H80.8c-0.8,0-1.5-0.7-1.5-1.5l0,0
	C79.3,45.7,80,45,80.8,45z"/>
<path class="st0" d="M80.8,52h35.8c0.8,0,1.5,0.7,1.5,1.5l0,0c0,0.8-0.7,1.5-1.5,1.5H80.8c-0.8,0-1.5-0.7-1.5-1.5l0,0
	C79.3,52.7,80,52,80.8,52z"/>
</svg>
