<?xml version="1.0" encoding="utf-8"?>
<!-- Generator: Adobe Illustrator 28.1.0, SVG Export Plug-In . SVG Version: 6.00 Build 0)  -->
<svg version="1.1" id="Layer_1" xmlns="http://www.w3.org/2000/svg" xmlns:xlink="http://www.w3.org/1999/xlink" x="0px" y="0px"
	 viewBox="0 0 150 50" style="enable-background:new 0 0 150 50;" xml:space="preserve">
<style type="text/css">
	.st0{fill:#72A5D8;}
	.st1{fill:#FFFFFF;}
</style>
<path id="button" class="st0" d="M5,0h140c2.8,0,5,2.2,5,5v40c0,2.8-2.2,5-5,5H5c-2.8,0-5-2.2-5-5V5C0,2.2,2.2,0,5,0z"/>
<path class="st1" d="M66.9,29.5V18.7h3.7c0.6,0,1.2,0.1,1.8,0.2c0.4,0.1,0.9,0.3,1.2,0.6c0.3,0.2,0.6,0.5,0.7,0.9
	c0.2,0.4,0.2,0.8,0.2,1.2c0,0.3,0,0.5-0.1,0.7c-0.1,0.2-0.2,0.5-0.3,0.6c-0.2,0.2-0.4,0.4-0.6,0.5c-0.3,0.2-0.6,0.3-0.9,0.4
	c1.5,0.3,2.2,1.1,2.2,2.4c0,0.4-0.1,0.9-0.3,1.3c-0.2,0.4-0.4,0.7-0.8,1c-0.4,0.3-0.8,0.5-1.2,0.7c-0.5,0.2-1.1,0.2-1.7,0.2
	L66.9,29.5z M68.9,23.4h1.6c0.6,0,1.1-0.1,1.6-0.4c0.4-0.3,0.6-0.7,0.5-1.2c0-0.5-0.1-0.9-0.5-1.2c-0.4-0.3-1-0.4-1.5-0.4h-1.7
	L68.9,23.4z M68.9,24.8V28h2c0.3,0,0.6,0,0.9-0.1c0.2-0.1,0.4-0.2,0.6-0.4c0.1-0.1,0.3-0.3,0.3-0.5c0.1-0.2,0.1-0.4,0.1-0.6
	c0-0.2,0-0.4-0.1-0.6c-0.1-0.2-0.2-0.4-0.3-0.5c-0.2-0.1-0.4-0.3-0.6-0.3c-0.3-0.1-0.6-0.1-0.9-0.1L68.9,24.8z"/>
<path class="st1" d="M78.3,21.8v4.9c0,0.4,0.1,0.8,0.3,1.1c0.3,0.3,0.6,0.4,1,0.4c0.3,0,0.6-0.1,0.9-0.2c0.3-0.2,0.6-0.4,0.8-0.6
	v-5.6h1.8v7.7H82c-0.2,0-0.4-0.1-0.5-0.3l-0.1-0.6c-0.2,0.2-0.3,0.3-0.5,0.4c-0.2,0.1-0.4,0.2-0.5,0.3c-0.2,0.1-0.4,0.2-0.6,0.2
	c-0.2,0.1-0.5,0.1-0.7,0.1c-0.4,0-0.8-0.1-1.1-0.2c-0.3-0.1-0.6-0.3-0.8-0.6c-0.2-0.3-0.4-0.6-0.5-0.9c-0.1-0.4-0.2-0.8-0.2-1.2
	v-4.9H78.3z"/>
<path class="st1" d="M87.6,29.6c-0.6,0-1.1-0.2-1.5-0.6c-0.4-0.4-0.6-1-0.5-1.6v-4.3h-0.8c-0.1,0-0.2,0-0.3-0.1
	c-0.1-0.1-0.1-0.2-0.1-0.3v-0.7l1.2-0.2l0.4-2.1c0-0.1,0.1-0.2,0.1-0.2c0.1-0.1,0.2-0.1,0.3-0.1h1v2.4h2v1.3h-2v4.2
	c0,0.2,0.1,0.4,0.2,0.6c0.1,0.1,0.3,0.2,0.5,0.2c0.1,0,0.2,0,0.3,0l0.2-0.1l0.2-0.1c0,0,0.1,0,0.1,0c0.1,0,0.1,0,0.2,0.1
	c0,0,0.1,0.1,0.1,0.1l0.6,0.9c-0.3,0.2-0.6,0.4-0.9,0.5C88.4,29.6,88,29.7,87.6,29.6z"/>
<path class="st1" d="M93.4,29.6c-0.6,0-1.1-0.2-1.5-0.6c-0.4-0.4-0.6-1-0.5-1.6v-4.3h-0.8c-0.1,0-0.2,0-0.2-0.1
	c-0.1-0.1-0.1-0.2-0.1-0.3v-0.7l1.2-0.2l0.4-2.1c0-0.1,0.1-0.2,0.1-0.2c0.1-0.1,0.2-0.1,0.3-0.1h1v2.4h2v1.3h-2v4.2
	c0,0.2,0.1,0.4,0.2,0.6c0.1,0.1,0.3,0.2,0.5,0.2c0.1,0,0.2,0,0.3,0l0.2-0.1l0.2-0.1c0,0,0.1,0,0.1,0c0,0,0.1,0,0.1,0
	c0,0,0.1,0.1,0.1,0.1l0.6,0.9c-0.3,0.2-0.6,0.4-0.9,0.5C94.2,29.6,93.8,29.7,93.4,29.6z"/>
<path class="st1" d="M100,21.7c0.5,0,1.1,0.1,1.6,0.3c0.4,0.2,0.9,0.4,1.2,0.8c0.3,0.4,0.6,0.8,0.8,1.2c0.2,0.5,0.3,1.1,0.3,1.6
	c0,0.6-0.1,1.1-0.3,1.6c-0.2,0.5-0.4,0.9-0.8,1.2c-0.3,0.4-0.7,0.6-1.2,0.8c-1,0.4-2.1,0.4-3.1,0c-0.5-0.2-0.9-0.5-1.2-0.8
	c-0.3-0.4-0.6-0.8-0.8-1.2c-0.2-0.5-0.3-1.1-0.3-1.6c0-0.6,0.1-1.1,0.3-1.7c0.2-0.5,0.4-0.9,0.8-1.2c0.3-0.3,0.8-0.6,1.2-0.8
	C98.9,21.8,99.5,21.7,100,21.7z M100,28.2c0.6,0,1.1-0.2,1.4-0.6c0.3-0.6,0.5-1.2,0.5-1.9c0-0.7-0.1-1.3-0.5-1.9
	c-0.3-0.5-0.9-0.7-1.4-0.7c-0.6,0-1.1,0.2-1.4,0.7c-0.3,0.6-0.5,1.2-0.5,1.9c0,0.7,0.1,1.3,0.5,1.9C98.9,28,99.4,28.3,100,28.2z"/>
<path class="st1" d="M105.2,29.5v-7.7h1.1c0.2,0,0.4,0.1,0.5,0.3l0.1,0.6c0.2-0.2,0.3-0.3,0.5-0.4c0.2-0.1,0.3-0.3,0.5-0.4
	c0.2-0.1,0.4-0.2,0.6-0.2c0.2,0,0.5-0.1,0.7-0.1c0.4,0,0.8,0.1,1.1,0.2c0.3,0.1,0.6,0.3,0.8,0.6c0.2,0.3,0.4,0.6,0.5,0.9
	c0.1,0.4,0.2,0.8,0.2,1.2v4.9h-1.8v-4.9c0-0.4-0.1-0.8-0.3-1.1c-0.3-0.3-0.6-0.4-1-0.4c-0.3,0-0.6,0.1-0.9,0.2
	c-0.3,0.2-0.6,0.4-0.8,0.6v5.6L105.2,29.5z"/>
<polygon class="st1" points="40.5,23.5 37.5,23.5 37.5,25.5 40.5,25.5 40.5,28.5 45.5,24.5 40.5,20.5 "/>
<path class="st1" d="M41,15c-5.5,0-10,4.5-10,10s4.5,10,10,10s10-4.5,10-10S46.5,15,41,15z M41,33c-4.4,0-8-3.6-8-8s3.6-8,8-8
	s8,3.6,8,8S45.4,33,41,33z"/>
</svg>
